<svg width="313" height="362" viewBox="0 0 313 362" fill="none" xmlns="http://www.w3.org/2000/svg">
<path d="M115.528 201.159L102.938 214.089L90.0978 222.089L74.6478 229.569C74.6478 229.569 62.5778 232.929 62.5378 233.589C62.4978 234.249 54.2378 234.669 54.2378 234.669C54.2378 234.669 58.6378 226.689 59.0378 226.789C59.4478 226.899 115.528 201.159 115.528 201.159Z" fill="white"/>
<path d="M17.4276 264.519C17.4776 264.509 17.4876 264.539 17.4876 264.559C17.4476 264.549 17.3976 264.529 17.4276 264.519Z" fill="black"/>
<path d="M44.0078 321.359C44.0278 321.339 44.0378 321.319 44.0478 321.289C44.0478 321.309 44.0878 321.349 44.0778 321.369C44.0778 321.389 44.0278 321.349 44.0078 321.359Z" fill="black"/>
<path d="M49.6176 322.339C49.6376 322.329 49.6976 322.319 49.7276 322.289C49.7176 322.309 49.7076 322.329 49.6976 322.349C49.6876 322.349 49.6076 322.349 49.6176 322.339Z" fill="black"/>
<path d="M194.848 286.129C194.868 286.099 194.998 286.179 195.088 286.179C194.988 286.249 194.918 286.339 194.878 286.339C194.818 286.339 194.818 286.169 194.848 286.129Z" fill="black"/>
<path d="M97.6576 182.948C97.6476 182.948 97.7276 182.988 97.8076 183.018C97.7276 182.998 97.6676 182.948 97.6576 182.948Z" fill="black"/>
<path d="M131.248 121.719C124.308 127.669 117.498 133.729 110.408 139.529C107.548 141.869 104.228 143.599 101.108 145.609C101.118 145.379 100.478 145.219 100.598 144.989C101.228 143.779 101.848 142.439 102.698 141.279C116.468 122.559 131.198 106.179 150.198 92.5285C160.858 84.8685 172.388 81.1585 185.448 80.0785C187.598 79.8985 189.818 80.1085 191.958 79.7585C182.928 75.1485 174.708 76.2085 165.028 77.9985C172.078 71.3885 179.118 64.8185 186.178 58.1885C185.958 58.1485 185.998 57.5285 185.728 57.5885C183.848 58.0285 181.848 58.7285 179.938 59.2485C187.848 45.5185 197.018 34.0985 209.428 24.1785C209.298 24.0185 209.178 23.8685 209.048 23.7085C205.878 24.6385 201.398 24.1385 199.748 27.4485C199.718 27.4985 199.728 27.4985 199.788 27.4885C202.448 26.9685 202.998 23.8485 205.018 22.4385C225.668 8.06853 245.878 2.33853 270.988 4.24853C279.158 4.86853 286.268 7.67853 293.578 11.3085C297.158 13.0785 299.788 15.8085 301.168 19.6185C300.068 18.4285 298.958 17.1485 297.868 15.9385C297.908 16.5785 298.148 17.4885 298.088 18.0785C298.028 18.6685 298.408 19.6385 297.798 19.9785C297.188 20.3085 296.218 20.1985 295.468 19.9485C294.718 19.6985 294.108 18.9285 293.418 18.4785C290.288 16.4285 287.228 16.2085 284.608 19.1985C281.988 22.1785 281.118 25.6785 281.298 29.5985C281.358 31.0385 282.358 32.5185 282.918 33.6885C283.008 33.8885 283.488 33.8285 283.628 33.6385C284.108 32.9585 284.238 32.2285 284.748 31.2985C287.058 27.0085 290.218 25.0485 295.288 26.6785C297.418 27.3685 299.868 27.9785 302.098 26.6785C302.638 27.4285 303.118 28.1285 303.648 28.8585C300.668 29.1385 299.128 30.6485 297.108 32.7285C295.088 34.8085 293.058 36.0885 290.078 35.9285C284.778 35.6385 281.368 37.6485 278.238 41.8185C276.788 43.7585 276.068 45.9885 274.918 48.0885C260.028 51.8785 257.908 65.3085 263.978 77.9385C259.058 76.4085 256.618 73.1185 253.708 69.0785C253.668 73.4085 255.478 76.3985 258.168 79.6685C253.318 78.8485 249.448 76.7585 245.378 74.0785C246.948 77.8885 249.358 80.3485 252.608 82.8085C250.208 83.1285 247.818 83.4485 245.418 83.7685C247.678 87.4085 250.998 87.9285 254.858 89.0585C252.738 89.9985 250.318 90.8985 248.318 91.8685C248.108 91.9685 248.108 92.4685 248.318 92.5285C250.388 93.1485 252.868 93.6285 255.068 94.1985C252.898 97.2185 249.938 97.5585 246.598 98.6785C248.628 102.959 253.278 101.049 256.808 99.7385C256.208 105.369 256.148 111.109 255.398 116.729C253.438 131.539 250.348 145.609 243.618 159.059C234.788 176.669 222.548 190.439 207.448 202.909C200.558 208.599 192.948 212.969 185.678 218.169C184.868 218.749 183.568 219.329 182.668 219.859C184.998 211.529 186.458 203.579 185.708 194.909C185.488 194.859 185.258 194.809 185.038 194.759C184.348 197.389 183.658 200.019 182.968 202.639C182.508 201.189 182.138 199.589 181.638 198.199C181.568 198.009 181.188 198.319 181.068 198.199C180.468 203.259 179.888 208.269 179.288 213.309C179.068 213.289 178.838 213.289 178.618 213.269C178.248 210.759 177.938 208.029 177.528 205.619C177.498 205.429 176.998 205.399 176.958 205.579C176.568 207.619 176.288 209.879 175.958 212.059C174.688 220.429 173.118 228.629 169.878 236.509C168.998 238.639 167.708 240.709 166.188 242.399C164.088 244.739 161.918 245.029 159.338 242.959C156.758 240.889 155.128 238.289 154.318 234.799C153.508 231.309 153.118 227.049 152.578 223.339C152.448 222.429 152.398 221.349 152.088 220.459C150.118 224.999 149.508 229.529 149.348 234.449C146.768 228.729 147.368 223.039 147.138 216.919C144.658 220.399 144.348 224.119 143.818 228.249C139.078 227.969 135.108 229.939 130.728 231.339C128.248 232.129 125.858 232.799 123.328 233.159C122.218 233.319 120.648 232.889 120.048 231.999C119.448 231.109 120.278 229.709 120.948 228.939C124.418 224.989 127.858 220.979 131.898 217.429C134.258 215.349 137.518 214.569 140.278 212.969C156.908 203.349 172.738 193.249 186.268 179.399C199.038 166.329 208.358 151.729 213.898 134.269C216.808 125.109 218.208 115.669 215.738 106.249C212.248 92.8985 203.358 85.1285 189.148 85.0585C174.938 84.9885 163.638 91.7085 152.938 100.589C152.768 100.729 152.608 101.049 152.528 101.109C152.448 101.169 152.338 101.149 152.358 101.129C152.378 101.109 152.318 101.149 152.478 101.039C152.638 100.929 152.508 100.759 152.958 100.539C153.408 100.319 154.418 99.9885 155.098 99.5785C163.448 94.4785 172.018 90.6685 181.788 89.4385C186.388 88.8585 191.158 88.8285 195.428 90.3785C204.908 93.8285 209.808 101.109 211.008 110.639C212.218 120.169 210.148 128.489 206.998 137.089C200.878 153.829 190.868 166.779 178.348 179.129C170.408 186.959 161.368 192.879 152.168 198.999C165.938 184.679 177.738 170.959 184.498 152.019C183.558 153.369 182.688 154.639 181.738 156.019C180.788 157.389 179.858 158.829 178.888 160.239C169.818 173.519 159.708 185.019 147.018 194.979C143.918 197.409 140.168 198.819 136.718 200.759C136.368 200.949 135.718 200.879 135.328 200.709C136.158 199.909 137.008 199.149 137.858 198.359C150.068 187.009 160.198 174.839 168.488 160.359C168.508 160.329 168.438 160.269 168.428 160.279C168.418 160.279 168.488 160.389 168.448 160.419C167.868 160.869 167.138 161.249 166.648 161.819C158.518 171.279 150.408 180.449 140.778 188.419C137.458 191.169 133.728 193.309 130.088 195.699C129.058 196.369 127.668 196.579 126.428 196.689C126.758 196.309 127.098 195.919 127.458 195.559C137.858 185.259 147.398 174.619 155.608 162.469C156.278 161.479 156.498 160.189 156.958 159.139C156.998 159.049 157.158 159.179 157.118 159.169C157.078 159.159 157.028 159.049 156.958 159.129C155.178 161.269 153.578 163.599 151.638 165.659C142.098 175.739 132.318 185.009 120.668 192.679C117.868 194.529 114.568 195.599 111.438 196.789C123.238 185.769 134.318 174.479 143.938 161.469C142.968 162.359 142.008 163.249 141.048 164.139C131.948 172.539 122.898 180.719 112.568 187.639C108.928 190.079 104.988 191.919 100.908 193.679C98.9477 194.529 96.7377 194.619 94.4777 194.589C93.0577 194.569 91.2977 193.579 89.9277 193.079C90.5877 192.579 91.6777 191.819 92.2877 191.389C104.228 182.889 115.138 173.859 125.218 163.289C126.228 162.229 126.948 160.899 127.838 159.799C127.988 159.609 128.408 159.629 128.498 159.549C128.588 159.469 128.458 159.449 128.448 159.449C128.448 159.449 128.558 159.529 128.458 159.599C128.368 159.669 128.028 159.689 127.858 159.819C126.008 161.249 124.158 162.769 122.278 164.199C114.348 170.279 106.398 176.389 98.4577 182.439C98.2477 182.599 97.8677 182.859 97.9077 183.019C97.9477 183.179 97.9177 183.059 97.9277 183.049C98.6177 182.389 98.8777 181.329 99.5577 180.659C105.378 174.839 111.248 169.169 117.108 163.359C117.808 162.669 118.358 161.759 118.708 160.819C116.058 163.149 113.458 165.499 110.798 167.829C102.058 175.459 93.2377 182.699 83.3277 188.819C81.1077 190.189 78.7077 191.159 76.1677 191.969C73.6177 192.779 72.3277 191.259 72.9377 188.829C73.5477 186.399 74.3377 184.389 75.3977 182.269C77.3377 178.399 79.4977 174.799 81.6077 171.019C84.4277 173.179 87.5877 173.109 90.4577 171.439C95.6277 168.429 100.098 165.309 104.828 161.939C107.688 159.899 110.098 157.449 112.698 155.159C113.158 154.759 114.088 154.129 113.718 153.529C113.678 153.459 113.628 153.539 113.668 153.589C113.788 153.719 114.118 153.489 114.278 153.559C119.578 156.149 123.698 154.929 128.578 152.179C129.088 151.889 129.708 151.519 130.008 151.419C130.308 151.319 130.328 151.629 130.348 151.719C131.438 157.149 134.228 159.579 139.878 158.499C144.388 157.639 147.908 154.959 151.498 152.209C152.048 151.789 152.648 151.219 153.208 150.809C153.298 151.049 153.458 151.479 153.508 151.719C154.818 157.429 158.948 159.039 164.268 157.779C169.588 156.519 172.808 153.339 176.388 149.579C177.528 148.369 178.338 146.959 179.428 145.739C182.528 150.589 186.828 151.999 191.678 148.349C197.708 143.809 199.938 137.529 201.828 130.449C201.678 130.469 201.448 130.039 201.338 130.179C200.948 130.669 200.668 131.389 200.248 131.939C197.558 135.479 195.048 139.109 192.168 142.519C191.248 143.609 189.848 144.419 188.498 144.929C185.548 146.039 183.578 144.879 183.278 141.709C183.128 140.179 183.578 138.629 183.718 137.079C183.778 136.419 183.918 135.689 183.728 135.009C181.828 137.549 180.078 140.149 178.088 142.639C175.258 146.179 172.218 149.289 168.208 151.479C166.558 152.379 164.668 153.069 162.858 153.289C159.438 153.719 157.818 151.769 158.508 148.619C159.188 145.469 160.598 142.979 161.678 140.049C162.018 139.119 162.508 138.259 162.728 137.269C161.838 138.099 160.958 138.909 160.088 139.779C155.448 144.399 150.878 148.669 145.048 151.789C143.058 152.859 141.018 153.589 138.658 153.979C136.298 154.369 134.618 152.959 135.648 150.429C137.098 146.849 139.068 143.499 140.968 140.099C141.918 138.399 143.188 136.789 143.998 134.989C143.288 135.609 142.618 136.289 141.868 136.849C136.998 140.499 132.238 144.269 127.208 147.709C125.508 148.869 123.368 149.629 121.378 149.999C118.648 150.499 117.318 149.159 117.998 146.429C118.678 143.699 119.768 140.899 121.188 138.419C123.988 133.499 127.218 128.829 130.208 124.019C130.628 123.339 130.878 122.529 131.198 121.799C131.208 121.769 131.238 121.869 131.248 121.849C131.228 121.809 131.238 121.749 131.248 121.719ZM265.688 30.2885C265.938 26.9885 265.538 23.2385 262.918 20.9185C260.308 18.5985 256.928 18.5585 254.278 20.6785C251.628 22.7985 250.958 25.9385 252.618 28.9685C254.268 31.9885 257.328 33.1985 260.628 32.0385C262.248 31.4685 263.448 29.8885 264.878 29.1385C265.068 29.0285 265.458 30.2285 265.688 30.2885ZM278.128 17.9585C270.948 13.8285 262.458 11.5185 254.328 11.8985C249.538 12.1285 246.168 13.5585 242.488 16.1785C238.808 18.7885 235.588 21.7285 231.968 24.3985C231.898 24.4485 231.938 24.7785 231.938 24.8585C235.878 24.4785 239.118 23.2485 242.108 20.6685C248.018 15.5585 254.238 13.8185 261.848 14.6685C267.578 15.2985 272.598 16.9185 278.128 17.9585ZM235.628 70.2085C233.628 67.2585 233.788 64.2785 233.578 60.9585C233.558 60.7185 233.188 60.5385 233.058 60.6485C232.398 61.1885 231.708 62.3185 231.018 62.9385C230.878 63.0585 230.598 62.7685 230.438 62.8185C230.908 59.7285 231.388 56.6485 231.858 53.5685C227.308 56.7785 226.838 62.9885 228.808 67.7485C229.058 68.3385 229.488 68.9685 229.838 69.0185C231.608 69.2485 231.798 70.5985 232.548 71.6985C234.598 74.7485 237.038 76.0685 240.608 75.4685C239.048 72.6885 237.518 69.9385 235.948 67.1585C235.888 67.2985 235.538 67.1885 235.528 67.3785C235.498 68.2585 235.618 69.2885 235.628 70.2085ZM225.548 109.309C226.188 115.049 228.278 119.069 233.288 121.929C234.338 122.529 236.288 122.779 236.918 122.269C238.198 121.219 239.188 121.439 240.288 121.509C242.918 121.679 244.658 121.299 245.918 119.079C241.858 117.929 237.848 116.779 233.808 115.629C233.848 116.079 233.888 116.519 233.938 116.969C233.988 117.419 234.058 117.889 234.108 118.349C230.118 116.239 228.158 112.829 225.548 109.309ZM208.608 67.4085C205.728 73.3785 207.058 78.8985 212.208 83.0285C213.768 84.2785 215.318 84.3985 217.068 83.6185C218.678 85.0085 220.388 86.9485 222.648 87.0685C219.558 83.8685 216.458 80.6585 213.368 77.4485C213.478 77.2385 213.588 77.0285 213.688 76.8185C213.798 78.2185 213.898 79.6285 214.008 81.0285C209.918 77.1585 209.188 72.8185 208.608 67.4085ZM209.168 52.7585C209.178 52.6285 208.878 52.5285 208.798 52.6485C207.988 53.7885 207.138 55.1785 206.318 56.3985C205.288 52.8185 206.188 49.9985 207.378 46.5785C202.798 49.5885 202.298 55.6585 205.088 60.0585C205.398 60.5485 205.938 60.8785 206.468 60.9085C206.998 60.9385 208.188 60.4385 208.288 59.9785C208.788 57.5285 208.938 55.1085 209.168 52.7585ZM228.788 126.259C228.688 130.879 231.268 134.989 235.268 136.749C238.278 138.069 240.198 137.609 242.448 135.809C236.018 133.579 232.838 131.649 228.788 126.259ZM237.388 44.8285C235.458 44.9185 233.208 45.2385 231.368 45.2485C231.128 45.2485 230.898 44.7285 231.088 44.5485C232.558 43.1385 234.558 41.6385 236.158 40.2085C233.238 40.9185 230.328 42.0485 228.318 44.2285C227.068 45.5885 227.388 46.7885 229.158 47.1685C232.268 47.8485 234.978 46.9385 237.388 44.8285ZM232.828 101.809C233.078 101.819 232.768 101.109 232.928 101.009C229.698 98.5485 226.508 96.1285 223.298 93.6885C224.108 97.3685 226.338 99.9785 229.758 101.499C230.728 101.929 231.908 101.789 232.828 101.809ZM233.238 32.9585C230.808 32.7085 228.408 33.0685 226.538 34.5685C225.348 35.5285 225.258 36.6085 226.808 37.0485C229.358 37.7685 231.818 37.2485 234.228 36.1085C232.618 35.8685 230.968 35.6485 229.348 35.4085C229.398 35.2385 229.548 34.7285 229.678 34.6585C230.878 34.0385 232.058 33.5285 233.238 32.9585ZM293.888 30.1485C293.398 29.7585 292.868 28.8985 292.178 28.9185C290.578 28.9785 289.528 29.8585 289.568 31.5285C289.578 32.1885 290.488 33.1885 291.288 33.1885C293.088 33.1985 293.698 31.8185 293.888 30.1485ZM251.878 35.7685C255.408 38.1585 259.938 38.8685 263.298 35.7985C261.428 36.0085 259.688 36.3785 257.768 36.3785C255.848 36.3785 253.808 35.9785 251.878 35.7685ZM247.288 36.6785C245.288 34.9485 242.818 33.0985 240.058 33.9885C241.768 36.4585 244.438 36.9485 247.288 36.6785ZM233.468 97.6885C235.368 100.429 237.948 102.519 241.158 100.489C238.598 99.5585 236.038 98.6285 233.468 97.6885ZM235.358 30.3585C232.938 28.7085 230.908 28.0285 228.338 29.7085C230.638 31.0885 232.818 30.5985 235.358 30.3585ZM247.058 32.0085C246.378 29.6985 245.008 27.0685 242.198 27.6885C243.818 29.1385 245.438 30.5685 247.058 32.0085ZM248.178 41.3985C248.428 41.2885 248.128 40.7285 248.278 40.5485C246.698 40.4685 244.818 40.2185 243.388 40.2285C243.158 40.2285 243.118 40.8385 243.328 40.9685C244.748 41.8185 246.568 42.0785 248.178 41.3985ZM274.918 27.8885C274.578 26.0085 274.238 24.1285 273.898 22.2385C272.758 24.6785 272.598 26.2585 274.918 27.8885ZM244.248 46.8885C244.358 47.3185 244.468 47.7485 244.568 48.1785C245.948 47.7985 247.328 47.4285 248.708 47.0485C248.618 46.7085 248.538 46.3785 248.448 46.0385C247.058 46.3185 245.648 46.5985 244.248 46.8885ZM255.068 47.6585C254.968 47.3285 254.868 46.9885 254.778 46.6585C253.368 47.0285 251.968 47.4085 250.558 47.7785C250.658 48.1185 250.748 48.4685 250.848 48.8085C252.248 48.4285 253.658 48.0485 255.068 47.6585ZM269.668 20.1085C268.718 22.2985 269.018 23.5885 270.868 25.0985C270.468 23.4285 270.068 21.7685 269.668 20.1085ZM277.648 28.8385C276.578 29.9185 276.198 31.2885 277.068 32.4585C277.238 32.6885 277.858 32.6485 277.878 32.4185C277.948 31.4685 277.668 29.9285 277.648 28.8385ZM278.208 21.5585C277.018 23.1985 276.678 24.2985 278.558 25.4385C278.438 24.1485 278.328 22.8585 278.208 21.5585ZM257.968 47.1985C257.748 47.3585 258.458 47.8885 258.408 48.0985C259.368 47.5185 260.738 46.8185 261.508 46.2485C261.698 46.1085 261.288 45.4085 261.088 45.5085C260.278 45.8785 258.738 46.6285 257.968 47.1985ZM253.638 42.1585C253.858 42.1085 253.768 41.2985 253.548 41.3185C252.528 41.3985 250.618 41.6885 249.608 41.9085C249.398 41.9485 249.508 42.6985 249.728 42.6885C250.738 42.6085 252.648 42.3585 253.638 42.1585ZM250.538 34.8985C250.718 34.9485 251.028 34.2785 250.858 34.1885C250.278 33.8885 248.868 33.3185 248.238 33.1285C248.058 33.0785 247.788 33.7485 247.948 33.8385C248.518 34.1485 249.908 34.7185 250.538 34.8985ZM274.248 32.9685C274.288 32.7885 273.518 32.4885 273.418 32.6485C273.168 33.0485 272.648 34.3385 272.538 34.7985C272.498 34.9685 273.228 35.2885 273.328 35.1285C273.578 34.7285 274.138 33.4285 274.248 32.9685ZM264.578 45.1785C264.448 45.3185 264.948 45.8985 265.098 45.7885C265.598 45.4485 266.698 44.4885 267.118 44.0485C267.238 43.9185 266.778 43.3785 266.628 43.4785C266.118 43.8085 264.988 44.7385 264.578 45.1785ZM265.708 39.1185C265.848 38.9985 265.418 38.3885 265.258 38.4785C264.678 38.7985 263.398 39.6785 262.898 40.1085C262.748 40.2285 263.188 40.8485 263.358 40.7585C263.938 40.4285 265.208 39.5485 265.708 39.1185ZM259.878 42.0985C260.048 42.0285 259.838 41.3685 259.658 41.3985C258.928 41.5585 257.428 42.0085 256.728 42.2785C256.558 42.3485 256.768 43.0085 256.958 42.9685C257.688 42.8185 259.178 42.3685 259.878 42.0985ZM269.598 42.4185C269.488 42.5685 270.018 43.0585 270.148 42.9285C270.618 42.4585 271.578 41.3085 271.958 40.7585C272.058 40.6085 271.538 40.1685 271.408 40.2885C270.938 40.7485 269.978 41.8785 269.598 42.4185ZM276.318 36.7285C276.398 36.5585 275.818 36.2085 275.708 36.3485C275.248 36.9685 274.398 38.3285 274.058 39.0085C273.968 39.1885 274.608 39.5785 274.728 39.4185C275.158 38.7985 275.968 37.4185 276.318 36.7285ZM268.168 37.6885C268.038 37.8185 268.448 38.4885 268.598 38.3985C269.008 38.1485 270.048 37.2785 270.398 36.9085C270.508 36.7985 270.098 36.2685 269.968 36.3485C269.548 36.5885 268.498 37.3485 268.168 37.6885ZM271.498 27.9385C271.418 27.8485 270.758 28.1785 270.798 28.2985C270.878 28.5385 271.558 29.6085 271.708 29.7285C271.858 29.8485 272.238 29.6285 272.218 29.4385C272.208 29.2485 271.658 28.1285 271.498 27.9385Z" fill="white"/>
<path d="M110.288 192.598C110.288 192.598 131.248 182.148 154.918 145.118C156.438 156.708 157.128 155.138 157.128 155.138C157.128 155.138 165.948 159.498 180.978 142.828C185.228 148.708 185.228 148.708 185.228 148.708C185.228 148.708 196.668 144.508 200.258 131.908C200.258 136.288 199.958 161.128 179.998 180.958C162.358 196.418 162.358 196.418 162.358 196.418L147.328 204.908H142.098L138.748 202.318L131.258 199.798L122.028 197.058L115.598 198.508H112.028H110.288V192.598Z" fill="#D76258"/>
<path d="M119.318 199.799C122.058 201.999 124.598 202.479 128.038 201.889C99.368 221.489 70.378 238.499 37.898 250.999C40.368 250.409 43.008 250.179 45.378 249.249C54.748 245.559 64.178 242.209 73.308 237.959C92.278 229.129 109.548 218.099 126.428 205.779C126.718 205.569 127.008 205.379 127.258 205.119C128.948 203.449 130.328 203.069 132.688 203.749C134.028 204.139 135.838 204.049 137.298 204.099C136.378 204.809 135.338 205.719 134.398 206.359C117.748 217.759 100.548 227.659 82.408 236.429C68.708 243.059 54.808 248.769 40.208 253.089C38.798 253.509 37.288 253.789 35.838 253.769C33.658 253.749 32.668 252.259 33.318 250.289C33.968 248.319 34.848 246.659 35.978 244.989C38.148 241.799 40.578 238.829 42.938 235.739C45.288 239.249 48.748 239.439 52.268 238.239C62.218 234.819 71.068 230.379 80.088 225.459C93.158 218.329 105.248 210.319 117.108 201.369C117.798 200.869 118.598 200.299 119.318 199.799Z" fill="white"/>
<path d="M301.648 30.7385C313.608 48.8685 311.568 68.3085 296.598 83.8885C296.828 81.6885 297.288 79.9985 297.278 77.6585C297.268 75.3285 297.028 72.5885 296.668 70.1185C296.418 68.3985 295.178 67.4385 293.508 67.3585C291.838 67.2885 291.488 66.5685 291.038 65.1385C289.528 60.3485 286.868 56.6585 283.318 53.1885C282.088 51.9885 280.708 50.8585 279.538 49.7985C278.368 48.7385 278.228 47.7985 278.788 46.4185C280.228 42.9085 282.378 40.3285 285.548 38.2285C286.748 37.4385 288.308 37.0885 289.698 37.1385C293.178 37.2585 295.608 36.3985 298.128 34.0185C299.298 32.9285 300.448 31.8085 301.648 30.7385Z" fill="white"/>
<path d="M14.2178 355.428C15.7278 352.188 17.0478 348.828 18.7778 345.698C27.6778 329.578 36.6178 313.508 45.6878 297.478C53.5078 283.668 61.4678 269.998 69.4878 256.258C70.0478 255.298 70.9778 254.498 72.0178 253.948C75.0278 252.348 78.2278 250.918 81.3178 249.438C80.9478 250.168 80.4778 251.178 80.0878 251.848C73.1478 263.758 66.4278 275.698 59.2678 287.428C48.1278 305.688 36.8078 323.798 25.3478 341.868C22.2478 346.748 18.4678 351.198 15.0378 355.838C14.7478 355.698 14.4978 355.568 14.2178 355.428Z" fill="white"/>
<path d="M154.928 263.329C155.148 262.919 154.538 262.589 154.288 262.249C152.418 259.709 152.968 258.269 155.078 256.069C155.298 256.519 155.398 257.419 155.658 257.739C155.748 257.849 156.028 257.629 156.188 257.359C156.348 257.089 156.608 255.889 156.778 255.459C162.488 255.719 166.408 252.979 171.098 250.109C170.668 249.959 170.218 249.829 169.808 249.659C169.878 249.559 170.488 248.939 170.468 248.929C169.008 247.869 167.368 246.989 165.848 245.989C167.468 243.589 169.108 241.179 170.728 238.779C172.568 240.849 174.238 242.919 176.098 245.009C176.838 245.839 177.438 246.009 178.648 245.699C182.008 244.849 185.368 245.739 188.768 246.339C188.148 246.699 187.508 247.059 186.878 247.419C189.878 247.409 192.218 247.509 194.338 249.839C193.508 250.549 192.678 251.269 191.848 251.979C189.288 250.599 186.158 248.009 183.078 248.819C185.098 250.009 187.128 251.189 189.148 252.379C188.908 253.039 188.658 253.839 188.408 254.449C188.368 254.549 188.238 254.249 188.218 254.279C188.198 254.309 188.228 254.349 188.258 254.359C188.288 254.369 188.338 254.469 188.398 254.439C190.948 253.339 191.858 254.919 193.158 257.029C192.748 257.309 192.408 257.539 191.978 257.829C191.538 258.109 191.138 258.449 190.898 258.949C191.968 258.629 193.038 258.309 194.108 257.989C194.678 258.839 195.258 259.689 195.818 260.529C195.068 260.989 194.148 261.479 193.468 261.929C193.368 261.999 193.478 262.289 193.588 262.259C194.358 262.079 195.318 261.739 196.148 261.509C197.848 263.459 197.708 264.079 195.768 265.759C196.458 265.519 197.148 265.279 197.828 265.029C199.578 267.909 199.288 268.799 196.698 270.919C197.778 270.559 198.808 270.189 199.908 269.839C199.718 271.609 200.718 273.579 199.648 275.249C198.578 276.919 196.018 274.569 194.798 276.099C194.768 276.139 194.798 276.179 194.828 276.129C196.268 273.329 192.848 270.999 191.478 268.679C190.108 266.359 189.698 263.689 187.288 261.909C186.848 261.589 186.788 260.219 186.718 259.649C183.588 259.449 183.358 256.989 182.868 254.299C182.568 255.239 182.258 256.169 181.958 257.109C179.038 256.739 177.488 255.499 176.288 252.829C175.748 255.199 174.348 255.749 172.238 256.479C170.138 257.199 168.348 257.949 166.238 258.709C164.128 259.469 163.178 259.049 162.098 257.059C161.968 256.819 161.788 256.319 161.698 256.259C161.608 256.199 161.058 256.339 161.128 256.529C161.528 257.549 162.268 258.799 162.768 259.879C160.078 261.619 159.258 261.579 157.398 258.909C157.358 259.049 156.838 258.909 156.878 259.099C157.078 259.999 157.518 261.049 157.788 261.989C156.738 262.329 155.418 262.229 154.878 263.319C154.858 263.349 154.898 263.379 154.928 263.329ZM170.508 243.879C170.658 243.769 170.278 243.209 170.128 243.299C169.468 243.659 168.238 244.489 167.628 244.949C167.498 245.049 167.818 245.559 167.958 245.479C168.628 245.119 169.908 244.329 170.508 243.879Z" fill="white"/>
<path d="M49.888 321.999C50.588 320.649 51.128 317.289 52.078 314.989C57.798 301.149 65.088 287.669 72.598 274.539C77.968 265.159 83.418 255.759 88.908 246.399C89.398 245.559 90.278 244.879 91.168 244.369C93.898 242.799 96.748 241.439 99.698 240.289C83.008 267.679 66.388 294.929 49.658 322.399C50.088 321.619 49.188 323.349 49.888 321.999Z" fill="white"/>
<path d="M292.368 70.9185C290.898 71.6685 289.228 72.7585 287.718 73.3485C282.378 75.4585 277.398 76.3385 271.758 75.5585C270.288 75.3585 268.788 74.8785 267.558 74.1885C262.798 71.4885 261.528 68.4585 263.538 63.2785C265.088 59.2685 267.678 55.6685 270.968 52.9385C273.118 51.1485 274.488 51.4785 275.888 53.8385C276.768 55.3185 277.248 57.2285 277.788 58.9585C279.998 66.0485 283.618 69.3485 291.028 70.6085C291.278 70.6385 292.058 70.8085 292.368 70.9185Z" fill="white"/>
<path d="M113.698 153.479C112.888 153.009 112.188 154.229 111.518 154.689C105.778 158.619 100.078 162.719 94.1579 166.479C91.6179 168.089 88.7479 169.159 85.8979 170.229C85.1479 170.509 83.8579 170.309 83.3179 169.679C82.7679 169.059 83.0879 167.919 83.4879 167.249C86.8579 161.539 90.3979 155.859 93.8779 150.189C96.7979 152.179 99.5579 152.329 102.698 150.919C105.838 149.509 108.488 147.659 111.358 146.019C111.958 145.679 112.148 145.469 112.668 145.109C113.048 147.659 113.478 150.189 113.848 152.749C113.888 152.999 113.728 153.329 113.658 153.519C113.638 153.579 113.778 153.519 113.698 153.479Z" fill="white"/>
<path d="M213.288 237.569C215.858 237.919 218.828 238.539 218.428 241.719C220.518 241.329 221.038 242.199 222.288 243.819C221.878 244.319 221.478 244.809 221.068 245.319C223.238 244.709 223.968 245.709 224.948 247.469C225.928 249.229 226.358 250.309 224.568 251.629C225.168 251.489 225.768 251.369 226.358 251.229C228.058 254.459 227.028 255.099 224.118 257.019C224.718 256.849 225.218 256.729 225.838 256.519C226.458 256.309 227.218 255.959 227.858 255.739C228.068 256.679 228.188 258.299 228.218 259.109C228.248 259.909 227.598 260.949 227.248 261.059C226.238 261.369 224.288 261.249 223.858 260.559C222.178 257.859 221.338 255.169 220.188 252.309C219.888 251.559 220.158 250.649 220.138 249.859C216.648 248.449 213.878 246.679 213.458 242.699C212.158 243.049 210.628 243.829 209.308 243.729C205.918 243.469 205.558 242.419 206.788 239.439C206.668 239.499 206.438 239.069 206.338 239.209C205.698 240.129 205.148 241.109 204.828 242.249C204.498 243.389 204.458 243.809 203.058 244.319C201.658 244.829 200.088 245.519 198.308 246.169C196.538 246.829 195.588 246.199 195.948 243.989C195.638 244.229 194.888 245.019 194.708 245.119C194.528 245.219 194.278 244.999 194.358 244.899C194.828 244.229 195.608 243.409 196.168 242.689C196.528 243.559 196.878 244.449 197.238 245.329C197.608 243.829 197.968 242.329 198.338 240.829C198.788 241.719 199.248 242.599 199.698 243.489C199.918 240.839 201.668 239.799 203.648 238.309C202.828 238.179 201.998 238.049 201.178 237.909C202.458 237.079 203.888 236.239 205.108 235.419C205.208 235.349 205.078 235.099 204.978 235.119C203.588 235.299 201.768 235.809 200.438 235.939C200.218 235.959 200.028 235.389 200.188 235.259C201.038 234.599 202.518 233.899 203.448 233.239C203.528 233.179 203.438 232.909 203.328 232.929C202.218 233.119 200.868 233.499 199.758 233.699C199.668 233.719 199.568 233.489 199.648 233.439C200.788 232.769 201.898 232.009 203.198 231.429C203.548 231.279 204.048 231.429 204.498 231.709C204.948 231.989 205.418 232.499 205.898 232.959C207.728 234.699 209.058 235.359 211.698 234.399C214.328 233.439 217.108 233.599 219.778 234.779C219.488 235.269 219.158 235.779 218.848 236.279C221.178 234.869 222.118 236.289 223.948 237.729C222.388 239.559 221.828 239.849 219.708 238.579C218.608 237.919 217.398 237.199 216.168 236.669C214.948 236.119 214.048 236.489 213.288 237.569Z" fill="white"/>
<path d="M105.248 199.038C105.078 199.258 104.408 199.818 103.898 200.118C92.2578 207.018 80.4277 213.748 67.8877 218.968C65.3077 220.038 62.4477 220.938 59.8177 221.318C57.1877 221.698 56.3477 220.828 57.3677 218.168C58.3877 215.518 60.2977 212.128 61.5977 209.418C64.0677 212.428 65.8677 213.588 69.7177 212.098C73.5677 210.608 77.1978 208.518 80.9078 206.578C83.1078 205.428 85.0978 204.108 87.2278 202.658C90.0678 200.728 92.4377 199.538 96.0977 200.048C98.1577 200.338 100.598 199.558 102.688 199.138C103.448 198.978 104.378 198.618 105.028 198.518C105.178 198.498 105.418 198.818 105.248 199.038Z" fill="white"/>
<path d="M113.438 229.579C113.538 236.129 115.888 237.249 122.028 238.649C121.908 238.859 121.808 239.189 121.628 239.339C115.748 244.339 109.938 249.349 103.978 254.269C102.958 255.109 101.728 255.709 100.468 256.189C99.1976 256.659 98.4576 256.079 98.5776 254.689C98.6376 253.969 98.7876 253.119 99.1676 252.469C103.218 245.439 107.348 238.429 111.458 231.469C111.808 230.879 112.518 230.319 112.868 229.969C113.208 229.619 113.148 229.809 113.438 229.579Z" fill="white"/>
<path d="M86.998 195.068C88.068 196.068 89.058 197.608 90.108 198.748C89.168 199.288 88.268 199.868 87.308 200.348C81.658 203.148 76.098 205.978 70.358 208.668C69.108 209.258 67.738 209.518 66.258 209.628C64.778 209.738 63.398 208.448 64.328 207.018C66.338 203.918 68.668 201.328 70.948 198.448C71.078 198.288 71.458 198.278 71.698 198.308C77.028 199.078 81.358 197.538 86.138 195.338C86.398 195.218 86.758 194.848 86.998 195.068Z" fill="white"/>
<path d="M194.778 276.098C193.748 278.158 199.068 276.688 200.018 276.438C199.948 280.548 196.788 282.688 195.128 286.138C195.098 286.198 195.108 286.208 195.168 286.188C197.138 285.588 197.628 283.258 198.668 281.658C195.468 280.498 194.478 279.568 194.838 276.138C194.838 276.078 194.798 276.058 194.778 276.098Z" fill="white"/>
<path d="M197.028 257.199C198.168 256.589 199.278 255.959 200.428 255.349C201.288 257.159 202.658 259.149 203.168 261.019C203.678 262.889 202.008 262.569 200.908 263.259C199.598 261.229 198.328 259.219 197.028 257.199Z" fill="white"/>
<path d="M223.668 261.739C225.058 261.879 226.448 262.019 227.838 262.169C228.018 265.389 226.868 268.049 223.848 269.419C224.458 268.489 225.068 267.559 225.678 266.629C222.908 265.729 223.368 264.209 223.668 261.739Z" fill="white"/>
<path d="M225.738 243.849C226.738 243.349 227.738 242.839 228.728 242.339C229.748 244.219 230.768 246.109 231.788 247.989C230.928 248.589 230.068 249.189 229.218 249.789C228.058 247.809 226.898 245.829 225.738 243.849Z" fill="white"/>
<path d="M192.628 252.519C193.538 251.769 194.438 251.019 195.348 250.269C196.778 251.599 198.208 252.919 199.628 254.249C198.708 254.959 197.778 255.679 196.858 256.389C195.448 255.099 194.038 253.809 192.628 252.519Z" fill="white"/>
<path d="M200.988 263.978C201.978 263.638 202.968 263.288 203.948 262.948C205.038 265.598 205.738 267.048 202.748 268.168C202.168 266.768 201.578 265.368 200.988 263.978Z" fill="white"/>
<path d="M227.908 241.459C226.928 242.039 225.948 242.619 224.968 243.209C224.138 242.189 223.308 241.159 222.478 240.139C223.368 239.589 224.258 239.039 225.148 238.499C226.068 239.479 226.988 240.469 227.908 241.459Z" fill="white"/>
<path d="M230.548 253.548C230.158 252.488 229.758 251.428 229.368 250.358C230.198 249.978 231.018 249.588 231.848 249.208C233.018 251.758 233.278 252.488 230.548 253.548Z" fill="white"/>
<path d="M204.038 274.769C203.748 273.419 203.708 272.349 203.318 270.829C202.918 269.319 203.778 268.469 205.428 268.269C205.168 270.449 204.938 272.659 204.668 274.869C204.548 274.709 204.088 274.989 204.038 274.769Z" fill="white"/>
<path d="M233.458 253.418C233.068 255.438 232.748 257.718 232.328 259.628C232.288 259.818 231.838 259.748 231.798 259.578C231.448 257.968 231.198 256.008 230.878 254.298C231.738 253.998 232.598 253.708 233.458 253.418Z" fill="white"/>
<path d="M154.868 263.309C153.718 263.299 152.728 264.079 151.688 264.549C151.798 263.449 151.898 262.349 152.008 261.249C152.968 261.939 153.958 262.639 154.908 263.329C154.928 263.349 154.928 263.309 154.868 263.309Z" fill="white"/>
<path d="M195.108 286.149C195.048 286.129 194.888 286.329 194.868 286.339C194.848 286.349 194.818 286.149 194.848 286.129C194.878 286.119 195.098 286.199 195.138 286.189C195.158 286.199 195.138 286.159 195.108 286.149Z" fill="white"/>
<path d="M97.9279 183.048C97.8779 183.058 97.6479 182.958 97.6479 182.958C97.6479 182.958 97.9079 183.038 97.9279 183.048C97.9579 183.058 97.9379 183.048 97.9279 183.048Z" fill="white"/>
<path d="M115.538 201.159C115.548 201.139 115.588 201.029 115.598 201.019C115.598 201.009 115.558 201.099 115.558 201.109C115.558 201.119 115.538 201.159 115.538 201.159Z" fill="white"/>
<path d="M17.448 264.649C17.428 264.639 17.448 264.529 17.458 264.519C17.468 264.519 17.488 264.599 17.498 264.609C17.488 264.619 17.468 264.649 17.448 264.649Z" fill="white"/>
<path d="M199.728 27.4685C199.658 27.4685 199.578 27.7185 199.598 27.7285C199.618 27.7385 199.778 27.5785 199.768 27.5185C199.768 27.4885 199.758 27.4685 199.728 27.4685Z" fill="white"/>
<path d="M44.0578 321.289C44.0678 321.289 44.0978 321.359 44.0878 321.369C44.0778 321.379 44.0078 321.359 44.0078 321.349C43.9978 321.329 44.0278 321.289 44.0578 321.289Z" fill="white"/>
<path d="M49.6877 322.349C49.6777 322.349 49.6077 322.349 49.6177 322.339C49.6277 322.329 49.7177 322.299 49.7377 322.299C49.7477 322.299 49.6977 322.349 49.6877 322.349Z" fill="white"/>
<path d="M265.688 30.2885C265.458 30.2185 265.058 29.0285 264.868 29.1285C263.438 29.8785 262.238 31.4585 260.618 32.0285C257.318 33.1985 254.268 31.9885 252.608 28.9585C250.958 25.9385 251.618 22.7985 254.268 20.6685C256.918 18.5485 260.298 18.5885 262.908 20.9085C265.518 23.2285 265.948 26.9885 265.688 30.2885ZM258.038 20.8885C255.518 21.4185 253.478 22.8785 253.468 25.6085C253.458 28.3385 255.768 30.2885 258.088 30.7785C260.408 31.2685 261.938 30.4685 262.978 28.6185C260.388 29.6185 257.918 30.3285 255.998 27.7285C254.078 25.1385 256.098 22.8985 258.038 20.8885ZM261.388 23.1585C261.118 23.4585 260.408 24.0385 260.448 24.4585C260.478 24.8785 261.058 25.2585 261.358 25.3085C261.658 25.3585 262.238 25.1585 262.228 24.7585C262.198 24.3485 261.598 23.5785 261.388 23.1585Z" fill="black"/>
<path d="M278.128 17.9585C272.598 16.9185 267.578 15.2985 261.858 14.6585C254.258 13.8185 248.028 15.5485 242.118 20.6585C239.128 23.2385 235.888 24.4685 231.948 24.8485C231.948 24.7685 231.908 24.4385 231.978 24.3885C235.598 21.7185 238.818 18.7785 242.498 16.1685C246.178 13.5585 249.538 12.1185 254.338 11.8885C262.458 11.5185 270.948 13.8285 278.128 17.9585Z" fill="black"/>
<path d="M235.628 70.2086C235.608 69.2886 235.488 68.2586 235.518 67.3786C235.528 67.1886 235.878 67.3086 235.938 67.1586C237.508 69.9386 239.038 72.6886 240.598 75.4686C237.018 76.0686 234.588 74.7486 232.538 71.6986C231.798 70.5986 231.608 69.2486 229.828 69.0186C229.478 68.9786 229.048 68.3486 228.798 67.7486C226.828 62.9886 227.298 56.7786 231.848 53.5686C231.378 56.6486 230.898 59.7186 230.428 62.8186C230.588 62.7686 230.868 63.0586 231.008 62.9386C231.708 62.3186 232.388 61.1886 233.048 60.6486C233.178 60.5386 233.558 60.7186 233.568 60.9586C233.798 64.2786 233.638 67.2586 235.628 70.2086Z" fill="black"/>
<path d="M225.548 109.309C228.158 112.829 230.118 116.239 234.118 118.349C234.058 117.889 233.998 117.429 233.948 116.969C233.898 116.519 233.858 116.079 233.818 115.629C237.858 116.779 241.868 117.929 245.928 119.079C244.668 121.299 242.928 121.679 240.298 121.509C239.198 121.439 238.208 121.219 236.928 122.269C236.298 122.779 234.348 122.529 233.298 121.929C228.278 119.069 226.188 115.049 225.548 109.309Z" fill="black"/>
<path d="M208.608 67.4084C209.178 72.8184 209.908 77.1584 214.008 81.0284C213.898 79.6284 213.798 78.2184 213.688 76.8184C213.578 77.0284 213.468 77.2384 213.368 77.4484C216.458 80.6584 219.558 83.8584 222.648 87.0684C220.388 86.9484 218.678 85.0084 217.068 83.6184C215.308 84.3984 213.758 84.2784 212.208 83.0284C207.068 78.8984 205.728 73.3784 208.608 67.4084Z" fill="black"/>
<path d="M209.168 52.7586C208.938 55.1086 208.788 57.5286 208.288 59.9786C208.198 60.4386 206.998 60.9286 206.468 60.9086C205.938 60.8786 205.388 60.5486 205.088 60.0586C202.298 55.6586 202.788 49.5886 207.378 46.5786C206.188 49.9886 205.288 52.8086 206.318 56.3986C207.138 55.1786 207.988 53.7886 208.798 52.6486C208.878 52.5286 209.178 52.6186 209.168 52.7586Z" fill="black"/>
<path d="M228.788 126.259C232.838 131.649 236.018 133.569 242.448 135.809C240.198 137.619 238.278 138.069 235.268 136.749C231.258 134.989 228.678 130.889 228.788 126.259Z" fill="black"/>
<path d="M237.388 44.8285C234.978 46.9285 232.268 47.8385 229.158 47.1785C227.388 46.7985 227.058 45.5985 228.318 44.2385C230.328 42.0585 233.248 40.9285 236.158 40.2185C234.558 41.6485 232.558 43.1485 231.088 44.5585C230.898 44.7385 231.128 45.2585 231.368 45.2585C233.198 45.2385 235.448 44.9185 237.388 44.8285Z" fill="black"/>
<path d="M232.828 101.808C231.908 101.788 230.728 101.928 229.758 101.498C226.338 99.9785 224.108 97.3785 223.298 93.6885C226.508 96.1285 229.698 98.5485 232.928 101.008C232.768 101.108 233.088 101.818 232.828 101.808Z" fill="black"/>
<path d="M233.238 32.9585C232.058 33.5285 230.878 34.0385 229.678 34.6585C229.538 34.7285 229.398 35.2385 229.348 35.4085C230.968 35.6485 232.618 35.8685 234.228 36.1085C231.818 37.2585 229.358 37.7685 226.808 37.0485C225.258 36.6085 225.348 35.5285 226.538 34.5685C228.408 33.0685 230.808 32.7085 233.238 32.9585Z" fill="black"/>
<path d="M293.888 30.1486C293.698 31.8186 293.078 33.1986 291.278 33.1886C290.488 33.1886 289.568 32.1886 289.558 31.5286C289.528 29.8586 290.568 28.9686 292.168 28.9186C292.868 28.8986 293.398 29.7586 293.888 30.1486Z" fill="black"/>
<path d="M251.878 35.7686C253.808 35.9786 255.848 36.3886 257.768 36.3886C259.688 36.3786 261.428 36.0086 263.298 35.8086C259.928 38.8686 255.408 38.1486 251.878 35.7686Z" fill="black"/>
<path d="M247.288 36.6785C244.438 36.9585 241.758 36.4685 240.058 33.9885C242.818 33.0985 245.288 34.9485 247.288 36.6785Z" fill="black"/>
<path d="M233.468 97.6885C236.038 98.6185 238.598 99.5585 241.158 100.488C237.948 102.518 235.368 100.428 233.468 97.6885Z" fill="black"/>
<path d="M235.358 30.3586C232.818 30.6086 230.628 31.0886 228.338 29.7086C230.918 28.0286 232.938 28.6986 235.358 30.3586Z" fill="black"/>
<path d="M247.058 32.0085C245.438 30.5685 243.818 29.1285 242.198 27.6885C245.018 27.0785 246.378 29.6985 247.058 32.0085Z" fill="black"/>
<path d="M248.178 41.3986C246.568 42.0886 244.748 41.8186 243.328 40.9586C243.128 40.8386 243.168 40.2186 243.388 40.2186C244.818 40.2086 246.698 40.4586 248.278 40.5386C248.138 40.7286 248.438 41.2886 248.178 41.3986Z" fill="black"/>
<path d="M274.918 27.8885C272.598 26.2585 272.758 24.6685 273.898 22.2385C274.238 24.1285 274.578 26.0085 274.918 27.8885Z" fill="black"/>
<path d="M244.248 46.8886C245.648 46.6086 247.058 46.3186 248.458 46.0386C248.548 46.3786 248.628 46.7086 248.718 47.0486C247.338 47.4286 245.958 47.7986 244.578 48.1786C244.468 47.7486 244.358 47.3186 244.248 46.8886Z" fill="black"/>
<path d="M255.068 47.6584C253.658 48.0384 252.248 48.4284 250.838 48.8084C250.738 48.4684 250.648 48.1184 250.548 47.7784C251.958 47.4084 253.358 47.0284 254.768 46.6584C254.868 46.9884 254.968 47.3284 255.068 47.6584Z" fill="black"/>
<path d="M269.668 20.1086C270.068 21.7686 270.468 23.4386 270.868 25.0986C269.008 23.5886 268.718 22.2886 269.668 20.1086Z" fill="black"/>
<path d="M277.648 28.8386C277.668 29.9186 277.948 31.4686 277.878 32.4186C277.858 32.6386 277.238 32.6786 277.068 32.4586C276.198 31.2886 276.568 29.9186 277.648 28.8386Z" fill="black"/>
<path d="M278.208 21.5586C278.328 22.8486 278.438 24.1486 278.558 25.4386C276.678 24.2986 277.018 23.1986 278.208 21.5586Z" fill="black"/>
<path d="M257.968 47.1986C258.738 46.6386 260.278 45.8786 261.078 45.5086C261.278 45.4186 261.688 46.1086 261.498 46.2486C260.728 46.8186 259.358 47.5186 258.398 48.0986C258.458 47.8886 257.748 47.3586 257.968 47.1986Z" fill="black"/>
<path d="M253.638 42.1584C252.648 42.3584 250.738 42.6084 249.718 42.6784C249.508 42.6984 249.388 41.9484 249.598 41.8984C250.608 41.6884 252.528 41.3884 253.538 41.3084C253.778 41.2984 253.868 42.1084 253.638 42.1584Z" fill="black"/>
<path d="M250.538 34.8986C249.918 34.7186 248.528 34.1386 247.948 33.8386C247.788 33.7486 248.058 33.0786 248.238 33.1286C248.868 33.3186 250.278 33.8786 250.858 34.1886C251.018 34.2786 250.718 34.9586 250.538 34.8986Z" fill="black"/>
<path d="M274.248 32.9686C274.138 33.4286 273.578 34.7286 273.328 35.1386C273.238 35.2886 272.498 34.9786 272.538 34.8086C272.648 34.3486 273.178 33.0586 273.418 32.6586C273.528 32.4986 274.298 32.7886 274.248 32.9686Z" fill="black"/>
<path d="M264.578 45.1786C264.988 44.7486 266.128 43.8186 266.628 43.4786C266.778 43.3786 267.238 43.9186 267.118 44.0486C266.698 44.4886 265.598 45.4586 265.098 45.7886C264.938 45.8886 264.448 45.3086 264.578 45.1786Z" fill="black"/>
<path d="M265.708 39.1185C265.198 39.5485 263.938 40.4285 263.348 40.7485C263.178 40.8385 262.748 40.2285 262.888 40.0985C263.398 39.6685 264.668 38.7985 265.248 38.4685C265.428 38.3785 265.858 38.9885 265.708 39.1185Z" fill="black"/>
<path d="M259.878 42.0985C259.178 42.3685 257.688 42.8185 256.958 42.9785C256.778 43.0185 256.558 42.3585 256.728 42.2885C257.428 42.0185 258.918 41.5685 259.658 41.4085C259.838 41.3685 260.048 42.0285 259.878 42.0985Z" fill="black"/>
<path d="M269.598 42.4185C269.978 41.8785 270.938 40.7486 271.418 40.2886C271.548 40.1686 272.068 40.6085 271.968 40.7585C271.578 41.3085 270.628 42.4586 270.158 42.9286C270.018 43.0586 269.488 42.5685 269.598 42.4185Z" fill="black"/>
<path d="M276.318 36.7285C275.968 37.4185 275.158 38.7985 274.718 39.4185C274.598 39.5785 273.958 39.1885 274.048 39.0085C274.388 38.3285 275.248 36.9785 275.698 36.3485C275.818 36.1985 276.398 36.5585 276.318 36.7285Z" fill="black"/>
<path d="M268.168 37.6885C268.498 37.3485 269.548 36.5885 269.968 36.3485C270.108 36.2685 270.508 36.7985 270.398 36.9085C270.038 37.2785 269.008 38.1485 268.598 38.3985C268.448 38.4885 268.048 37.8185 268.168 37.6885Z" fill="black"/>
<path d="M271.498 27.9386C271.658 28.1386 272.198 29.2486 272.218 29.4386C272.238 29.6286 271.858 29.8486 271.708 29.7286C271.558 29.6086 270.878 28.5386 270.798 28.2986C270.758 28.1786 271.428 27.8386 271.498 27.9386Z" fill="black"/>
<path d="M156.978 159.109C157.028 159.109 157.118 159.139 157.128 159.149C157.138 159.159 156.998 159.149 156.978 159.119C156.958 159.089 156.968 159.109 156.978 159.109Z" fill="black"/>
<path d="M131.248 121.719C131.278 121.729 131.228 121.819 131.218 121.829C131.208 121.839 131.168 121.779 131.168 121.769C131.178 121.749 131.218 121.709 131.248 121.719Z" fill="black"/>
<path d="M127.888 159.788C128.088 159.828 128.348 159.698 128.498 159.578C128.538 159.538 128.578 159.558 128.538 159.518C128.338 159.338 127.958 159.528 127.858 159.758C127.838 159.788 127.848 159.778 127.888 159.788Z" fill="black"/>
<path d="M152.468 101.059C152.438 101.049 152.358 101.119 152.368 101.129C152.378 101.149 152.518 101.159 152.528 101.119C152.538 101.089 152.488 101.069 152.468 101.059Z" fill="black"/>
<path d="M168.478 160.408C168.458 160.408 168.448 160.268 168.458 160.268C168.468 160.258 168.518 160.338 168.518 160.348C168.528 160.368 168.518 160.408 168.478 160.408Z" fill="black"/>
<path d="M152.888 100.568C152.678 100.548 152.448 100.908 152.478 101.028C152.498 101.148 152.438 101.108 152.568 101.108C152.698 101.108 152.978 100.798 152.948 100.608C152.928 100.568 152.938 100.568 152.888 100.568Z" fill="black"/>
<path d="M128.498 159.569C128.478 159.569 128.458 159.429 128.468 159.429C128.478 159.419 128.538 159.509 128.538 159.519C128.548 159.539 128.538 159.569 128.498 159.569Z" fill="black"/>
<path d="M170.508 243.878C169.898 244.328 168.628 245.118 167.948 245.478C167.798 245.558 167.478 245.048 167.618 244.948C168.228 244.488 169.468 243.658 170.118 243.298C170.288 243.218 170.658 243.768 170.508 243.878Z" fill="black"/>
<path d="M188.398 254.418C188.378 254.398 188.278 254.348 188.258 254.338C188.238 254.328 188.198 254.248 188.218 254.258C188.238 254.268 188.378 254.418 188.408 254.448C188.418 254.468 188.408 254.438 188.398 254.418Z" fill="black"/>
<path d="M258.038 20.8884C256.098 22.8984 254.068 25.1384 255.998 27.7384C257.918 30.3384 260.388 29.6284 262.978 28.6284C261.948 30.4784 260.408 31.2784 258.088 30.7884C255.768 30.2984 253.458 28.3484 253.468 25.6184C253.478 22.8784 255.518 21.4184 258.038 20.8884Z" fill="white"/>
<path d="M261.388 23.1584C261.598 23.5784 262.208 24.3584 262.218 24.7584C262.238 25.1584 261.648 25.3584 261.348 25.3084C261.048 25.2584 260.478 24.8884 260.438 24.4584C260.408 24.0384 261.118 23.4584 261.388 23.1584Z" fill="white"/>
<path d="M307.188 32.6386C306.758 31.7486 306.218 30.7386 306.378 29.9986C308.058 22.2286 306.238 16.3686 300.138 11.4286C295.018 7.27863 289.508 4.43862 283.138 2.95862C256.158 -3.28138 233.738 0.318625 209.768 14.0486C202.518 18.1986 196.878 23.9486 191.618 30.1786C189.928 32.1786 190.598 32.6786 192.648 33.4686C192.548 33.6986 192.418 33.9786 192.248 34.1686C184.628 42.8286 178.588 52.2786 172.708 62.1986C172.308 62.8686 172.418 63.8386 172.258 64.6086C172.098 65.3786 171.558 65.7686 170.978 66.2886C165.048 71.5486 159.058 76.7286 153.198 82.1286C152.228 83.0286 151.788 84.5186 151.088 85.6686C150.888 85.9886 150.548 86.2786 150.218 86.4986C137.458 95.0186 126.278 104.859 115.888 116.119C108.388 124.259 101.628 132.769 95.7976 142.139C95.0576 143.329 94.5876 144.859 94.0676 145.949C93.5476 147.039 93.2776 147.889 92.6876 148.719C89.5676 153.129 86.3776 157.189 83.3876 161.679C81.5076 164.499 80.0276 167.259 77.6676 169.889C73.5676 174.469 70.5376 179.559 68.2676 185.419C66.9876 188.719 66.5876 191.819 67.7976 195.339C67.9476 195.769 67.5876 196.609 67.1976 197.039C65.2976 199.139 63.2976 201.089 61.4076 203.269C57.7476 207.489 54.8476 211.809 53.1376 217.209C52.8276 218.169 52.2476 219.229 51.4576 219.829C41.1476 227.659 30.6976 235.099 20.5376 243.119C14.6976 247.729 9.31761 252.789 3.92761 258.009C2.29761 259.589 1.10761 261.589 0.257611 263.869C-0.592389 266.159 0.727611 267.929 3.23761 268.179C4.10761 268.269 5.10761 268.209 5.95761 267.959C9.11761 267.029 12.3476 265.949 15.4476 264.979C16.0676 264.789 16.9976 264.719 17.3476 264.659C17.4076 264.649 17.4276 264.639 17.4476 264.629C14.7676 267.139 11.9776 269.469 9.34761 272.089C8.19761 273.239 7.20761 274.399 6.37761 275.969C5.55761 277.529 6.20761 278.959 8.08761 279.329C9.01761 279.509 10.0876 279.569 11.0176 279.349C13.9076 278.659 16.8676 278.109 19.5976 276.979C30.6076 272.429 41.4976 267.679 52.4276 262.979C55.6476 261.589 58.8276 260.089 62.0176 258.659C61.8076 259.779 61.2876 260.919 60.7376 261.869C48.2976 283.619 35.7476 305.189 23.5176 327.039C18.8476 335.379 14.7876 343.999 10.6776 352.689C9.73761 354.679 9.31761 356.919 9.23761 359.249C9.14761 361.579 10.7576 362.559 12.9676 361.489C14.2376 360.879 15.5976 360.039 16.5976 358.989C19.6176 355.819 22.8376 352.749 25.3476 349.179C31.7776 340.029 37.7776 330.669 43.9776 321.379C43.7976 322.319 43.5576 323.269 43.4176 324.229C43.0576 326.669 42.4476 329.079 42.4276 331.559C42.4176 332.659 42.7976 334.159 43.9476 334.659C45.0976 335.159 46.3976 334.879 47.6376 334.159C48.8776 333.449 50.1976 332.169 51.1276 330.879C56.4676 323.529 61.8576 316.049 67.0376 308.589C70.1276 304.149 72.9176 299.629 75.8576 295.129C76.2276 295.839 76.1376 297.469 77.0876 297.779C78.0376 298.079 79.4476 297.329 80.2576 296.949C81.0676 296.569 81.5076 295.999 82.0676 295.449C85.0376 292.479 88.0676 289.619 90.8976 286.539C104.528 271.699 117.598 256.429 130.018 240.589C130.518 239.949 131.108 239.149 131.818 238.959C135.938 237.869 139.928 237.039 144.048 236.099C145.078 237.839 146.398 239.969 147.488 241.539C148.578 243.109 150.028 243.549 151.498 243.039C152.958 242.539 153.318 243.039 154.258 243.729C156.038 245.019 157.718 246.169 159.538 247.199C161.348 248.229 163.038 248.969 164.888 249.889C164.668 250.039 164.918 250.649 164.628 250.719C162.568 251.239 160.398 251.409 158.258 251.829C151.278 253.209 148.158 257.049 148.198 264.119C148.198 264.939 148.098 265.489 147.818 265.919C147.828 265.929 147.838 265.929 147.838 265.939C148.038 266.069 148.238 266.209 148.448 266.319C148.558 266.379 148.668 266.429 148.768 266.479C148.788 266.489 148.778 266.489 148.788 266.489C148.808 266.499 148.798 266.489 148.828 266.499C149.268 266.649 149.698 266.779 150.148 266.859C150.218 266.869 150.648 266.919 150.218 266.879C150.348 266.889 150.468 266.909 150.598 266.919C150.838 266.939 151.068 266.949 151.308 266.949C151.548 266.949 151.788 266.949 152.028 266.929C152.158 266.919 152.288 266.909 152.418 266.899C152.448 266.899 152.518 266.889 152.588 266.879C153.048 266.799 153.508 266.709 153.958 266.589C154.178 266.529 154.408 266.449 154.628 266.379C154.748 266.339 154.858 266.289 154.978 266.249C154.598 266.379 154.978 266.249 155.038 266.219C155.808 265.869 156.688 265.989 157.188 266.719C163.348 264.259 169.518 261.779 175.698 259.339C176.368 259.069 177.158 258.899 177.898 259.099C180.558 259.829 182.698 260.409 184.038 263.019C184.188 263.299 184.478 263.599 184.748 263.779C187.498 265.649 187.858 268.599 189.488 271.289C189.378 271.349 189.248 271.409 189.128 271.479C189.128 271.489 189.138 271.499 189.138 271.509C189.428 272.169 189.728 272.839 189.988 273.519C190.238 274.169 190.458 274.839 190.598 275.529C190.688 275.479 190.788 275.429 190.878 275.389C191.348 277.299 191.988 279.279 192.338 281.179C192.458 281.849 192.698 282.759 192.078 283.229C191.458 283.699 190.488 283.859 189.618 283.599C188.748 283.339 187.818 282.439 187.048 281.909C187.438 287.599 191.968 290.239 197.258 288.359C200.288 287.289 201.668 284.559 202.988 281.919C203.258 281.379 203.388 280.509 203.808 280.279C207.438 278.259 208.448 274.869 208.478 271.229C208.488 269.239 208.798 267.869 209.468 266.809C208.868 265.259 208.348 263.679 207.968 262.059C207.938 262.069 207.918 262.079 207.888 262.099C205.238 257.949 202.618 253.799 199.958 249.649C202.468 248.689 204.548 247.549 207.258 246.879C209.178 246.409 211.128 246.729 212.348 248.579C212.728 249.159 213.298 249.959 213.908 250.229C217.068 251.629 217.468 254.199 218.668 257.119C218.338 257.269 218.008 257.429 217.668 257.579C217.688 257.779 217.678 257.989 217.638 258.189C217.638 258.199 217.638 258.199 217.638 258.209C217.618 258.429 217.628 258.639 217.638 258.859C217.678 258.919 217.738 258.969 217.778 259.029C217.938 259.249 218.088 259.489 218.208 259.739C218.318 259.959 218.418 260.189 218.488 260.419C218.558 260.639 218.588 260.879 218.608 261.099C218.618 261.239 218.568 261.369 218.548 261.499C218.988 261.259 219.438 261.039 219.878 260.789C220.028 262.329 220.398 264.089 220.408 265.569C220.408 266.259 220.608 267.229 219.898 267.539C219.188 267.849 218.298 267.979 217.378 267.379C216.458 266.779 215.228 265.169 214.398 264.249C214.538 264.969 214.478 266.109 214.818 266.769C217.568 271.999 223.028 273.519 227.678 269.819C230.058 267.929 231.378 265.499 233.688 263.539C235.998 261.569 236.278 258.679 236.558 255.809C236.638 254.949 236.858 254.379 237.288 253.919C236.708 251.709 236.008 249.519 235.228 247.379C233.348 244.109 231.468 240.829 229.588 237.559C229.808 237.459 226.008 234.449 224.738 233.619C220.458 230.829 216.118 230.279 211.328 231.719C209.768 232.189 209.208 232.219 208.238 231.129C208.918 228.679 209.448 225.929 210.288 223.599C212.868 216.449 215.478 209.559 218.198 202.489C218.438 201.869 219.048 201.399 219.528 200.879C223.678 196.409 227.808 192.009 231.978 187.479C232.798 186.589 233.708 185.349 234.488 184.369C234.288 185.529 233.858 186.979 233.728 188.049C233.708 188.249 234.098 188.459 234.238 188.329C235.548 187.129 237.108 185.939 238.338 184.499C243.808 178.109 248.838 171.889 252.728 164.259C262.048 145.999 265.678 128.859 262.258 108.439C262.158 107.859 262.218 107.209 262.388 106.629C263.198 103.869 264.328 101.199 264.748 98.3386C265.678 92.0286 267.028 86.3986 270.738 81.1186C271.528 79.9886 272.268 79.6586 273.688 79.6886C280.138 79.8386 285.628 78.3886 291.248 75.1286C292.038 74.6686 292.838 74.0486 293.618 73.5486C294.338 79.9586 292.518 85.1686 289.848 90.9286C290.738 90.7086 292.368 90.7086 293.078 90.1986C296.068 88.0486 299.358 87.0386 301.728 84.1186C314.588 68.2286 316.008 50.9386 307.188 32.6386ZM83.4876 167.259C86.8576 161.549 90.3976 155.869 93.8776 150.199C96.7976 152.189 99.5576 152.339 102.698 150.929C105.838 149.519 108.488 147.669 111.358 146.029C111.958 145.689 112.148 145.479 112.668 145.119C113.068 147.659 113.468 150.219 113.858 152.749C113.898 152.989 113.648 153.379 113.708 153.499C112.988 153.889 112.228 154.229 111.548 154.689C105.738 158.619 100.098 162.719 94.1576 166.489C91.6176 168.099 88.7476 169.169 85.8976 170.239C85.1476 170.519 83.8576 170.319 83.3176 169.689C82.7676 169.069 83.0876 167.929 83.4876 167.259ZM64.3176 207.019C66.3276 203.919 68.6576 201.329 70.9376 198.449C71.0676 198.289 71.4476 198.279 71.6876 198.309C77.0176 199.079 81.3476 197.539 86.1276 195.339C86.3876 195.219 86.7476 194.849 86.9876 195.069C88.0576 196.069 89.0476 197.609 90.0976 198.749C89.1576 199.289 88.2576 199.869 87.2976 200.349C81.6476 203.149 76.0876 205.979 70.3476 208.669C69.0976 209.259 67.7276 209.519 66.2476 209.629C64.7776 209.739 63.3876 208.449 64.3176 207.019ZM57.3676 218.179C58.3876 215.529 60.2976 212.139 61.5976 209.429C64.0676 212.439 65.8676 213.599 69.7176 212.109C73.5776 210.619 77.1976 208.529 80.9076 206.589C83.1076 205.439 85.0976 204.119 87.2276 202.669C90.0676 200.739 92.4376 199.549 96.0976 200.059C98.1576 200.349 100.598 199.569 102.688 199.149C103.448 198.989 104.378 198.629 105.028 198.529C105.178 198.499 105.418 198.829 105.248 199.049C105.078 199.269 104.408 199.829 103.898 200.129C92.2576 207.029 80.4276 213.759 67.8876 218.979C65.3076 220.049 62.4476 220.949 59.8176 221.329C57.1876 221.699 56.3476 220.829 57.3676 218.179ZM49.2976 231.429C49.6676 230.329 50.6076 228.779 51.3576 227.559C52.1076 226.329 53.1676 224.809 54.0376 223.559C58.2276 226.089 62.3776 225.229 66.4976 223.389C80.8676 216.989 93.5976 209.519 105.988 200.009C109.018 202.049 112.108 202.949 115.468 201.199C98.5376 217.659 77.4176 224.469 55.9476 233.019C54.5376 233.579 52.9276 234.249 51.8176 234.449C50.7076 234.649 49.8476 234.959 49.2676 234.189C48.6976 233.419 48.9176 232.529 49.2976 231.429ZM40.2176 253.109C38.8076 253.529 37.2976 253.799 35.8476 253.789C33.6676 253.769 32.6776 252.279 33.3276 250.309C33.9776 248.339 34.8576 246.679 35.9876 245.009C38.1576 241.819 40.5876 238.849 42.9476 235.759C45.2976 239.269 48.7576 239.459 52.2776 238.259C62.2276 234.839 71.0776 230.399 80.0976 225.479C93.1676 218.349 105.258 210.339 117.118 201.389C117.798 200.879 118.598 200.309 119.308 199.809C122.048 202.009 124.588 202.489 128.028 201.899C99.3576 221.499 70.3676 238.509 37.8876 251.009C40.3576 250.419 42.9976 250.199 45.3676 249.259C54.7376 245.569 64.1676 242.229 73.2976 237.969C92.2676 229.139 109.538 218.109 126.418 205.789C126.708 205.579 126.998 205.389 127.248 205.129C128.938 203.469 130.318 203.079 132.678 203.759C134.018 204.149 135.828 204.059 137.288 204.109C136.368 204.819 135.328 205.729 134.388 206.369C117.738 217.769 100.538 227.659 82.3976 236.439C68.7176 243.079 54.8176 248.779 40.2176 253.109ZM25.3476 341.869C22.2476 346.749 18.4676 351.189 15.0376 355.839C14.7576 355.699 14.4976 355.569 14.2276 355.429C15.7376 352.189 17.0576 348.829 18.7876 345.699C27.6876 329.579 36.6276 313.499 45.6976 297.479C53.5176 283.679 61.4776 269.989 69.4976 256.259C70.0576 255.299 70.9876 254.499 72.0276 253.949C75.0376 252.349 78.2376 250.919 81.3276 249.439C80.9576 250.169 80.4876 251.179 80.0976 251.849C73.1476 263.759 66.4376 275.699 59.2776 287.429C48.1276 305.689 36.8076 323.799 25.3476 341.869ZM50.4176 321.149C51.3076 319.249 51.2376 317.009 52.0376 315.079C57.8576 300.989 65.0476 287.749 72.5876 274.549C77.9776 265.119 83.3976 255.789 88.9076 246.399C89.4076 245.549 90.2776 244.879 91.1676 244.369C93.8976 242.799 96.7476 241.429 99.6976 240.289C83.2776 267.249 66.8476 294.199 50.4176 321.149ZM121.628 239.339C115.748 244.339 109.938 249.349 103.978 254.269C102.958 255.109 101.728 255.709 100.468 256.189C99.1976 256.659 98.4576 256.079 98.5776 254.689C98.6376 253.969 98.7876 253.119 99.1676 252.469C103.218 245.439 107.348 238.429 111.458 231.469C111.808 230.879 112.518 230.319 112.868 229.969C113.218 229.619 113.148 229.809 113.438 229.579C113.538 236.129 115.888 237.249 122.028 238.649C121.908 238.859 121.808 239.179 121.628 239.339ZM154.868 263.309C153.848 263.739 152.728 264.129 151.688 264.549C151.788 263.449 151.898 262.349 152.008 261.249C152.958 261.939 153.918 262.619 154.868 263.309ZM195.218 286.099C196.368 284.659 197.518 283.139 198.658 281.669C195.458 280.499 194.458 279.599 194.848 276.139C194.848 276.129 194.848 276.129 194.838 276.119C196.508 277.609 198.028 277.059 200.018 276.439C200.208 280.489 198.948 284.199 195.218 286.099ZM199.688 275.249C198.748 277.019 196.538 276.639 194.828 276.099C193.808 273.539 192.778 271.149 191.468 268.699C190.148 266.229 189.678 263.749 187.288 261.889C186.858 261.549 186.778 260.219 186.718 259.629C183.588 259.429 183.358 256.969 182.868 254.279C182.568 255.219 182.258 256.149 181.958 257.089C179.038 256.719 177.488 255.479 176.288 252.809C175.748 255.179 174.348 255.729 172.238 256.459C170.138 257.179 168.348 257.929 166.238 258.689C164.128 259.449 163.178 259.029 162.098 257.039C161.968 256.799 161.788 256.299 161.698 256.239C161.608 256.179 161.058 256.319 161.128 256.509C161.528 257.529 162.268 258.779 162.768 259.859C160.078 261.599 159.258 261.559 157.398 258.889C157.358 259.029 156.838 258.889 156.878 259.079C157.078 259.979 157.518 261.029 157.788 261.969C156.798 262.409 155.888 262.869 154.878 263.299C154.688 262.939 154.528 262.599 154.278 262.259C152.408 259.689 152.958 258.279 155.068 256.069C155.288 256.519 155.388 257.419 155.648 257.739C155.738 257.849 156.018 257.629 156.178 257.359C156.338 257.089 156.598 255.889 156.768 255.459C162.478 255.719 166.398 252.979 171.088 250.109C170.658 249.959 170.208 249.829 169.798 249.659C169.868 249.559 170.478 248.939 170.458 248.929C168.998 247.869 167.358 246.989 165.838 245.989C167.458 243.589 169.098 241.179 170.718 238.779C172.558 240.849 174.228 242.919 176.088 245.009C176.828 245.839 177.428 246.009 178.638 245.699C181.998 244.849 185.358 245.739 188.758 246.339C188.138 246.699 187.498 247.059 186.868 247.419C189.868 247.409 192.208 247.509 194.328 249.839C193.498 250.549 192.668 251.269 191.838 251.979C189.278 250.599 186.148 248.009 183.068 248.819C185.088 250.009 187.118 251.189 189.138 252.379C189.038 252.769 189.028 253.389 188.868 253.869C190.408 252.519 192.328 255.729 193.148 257.029C192.738 257.309 192.398 257.539 191.968 257.829C191.528 258.109 191.128 258.449 190.888 258.949C191.958 258.629 193.028 258.309 194.098 257.989C194.668 258.839 195.248 259.689 195.808 260.529C195.058 260.989 194.138 261.479 193.458 261.929C193.358 261.999 193.468 262.289 193.578 262.259C194.348 262.079 195.308 261.739 196.138 261.509C197.838 263.459 197.698 264.079 195.758 265.759C196.448 265.519 197.138 265.279 197.818 265.029C199.568 267.909 199.278 268.799 196.688 270.919C197.758 270.559 198.798 270.199 199.888 269.829C199.798 271.649 200.638 273.469 199.688 275.249ZM176.538 230.969C176.708 230.629 177.068 230.319 177.418 230.119C179.148 229.159 180.888 228.229 182.648 227.319C183.708 226.769 184.818 226.259 185.898 225.739C186.898 228.349 187.698 231.139 188.898 233.639C190.098 236.139 191.388 237.269 194.268 237.369C194.858 237.389 195.778 238.449 196.208 238.929C194.398 240.349 192.658 241.789 190.748 243.149C190.418 243.389 189.848 243.269 189.388 243.259C186.198 243.149 182.938 243.039 179.738 242.889C179.298 242.869 178.798 242.689 178.458 242.499C178.108 242.299 177.938 241.999 177.728 241.729C174.698 237.899 174.378 235.349 176.538 230.969ZM195.348 250.269C196.778 251.599 198.208 252.919 199.628 254.249C198.708 254.959 197.778 255.679 196.858 256.389C195.448 255.099 194.038 253.809 192.628 252.519C193.528 251.769 194.438 251.019 195.348 250.269ZM204.658 274.869C204.548 274.709 204.078 274.989 204.028 274.769C203.738 273.419 203.698 272.349 203.308 270.829C202.908 269.319 203.768 268.469 205.418 268.269C205.168 270.449 204.928 272.649 204.658 274.869ZM202.758 268.159C202.168 266.759 201.578 265.369 200.998 263.969C201.988 263.629 202.978 263.279 203.958 262.939C205.038 265.599 205.738 267.049 202.758 268.159ZM200.428 255.349C201.288 257.159 202.658 259.149 203.168 261.019C203.678 262.889 202.008 262.569 200.908 263.259C199.598 261.229 198.318 259.219 197.028 257.199C198.168 256.579 199.278 255.959 200.428 255.349ZM223.848 269.419C224.458 268.489 225.068 267.559 225.678 266.629C222.908 265.719 223.368 264.209 223.668 261.739C225.058 261.879 226.448 262.029 227.838 262.169C228.018 265.379 226.868 268.049 223.848 269.419ZM232.328 259.629C232.288 259.819 231.838 259.749 231.798 259.579C231.448 257.969 231.198 256.009 230.878 254.299C231.738 253.999 232.598 253.709 233.458 253.429C233.068 255.439 232.748 257.719 232.328 259.629ZM230.548 253.549C230.158 252.489 229.758 251.429 229.368 250.359C230.198 249.979 231.018 249.589 231.848 249.209C233.018 251.759 233.278 252.489 230.548 253.549ZM228.728 242.339C229.748 244.219 230.768 246.109 231.788 247.989C230.928 248.589 230.068 249.189 229.218 249.789C228.058 247.809 226.898 245.829 225.738 243.849C226.738 243.349 227.738 242.849 228.728 242.339ZM225.148 238.489C226.068 239.479 226.988 240.469 227.908 241.459C226.928 242.039 225.948 242.619 224.968 243.209C224.138 242.189 223.308 241.159 222.478 240.139C223.368 239.589 224.258 239.039 225.148 238.489ZM211.708 234.389C214.338 233.429 217.118 233.589 219.788 234.769C219.498 235.259 219.168 235.769 218.858 236.269C221.188 234.859 222.128 236.279 223.958 237.719C222.398 239.549 221.838 239.839 219.718 238.569C218.618 237.909 217.408 237.189 216.178 236.659C214.948 236.129 214.058 236.499 213.298 237.569C215.868 237.919 218.838 238.539 218.438 241.719C220.528 241.329 221.048 242.199 222.298 243.819C221.888 244.319 221.488 244.809 221.078 245.319C223.248 244.709 223.978 245.709 224.958 247.469C225.938 249.229 226.368 250.309 224.568 251.629C225.168 251.489 225.768 251.369 226.358 251.229C228.058 254.459 227.028 255.109 224.118 257.019C224.718 256.849 225.218 256.729 225.838 256.519C226.458 256.309 227.218 255.959 227.858 255.739C228.068 256.679 228.188 258.299 228.218 259.109C228.248 259.909 227.598 260.949 227.248 261.059C226.238 261.369 224.288 261.249 223.858 260.559C222.178 257.859 221.338 255.169 220.188 252.309C219.888 251.559 220.158 250.649 220.138 249.859C216.648 248.449 213.878 246.679 213.458 242.699C212.158 243.049 210.628 243.829 209.308 243.729C205.918 243.469 205.558 242.419 206.788 239.439C206.668 239.499 206.438 239.069 206.338 239.209C205.698 240.129 205.148 241.109 204.828 242.249C204.498 243.389 204.458 243.809 203.058 244.319C201.658 244.829 200.088 245.519 198.308 246.169C196.538 246.829 195.588 246.199 195.948 243.989C195.638 244.229 194.888 245.019 194.708 245.119C194.528 245.219 194.278 244.999 194.358 244.899C194.828 244.229 195.608 243.409 196.168 242.689C196.528 243.559 196.878 244.449 197.238 245.329C197.608 243.829 197.968 242.329 198.338 240.829C198.788 241.719 199.248 242.599 199.698 243.489C199.918 240.839 201.668 239.799 203.648 238.309C202.828 238.179 201.998 238.049 201.178 237.909C202.458 237.079 203.888 236.239 205.108 235.419C205.208 235.349 205.078 235.099 204.978 235.119C203.588 235.299 201.768 235.809 200.438 235.939C200.218 235.959 200.028 235.389 200.188 235.259C201.038 234.599 202.518 233.899 203.448 233.239C203.528 233.179 203.438 232.909 203.328 232.929C202.218 233.119 200.868 233.499 199.758 233.699C199.668 233.719 199.568 233.489 199.648 233.439C200.788 232.769 201.898 232.009 203.198 231.429C203.538 231.279 204.048 231.429 204.498 231.709C204.948 231.989 205.418 232.499 205.898 232.959C207.738 234.699 209.068 235.359 211.708 234.389ZM253.688 69.0686C253.648 73.3986 255.458 76.3886 258.148 79.6586C253.298 78.8386 249.428 76.7486 245.358 74.0686C246.928 77.8786 249.338 80.3386 252.588 82.7986C250.188 83.1186 247.798 83.4386 245.398 83.7586C247.658 87.3986 250.978 87.9186 254.838 89.0486C252.708 89.9886 250.298 90.8986 248.298 91.8586C248.088 91.9586 248.088 92.4586 248.298 92.5186C250.368 93.1386 252.848 93.6186 255.048 94.1886C252.878 97.2086 249.918 97.5486 246.578 98.6786C248.608 102.959 253.268 101.049 256.788 99.7386C256.188 105.369 256.128 111.119 255.388 116.739C253.418 131.539 250.348 145.629 243.608 159.069C234.778 176.679 222.538 190.449 207.438 202.919C200.548 208.609 192.938 212.979 185.668 218.179C184.858 218.759 183.558 219.339 182.658 219.869C184.988 211.539 186.448 203.589 185.698 194.919C185.478 194.869 185.248 194.819 185.028 194.769C184.338 197.399 183.648 200.029 182.958 202.649C182.498 201.199 182.128 199.599 181.628 198.209C181.558 198.019 181.178 198.329 181.058 198.209C180.458 203.259 179.878 208.279 179.278 213.319C179.058 213.299 178.828 213.299 178.608 213.279C178.238 210.769 177.928 208.039 177.518 205.629C177.488 205.439 176.988 205.409 176.948 205.589C176.558 207.629 176.278 209.889 175.948 212.069C174.678 220.449 173.108 228.639 169.868 236.519C168.988 238.649 167.698 240.719 166.178 242.409C164.078 244.749 161.908 245.039 159.328 242.969C156.748 240.899 155.118 238.299 154.308 234.809C153.498 231.319 153.108 227.059 152.568 223.349C152.438 222.439 152.388 221.359 152.078 220.469C150.108 225.009 149.498 229.539 149.338 234.459C146.758 228.739 147.358 223.049 147.128 216.929C144.648 220.409 144.338 224.129 143.808 228.259C139.068 227.979 135.098 229.949 130.718 231.349C128.238 232.139 125.848 232.809 123.318 233.169C122.208 233.329 120.638 232.899 120.038 232.009C119.438 231.119 120.268 229.719 120.938 228.949C124.408 224.999 127.848 220.999 131.888 217.439C134.248 215.359 137.508 214.579 140.268 212.979C156.898 203.359 172.728 193.269 186.258 179.409C199.028 166.329 208.348 151.739 213.888 134.279C216.798 125.119 218.198 115.679 215.728 106.259C212.238 92.8986 203.348 85.1486 189.138 85.0686C175.248 84.9986 164.158 91.4386 153.648 99.9986C154.118 99.8586 154.668 99.8286 155.068 99.5886C163.488 94.4986 171.998 90.6886 181.788 89.4586C186.398 88.8786 191.158 88.8486 195.428 90.3986C204.908 93.8486 209.808 101.129 211.008 110.659C212.208 120.189 210.148 128.509 206.998 137.109C200.878 153.849 190.868 166.799 178.348 179.149C170.408 186.979 161.368 192.899 152.168 199.019C165.938 184.699 177.738 170.979 184.498 152.039C183.558 153.389 182.688 154.659 181.738 156.039C180.788 157.409 179.858 158.849 178.888 160.269C169.808 173.549 159.718 185.049 147.018 195.009C143.918 197.439 140.168 198.849 136.718 200.789C136.368 200.979 135.718 200.909 135.328 200.739C136.158 199.939 137.008 199.179 137.858 198.389C150.068 187.029 160.188 174.879 168.498 160.379C168.458 160.419 168.498 160.399 168.448 160.449C167.918 160.969 167.138 161.279 166.638 161.849C158.508 171.299 150.398 180.479 140.758 188.449C137.438 191.199 133.708 193.349 130.068 195.729C129.038 196.399 127.648 196.609 126.408 196.719C126.738 196.339 127.078 195.949 127.438 195.589C137.838 185.299 147.378 174.639 155.588 162.509C155.628 162.449 155.648 162.379 155.688 162.319C154.438 163.549 152.698 164.829 151.638 165.889C142.048 175.359 132.328 185.279 120.658 192.709C117.848 194.499 114.568 195.679 111.428 196.819C123.228 185.809 134.308 174.509 143.928 161.509C142.958 162.399 141.998 163.289 141.038 164.179C131.938 172.579 122.888 180.759 112.558 187.679C108.918 190.119 104.978 191.959 100.898 193.719C98.9376 194.569 96.7276 194.659 94.4676 194.629C93.0476 194.609 91.2876 193.619 89.9176 193.119C90.5776 192.619 91.6676 191.859 92.2876 191.429C104.208 182.909 115.168 173.929 125.198 163.309C125.468 163.019 125.678 162.659 125.858 162.289C124.718 162.999 123.348 163.479 122.298 164.269C114.298 170.279 106.408 176.449 98.4576 182.489C98.2476 182.649 98.0476 182.979 97.9276 183.069C97.9276 183.069 97.9276 183.069 97.9176 183.069C98.4476 182.329 98.8676 181.359 99.5376 180.689C105.368 174.889 111.228 169.199 117.088 163.399C117.788 162.709 118.338 161.799 118.688 160.859C116.038 163.189 113.438 165.539 110.778 167.869C102.038 175.499 93.2176 182.739 83.3076 188.859C81.0876 190.229 78.6876 191.199 76.1476 192.009C73.5976 192.819 72.3076 191.299 72.9176 188.869C73.5276 186.439 74.3176 184.429 75.3776 182.309C77.3176 178.439 79.4776 174.839 81.5876 171.059C84.4176 173.209 87.5676 173.149 90.4376 171.479C95.6076 168.469 100.068 165.359 104.808 161.979C107.668 159.929 110.068 157.519 112.688 155.179C113.148 154.769 113.368 154.089 113.688 153.559C113.748 153.669 114.118 153.499 114.268 153.569C119.548 156.199 123.678 154.949 128.558 152.209C129.068 151.919 129.688 151.549 129.988 151.449C130.278 151.349 130.308 151.659 130.328 151.749C131.418 157.179 134.208 159.609 139.858 158.529C144.368 157.669 147.888 154.989 151.478 152.239C152.028 151.819 152.628 151.249 153.188 150.839C153.278 151.079 153.438 151.509 153.488 151.749C154.798 157.459 158.928 159.069 164.248 157.809C169.568 156.549 172.798 153.369 176.368 149.609C177.508 148.399 178.318 146.989 179.408 145.769C182.508 150.619 186.808 152.029 191.658 148.379C197.688 143.839 199.918 137.559 201.808 130.479C201.658 130.499 201.428 130.079 201.318 130.209C200.928 130.699 200.648 131.419 200.228 131.969C197.538 135.499 195.028 139.139 192.148 142.549C191.228 143.639 189.828 144.449 188.478 144.959C185.528 146.069 183.558 144.909 183.258 141.739C183.108 140.209 183.558 138.659 183.698 137.109C183.758 136.449 183.898 135.719 183.708 135.039C181.808 137.579 180.058 140.179 178.068 142.669C175.238 146.209 172.198 149.319 168.188 151.509C166.538 152.409 164.648 153.099 162.838 153.319C159.418 153.749 157.798 151.799 158.478 148.649C159.158 145.499 160.568 143.009 161.648 140.079C161.988 139.149 162.478 138.289 162.698 137.299C161.808 138.129 160.928 138.939 160.058 139.809C155.418 144.429 150.858 148.699 145.018 151.819C143.028 152.889 140.988 153.619 138.628 154.009C136.268 154.399 134.588 152.989 135.618 150.459C137.068 146.879 139.038 143.529 140.938 140.129C141.888 138.429 143.158 136.819 143.968 135.019C143.258 135.639 142.588 136.319 141.838 136.879C136.968 140.529 132.208 144.299 127.178 147.739C125.478 148.899 123.338 149.659 121.348 150.019C118.618 150.519 117.288 149.179 117.968 146.449C118.648 143.719 119.738 140.929 121.158 138.439C123.948 133.509 127.198 128.859 130.168 124.039C130.578 123.369 130.648 122.499 131.128 121.859C124.218 127.779 117.458 133.809 110.398 139.569C107.538 141.909 104.218 143.639 101.098 145.649C101.108 145.419 100.468 145.259 100.588 145.029C101.218 143.819 101.838 142.479 102.688 141.319C116.458 122.609 131.188 106.219 150.188 92.5686C160.848 84.9086 172.368 81.1986 185.438 80.1186C187.588 79.9386 189.808 80.1486 191.948 79.7986C182.918 75.1886 174.698 76.2486 165.018 78.0386C172.068 71.4286 179.108 64.8586 186.168 58.2286C185.948 58.1886 185.988 57.5686 185.718 57.6286C183.838 58.0686 181.838 58.7686 179.928 59.2886C187.838 45.5586 197.008 34.1386 209.418 24.2186C209.288 24.0586 209.168 23.9086 209.038 23.7486C205.978 24.9886 202.878 26.2186 199.848 27.4586C201.588 25.8386 202.998 23.8286 204.988 22.4486C225.678 8.14863 245.848 2.35862 270.978 4.28862C279.148 4.91862 286.258 7.70863 293.568 11.3486C297.148 13.1286 299.778 15.8486 301.158 19.6586C300.058 18.4686 298.948 17.1886 297.858 15.9786C297.898 16.6186 298.138 17.5286 298.078 18.1186C298.018 18.7086 298.398 19.6886 297.788 20.0186C297.178 20.3486 296.208 20.2386 295.458 19.9886C294.708 19.7386 294.098 18.9686 293.408 18.5186C290.278 16.4686 287.218 16.2486 284.598 19.2386C281.978 22.2186 281.108 25.7186 281.288 29.6386C281.348 31.0786 282.348 32.5586 282.908 33.7286C282.998 33.9286 283.478 33.8686 283.618 33.6786C284.098 32.9986 284.228 32.2686 284.738 31.3386C287.048 27.0486 290.208 25.0886 295.278 26.7186C297.408 27.4086 299.858 28.0186 302.088 26.7186C302.628 27.4686 303.108 28.1686 303.638 28.8986C300.658 29.1786 299.118 30.6886 297.098 32.7686C295.078 34.8486 293.048 36.1286 290.068 35.9686C284.768 35.6786 281.358 37.6886 278.228 41.8586C276.778 43.7986 276.058 46.0286 274.908 48.1286C260.018 51.9186 257.898 65.3486 263.968 77.9786C259.048 76.3986 256.608 73.1086 253.688 69.0686ZM287.718 73.3486C282.378 75.4586 277.398 76.3386 271.758 75.5586C270.288 75.3586 268.788 74.8786 267.558 74.1886C262.798 71.4886 261.528 68.4586 263.538 63.2786C265.088 59.2686 267.678 55.6686 270.968 52.9386C273.118 51.1486 274.488 51.4786 275.888 53.8386C276.768 55.3186 277.248 57.2286 277.788 58.9586C279.998 66.0486 283.618 69.3486 291.028 70.6086C291.288 70.6486 292.058 70.8286 292.368 70.9286C290.898 71.6686 289.228 72.7486 287.718 73.3486ZM296.588 83.8986C296.818 81.6986 297.278 80.0086 297.268 77.6686C297.258 75.3386 297.018 72.5986 296.658 70.1286C296.408 68.4086 295.168 67.4486 293.498 67.3686C291.828 67.2986 291.478 66.5786 291.028 65.1486C289.518 60.3586 286.858 56.6686 283.308 53.1986C282.078 51.9986 280.698 50.8686 279.528 49.8086C278.358 48.7486 278.218 47.8086 278.778 46.4286C280.218 42.9186 282.368 40.3386 285.538 38.2386C286.738 37.4486 288.298 37.0986 289.688 37.1486C293.168 37.2686 295.598 36.4086 298.118 34.0286C299.288 32.9286 300.428 31.8086 301.628 30.7386C313.608 48.8686 311.558 68.3086 296.588 83.8986Z" fill="black"/>
<path d="M115.558 201.109C96.2878 213.009 76.6478 223.939 55.9378 232.999C54.5778 233.589 52.9078 234.219 51.8178 234.429C50.7278 234.639 49.8478 234.939 49.2678 234.169C48.6978 233.409 48.9078 232.519 49.2878 231.419C49.6578 230.319 50.5978 228.769 51.3478 227.549C52.0978 226.329 53.1478 224.799 54.0278 223.549C58.2178 226.079 62.3678 225.209 66.4878 223.379C80.8578 216.979 93.5878 209.509 105.978 199.999C109.018 202.049 112.148 202.939 115.518 201.159C115.588 201.139 115.528 201.139 115.558 201.109Z" fill="white"/>
</svg>
