<svg width="24" height="24" viewBox="0 0 24 24" fill="none" xmlns="http://www.w3.org/2000/svg">
<g clip-path="url(#clip0_162_93)">
<path d="M7 20C6.44771 20 6 20.4477 6 21C6 21.5523 6.44771 22 7 22H17C17.5523 22 18 21.5523 18 21C18 20.4477 17.5523 20 17 20H7ZM5 14C4.44771 14 4 14.4477 4 15C4 15.5523 4.44771 16 5 16H19C19.5523 16 20 15.5523 20 15C20 14.4477 19.5523 14 19 14H5ZM7 8C6.44771 8 6 8.44772 6 9C6 9.55228 6.44771 10 7 10H17C17.5523 10 18 9.55228 18 9C18 8.44772 17.5523 8 17 8H7ZM5 2C4.44771 2 4 2.44772 4 3C4 3.55228 4.44771 4 5 4H19C19.5523 4 20 3.55228 20 3C20 2.44772 19.5523 2 19 2H5Z" fill="white"/>
</g>
<defs>
<clipPath id="clip0_162_93">
<rect width="24" height="24" fill="white"/>
</clipPath>
</defs>
</svg>
