<svg width="24" height="24" viewBox="0 0 24 24" fill="none" xmlns="http://www.w3.org/2000/svg">
<path d="M11 20C10.4477 20 10 20.4477 10 21C10 21.5523 10.4477 22 11 22H21C21.5523 22 22 21.5523 22 21C22 20.4477 21.5523 20 21 20H11ZM7 14C6.44771 14 6 14.4477 6 15C6 15.5523 6.44771 16 7 16H21C21.5523 16 22 15.5523 22 15C22 14.4477 21.5523 14 21 14H7ZM11 8C10.4477 8 10 8.44772 10 9C10 9.55228 10.4477 10 11 10H21C21.5523 10 22 9.55228 22 9C22 8.44772 21.5523 8 21 8H11ZM7 2C6.44771 2 6 2.44772 6 3C6 3.55228 6.44771 4 7 4H21C21.5523 4 22 3.55228 22 3C22 2.44772 21.5523 2 21 2H7Z" fill="white"/>
</svg>
