<svg width="24" height="24" viewBox="0 0 24 24" fill="none" xmlns="http://www.w3.org/2000/svg">
<path d="M13 3C13 2.44772 12.5523 2 12 2C11.4477 2 11 2.44772 11 3L12 3L13 3ZM11.6464 20.8517L10.9268 21.5462L10.935 21.5545L11.6464 20.8517ZM6.71962 14.3056C6.33613 13.9082 5.70306 13.8969 5.30563 14.2804C4.9082 14.6639 4.89689 15.2969 5.28038 15.6944L6 15L6.71962 14.3056ZM12.3536 20.8517L13.065 21.5546L13.0732 21.5461L12.3536 20.8517ZM18.7196 15.6944C19.1031 15.2969 19.0918 14.6639 18.6944 14.2804C18.2969 13.8969 17.6639 13.9082 17.2804 14.3056L18 15L18.7196 15.6944ZM12 3L11 3L11 21H12H13L13 3L12 3ZM11.6464 20.8517L12.3661 20.1574L6.71962 14.3056L6 15L5.28038 15.6944L10.9268 21.5461L11.6464 20.8517ZM12.3536 20.8517L13.0732 21.5461L18.7196 15.6944L18 15L17.2804 14.3056L11.6339 20.1574L12.3536 20.8517ZM11.6464 20.8517L10.935 21.5545C11.5218 22.1485 12.4782 22.1485 13.065 21.5545L12.3536 20.8517L11.6421 20.149C11.8384 19.9503 12.1616 19.9503 12.3579 20.149L11.6464 20.8517Z" fill="#F4F4F4"/>
</svg>
