<svg width="24" height="24" viewBox="0 0 24 24" fill="none" xmlns="http://www.w3.org/2000/svg">
<path d="M10 5L8 3M14 5L16 3M9 14H15M9 18H15M7.12438 15.1183C6.93883 15.3043 6.72898 15.4662 6.5 15.5987C6.05874 15.8539 5.54643 16 5 16C3.34315 16 2 14.6569 2 13C2 11.3431 3.34315 10 5 10L5.03891 10.0002L12 10M7.12438 15.1183C7.13121 15.1114 7.138 15.1045 7.14476 15.0976M7.12438 15.1183L7.1213 15.1214M7.12438 15.1183L7.14476 15.0976M7.14476 15.0976L12.071 10.1716M16.9467 15.1183C17.1322 15.3043 17.3421 15.4662 17.571 15.5987C18.0123 15.8539 18.5246 16 19.071 16C20.7279 16 22.071 14.6569 22.071 13C22.071 11.3431 20.7279 10 19.071 10L19.0321 10.0002L12.071 10M16.9467 15.1183C16.9398 15.1114 16.933 15.1045 16.9263 15.0976M16.9467 15.1183L16.9497 15.1214M16.9467 15.1183L16.9263 15.0976M16.9263 15.0976L12 10.1716M10 10H14C14.5523 10 15 9.55228 15 9V8C15 6.34315 13.6569 5 12 5C10.3431 5 9 6.34315 9 8V9C9 9.55228 9.44772 10 10 10ZM11.4636 10.4004C10.3731 11.2675 8 13.4476 8 16C8 18.5524 10.3731 20.7325 11.4636 21.5996C11.7815 21.8523 12.2185 21.8523 12.5364 21.5996C13.6269 20.7325 16 18.5524 16 16C16 13.4476 13.6269 11.2675 12.5364 10.4004C12.2185 10.1477 11.7815 10.1477 11.4636 10.4004Z" stroke="#FCFCFC" stroke-width="2" stroke-linecap="round"/>
</svg>
