<svg width="24" height="24" viewBox="0 0 24 24" fill="none" xmlns="http://www.w3.org/2000/svg">
<path d="M9.76855 18H8C6.89543 18 6 18.8954 6 20C6 21.1046 6.89543 22 8 22H16C17.1046 22 18 21.1046 18 20C18 18.8954 17.1046 18 16 18H14.2314M9.76855 18C10.3178 18.6124 11.1126 19 12 19C12.8874 19 13.6822 18.6124 14.2314 18M9.76855 18C9.29228 17.469 9 16.7695 9 16C9 15.2305 9.29228 14.531 9.76855 14M9.76855 18H7C5.89543 18 5 17.1046 5 16C5 14.8954 5.89543 14 7 14H9.76855M14.2314 18H17C18.1046 18 19 17.1046 19 16C19 14.8954 18.1046 14 17 14H14.2314M14.2314 18C14.7077 17.469 15 16.7695 15 16C15 15.2305 14.7077 14.531 14.2314 14M9.76855 14C10.3178 13.3876 11.1126 13 12 13C12.8874 13 13.6822 13.3876 14.2314 14M9.76855 14H5C3.89543 14 3 13.1046 3 12C3 10.8954 3.89543 10 5 10H19C20.1046 10 21 10.8954 21 12C21 13.1046 20.1046 14 19 14H14.2314M8 6H16C17.1046 6 18 5.10457 18 4C18 2.89543 17.1046 2 16 2H8C6.89543 2 6 2.89543 6 4C6 5.10457 6.89543 6 8 6ZM7 10H17C18.1046 10 19 9.10457 19 8C19 6.89543 18.1046 6 17 6H7C5.89543 6 5 6.89543 5 8C5 9.10457 5.89543 10 7 10Z" stroke="#FCFCFC" stroke-width="2" stroke-linecap="round"/>
</svg>
