<svg width="24" height="24" viewBox="0 0 24 24" fill="none" xmlns="http://www.w3.org/2000/svg">
<g id="black_hole">
<path id="Vector" d="M8.33108 12C8.33116 9.79098 10.122 8 12.3311 8C14.5402 8 16.331 9.79098 16.3311 12M8.33108 12L16.3311 12M8.33108 12C8.33114 14.209 10.122 16 12.3311 16C14.5402 16 16.331 14.209 16.3311 12M20.3311 12C20.331 16.4183 16.7494 19.9999 12.3311 20C7.91269 20 4.33119 16.4183 4.33108 12L20.3311 12ZM22.157 12C22.6877 12 22.8814 11.2276 22.4264 10.9543C21.45 10.3678 20.3066 9.59554 19.5311 8.8C17.3338 6.54582 16.1576 4 12.3311 4C8.57288 4 7.33138 6.57254 5.13108 8.8C4.3342 9.60673 3.21317 10.3682 2.25487 10.9458C1.79934 11.2203 1.99401 12 2.52589 12H22.157Z" stroke="white" stroke-width="2" stroke-linecap="round"/>
</g>
</svg>
