<svg width="24" height="24" viewBox="0 0 24 24" fill="none" xmlns="http://www.w3.org/2000/svg">
<g id="Property 1=duotone">
<path id="tone2" d="M17.5 4H6.5C6.22386 4 6 4.22386 6 4.5V18.7929C6 19.2383 6.53857 19.4614 6.85355 19.1464L11.6464 14.3536C11.8417 14.1583 12.1583 14.1583 12.3536 14.3536L17.1464 19.1464C17.4614 19.4614 18 19.2383 18 18.7929V4.5C18 4.22386 17.7761 4 17.5 4Z" fill="#FF7700" stroke="white" stroke-width="2" stroke-linecap="round"/>
<path id="tone1" d="M17.5 4H6.5C6.22386 4 6 4.22386 6 4.5V18.7929C6 19.2383 6.53857 19.4614 6.85355 19.1464L11.6464 14.3536C11.8417 14.1583 12.1583 14.1583 12.3536 14.3536L17.1464 19.1464C17.4614 19.4614 18 19.2383 18 18.7929V4.5C18 4.22386 17.7761 4 17.5 4Z" stroke="white" stroke-width="2" stroke-linecap="round"/>
</g>
</svg>
