<svg width="24" height="24" viewBox="0 0 24 24" fill="none" xmlns="http://www.w3.org/2000/svg">
<g id="Property 1=filled">
<g id="Vector">
<path d="M17.5 4H6.5C6.22386 4 6 4.22386 6 4.5V18.7929C6 19.2383 6.53857 19.4614 6.85355 19.1464L11.6464 14.3536C11.8417 14.1583 12.1583 14.1583 12.3536 14.3536L17.1464 19.1464C17.4614 19.4614 18 19.2383 18 18.7929V4.5C18 4.22386 17.7761 4 17.5 4Z" fill="white"/>
<path d="M7 17.5859L10.9395 13.6465L11.0537 13.5439C11.6036 13.0955 12.3964 13.0955 12.9463 13.5439L13.0605 13.6465L17 17.5859V5H7V17.5859ZM19 18.793C18.9999 20.1293 17.3844 20.7984 16.4395 19.8535L12 15.4141L7.56055 19.8535C6.61561 20.7984 5.00006 20.1293 5 18.793V4.5C5 3.67157 5.67157 3 6.5 3H17.5C18.3284 3 19 3.67157 19 4.5V18.793Z" fill="white"/>
</g>
</g>
</svg>
