<svg width="24" height="24" viewBox="0 0 24 24" fill="none" xmlns="http://www.w3.org/2000/svg">
<path d="M4.55279 6.72361L11.5528 3.22361C11.8343 3.08284 12.1657 3.08284 12.4472 3.22361L19.4472 6.72361C19.786 6.893 20 7.23926 20 7.61803V16.382C20 16.7607 19.786 17.107 19.4472 17.2764L12.4472 20.7764C12.1657 20.9172 11.8343 20.9172 11.5528 20.7764L4.55279 17.2764C4.214 17.107 4 16.7607 4 16.382V7.61803C4 7.23926 4.214 6.893 4.55279 6.72361Z" stroke="#F4F4F4" stroke-width="2" stroke-linecap="round"/>
<path d="M12 20.5V11" stroke="#F4F4F4" stroke-width="2" stroke-linecap="round"/>
<path d="M4.5 7L11.5592 10.7649C11.8367 10.9129 12.1677 10.9217 12.4527 10.7887L19.5 7.5" stroke="#F4F4F4" stroke-width="2" stroke-linecap="round"/>
</svg>
