<svg width="24" height="24" viewBox="0 0 24 24" fill="none" xmlns="http://www.w3.org/2000/svg">
<path d="M7 12C7 10.8954 7.89543 10 9 10H15C16.1046 10 17 10.8954 17 12V15C17 17.7614 14.7614 20 12 20C9.23858 20 7 17.7614 7 15V12Z" fill="#7087D5"/>
<path d="M9 8C9 6.34315 10.3431 5 12 5C13.6569 5 15 6.34315 15 8V9C15 9.55228 14.5523 10 14 10H10C9.44772 10 9 9.55228 9 9V8Z" fill="#7087D5"/>
<path d="M8.70711 2.29289C8.31658 1.90237 7.68342 1.90237 7.29289 2.29289C6.90237 2.68342 6.90237 3.31658 7.29289 3.70711L8 3L8.70711 2.29289ZM16.7071 3.70711C17.0976 3.31658 17.0976 2.68342 16.7071 2.29289C16.3166 1.90237 15.6834 1.90237 15.2929 2.29289L16 3L16.7071 3.70711ZM21 7C21 6.44772 20.5523 6 20 6C19.4477 6 19 6.44772 19 7H20H21ZM5 7C5 6.44772 4.55228 6 4 6C3.44772 6 3 6.44772 3 7H4H5ZM16 17C15.4477 17 15 17.4477 15 18C15 18.5523 15.4477 19 16 19V18V17ZM19 21C19 21.5523 19.4477 22 20 22C20.5523 22 21 21.5523 21 21H20H19ZM8 19C8.55228 19 9 18.5523 9 18C9 17.4477 8.55228 17 8 17V18V19ZM3 21C3 21.5523 3.44772 22 4 22C4.55228 22 5 21.5523 5 21H4H3ZM17 13C16.4477 13 16 13.4477 16 14C16 14.5523 16.4477 15 17 15V14V13ZM21 15C21.5523 15 22 14.5523 22 14C22 13.4477 21.5523 13 21 13V14V15ZM3 13C2.44772 13 2 13.4477 2 14C2 14.5523 2.44772 15 3 15V14V13ZM7 15C7.55228 15 8 14.5523 8 14C8 13.4477 7.55228 13 7 13V14V15ZM13 14C13 13.4477 12.5523 13 12 13C11.4477 13 11 13.4477 11 14H12H13ZM10 5L10.7071 4.29289L8.70711 2.29289L8 3L7.29289 3.70711L9.29289 5.70711L10 5ZM14 5L14.7071 5.70711L16.7071 3.70711L16 3L15.2929 2.29289L13.2929 4.29289L14 5ZM15 10V11C15.8013 11 17.2302 11.01 18.4637 10.5659C19.0988 10.3373 19.7455 9.96786 20.2331 9.36024C20.7316 8.73897 21 7.94783 21 7H20H19C19 7.55217 18.8517 7.88603 18.6732 8.10851C18.4837 8.34464 18.1929 8.53774 17.7863 8.68411C16.9365 8.99004 15.8653 9 15 9V10ZM9 10V9C8.13465 9 7.06351 8.99004 6.21372 8.68411C5.80713 8.53774 5.51629 8.34464 5.3268 8.10851C5.14827 7.88603 5 7.55217 5 7H4H3C3 7.94783 3.2684 8.73897 3.76695 9.36024C4.25454 9.96786 4.90121 10.3373 5.53628 10.5659C6.76982 11.01 8.19868 11 9 11V10ZM16 18V19C16.7025 19 17.4836 19.0142 18.0896 19.2869C18.3661 19.4113 18.5745 19.5777 18.721 19.8059C18.8682 20.0352 19 20.4006 19 21H20H21C21 20.0994 20.7984 19.3398 20.404 18.7254C20.0088 18.1098 19.4672 17.7137 18.9104 17.4631C17.8498 16.9858 16.6309 17 16 17V18ZM8 18V17C7.36915 17 6.15022 16.9858 5.08964 17.4631C4.53279 17.7137 3.99121 18.1098 3.59598 18.7254C3.20156 19.3398 3 20.0994 3 21H4H5C5 20.4006 5.13177 20.0352 5.27902 19.8059C5.42546 19.5777 5.63387 19.4113 5.91036 19.2869C6.51645 19.0142 7.29752 19 8 19V18ZM17 14V15H21V14V13H17V14ZM3 14V15H7V14V13H3V14ZM12 20H13V14H12H11V20H12ZM9 10V11H15V10V9H9V10ZM17 12H16V15H17H18V12H17ZM7 15H8V12H7H6V15H7ZM12 20V19C9.79086 19 8 17.2091 8 15H7H6C6 18.3137 8.68629 21 12 21V20ZM17 15H16C16 17.2091 14.2091 19 12 19V20V21C15.3137 21 18 18.3137 18 15H17ZM15 10V11C15.5523 11 16 11.4477 16 12H17H18C18 10.3431 16.6569 9 15 9V10ZM9 10V9C7.34315 9 6 10.3431 6 12H7H8C8 11.4477 8.44772 11 9 11V10ZM15 8H14V9H15H16V8H15ZM14 10V9H10V10V11H14V10ZM9 9H10V8H9H8V9H9ZM10 10V9H9H8C8 10.1046 8.89543 11 10 11V10ZM15 9H14V10V11C15.1046 11 16 10.1046 16 9H15ZM12 5V6C13.1046 6 14 6.89543 14 8H15H16C16 5.79086 14.2091 4 12 4V5ZM12 5V4C9.79086 4 8 5.79086 8 8H9H10C10 6.89543 10.8954 6 12 6V5Z" fill="white"/>
</svg>
