<svg width="24" height="24" viewBox="0 0 24 24" fill="none" xmlns="http://www.w3.org/2000/svg">
<path d="M8 7.57135C8 5.59891 9.59898 3.99992 11.5714 3.99992H12.4286C14.401 3.99992 16 5.59891 16 7.57135C16 7.80805 15.8081 7.99992 15.5714 7.99992H8.42857C8.19188 7.99992 8 7.80805 8 7.57135Z" fill="white"/>
<path d="M8.42857 7.99992L8.3418 7.99114C8.1467 7.95102 8 7.77832 8 7.57135C8 5.59891 9.59898 3.99992 11.5714 3.99992H12.4286L12.6123 4.00481C14.4993 4.10044 15.9999 5.6606 16 7.57135C16 7.80805 15.8081 7.99992 15.5714 7.99992H8.42857Z" fill="white"/>
<path d="M7.29297 2.29289C7.68349 1.90237 8.31651 1.90237 8.70703 2.29289L10.707 4.29289C11.0976 4.68342 11.0976 5.31643 10.707 5.70696C10.3165 6.09748 9.68349 6.09748 9.29297 5.70696L7.29297 3.70696C6.90244 3.31643 6.90244 2.68342 7.29297 2.29289Z" fill="white"/>
<path d="M16.707 2.29289C16.3165 1.90237 15.6835 1.90237 15.293 2.29289L13.293 4.29289C12.9024 4.68342 12.9024 5.31643 13.293 5.70696C13.6835 6.09748 14.3165 6.09748 14.707 5.70696L16.707 3.70696C17.0976 3.31643 17.0976 2.68342 16.707 2.29289Z" fill="white"/>
<path d="M19 6.99992C19 6.44764 19.4477 5.99992 20 5.99992C20.5523 5.99992 21 6.44764 21 6.99992C21 7.9477 20.7319 8.73902 20.2334 9.36028C19.7459 9.96781 19.0989 10.3367 18.4639 10.5654C17.2303 11.0094 15.8013 10.9999 15 10.9999C14.4477 10.9999 14 10.5522 14 9.99992C14 9.44764 14.4477 8.99992 15 8.99992C15.8653 8.99992 16.9364 8.99032 17.7861 8.68449C18.1927 8.53814 18.4834 8.3444 18.6729 8.10832C18.8514 7.88584 19 7.55209 19 6.99992Z" fill="white"/>
<path d="M5 6.99992C5 6.44764 4.55228 5.99992 4 5.99992C3.44772 5.99992 3 6.44764 3 6.99992C3 7.9477 3.2681 8.73902 3.7666 9.36028C4.25413 9.96781 4.90115 10.3367 5.53613 10.5654C6.76967 11.0094 8.19868 10.9999 9 10.9999C9.55228 10.9999 10 10.5522 10 9.99992C10 9.44764 9.55228 8.99992 9 8.99992C8.13474 8.99992 7.06362 8.99032 6.21387 8.68449C5.80733 8.53814 5.51664 8.3444 5.32715 8.10832C5.14862 7.88584 5 7.55209 5 6.99992Z" fill="white"/>
<path d="M19 20.9999C19 21.5522 19.4477 21.9999 20 21.9999C20.5523 21.9999 21 21.5522 21 20.9999C21 20.0995 20.7986 19.3398 20.4043 18.7255C20.0091 18.1099 19.467 17.7134 18.9102 17.4628C17.8496 16.9857 16.6308 16.9999 16 16.9999C15.4477 16.9999 15 17.4476 15 17.9999C15 18.5522 15.4477 18.9999 16 18.9999C16.7025 18.9999 17.4838 19.0143 18.0898 19.287C18.3661 19.4114 18.5743 19.5777 18.7207 19.8056C18.868 20.035 19 20.4005 19 20.9999Z" fill="white"/>
<path d="M5 20.9999C5 21.5522 4.55228 21.9999 4 21.9999C3.44772 21.9999 3 21.5522 3 20.9999C3 20.0995 3.2014 19.3398 3.5957 18.7255C3.99093 18.1099 4.533 17.7134 5.08984 17.4628C6.15037 16.9857 7.3692 16.9999 8 16.9999C8.55228 16.9999 9 17.4476 9 17.9999C9 18.5522 8.55228 18.9999 8 18.9999C7.29752 18.9999 6.51624 19.0143 5.91016 19.287C5.63389 19.4114 5.42569 19.5777 5.2793 19.8056C5.13205 20.035 5 20.4005 5 20.9999Z" fill="white"/>
<path d="M21 12.9999C21.5523 12.9999 22 13.4476 22 13.9999C22 14.5522 21.5523 14.9999 21 14.9999H17C16.4477 14.9999 16 14.5522 16 13.9999C16 13.4476 16.4477 12.9999 17 12.9999H21Z" fill="white"/>
<path d="M7 12.9999C7.55228 12.9999 8 13.4476 8 13.9999C8 14.5522 7.55228 14.9999 7 14.9999H3C2.44772 14.9999 2 14.5522 2 13.9999C2 13.4476 2.44772 12.9999 3 12.9999H7Z" fill="white"/>
<path fill-rule="evenodd" clip-rule="evenodd" d="M15 8.99992C16.6569 8.99992 18 10.3431 18 11.9999V14.9999C18 18.3136 15.3137 20.9999 12 20.9999C8.68629 20.9999 6 18.3136 6 14.9999V11.9999C6 10.3431 7.34315 8.99992 9 8.99992H15ZM12 12.9999C11.4477 12.9999 11 13.2797 11 13.6249V17.3749C11 17.7201 11.4477 17.9999 12 17.9999C12.5523 17.9999 13 17.7201 13 17.3749V13.6249C13 13.2797 12.5523 12.9999 12 12.9999Z" fill="white"/>
</svg>
