<svg width="20" height="20" viewBox="0 0 20 20" fill="none" xmlns="http://www.w3.org/2000/svg">
<path d="M12.1667 8C12.6269 8 13 7.6269 13 7.16667C13 5.76733 12.3102 4.52911 11.2521 3.7735M12.1667 8H11.5M12.1667 8H13M11.2521 3.7735C10.5701 3.28652 9.73519 3 8.83333 3C8.29976 3 7.78804 2.78804 7.41074 2.41074L6 1M11.2521 3.7735L14 1M5 12V13C5 14.1256 5.37194 15.1643 5.99963 16M5 12V10C5 8.99482 5.74154 8.16283 6.70742 8.02125M5 12H1M10 18H10.8787C12.2369 18 13.6232 17.3829 14.5836 16.4225M10 18C8.36418 18 6.91184 17.2144 5.99963 16M10 18V12M5.99963 16C4.66618 16 2 16.0003 2 19M14.5836 16.4225L6.70742 8.02125M14.5836 16.4225L17 19M6.70742 8.02125L2 3M13 8C14.6667 8 18 8 18 5M13 8C14.1046 8 15 8.89543 15 10C15 11.1046 15.8954 12 17 12H19" stroke="white" stroke-width="2" stroke-linecap="round"/>
</svg>
