<svg width="24" height="24" viewBox="0 0 24 24" fill="none" xmlns="http://www.w3.org/2000/svg">
<path d="M10 5L8 3M14 5L16 3M12 20C9.23858 20 7 17.7614 7 15V12C7 10.8954 7.89543 10 9 10M12 20C14.7614 20 17 17.7614 17 15V12C17 10.8954 16.1046 10 15 10M12 20V14M15 10H9M15 10C16.6667 10 20 10 20 7M9 10C7.33333 10 4 10 4 7M16 18C17.3333 18 20 18 20 21M8 18C6.66667 18 4 18 4 21M17 14H21M3 14H7M10 10H14C14.5523 10 15 9.55228 15 9V8C15 6.34315 13.6569 5 12 5C10.3431 5 9 6.34315 9 8V9C9 9.55228 9.44772 10 10 10Z" stroke="white" stroke-width="2" stroke-linecap="round"/>
</svg>
