<svg width="24" height="24" viewBox="0 0 24 24" fill="none" xmlns="http://www.w3.org/2000/svg">
<path d="M3 3V20.5C3 20.7761 3.22386 21 3.5 21H21" stroke="white" stroke-width="2" stroke-linecap="round"/>
<path d="M8.5 15C8.5 15.2761 8.27614 15.5 8 15.5C7.72386 15.5 7.5 15.2761 7.5 15C7.5 14.7239 7.72386 14.5 8 14.5C8.27614 14.5 8.5 14.7239 8.5 15Z" stroke="white"/>
<path d="M12.5 10C12.5 10.2761 12.2761 10.5 12 10.5C11.7239 10.5 11.5 10.2761 11.5 10C11.5 9.72386 11.7239 9.5 12 9.5C12.2761 9.5 12.5 9.72386 12.5 10Z" stroke="white"/>
<path d="M9.5 6C9.5 6.27614 9.27614 6.5 9 6.5C8.72386 6.5 8.5 6.27614 8.5 6C8.5 5.72386 8.72386 5.5 9 5.5C9.27614 5.5 9.5 5.72386 9.5 6Z" stroke="white"/>
<path d="M16.5 16C16.5 16.2761 16.2761 16.5 16 16.5C15.7239 16.5 15.5 16.2761 15.5 16C15.5 15.7239 15.7239 15.5 16 15.5C16.2761 15.5 16.5 15.7239 16.5 16Z" stroke="white"/>
<path d="M18.5 8C18.5 8.27614 18.2761 8.5 18 8.5C17.7239 8.5 17.5 8.27614 17.5 8C17.5 7.72386 17.7239 7.5 18 7.5C18.2761 7.5 18.5 7.72386 18.5 8Z" stroke="white"/>
</svg>
