<svg width="24" height="24" viewBox="0 0 24 24" fill="none" xmlns="http://www.w3.org/2000/svg">
<path d="M20 10C20.5523 10 21.0073 9.55005 20.9287 9.00339C20.8458 8.4269 20.691 7.86171 20.4672 7.32122C20.1154 6.47194 19.5998 5.70027 18.9498 5.05026C18.2997 4.40025 17.5281 3.88463 16.6788 3.53285C16.1383 3.30897 15.5731 3.15423 14.9966 3.07131C14.45 2.99268 14 3.44772 14 4V9C14 9.55229 14.4477 10 15 10H20Z" stroke="white" stroke-width="2"/>
<path d="M10.5 7C10.5 6.44772 10.0503 5.99315 9.50294 6.06657C8.37321 6.2181 7.28826 6.62585 6.33323 7.26398C5.09986 8.08809 4.13856 9.25943 3.57091 10.6299C3.00325 12.0003 2.85472 13.5083 3.14411 14.9632C3.4335 16.418 4.14781 17.7544 5.1967 18.8033C6.2456 19.8522 7.58197 20.5665 9.03683 20.8559C10.4917 21.1453 11.9997 20.9968 13.3701 20.4291C14.7406 19.8614 15.9119 18.9001 16.736 17.6668C17.3742 16.7117 17.7819 15.6268 17.9334 14.4971C18.0069 13.9497 17.5523 13.5 17 13.5H11.5C10.9477 13.5 10.5 13.0523 10.5 12.5V7Z" stroke="white" stroke-width="2"/>
</svg>
