<svg width="24" height="24" viewBox="0 0 24 24" fill="none" xmlns="http://www.w3.org/2000/svg">
<path d="M10.2583 9.27585C9.87564 9.0988 9.44936 9 9 9C7.34315 9 6 10.3431 6 12C6 13.6569 7.34315 15 9 15C9.44936 15 9.87564 14.9012 10.2583 14.7241M18.2583 9.27585C17.8756 9.0988 17.4494 9 17 9C15.3431 9 14 10.3431 14 12C14 13.6569 15.3431 15 17 15C17.4494 15 17.8756 14.9012 18.2583 14.7241M4 5H20C21.1046 5 22 5.89543 22 7V17C22 18.1046 21.1046 19 20 19H4C2.89543 19 2 18.1046 2 17V7C2 5.89543 2.89543 5 4 5Z" stroke="#FCFCFC" stroke-width="2" stroke-linecap="round"/>
</svg>
