<svg width="24" height="24" viewBox="0 0 24 24" fill="none" xmlns="http://www.w3.org/2000/svg">
<path d="M20.3815 3C20.6998 3 20.9371 3.29351 20.8704 3.60477L17.2276 20.6048C17.1782 20.8353 16.9744 21 16.7386 21H15.9068C14.7067 21 13.6221 20.2848 13.1493 19.1818L12.4596 17.5723C12.2864 17.1683 11.7136 17.1683 11.5404 17.5723L10.8507 19.1818C10.3779 20.2848 9.29332 21 8.09324 21H7.26135C7.02558 21 6.82185 20.8353 6.77245 20.6048L3.12959 3.60476C3.06289 3.29351 3.30017 3 3.61849 3H6.62718C6.77314 3 6.91181 3.06378 7.0068 3.1746L11.6204 8.5571C11.8199 8.78991 12.1801 8.78991 12.3796 8.5571L16.9932 3.1746C17.0882 3.06378 17.2269 3 17.3728 3H20.3815Z" stroke="#FCFCFC" stroke-width="2"/>
<path d="M15 11.7317C15 13.3886 13.6569 14.7317 12 14.7317C10.3431 14.7317 9 13.3886 9 11.7317C9 10.0749 10.3431 8.7317 12 8.7317C12.02 8.7317 12.04 8.7319 12.0599 8.73229C13.6891 8.76422 15 10.0949 15 11.7317Z" stroke="#FCFCFC" stroke-width="2"/>
</svg>
