<svg width="24" height="24" viewBox="0 0 24 24" fill="none" xmlns="http://www.w3.org/2000/svg">
<path d="M12 19V12M16 15L12.3536 11.3536C12.1583 11.1583 11.8417 11.1583 11.6464 11.3536L8 15M8.0625 5C9.60617 5 10.9789 5.72756 11.8593 6.85776C12.0142 7.05665 12.2841 7.13338 12.5206 7.04611C13.04 6.85448 13.6016 6.75 14.1875 6.75C16.413 6.75 18.2853 8.26064 18.8357 10.3124C18.8788 10.4731 18.9908 10.6071 19.1407 10.679C20.6103 11.3844 21.625 12.886 21.625 14.625C21.625 17.0412 19.6662 19 17.25 19H6.75C4.33375 19 2.375 17.0412 2.375 14.625C2.375 13.5655 2.75174 12.5941 3.37842 11.8371C3.50353 11.686 3.54377 11.4804 3.48333 11.2937C3.33221 10.8271 3.25 10.3295 3.25 9.8125C3.25 7.15463 5.40463 5 8.0625 5Z" stroke="white" stroke-width="2" stroke-linecap="round"/>
</svg>
