<svg width="24" height="24" viewBox="0 0 24 24" fill="none" xmlns="http://www.w3.org/2000/svg">
<path d="M16.2929 17.7071C16.6834 18.0976 17.3166 18.0976 17.7071 17.7071C18.0976 17.3166 18.0976 16.6834 17.7071 16.2929L17 17L16.2929 17.7071ZM7.70711 6.29289C7.31658 5.90237 6.68342 5.90237 6.29289 6.29289C5.90237 6.68342 5.90237 7.31658 6.29289 7.70711L7 7L7.70711 6.29289ZM11.7929 19.2071C12.1834 19.5976 12.8166 19.5976 13.2071 19.2071C13.5976 18.8166 13.5976 18.1834 13.2071 17.7929L12.5 18.5L11.7929 19.2071ZM4.70711 9.29289C4.31658 8.90237 3.68342 8.90237 3.29289 9.29289C2.90237 9.68342 2.90237 10.3166 3.29289 10.7071L4 10L4.70711 9.29289ZM2 12H3C3 11.777 3.13574 11.2821 3.56675 10.5925C3.97783 9.93477 4.59692 9.19829 5.40079 8.50926C7.00911 7.1307 9.28611 6 12 6V5V4C8.71389 4 5.99089 5.3693 4.09921 6.99074C3.15308 7.80171 2.39717 8.69023 1.87075 9.5325C1.36426 10.3429 1 11.223 1 12H2ZM12 5V6C14.7139 6 16.9909 7.1307 18.5992 8.50926C19.4031 9.19829 20.0222 9.93477 20.4333 10.5925C20.8643 11.2821 21 11.777 21 12H22H23C23 11.223 22.6357 10.3429 22.1292 9.5325C21.6028 8.69023 20.8469 7.80171 19.9008 6.99074C18.0091 5.3693 15.2861 4 12 4V5ZM22 12H21C21 12.223 20.8643 12.7179 20.4333 13.4075C20.0222 14.0652 19.4031 14.8017 18.5992 15.4907C16.9909 16.8693 14.7139 18 12 18V19V20C15.2861 20 18.0091 18.6307 19.9008 17.0093C20.8469 16.1983 21.6028 15.3098 22.1292 14.4675C22.6357 13.6571 23 12.777 23 12H22ZM12 19V18C9.28611 18 7.00911 16.8693 5.40079 15.4907C4.59692 14.8017 3.97783 14.0652 3.56675 13.4075C3.13574 12.7179 3 12.223 3 12H2H1C1 12.777 1.36426 13.6571 1.87075 14.4675C2.39717 15.3098 3.15308 16.1983 4.09921 17.0093C5.99089 18.6307 8.71389 20 12 20V19ZM13.1311 9V10C14.2356 10 15.1311 10.8954 15.1311 12H16.1311H17.1311C17.1311 9.79086 15.3402 8 13.1311 8V9ZM16.1311 12H15.1311C15.1311 12.5492 14.911 13.0451 14.5519 13.4076L15.2623 14.1114L15.9727 14.8152C16.6877 14.0935 17.1311 13.0975 17.1311 12H16.1311ZM11 9.88848L11.7103 10.5923C12.0739 10.2254 12.5752 10 13.1311 10V9V8C12.0201 8 11.0134 8.45422 10.2897 9.18462L11 9.88848ZM7 7L6.29289 7.70711L16.2929 17.7071L17 17L17.7071 16.2929L7.70711 6.29289L7 7ZM4 10L3.29289 10.7071L11.7929 19.2071L12.5 18.5L13.2071 17.7929L4.70711 9.29289L4 10Z" fill="#FCFCFC"/>
</svg>
