<svg width="24" height="24" viewBox="0 0 24 24" fill="none" xmlns="http://www.w3.org/2000/svg">
<path d="M18 10.5C18 10.7761 17.7761 11 17.5 11C17.2239 11 17 10.7761 17 10.5C17 10.2239 17.2239 10 17.5 10C17.7761 10 18 10.2239 18 10.5Z" fill="#FCFCFC" stroke="#FCFCFC" stroke-width="2"/>
<path d="M14 6.5C14 6.77614 13.7761 7 13.5 7C13.2239 7 13 6.77614 13 6.5C13 6.22386 13.2239 6 13.5 6C13.7761 6 14 6.22386 14 6.5Z" fill="#FCFCFC" stroke="#FCFCFC" stroke-width="2"/>
<path d="M9 8.5C9 8.77614 8.77614 9 8.5 9C8.22386 9 8 8.77614 8 8.5C8 8.22386 8.22386 8 8.5 8C8.77614 8 9 8.22386 9 8.5Z" fill="#FCFCFC" stroke="#FCFCFC" stroke-width="2"/>
<path d="M7 13.5C7 13.7761 6.77614 14 6.5 14C6.22386 14 6 13.7761 6 13.5C6 13.2239 6.22386 13 6.5 13C6.77614 13 7 13.2239 7 13.5Z" fill="#FCFCFC" stroke="#FCFCFC" stroke-width="2"/>
<path d="M22 12C22 14.7482 20.0377 16 18 16C17.3399 16 16.2441 16 15.0001 16C13.8955 16 12.9794 16.9179 13.3438 17.9606C13.6331 18.7886 14 19.3943 14 20C14 21 13.2605 22 12 22C6.47715 22 2 17.5228 2 12C2 6.47715 6.47715 2 12 2C17.5228 2 22 6.47715 22 12Z" stroke="#FCFCFC" stroke-width="2"/>
</svg>
