<svg width="24" height="24" viewBox="0 0 24 24" fill="none" xmlns="http://www.w3.org/2000/svg">
<path d="M17 17L10.7143 10.7143L7 7" stroke="#FCFCFC" stroke-width="2" stroke-linecap="round"/>
<path d="M12.5 18.5L7.71429 13.7143L4 10" stroke="#FCFCFC" stroke-width="2" stroke-linecap="round"/>
<path d="M12 5C6 5 2 10 2 12C2 14 6 19 12 19C18 19 22 14 22 12C22 10 18 5 12 5Z" stroke="#FCFCFC" stroke-width="2" stroke-linecap="round"/>
<path d="M15.2623 14.1114C15.7994 13.5693 16.1311 12.8234 16.1311 12C16.1311 10.3431 14.7879 9 13.1311 9C12.2977 9 11.5436 9.33983 11 9.88848" stroke="#FCFCFC" stroke-width="2"/>
</svg>
