<svg width="24" height="24" viewBox="0 0 24 24" fill="none" xmlns="http://www.w3.org/2000/svg">
<g id="Property 1=fillled">
<g id="Vector">
<path d="M3 19V10C3 8.34315 4.34315 7 6 7C6.55228 7 7 7.44772 7 8C7 8.51768 6.60667 8.94379 6.10254 8.99512L5.89746 9.00488C5.39333 9.05621 5 9.48232 5 10V19C5 19.5523 5.44771 20 6 20H12C12.5177 20 12.9438 19.6067 12.9951 19.1025L13.0049 18.8975C13.0562 18.3933 13.4823 18 14 18C14.5523 18 15 18.4477 15 19C15 20.6569 13.6569 22 12 22H6C4.34315 22 3 20.6569 3 19Z" fill="#686BB9"/>
<path d="M14.834 2C15.4824 2 16.1138 2.20991 16.6328 2.59863L19.7988 4.96973C20.5551 5.53619 21 6.42622 21 7.37109V14C21 15.6569 19.6569 17 18 17H11C9.34315 17 8 15.6569 8 14V5C8 3.34315 9.34315 2 11 2H14.834Z" fill="#686BB9"/>
</g>
</g>
</svg>
