<svg width="24" height="24" viewBox="0 0 24 24" fill="none" xmlns="http://www.w3.org/2000/svg">
<rect width="24" height="24" fill="white"/>
<path d="M19.3151 6.40224L18.6575 7.15567L18.6575 7.15567L19.3151 6.40224ZM15.9817 3.49315L15.3242 4.24658L15.3242 4.24658L15.9817 3.49315ZM20 9C20.5523 9 21 8.55228 21 8C21 7.44772 20.5523 7 20 7V8V9ZM15 19.6C15 19.0477 14.5523 18.6 14 18.6C13.4477 18.6 13 19.0477 13 19.6H14H15ZM5.66667 8C6.21895 8 6.66667 7.55228 6.66667 7C6.66667 6.44772 6.21895 6 5.66667 6V7V8ZM9 5H8V15H9H10V5H9ZM11 17V18H18V17V16H11V17ZM20 15H21V7.90909H20H19V15H20ZM19.3151 6.40224L19.9726 5.64882L16.6393 2.73973L15.9817 3.49315L15.3242 4.24658L18.6575 7.15567L19.3151 6.40224ZM14.6667 3V2H11V3V4H14.6667V3ZM15.9817 3.49315L16.6393 2.73973C16.0928 2.26279 15.392 2 14.6667 2V3V4C14.9084 4 15.142 4.0876 15.3242 4.24658L15.9817 3.49315ZM20 7.90909H21C21 7.04265 20.6254 6.21853 19.9726 5.64882L19.3151 6.40224L18.6575 7.15567C18.8751 7.34557 19 7.62028 19 7.90909H20ZM18 17V18C19.6569 18 21 16.6569 21 15H20H19C19 15.5523 18.5523 16 18 16V17ZM9 15H8C8 16.6569 9.34315 18 11 18V17V16C10.4477 16 10 15.5523 10 15H9ZM9 5H10C10 4.44771 10.4477 4 11 4V3V2C9.34314 2 8 3.34315 8 5H9ZM15 3H14V7.5H15H16V3H15ZM15.5 8V9H20V8V7H15.5V8ZM15 7.5H14C14 8.32843 14.6716 9 15.5 9V8V7C15.7761 7 16 7.22386 16 7.5H15ZM4 8.66667H3V19H4H5V8.66667H4ZM6 21V22H12.6V21V20H6V21ZM12.6 21V22C13.9255 22 15 20.9255 15 19.6H14H13C13 19.8209 12.8209 20 12.6 20V21ZM4 19H3C3 20.6569 4.34315 22 6 22V21V20C5.44772 20 5 19.5523 5 19H4ZM5.66667 7V6C4.19391 6 3 7.19391 3 8.66667H4H5C5 8.29848 5.29848 8 5.66667 8V7Z" fill="black"/>
</svg>
