<svg width="24" height="24" viewBox="0 0 24 24" fill="none" xmlns="http://www.w3.org/2000/svg">
<g id="Property 1=stroke">
<path id="Vector 144" d="M9 14V9.74074V5C9 3.89543 9.89543 3 11 3H14.8341C15.2664 3 15.687 3.14006 16.033 3.39921L19.1989 5.7704C19.7032 6.14806 20 6.74121 20 7.37119V14C20 15.1046 19.1046 16 18 16H11C9.89543 16 9 15.1046 9 14Z" stroke="white" stroke-width="2"/>
<path id="Vector 146" d="M6 8C4.89543 8 4 8.89543 4 10V14.7407V19C4 20.1046 4.89543 21 6 21H13.0714C13.5843 21 14 20.5843 14 20.0714" stroke="white" stroke-width="2" stroke-linecap="round"/>
<path id="Vector 145" d="M15 3V7.5C15 7.77614 15.2239 8 15.5 8H20" stroke="white" stroke-width="2"/>
</g>
</svg>
