<svg width="24" height="24" viewBox="0 0 24 24" fill="none" xmlns="http://www.w3.org/2000/svg">
<g id="Property 1=duotone">
<path id="tone2" d="M9 14V5C9 3.89543 9.89543 3 11 3H14.8341C15.2664 3 15.687 3.14006 16.033 3.39921L19.1989 5.7704C19.7032 6.14806 20 6.74121 20 7.37119V14C20 15.1046 19.1046 16 18 16H11C9.89543 16 9 15.1046 9 14Z" fill="#1F213C"/>
<path id="tone1" d="M19.1989 5.7704L19.7984 4.97001L19.7984 4.97001L19.1989 5.7704ZM16.033 3.39921L15.4335 4.19961L15.4335 4.19961L16.033 3.39921ZM6 9C6.55228 9 7 8.55228 7 8C7 7.44772 6.55228 7 6 7V8V9ZM15 19C15 18.4477 14.5523 18 14 18C13.4477 18 13 18.4477 13 19H14H15ZM11 16V17H18V16V15H11V16ZM20 14H21V7.37119H20H19V14H20ZM19.1989 5.7704L19.7984 4.97001L16.6325 2.59881L16.033 3.39921L15.4335 4.19961L18.5995 6.5708L19.1989 5.7704ZM14.8341 3V2H11V3V4H14.8341V3ZM11 3V2C9.34315 2 8 3.34315 8 5H9H10C10 4.44772 10.4477 4 11 4V3ZM16.033 3.39921L16.6325 2.59881C16.1135 2.2101 15.4825 2 14.8341 2V3V4C15.0502 4 15.2605 4.07003 15.4335 4.19961L16.033 3.39921ZM20 7.37119H21C21 6.42623 20.5548 5.53649 19.7984 4.97001L19.1989 5.7704L18.5995 6.5708C18.8516 6.75963 19 7.0562 19 7.37119H20ZM18 16V17C19.6569 17 21 15.6569 21 14H20H19C19 14.5523 18.5523 15 18 15V16ZM9 14H8C8 15.6569 9.34315 17 11 17V16V15C10.4477 15 10 14.5523 10 14H9ZM15 3H14V7.5H15H16V3H15ZM15.5 8V9H20V8V7H15.5V8ZM15 7.5H14C14 8.32843 14.6716 9 15.5 9V8V7C15.7761 7 16 7.22386 16 7.5H15ZM9 5H8V14H9H10V5H9ZM6 21V22H12V21V20H6V21ZM6 8V7C4.34315 7 3 8.34315 3 10H4H5C5 9.44772 5.44772 9 6 9V8ZM12 21V22C13.6569 22 15 20.6569 15 19H14H13C13 19.5523 12.5523 20 12 20V21ZM4 19H3C3 20.6569 4.34315 22 6 22V21V20C5.44772 20 5 19.5523 5 19H4ZM4 10H3V19H4H5V10H4Z" fill="#7E83D3"/>
</g>
</svg>
