<svg width="24" height="24" viewBox="0 0 24 24" fill="none" xmlns="http://www.w3.org/2000/svg">
<path d="M12 2.99998C15 2.99998 19 5.99998 19 9.99998C19 14 16 17 12 17C8.00004 17 5.00004 15 5.00004 11M7.62969 21C6.88351 21 6.40018 20.2123 6.73814 19.5471L7.75416 17.5471C7.92467 17.2114 8.26924 17 8.64571 17H15.4096C15.7907 17 16.1386 17.2166 16.3069 17.5585L17.2909 19.5585C17.6178 20.223 17.1342 21 16.3936 21H7.62969ZM2.0354 5.03537L4.96472 7.9647C4.98425 7.98422 5.01591 7.98422 5.03543 7.96469L7.96476 5.03537C7.98428 5.01584 7.98428 4.98419 7.96476 4.96466L5.03543 2.03534C5.01591 2.01581 4.98425 2.01581 4.96472 2.03534L2.0354 4.96466C2.01587 4.98419 2.01587 5.01584 2.0354 5.03537ZM9.35359 10.3829L11.6758 12.7051C11.8711 12.9004 12.1877 12.9004 12.3829 12.7051L14.7052 10.3829C14.9004 10.1876 14.9004 9.87102 14.7052 9.67576L12.3829 7.35353C12.1877 7.15827 11.8711 7.15827 11.6758 7.35353L9.35359 9.67576C9.15833 9.87102 9.15833 10.1876 9.35359 10.3829Z" stroke="#F4F4F4" stroke-width="2" stroke-linecap="round"/>
</svg>
