<svg width="24" height="24" viewBox="0 0 24 24" fill="none" xmlns="http://www.w3.org/2000/svg">
<path d="M12 4C11.4477 4 11 4.44772 11 5C11 5.55228 11.4477 6 12 6V5V4ZM8 7C8.55228 7 9 6.55228 9 6C9 5.44772 8.55228 5 8 5V6V7ZM18.9472 17.8944C19.4412 17.6474 19.6414 17.0468 19.3944 16.5528C19.1474 16.0588 18.5468 15.8586 18.0528 16.1056L18.5 17L18.9472 17.8944ZM20.4539 13.1623C19.9913 13.4638 19.8607 14.0834 20.1623 14.5461C20.4639 15.0087 21.0834 15.1393 21.5461 14.8377L21 14L20.4539 13.1623ZM21.2929 20.7071C21.6834 21.0976 22.3166 21.0976 22.7071 20.7071C23.0976 20.3166 23.0976 19.6834 22.7071 19.2929L22 20L21.2929 20.7071ZM4.70711 1.29289C4.31658 0.902369 3.68342 0.902369 3.29289 1.29289C2.90237 1.68342 2.90237 2.31658 3.29289 2.70711L4 2L4.70711 1.29289ZM12 15V14C10.8954 14 10 13.1046 10 12H9H8C8 14.2091 9.79086 16 12 16V15ZM14.8293 13L13.8865 12.6668C13.6114 13.4449 12.8693 14 12 14V15V16C13.7432 16 15.2235 14.8855 15.7721 13.3332L14.8293 13ZM9 12H10C10 11.1307 10.5551 10.3886 11.3332 10.1135L11 9.17071L10.6668 8.22787C9.11451 8.7765 8 10.2568 8 12H9ZM12 5V6C15.2051 6 17.4631 7.28581 18.9276 8.71108C19.6651 9.42884 20.1986 10.1802 20.5431 10.8147C20.7153 11.132 20.8353 11.4107 20.9099 11.6319C20.9472 11.7423 20.971 11.832 20.985 11.9002C20.9996 11.9715 21 12.0025 21 12H22H23C23 11.4067 22.7129 10.6195 22.3007 9.86034C21.8639 9.05591 21.2099 8.14152 20.3224 7.2778C18.5369 5.54011 15.7949 4 12 4V5ZM12 19V18C9.28611 18 7.00911 16.8693 5.40079 15.4907C4.59692 14.8017 3.97783 14.0652 3.56675 13.4075C3.13574 12.7179 3 12.223 3 12H2H1C1 12.777 1.36426 13.6571 1.87075 14.4675C2.39717 15.3098 3.15308 16.1983 4.09921 17.0093C5.99089 18.6307 8.71389 20 12 20V19ZM2 12H3C3 11.7842 3.12879 11.3553 3.50652 10.7451C3.86412 10.1674 4.37464 9.53958 4.95711 8.95711C5.53958 8.37464 6.16743 7.86412 6.7451 7.50652C7.35528 7.12879 7.78415 7 8 7V6V5C7.21585 5 6.39472 5.37121 5.6924 5.80598C4.95757 6.26088 4.21042 6.87536 3.54289 7.54289C2.87536 8.21042 2.26088 8.95757 1.80598 9.6924C1.37121 10.3947 1 11.2158 1 12H2ZM18.5 17L18.0528 16.1056C16.0053 17.1293 14.5816 18 12 18V19V20C15.1383 20 16.9947 18.8707 18.9472 17.8944L18.5 17ZM22 12H21C21 12.4105 20.8517 12.7044 20.7016 12.9034C20.625 13.005 20.5493 13.0793 20.4971 13.1251C20.4714 13.1476 20.4525 13.1622 20.4439 13.1686C20.4397 13.1718 20.4381 13.1729 20.4395 13.1719C20.4403 13.1714 20.4418 13.1703 20.4442 13.1687C20.4454 13.1679 20.4468 13.167 20.4484 13.1659C20.4492 13.1654 20.4501 13.1648 20.451 13.1642C20.4515 13.1639 20.4519 13.1636 20.4524 13.1632C20.4527 13.1631 20.453 13.1628 20.4532 13.1628C20.4535 13.1625 20.4539 13.1623 21 14C21.5461 14.8377 21.5465 14.8375 21.5469 14.8372C21.547 14.8371 21.5474 14.8369 21.5477 14.8367C21.5482 14.8363 21.5488 14.836 21.5494 14.8356C21.5505 14.8348 21.5518 14.834 21.553 14.8332C21.5556 14.8314 21.5585 14.8296 21.5615 14.8275C21.5677 14.8233 21.5748 14.8184 21.5829 14.8128C21.5991 14.8016 21.6189 14.7873 21.642 14.7701C21.6881 14.7356 21.7474 14.6887 21.8154 14.6291C21.9507 14.5105 22.125 14.3376 22.2984 14.1077C22.6483 13.6438 23 12.9377 23 12H22ZM4 2L3.29289 2.70711L21.2929 20.7071L22 20L22.7071 19.2929L4.70711 1.29289L4 2Z" fill="#FCFCFC"/>
</svg>
