<svg width="24" height="24" viewBox="0 0 24 24" fill="none" xmlns="http://www.w3.org/2000/svg">
<g clip-path="url(#clip0_118_2108)">
<path d="M19 15C19 19 16 22 12 22C8 22 5 19 5 15C5 12.3356 5.78877 8.09371 6.66578 7.17794C6.82447 7.01223 7.03966 7.1557 7.10726 7.37495C7.41392 8.36966 8.37817 11 10 11C11.8843 11 8.44276 6.56182 11.3834 2.70314C11.6254 2.38552 12.1132 2.52059 12.2115 2.90765C12.6015 4.44356 13.531 7.53101 15 9C15.4499 9.56764 15.8997 6.68539 16.7137 6.10159C16.8676 5.99121 17.0539 6.10505 17.1309 6.27805C18.0854 8.42119 19 12.9751 19 15Z" stroke="#F4F4F4" stroke-width="2"/>
<path d="M8 19.2C8 21 9.71429 22 12 22C14.2857 22 16 21 16 19.2C16 18.1335 16 16.4352 15.298 16.0704C15.13 15.9831 14.9469 16.1063 14.8525 16.2705C14.5384 16.8167 13.7692 18 13 18C12.1688 18 12.7193 15.2366 12.3547 14.3035C12.2542 14.0463 11.9698 14.229 11.8058 14.4512C11.0049 15.5366 8 17.2932 8 19.2Z" stroke="#F4F4F4" stroke-width="2"/>
</g>
<defs>
<clipPath id="clip0_118_2108">
<rect width="24" height="24" fill="white"/>
</clipPath>
</defs>
</svg>
