<svg width="24" height="24" viewBox="0 0 24 24" fill="none" xmlns="http://www.w3.org/2000/svg">
<path d="M16.7586 14.49V14.492L16.7596 14.493C16.7604 14.4944 16.7622 14.4965 16.7635 14.4988C16.7662 14.5035 16.7696 14.5102 16.7742 14.5183C16.7836 14.5348 16.7969 14.5582 16.8133 14.5877C16.8461 14.6466 16.8922 14.7304 16.9471 14.8338C17.0566 15.0401 17.2032 15.3287 17.3524 15.6541C17.6262 16.2516 17.9957 17.158 18.0213 17.9129C18.0399 18.4594 18.0392 19.0615 17.9793 19.5721C17.9497 19.8244 17.901 20.0991 17.8123 20.3484C17.7364 20.562 17.564 20.9536 17.161 21.1863C16.758 21.4188 16.333 21.3718 16.1102 21.3308C15.8501 21.2829 15.5885 21.1881 15.3553 21.0877C14.8831 20.8843 14.3605 20.5841 13.8963 20.2947L13.8631 20.2732L13.8309 20.2498C13.1352 19.7354 12.5627 19.0183 12.1834 18.4773C11.9883 18.199 11.8326 17.9493 11.7244 17.7683C11.6703 17.6778 11.6272 17.6035 11.5975 17.5506C11.5826 17.5241 11.5707 17.5024 11.5623 17.4871C11.5582 17.4795 11.5551 17.4732 11.5526 17.4685C11.5513 17.4663 11.5505 17.4642 11.5496 17.4627L11.5477 17.4607L11.0936 16.6062L16.2586 13.6248L16.7586 14.49ZM13.827 17.3367C14.1557 17.8045 14.5714 18.3019 14.9998 18.6248C15.3612 18.8486 15.7108 19.0451 16.0057 19.1844C16.0336 18.8458 16.0374 18.4247 16.0223 17.9803C16.0118 17.6735 15.8168 17.102 15.535 16.4871C15.5184 16.4509 15.4998 16.4158 15.4832 16.3807L13.827 17.3367ZM9.67854 16.2273L8.85823 16.7391L8.85725 16.74L8.84944 16.7439C8.84495 16.7467 8.83929 16.7511 8.83186 16.7557C8.81694 16.7647 8.7955 16.7773 8.76936 16.7928C8.71723 16.8237 8.64351 16.8665 8.55159 16.9178C8.36739 17.0204 8.10701 17.159 7.79866 17.3025C7.1998 17.5813 6.34567 17.9158 5.48616 18.0135L5.44612 18.0183L5.40706 18.0193C4.86031 18.0378 4.25762 18.0373 3.7469 17.9773C3.49447 17.9477 3.21996 17.899 2.97054 17.8103C2.75693 17.7344 2.36622 17.5618 2.13362 17.159C1.90119 16.7562 1.94811 16.3321 1.98909 16.1092C2.03698 15.8488 2.1317 15.5868 2.23225 15.3533C2.43569 14.881 2.73576 14.3586 3.02522 13.8943C3.42491 13.2534 4.19828 12.6528 4.73421 12.2723C5.02589 12.0652 5.29702 11.8893 5.49495 11.7654C5.5943 11.7032 5.67636 11.6536 5.73421 11.6189C5.76308 11.6017 5.78632 11.5884 5.80257 11.5789C5.81051 11.5742 5.81648 11.5699 5.82112 11.5672L5.82893 11.5633L5.82991 11.5623L6.69612 11.0623L9.67854 16.2273ZM5.89143 13.9031C5.33972 14.2948 4.88488 14.6925 4.72249 14.9529C4.48721 15.3303 4.27967 15.6965 4.1346 16.0037C4.46125 16.0307 4.86458 16.0346 5.29182 16.0213C5.82242 15.955 6.42783 15.7326 6.94417 15.493L5.98811 13.8367C5.95647 13.8587 5.92366 13.8802 5.89143 13.9031ZM17.9129 5.29862C18.4595 5.28007 19.0615 5.28168 19.5721 5.34159C19.8245 5.37123 20.0991 5.4199 20.3485 5.50858C20.5352 5.575 20.858 5.71476 21.0916 6.01835L21.1864 6.15897L21.2606 6.31132C21.4068 6.66548 21.3668 7.0147 21.3309 7.20975C21.283 7.47012 21.1883 7.73217 21.0877 7.96561C20.8843 8.43788 20.5842 8.96036 20.2948 9.4246L20.2733 9.4578L20.2498 9.49003C19.7355 10.1855 19.0183 10.7573 18.4774 11.1365C18.1989 11.3317 17.9494 11.4883 17.7684 11.5965C17.6777 11.6507 17.6036 11.6937 17.5506 11.7234C17.5241 11.7383 17.5025 11.7502 17.4871 11.7586C17.4796 11.7627 17.4732 11.7659 17.4686 11.7683L17.4608 11.7723L17.4598 11.7732L16.6063 12.2273L13.6248 7.06229L14.4901 6.56229L14.493 6.56034C14.4944 6.55954 14.4966 6.55868 14.4989 6.55741C14.5036 6.55472 14.5102 6.55035 14.5184 6.54569C14.5348 6.53639 14.5584 6.52395 14.5877 6.50761C14.6466 6.47485 14.7304 6.4287 14.8338 6.37382C15.0401 6.26429 15.3288 6.11669 15.6541 5.96757C16.2517 5.6937 17.1582 5.32424 17.9129 5.29862ZM6.16097 2.13358C6.56399 1.9009 6.98884 1.94805 7.21175 1.98905C7.47211 2.03694 7.73416 2.13166 7.96761 2.23221C8.43984 2.43565 8.96242 2.73577 9.42659 3.02518C10.0675 3.42492 10.6672 4.19832 11.0477 4.73417C11.2549 5.02596 11.4316 5.29692 11.5555 5.49491C11.6176 5.59418 11.6674 5.67635 11.702 5.73417C11.7192 5.76296 11.7325 5.78632 11.742 5.80253C11.7467 5.81049 11.751 5.81645 11.7537 5.82108L11.7576 5.82889L11.7586 5.82987L12.2586 6.69608L7.09358 9.6785L6.58186 8.85819L6.58089 8.85721L6.57991 8.85526C6.57898 8.85376 6.5774 8.85166 6.576 8.8494C6.57327 8.84496 6.56968 8.83908 6.56526 8.83182C6.55617 8.8169 6.54366 8.79546 6.52815 8.76932C6.49719 8.71713 6.45354 8.64369 6.40218 8.55155C6.29951 8.36738 6.16192 8.10691 6.01839 7.79862C5.73957 7.19975 5.40417 6.34566 5.30647 5.48612L5.30257 5.44608L5.30061 5.40702C5.28209 4.86027 5.28363 4.25758 5.34358 3.74686C5.37322 3.49444 5.42188 3.21991 5.51057 2.9705C5.58657 2.75691 5.75833 2.36616 6.16097 2.13358ZM17.9803 7.29764C17.6735 7.30815 17.1021 7.50405 16.4871 7.78593C16.451 7.80249 16.4158 7.82021 16.3807 7.83671L17.3367 9.49198C17.8034 9.164 18.3001 8.75034 18.6229 8.32304C18.8475 7.96055 19.0448 7.60997 19.1844 7.31425C18.8459 7.28631 18.4247 7.28256 17.9803 7.29764ZM7.31624 4.13456C7.2893 4.4607 7.28536 4.86334 7.29866 5.28983C7.36464 5.82082 7.58707 6.42719 7.82698 6.94413L9.48323 5.98807C9.46129 5.95655 9.44059 5.9235 9.4178 5.89139C9.02611 5.33972 8.62847 4.88492 8.368 4.72245C7.99039 4.48701 7.62355 4.27965 7.31624 4.13456Z" fill="#F4F4F4"/>
<path d="M13.523 16.3001L13.2642 17.2659V17.2679L13.2632 17.2699C13.2628 17.2714 13.2619 17.2733 13.2612 17.2757C13.2598 17.2809 13.2579 17.2882 13.2554 17.2972C13.2504 17.3154 13.2431 17.3419 13.2339 17.3743C13.2154 17.4392 13.1891 17.5311 13.1548 17.6429C13.0864 17.8662 12.9864 18.1736 12.8618 18.5091C12.633 19.1252 12.2534 20.0275 11.7378 20.5794C11.3643 20.9792 10.9372 21.4042 10.5337 21.723C10.3342 21.8805 10.1058 22.04 9.8667 22.1536C9.662 22.2509 9.26348 22.4059 8.81397 22.2855C8.36473 22.1649 8.09782 21.8314 7.96924 21.6449C7.81906 21.4269 7.70087 21.1749 7.60694 20.9388C7.41689 20.4611 7.25984 19.8798 7.13623 19.347L7.12744 19.3079L7.12159 19.2689C6.99343 18.4133 7.09614 17.5016 7.21045 16.8509C7.26931 16.5159 7.33472 16.2283 7.38623 16.0238C7.41201 15.9215 7.4343 15.839 7.45069 15.7806C7.4589 15.7513 7.46627 15.728 7.47119 15.7113C7.47365 15.7029 7.47554 15.6958 7.47705 15.6908C7.47775 15.6884 7.47852 15.6865 7.47901 15.6849L7.47998 15.6829V15.681L7.76221 14.7572L13.523 16.3001ZM9.17823 17.2064C9.08037 17.7668 9.02225 18.4091 9.09522 18.9388C9.19293 19.3553 9.30191 19.7442 9.4126 20.0531C9.6717 19.8335 9.97238 19.539 10.2759 19.2142C10.4854 18.9899 10.7512 18.4472 10.9868 17.8128C11.0007 17.7755 11.0127 17.738 11.0259 17.7015L9.17823 17.2064ZM17.2661 10.057H17.27C17.2716 10.0574 17.2735 10.0583 17.2759 10.0589C17.281 10.0603 17.2884 10.0623 17.2974 10.0648C17.3156 10.0698 17.3421 10.077 17.3745 10.0863C17.4394 10.1047 17.5312 10.132 17.6431 10.1663C17.8664 10.2348 18.1739 10.3347 18.5093 10.4593C19.1255 10.6882 20.0277 11.0677 20.5796 11.5833C20.9793 11.9568 21.4044 12.3839 21.7231 12.7874C21.8807 12.9869 22.0402 13.2154 22.1538 13.4544C22.2511 13.6592 22.406 14.0569 22.2856 14.5062C22.1652 14.9557 21.8316 15.2233 21.645 15.3519C21.4271 15.502 21.175 15.6203 20.939 15.7142C20.4614 15.9042 19.8799 16.0603 19.3472 16.1839L19.3081 16.1937L19.269 16.1995C18.4135 16.3277 17.5018 16.225 16.8511 16.1107C16.5161 16.0518 16.2284 15.9854 16.0239 15.9339C15.9216 15.9081 15.8391 15.8859 15.7808 15.8695C15.7515 15.8613 15.7282 15.8549 15.7114 15.8499C15.703 15.8475 15.696 15.8456 15.6909 15.8441C15.6886 15.8434 15.6867 15.8426 15.6851 15.8421L15.6831 15.8411H15.6812L14.7573 15.5589L16.3003 9.79817L17.2661 10.057ZM17.2065 14.1419C17.767 14.2398 18.4092 14.2979 18.939 14.2249C19.3555 14.1272 19.7443 14.0182 20.0532 13.9075C19.8336 13.6485 19.5391 13.3477 19.2144 13.0443C18.99 12.8347 18.4473 12.5689 17.813 12.3333C17.7757 12.3195 17.7382 12.3074 17.7017 12.2943L17.2065 14.1419ZM3.9751 7.13411C4.71087 6.96362 5.68167 7.08576 6.32959 7.19564C6.68231 7.25545 6.99847 7.32294 7.22608 7.37532C7.34032 7.40162 7.4341 7.42433 7.49952 7.44075C7.53189 7.44888 7.55752 7.45556 7.57569 7.46028C7.58466 7.46262 7.59196 7.46477 7.59717 7.46614C7.59979 7.46683 7.6024 7.46669 7.60401 7.46712L7.60596 7.4681L8.57276 7.72689L7.02979 13.4876L6.08838 13.2699H6.08643L6.08448 13.2689C6.08276 13.2685 6.08022 13.2685 6.07764 13.2679C6.07251 13.2667 6.0655 13.265 6.05713 13.263C6.04023 13.2589 6.01696 13.2529 5.9878 13.2454C5.92894 13.2304 5.84538 13.2089 5.74366 13.18C5.54082 13.1224 5.25934 13.0357 4.93994 12.9193C4.31926 12.6929 3.47812 12.3252 2.80127 11.7865L2.771 11.762L2.7417 11.7347C2.3421 11.3613 1.91681 10.935 1.59815 10.5316C1.44061 10.3321 1.28114 10.1037 1.16748 9.86458C1.07018 9.65988 0.915197 9.26137 1.03565 8.81185C1.15618 8.36256 1.48971 8.09571 1.67627 7.96712C1.89421 7.81692 2.1462 7.69877 2.38233 7.60482C2.86014 7.4147 3.44214 7.2577 3.9751 7.13411ZM5.99561 9.16732C5.32844 9.05417 4.72529 9.01301 4.42627 9.08235C3.99293 9.18285 3.58692 9.29484 3.26709 9.4095C3.47858 9.65916 3.75979 9.94735 4.0708 10.2396C4.49317 10.5688 5.08007 10.8404 5.61573 11.0365L6.11084 9.1888C6.07288 9.18199 6.03459 9.17393 5.99561 9.16732ZM13.4565 1.16732C13.6613 1.07001 14.0591 0.915138 14.5083 1.03548C14.9578 1.15593 15.2254 1.48949 15.354 1.6761C15.5041 1.894 15.6224 2.1461 15.7163 2.38216C15.9064 2.85995 16.0634 3.44202 16.187 3.97493C16.3575 4.71066 16.2354 5.68153 16.1255 6.32942C16.0657 6.68209 15.9982 6.99831 15.9458 7.22591C15.9195 7.34015 15.8968 7.43394 15.8804 7.49935C15.8723 7.5317 15.8656 7.55734 15.8608 7.57552C15.8585 7.58442 15.8564 7.5918 15.855 7.597C15.8543 7.59962 15.8535 7.60223 15.853 7.60384V7.60579L15.8521 7.60677L15.5933 8.57259L9.83252 7.02962L10.0503 6.08821L10.0513 6.08626V6.08431C10.0517 6.08259 10.0526 6.08005 10.0532 6.07747C10.0544 6.07235 10.0561 6.06527 10.0581 6.05696C10.0622 6.04005 10.0682 6.01678 10.0757 5.98763C10.0907 5.92877 10.1122 5.84522 10.1411 5.74349C10.1988 5.54066 10.2854 5.2591 10.4019 4.93978C10.6282 4.31911 10.995 3.4779 11.5337 2.8011L11.5581 2.77083L11.5855 2.74153C11.959 2.34183 12.386 1.91671 12.7896 1.59798C12.989 1.44047 13.2175 1.28094 13.4565 1.16732ZM13.9097 3.26693C13.6599 3.47862 13.3719 3.76046 13.0796 4.07161C12.7508 4.49392 12.4795 5.08042 12.2837 5.61556L14.1314 6.11067C14.1382 6.07266 14.1472 6.03448 14.1538 5.99544C14.267 5.32828 14.3081 4.72512 14.2388 4.4261C14.1382 3.99252 14.0244 3.58685 13.9097 3.26693Z" fill="#F4F4F4"/>
<path d="M8.66016 6.46375C11.5299 4.80694 15.1995 5.79042 16.8564 8.66003C18.5133 11.5298 17.5299 15.1995 14.6602 16.8563C11.7904 18.5131 8.1207 17.5298 6.46387 14.66C4.80725 11.7903 5.7905 8.12054 8.66016 6.46375Z" fill="#F4F4F4"/>
</svg>
