<svg width="24" height="24" viewBox="0 0 24 24" fill="none" xmlns="http://www.w3.org/2000/svg">
<path d="M16.9893 10.8904L14.9903 7.42817C14.9903 7.42817 16.8848 6.33449 17.9465 6.29845C19.0083 6.26241 20.1186 6.3106 20.3199 6.6593C20.5213 7.00801 20.0078 7.99362 19.4458 8.89516C18.6073 10.029 16.9893 10.8904 16.9893 10.8904Z" stroke="#F4F4F4" stroke-width="2"/>
<path d="M8.32904 15.8904L6.33009 12.4282C6.33009 12.4282 4.4357 13.522 3.87363 14.4235C3.31155 15.3249 2.79811 16.3106 2.99944 16.6593C3.20076 17.008 4.31107 17.0561 5.37284 17.0202C6.77399 16.861 8.32904 15.8904 8.32904 15.8904Z" stroke="#F4F4F4" stroke-width="2"/>
<path d="M7.42999 8.32904L10.8923 6.33009C10.8923 6.33009 9.79844 4.4357 8.89698 3.87363C7.99553 3.31155 7.00984 2.79811 6.66113 2.99944C6.31243 3.20076 6.26431 4.31107 6.30028 5.37284C6.45944 6.77399 7.42999 8.32904 7.42999 8.32904Z" stroke="#F4F4F4" stroke-width="2"/>
<path d="M12.43 16.9893L15.8923 14.9903C15.8923 14.9903 16.9859 16.8848 17.022 17.9465C17.058 19.0083 17.0098 20.1186 16.6611 20.3199C16.3124 20.5213 15.3268 20.0078 14.4253 19.4458C13.2914 18.6073 12.43 16.9893 12.43 16.9893Z" stroke="#F4F4F4" stroke-width="2"/>
<path d="M15.9729 14.8842L17.0077 11.0225C17.0077 11.0225 19.1206 11.5888 19.8968 12.314C20.6731 13.0393 21.4241 13.8585 21.3199 14.2475C21.2157 14.6364 20.1557 14.9702 19.1208 15.2103C17.7262 15.4192 15.9729 14.8842 15.9729 14.8842Z" stroke="#F4F4F4" stroke-width="2"/>
<path d="M6.31368 12.296L7.34841 8.43434C7.34841 8.43434 5.23543 7.86825 4.20055 8.10823C3.16568 8.34821 2.10563 8.68214 2.00142 9.07107C1.89721 9.46 2.64829 10.2791 3.42451 11.0045C4.52781 11.8827 6.31368 12.296 6.31368 12.296Z" stroke="#F4F4F4" stroke-width="2"/>
<path d="M11.0247 6.31356L14.8864 7.34829C14.8864 7.34829 15.4524 5.23531 15.2125 4.20043C14.9725 3.16556 14.6385 2.10551 14.2496 2.0013C13.8607 1.89708 13.0416 2.64817 12.3162 3.42438C11.438 4.52769 11.0247 6.31356 11.0247 6.31356Z" stroke="#F4F4F4" stroke-width="2"/>
<path d="M8.43649 15.9728L12.2982 17.0075C12.2982 17.0075 11.7319 19.1205 11.0066 19.8967C10.2814 20.673 9.46216 21.424 9.07323 21.3198C8.6843 21.2156 8.35046 20.1556 8.11039 19.1207C7.90149 17.7261 8.43649 15.9728 8.43649 15.9728Z" stroke="#F4F4F4" stroke-width="2"/>
<circle cx="11.6603" cy="11.6603" r="5" transform="rotate(60 11.6603 11.6603)" stroke="#F4F4F4" stroke-width="2"/>
</svg>
