<svg width="24" height="24" viewBox="0 0 24 24" fill="none" xmlns="http://www.w3.org/2000/svg">
<path d="M9 13V11C9 9.89543 9.89543 9 11 9H13C14.1046 9 15 9.89543 15 11V13C15 14.1046 14.1046 15 13 15H11C9.89543 15 9 14.1046 9 13Z" stroke="#F4F4F4" stroke-width="2" stroke-linecap="round"/>
<path d="M2 6V4C2 2.89543 2.89543 2 4 2H6C7.10457 2 8 2.89543 8 4V6C8 7.10457 7.10457 8 6 8H4C2.89543 8 2 7.10457 2 6Z" stroke="#F4F4F4" stroke-width="2" stroke-linecap="round"/>
<path d="M16 20V18C16 16.8954 16.8954 16 18 16H20C21.1046 16 22 16.8954 22 18V20C22 21.1046 21.1046 22 20 22H18C16.8954 22 16 21.1046 16 20Z" stroke="#F4F4F4" stroke-width="2" stroke-linecap="round"/>
<path d="M11 5H19C20.1046 5 21 5.89543 21 7V10C21 11.1046 20.1046 12 19 12H18" stroke="#F4F4F4" stroke-width="2" stroke-linecap="round"/>
<path d="M6 12C5.44772 12 5 12.4477 5 13V17C5 18.1046 5.89543 19 7 19H13" stroke="#F4F4F4" stroke-width="2" stroke-linecap="round"/>
</svg>
