<svg width="24" height="24" viewBox="0 0 24 24" fill="none" xmlns="http://www.w3.org/2000/svg">
<path d="M6 7H8M8 9H10M8 5V14M6 11H8M8 12.5H10" stroke="#F4F4F4" stroke-width="2" stroke-linecap="round"/>
<path d="M13 19H19C20.1046 19 21 18.1046 21 17V10.1667C21 9.0621 20.1046 8.16667 19 8.16667H14C12.8954 8.16667 12 7.27124 12 6.16667V6C12 4.89543 11.1046 4 10 4H5C3.89543 4 3 4.89543 3 6V18.1667" stroke="#F4F4F4" stroke-width="2" stroke-linecap="round"/>
<path d="M10 18V17C10 15.8954 9.10457 15 8 15C6.89543 15 6 15.8954 6 17V18C6 19.1046 6.89543 20 8 20C9.10457 20 10 19.1046 10 18Z" stroke="#F4F4F4" stroke-width="2" stroke-linecap="round"/>
</svg>
