<svg width="24" height="24" viewBox="0 0 24 24" fill="none" xmlns="http://www.w3.org/2000/svg">
<path d="M19 7C19 8.65685 17.6569 10 16 10C14.3431 10 13 8.65685 13 7C13 5.34315 14.3431 4 16 4C17.6569 4 19 5.34315 19 7Z" fill="#7087D5"/>
<path d="M9 18C9 19.6569 7.65685 21 6 21C4.34315 21 3 19.6569 3 18C3 16.3431 4.34315 15 6 15C7.65685 15 9 16.3431 9 18Z" fill="#7087D5"/>
<path d="M9 6C9 7.65685 7.65685 9 6 9C4.34315 9 3 7.65685 3 6C3 4.34315 4.34315 3 6 3C7.65685 3 9 4.34315 9 6Z" fill="#7087D5"/>
<path d="M6 9C7.65685 9 9 7.65685 9 6C9 4.34315 7.65685 3 6 3C4.34315 3 3 4.34315 3 6C3 7.65685 4.34315 9 6 9ZM6 9V15M6 15C4.34315 15 3 16.3431 3 18C3 19.6569 4.34315 21 6 21C7.65685 21 9 19.6569 9 18C9 16.3431 7.65685 15 6 15ZM16 10C17.6569 10 19 8.65685 19 7C19 5.34315 17.6569 4 16 4C14.3431 4 13 5.34315 13 7C13 8.65685 14.3431 10 16 10ZM16 10C16 14 10.5 14 6 14" stroke="white" stroke-width="2"/>
</svg>
