<svg width="24" height="24" viewBox="0 0 24 24" fill="none" xmlns="http://www.w3.org/2000/svg">
<path d="M11.071 9.94012L11.4246 8.87946L6.82841 4.28327C9.65684 1.45484 13.1924 4.04757 14.6066 4.99037L18.1421 8.52591L17.7886 9.58657L20.2634 12.0614M11.071 9.94012L13.8995 12.7685M11.071 9.94012L3.29289 17.7183C2.90237 18.1088 2.90237 18.742 3.29289 19.1325L4.70711 20.5467C5.09763 20.9372 5.7308 20.9372 6.12132 20.5467L13.8995 12.7685M13.8995 12.7685L14.9601 12.415L17.435 14.8899M17.435 14.8899L16.7279 15.597M17.435 14.8899L20.2634 12.0614M20.2634 12.0614L20.9705 11.3543" stroke="white" stroke-width="2" stroke-linecap="round"/>
</svg>
