<svg width="24" height="24" viewBox="0 0 24 24" fill="none" xmlns="http://www.w3.org/2000/svg">
<g id="Property 1=duotone">
<path id="tone2" d="M12.3229 6.13403C14.1525 4.15361 17.1193 4.15352 18.9489 6.13403C20.7784 8.11463 20.7782 11.3261 18.9489 13.3069L11.6608 21.1975L4.3717 13.3069C2.54239 11.3261 2.54217 8.11463 4.3717 6.13403C6.20128 4.15353 9.16805 4.15364 10.9977 6.13403L11.6598 6.85083L12.3229 6.13403Z" fill="#FF7700"/>
<path id="tone1" d="M12.3229 6.13403C14.1525 4.15361 17.1193 4.15352 18.9489 6.13403C20.7784 8.11463 20.7782 11.3261 18.9489 13.3069L11.6608 21.1975L4.3717 13.3069C2.54239 11.3261 2.54217 8.11463 4.3717 6.13403C6.20128 4.15353 9.16805 4.15364 10.9977 6.13403L11.6598 6.85083L12.3229 6.13403Z" stroke="white" stroke-width="2"/>
</g>
</svg>
