<svg width="24" height="24" viewBox="0 0 24 24" fill="none" xmlns="http://www.w3.org/2000/svg">
<g id="Property 1=stroke">
<path id="Union" d="M12.3229 6.13403L13.057 6.8131L13.0574 6.81262L12.3229 6.13403ZM18.9489 6.13403L19.6834 5.45549L19.6834 5.45547L18.9489 6.13403ZM18.9489 13.3069L19.6835 13.9854L19.6835 13.9854L18.9489 13.3069ZM11.6608 21.1975L10.9262 21.8761L11.6608 22.6713L12.3954 21.876L11.6608 21.1975ZM4.3717 13.3069L3.63707 13.9854L3.63715 13.9854L4.3717 13.3069ZM4.3717 6.13403L3.63716 5.45547L3.63714 5.45549L4.3717 6.13403ZM10.9977 6.13403L11.7323 5.4555L11.7322 5.45544L10.9977 6.13403ZM11.6598 6.85083L10.9252 7.52936L11.6592 8.32402L12.3939 7.5299L11.6598 6.85083ZM12.3229 6.13403L13.0574 6.81262C14.4911 5.26072 16.7807 5.26069 18.2143 6.8126L18.9489 6.13403L19.6834 5.45547C17.4579 3.04634 13.8139 3.0465 11.5884 5.45544L12.3229 6.13403ZM18.9489 6.13403L18.2143 6.81257C19.6899 8.40997 19.6898 11.0307 18.2142 12.6284L18.9489 13.3069L19.6835 13.9854C21.8666 11.6216 21.8669 7.81929 19.6834 5.45549L18.9489 6.13403ZM18.9489 13.3069L18.2143 12.6284L10.9262 20.519L11.6608 21.1975L12.3954 21.876L19.6835 13.9854L18.9489 13.3069ZM11.6608 21.1975L12.3953 20.519L5.10626 12.6283L4.3717 13.3069L3.63715 13.9854L10.9262 21.8761L11.6608 21.1975ZM4.3717 13.3069L5.10633 12.6284C3.63078 11.0307 3.63071 8.40996 5.10627 6.81257L4.3717 6.13403L3.63714 5.45549C1.45363 7.81929 1.45399 11.6216 3.63707 13.9854L4.3717 13.3069ZM4.3717 6.13403L5.10625 6.8126C6.53987 5.26071 8.82942 5.26074 10.2632 6.81263L10.9977 6.13403L11.7322 5.45544C9.50668 3.04654 5.86269 3.04635 3.63716 5.45547L4.3717 6.13403ZM10.9977 6.13403L10.2631 6.81256L10.9252 7.52936L11.6598 6.85083L12.3944 6.1723L11.7323 5.4555L10.9977 6.13403ZM11.6598 6.85083L12.3939 7.5299L13.057 6.8131L12.3229 6.13403L11.5888 5.45496L10.9257 6.17176L11.6598 6.85083Z" fill="white"/>
</g>
</svg>
