<svg width="24" height="24" viewBox="0 0 24 24" fill="none" xmlns="http://www.w3.org/2000/svg">
<path d="M13.4691 9H10.5309M13.4691 9C13.488 9 13.5053 8.9893 13.5138 8.97236L14.9888 6.02236C14.9958 6.00828 14.9958 5.99172 14.9888 5.97764L13.5138 3.02764C13.5053 3.0107 13.488 3 13.4691 3H10.5309C10.5119 3 10.4946 3.0107 10.4861 3.02764L9.01114 5.97764C9.0041 5.99172 9.0041 6.00828 9.01114 6.02236L10.4861 8.97236C10.4946 8.9893 10.5119 9 10.5309 9M13.4691 9C13.488 9 13.5053 9.0107 13.5138 9.02764L14.9888 11.9776C14.9958 11.9917 14.9958 12.0083 14.9888 12.0224L13.5138 14.9724C13.5053 14.9893 13.488 15 13.4691 15M10.5309 9C10.5119 9 10.4946 9.0107 10.4861 9.02764L9.01114 11.9776C9.0041 11.9917 9.0041 12.0083 9.01114 12.0224L10.4861 14.9724C10.4946 14.9893 10.5119 15 10.5309 15M18.4691 12H15.5309M18.4691 12C18.488 12 18.5053 11.9893 18.5138 11.9724L19.9888 9.02236C19.9958 9.00828 19.9958 8.99172 19.9888 8.97764L18.5138 6.02764C18.5053 6.0107 18.488 6 18.4691 6H15.5309C15.5119 6 15.4946 6.0107 15.4861 6.02764L14.0111 8.97764C14.0041 8.99172 14.0041 9.00828 14.0111 9.02236L15.4861 11.9724C15.4946 11.9893 15.5119 12 15.5309 12M18.4691 12C18.488 12 18.5053 12.0107 18.5138 12.0276L19.9888 14.9776C19.9958 14.9917 19.9958 15.0083 19.9888 15.0224L18.5138 17.9724C18.5053 17.9893 18.488 18 18.4691 18H15.5309C15.5119 18 15.4946 17.9893 15.4861 17.9724L14.0111 15.0224C14.0041 15.0083 14.0041 14.9917 14.0111 14.9776L15.4861 12.0276C15.4946 12.0107 15.5119 12 15.5309 12M10.5309 15H13.4691M10.5309 15C10.5119 15 10.4946 15.0107 10.4861 15.0276L9.01114 17.9776C9.0041 17.9917 9.0041 18.0083 9.01114 18.0224L10.4861 20.9724C10.4946 20.9893 10.5119 21 10.5309 21H13.4691C13.488 21 13.5053 20.9893 13.5138 20.9724L14.9888 18.0224C14.9958 18.0083 14.9958 17.9917 14.9888 17.9776L13.5138 15.0276C13.5053 15.0107 13.488 15 13.4691 15M5.53086 12H8.46906M5.53086 12C5.51192 12 5.49461 12.0107 5.48614 12.0276L4.01114 14.9776C4.0041 14.9917 4.0041 15.0083 4.01114 15.0224L5.48614 17.9724C5.49461 17.9893 5.51192 18 5.53086 18H8.46906C8.48799 18 8.50531 17.9893 8.51378 17.9724L9.98878 15.0224C9.99582 15.0083 9.99582 14.9917 9.98878 14.9776L8.51378 12.0276C8.50531 12.0107 8.48799 12 8.46906 12M5.53086 12C5.51192 12 5.49461 11.9893 5.48614 11.9724L4.01114 9.02236C4.0041 9.00828 4.0041 8.99172 4.01114 8.97764L5.48614 6.02764C5.49461 6.0107 5.51192 6 5.53086 6H8.46906C8.48799 6 8.50531 6.0107 8.51378 6.02764L9.98878 8.97764C9.99582 8.99172 9.99582 9.00828 9.98878 9.02236L8.51378 11.9724C8.50531 11.9893 8.48799 12 8.46906 12" stroke="#FCFCFC" stroke-width="2" stroke-linecap="round"/>
</svg>
