<svg width="24" height="24" viewBox="0 0 24 24" fill="none" xmlns="http://www.w3.org/2000/svg">
<path d="M4 4C4 3.44772 4.44772 3 5 3H19C19.5523 3 20 3.44772 20 4C20 4.55228 19.5523 5 19 5H5C4.44772 5 4 4.55228 4 4Z" stroke="white" stroke-width="2"/>
<path d="M4 11C4 9.89543 4.89543 9 6 9H18C19.1046 9 20 9.89543 20 11C20 12.1046 19.1046 13 18 13H6C4.89543 13 4 12.1046 4 11Z" stroke="white" stroke-width="2"/>
<path d="M4 19C4 17.8954 4.89543 17 6 17H18C19.1046 17 20 17.8954 20 19C20 20.1046 19.1046 21 18 21H6C4.89543 21 4 20.1046 4 19Z" stroke="white" stroke-width="2"/>
</svg>
