<svg width="24" height="24" viewBox="0 0 24 24" fill="none" xmlns="http://www.w3.org/2000/svg">
<g id="Property 1=duotone">
<path id="tone2" d="M19 14C18.9315 17.9046 15.9054 20 12.0002 20C7.00014 20 3.00034 19 3.00024 13L3.00001 3.54542C3.00001 3.35875 3.23879 3.27117 3.36621 3.40759C4.09943 4.19257 5.86218 5.93087 8.00017 6.99999C9.99997 8 13.9998 7.50001 16 8.5C18 9.4999 19.0526 11 19 14Z" fill="#7087D5"/>
<path id="tone1" d="M8.49999 12.5C9.99999 14 14.5 15 16 15.5C17.5 16 20.9999 18.2 20.9999 21M12.0002 20C15.9054 20 18.9315 17.9046 19 14C19.0526 11 18 9.49988 16 8.49998C13.9998 7.49999 9.99996 7.99998 8.00017 6.99997C5.86217 5.93085 4.09942 4.19255 3.3662 3.40757C3.23878 3.27115 3 3.35873 3 3.5454L3.00024 13C3.00033 19 7.00013 20 12.0002 20Z" stroke="white" stroke-width="2" stroke-linecap="round"/>
</g>
</svg>
