<svg width="24" height="24" viewBox="0 0 24 24" fill="none" xmlns="http://www.w3.org/2000/svg">
<g id="Property 1=filled">
<path id="Vector 128" d="M8.5 12.5C10 14 14.5 15 16 15.5C17.5 16 21 18.2 21 21" stroke="black" stroke-width="2" stroke-linecap="round"/>
<path id="Subtract" fill-rule="evenodd" clip-rule="evenodd" d="M2 3.54612C1.99998 2.45598 3.22807 2.03006 3.95801 2.59788L4.09668 2.72483L4.40625 3.04808C5.22665 3.88239 6.71787 5.24085 8.44727 6.10569C8.81228 6.2882 9.32008 6.42518 9.96973 6.52854C10.6134 6.63095 11.3247 6.69094 12.083 6.75413C12.8246 6.81593 13.6135 6.88097 14.3447 6.99729C15.0699 7.11268 15.8124 7.28829 16.4473 7.60569C17.567 8.16552 18.5034 8.90873 19.1348 9.99925C19.7609 11.0809 20.0283 12.4029 20 14.0178C19.9811 15.0925 19.7609 16.0624 19.373 16.9153C19.3499 16.8943 19.3269 16.8733 19.3037 16.8528C18.1879 15.8618 16.8694 15.1539 16.0107 14.8733C15.6241 14.7469 15.0512 14.5905 14.4395 14.4192C13.812 14.2434 13.1086 14.0429 12.4102 13.8147C11.7095 13.5857 11.0318 13.3348 10.4531 13.0647C9.85977 12.7877 9.44 12.5213 9.2002 12.2864C8.80588 11.8998 8.17279 11.9058 7.78613 12.3C7.39963 12.6944 7.40563 13.3275 7.7998 13.7141C8.28004 14.1849 8.94107 14.5661 9.60742 14.8772C10.2883 15.195 11.0503 15.4736 11.7891 15.7151C12.5304 15.9573 13.268 16.1688 13.9004 16.3459C14.5485 16.5275 15.0564 16.6657 15.3896 16.7746C15.971 16.9647 17.0518 17.5275 17.9756 18.3479C18.0704 18.4321 18.1598 18.5189 18.2471 18.6047C18.0363 18.8315 17.811 19.0457 17.5674 19.2424C16.0946 20.4316 14.1211 21.0002 12 21.0002C9.48477 21.0002 6.98377 20.7599 5.10156 19.6018C3.10784 18.3749 2.0001 16.2519 2 13.0002V3.54612Z" fill="black"/>
</g>
</svg>
