<svg width="24" height="24" viewBox="0 0 24 24" fill="none" xmlns="http://www.w3.org/2000/svg">
<circle cx="3" cy="5" r="0.5" stroke="#F4F4F4"/>
<path d="M3 11.5C3.27614 11.5 3.5 11.7239 3.5 12C3.5 12.2761 3.27614 12.5 3 12.5C2.72386 12.5 2.5 12.2761 2.5 12C2.5 11.7239 2.72386 11.5 3 11.5Z" stroke="#F4F4F4"/>
<path d="M3 18.5C3.27614 18.5 3.5 18.7239 3.5 19C3.5 19.2761 3.27614 19.5 3 19.5C2.72386 19.5 2.5 19.2761 2.5 19C2.5 18.7239 2.72386 18.5 3 18.5Z" stroke="#F4F4F4"/>
<path d="M7 5L21 5" stroke="#F4F4F4" stroke-width="2" stroke-linecap="round"/>
<path d="M7 12L21 12" stroke="#F4F4F4" stroke-width="2" stroke-linecap="round"/>
<path d="M7 19H21" stroke="#F4F4F4" stroke-width="2" stroke-linecap="round"/>
</svg>
