<svg width="24" height="24" viewBox="0 0 24 24" fill="none" xmlns="http://www.w3.org/2000/svg">
<g id="Property 1=filled">
<path id="Union" d="M8.90918 2.09457C9.80718 1.80166 10.5852 2.22031 11.0029 2.80844C11.3978 3.36455 11.5369 4.12982 11.3076 4.83969C11.1205 5.41882 11.0186 6.03734 11.0186 6.68149L11.0264 6.99008C11.187 10.1604 13.8084 12.6815 17.0186 12.6815C17.6379 12.6815 18.2333 12.5875 18.793 12.4139C19.5055 12.1929 20.2698 12.3405 20.8213 12.742C21.4044 13.1667 21.8132 13.9494 21.5098 14.8436C20.1681 18.7945 16.4294 21.6404 12.0215 21.6405C6.65977 21.6405 2.28097 17.4297 2.0127 12.1346L2 11.619C2.00018 7.16943 4.89981 3.40269 8.90918 2.09457Z" fill="black"/>
</g>
</svg>
