<svg width="24" height="24" viewBox="0 0 24 24" fill="none" xmlns="http://www.w3.org/2000/svg">
<g id="Property 1=duotone">
<path id="tone2" d="M9.21973 3.04497C10.0263 2.78185 10.6165 3.72497 10.3557 4.53231C10.1369 5.2095 10.0186 5.93179 10.0186 6.68184C10.0187 10.5477 13.1526 13.6818 17.0186 13.6818C17.7397 13.6818 18.4351 13.5724 19.0895 13.3694C19.8998 13.1181 20.8358 13.7193 20.563 14.5227C19.3549 18.0805 15.9879 20.6407 12.0215 20.6408C7.03919 20.6408 3 16.6016 3 11.6193C3.00004 7.61516 5.60903 4.22278 9.21973 3.04497Z" fill="#FF7700"/>
<path id="tone1" d="M9.21973 3.04497C10.0263 2.78185 10.6165 3.72497 10.3557 4.53231C10.1369 5.2095 10.0186 5.93179 10.0186 6.68184C10.0187 10.5477 13.1526 13.6818 17.0186 13.6818C17.7397 13.6818 18.4351 13.5724 19.0895 13.3694C19.8998 13.1181 20.8358 13.7193 20.563 14.5227C19.3549 18.0805 15.9879 20.6407 12.0215 20.6408C7.03919 20.6408 3 16.6016 3 11.6193C3.00004 7.61516 5.60903 4.22278 9.21973 3.04497Z" stroke="black" stroke-width="2"/>
</g>
</svg>
