<svg width="24" height="24" viewBox="0 0 24 24" fill="none" xmlns="http://www.w3.org/2000/svg">
<g id="Property 1=filled">
<path id="Union" fill-rule="evenodd" clip-rule="evenodd" d="M15.4352 4.12156C16.6068 2.95012 18.5059 2.95012 19.6774 4.12156C20.8488 5.29311 20.8488 7.19222 19.6774 8.36375L18.2624 9.77781L18.2634 9.77878L8.36394 19.6782L8.36003 19.6743C8.25611 19.7616 8.13733 19.8305 8.00847 19.8745L3.93035 21.2651C3.06585 21.56 2.23927 20.7331 2.53386 19.8686L3.92449 15.7905C3.96852 15.6617 4.03725 15.5427 4.12468 15.4389L4.12078 15.435L15.4352 4.12156ZM18.2634 5.53562C17.8729 5.14523 17.2398 5.14523 16.8493 5.53562L15.4352 6.94968L16.8493 8.36375L18.2634 6.94968C18.6537 6.5592 18.6537 5.92612 18.2634 5.53562Z" fill="white"/>
</g>
</svg>
