<svg width="24" height="24" viewBox="0 0 24 24" fill="none" xmlns="http://www.w3.org/2000/svg">
<g id="Property 1=duotone">
<rect id="tone2" x="14.0208" y="5.53552" width="6" height="14" transform="rotate(45 14.0208 5.53552)" fill="#7087D5"/>
<g id="tone1">
<g id="Vector">
<path d="M4.89536 16.0752L5.46478 15.5058C5.50383 15.4667 5.56715 15.4667 5.6062 15.5058L8.29321 18.1928C8.33226 18.2318 8.33226 18.2951 8.29321 18.3342L7.72379 18.9036C7.71298 18.9144 7.69984 18.9226 7.68537 18.9275L3.60684 20.3191C3.52823 20.3459 3.45309 20.2707 3.4799 20.1921L4.87143 16.1136C4.87637 16.0991 4.88455 16.086 4.89536 16.0752Z" stroke="white" stroke-width="2"/>
<path d="M16.8533 4.12552C17.6344 3.34447 18.9007 3.34447 19.6817 4.12552C20.4628 4.90657 20.4628 6.1729 19.6817 6.95395L16.9129 9.72278L14.0845 6.89435L16.8533 4.12552Z" stroke="white" stroke-width="2"/>
<path d="M14.0827 6.8913L16.9098 9.71842L8.36344 18.2648L5.53632 15.4377L14.0827 6.8913Z" stroke="white" stroke-width="2"/>
</g>
</g>
</g>
</svg>
