<svg width="24" height="24" viewBox="0 0 24 24" fill="none" xmlns="http://www.w3.org/2000/svg">
<g id="Property 1=stroke">
<path id="Rectangle 17" d="M18.9705 4.82843C19.7515 5.60948 19.7515 6.87581 18.9705 7.65685L16.8492 9.77817L14.0207 6.94975L16.1421 4.82843C16.9231 4.04738 18.1894 4.04738 18.9705 4.82843Z" stroke="white" stroke-width="2"/>
<rect id="Rectangle 18" x="14.0208" y="6.94974" width="4" height="12" transform="rotate(45 14.0208 6.94974)" stroke="white" stroke-width="2"/>
<path id="Vector 143" d="M4.8954 16.0752L5.46481 15.5058C5.50386 15.4667 5.56718 15.4667 5.60623 15.5058L8.29324 18.1928C8.33229 18.2318 8.33229 18.2951 8.29324 18.3342L7.72382 18.9036C7.71301 18.9144 7.69987 18.9226 7.6854 18.9275L3.60687 20.3191C3.52827 20.3459 3.45312 20.2707 3.47994 20.1921L4.87146 16.1136C4.8764 16.0991 4.88459 16.086 4.8954 16.0752Z" stroke="white" stroke-width="2"/>
</g>
</svg>
