<svg width="24" height="24" viewBox="0 0 24 24" fill="none" xmlns="http://www.w3.org/2000/svg">
<g id="Property 1=filled">
<path id="Vector 73" d="M15.5616 3H8.43844C7.64401 3 7 3.64401 7 4.43844C7 4.90473 7.22603 5.34209 7.6064 5.61181L8.36764 6.1516C8.76429 6.43286 8.99999 6.88895 8.99999 7.3752L8.99999 10.1748C8.99999 10.7839 8.63168 11.3325 8.06794 11.5631L5.81115 12.4863C5.32054 12.6871 5 13.1645 5 13.6946C5 14.4155 5.58446 15 6.30542 15H17.6946C18.4155 15 19 14.4155 19 13.6946C19 13.1645 18.6795 12.6871 18.1889 12.4863L15.9321 11.5631C15.3683 11.3325 15 10.7839 15 10.1748L15 7.3752C15 6.88895 15.2357 6.43286 15.6324 6.1516L16.3936 5.61181C16.774 5.34209 17 4.90473 17 4.43843C17 3.64401 16.356 3 15.5616 3Z" stroke="white" stroke-width="2" stroke-linecap="round"/>
<path id="Vector 74" d="M12 15V21" stroke="white" stroke-width="2" stroke-linecap="round"/>
</g>
</svg>
