<svg width="24" height="24" viewBox="0 0 24 24" fill="none" xmlns="http://www.w3.org/2000/svg">
<path d="M10 21H14" stroke="#FCFCFC" stroke-width="2" stroke-linecap="round"/>
<path d="M3.25448 13.9791C4.27099 17.781 8.17051 20 12 20C15.8295 20 19.729 17.7809 20.7455 13.9791C21.0308 12.912 20.1046 12 19 12H5C3.89543 12 2.96918 12.912 3.25448 13.9791Z" stroke="#FCFCFC" stroke-width="2" stroke-linecap="round"/>
<path d="M4 3L8 8M8 2L12 7" stroke="#FCFCFC" stroke-width="2" stroke-linecap="round"/>
<path d="M12.1272 7.13791L11.7066 8.04517L12.1272 7.13791ZM12.8728 7.13791L12.4523 6.23065L12.8728 7.13791ZM7.50633 9.00001L7.50207 10L7.50633 9.00001ZM8.29611 8.60574L7.49356 8.00916L8.29611 8.60574ZM6.96582 11.8995L6.60922 12.8338L6.96582 11.8995ZM17.0342 11.8995L17.3908 12.8338L17.0342 11.8995ZM16.8344 8.81664L17.7244 8.36061L16.8344 8.81664ZM17.1825 9.16442L16.7269 10.0546L17.1825 9.16442ZM14.7028 7.6055L13.9002 8.20192L14.7028 7.6055ZM13.5 7V8C13.663 8 13.8075 8.07717 13.9002 8.20192L14.7028 7.6055L15.5055 7.00908C15.0522 6.39903 14.3232 6 13.5 6V7ZM15.4929 8.00002L15.4976 9.00001C15.4984 9 15.4992 9 15.5 9V8V7C15.4961 7 15.4922 7.00001 15.4882 7.00003L15.4929 8.00002ZM15.5 8V9C15.6918 9 15.8601 9.10811 15.9445 9.27267L16.8344 8.81664L17.7244 8.36061C17.3119 7.55569 16.4726 7 15.5 7V8ZM17.1825 9.16442L16.7269 10.0546C16.8914 10.1388 17 10.3076 17 10.5H18H19C19 9.52718 18.4441 8.68667 17.638 8.27419L17.1825 9.16442ZM18 10.5H17C17 10.7092 16.8696 10.892 16.6776 10.9653L17.0342 11.8995L17.3908 12.8338C18.3273 12.4763 19 11.5707 19 10.5H18ZM16.9485 12V11H7.0515V12V13H16.9485V12ZM6.96582 11.8995L7.32242 10.9653C7.13039 10.892 7 10.7092 7 10.5H6H5C5 11.5707 5.67268 12.4763 6.60922 12.8338L6.96582 11.8995ZM6 10.5H7C7 10.2239 7.22386 10 7.5 10V9V8C6.11929 8 5 9.11929 5 10.5H6ZM7.5 9V10C7.50069 10 7.50138 10 7.50207 10L7.50633 9.00001L7.51058 8.00002C7.50706 8.00001 7.50353 8 7.5 8V9ZM8.29611 8.60574L9.09867 9.20232C9.19144 9.07751 9.33652 9 9.5 9V8V7C8.67695 7 7.94726 7.39882 7.49356 8.00916L8.29611 8.60574ZM9.5 8V9C9.50069 9 9.50138 9 9.50207 9L9.50633 8.00001L9.51058 7.00002C9.50706 7.00001 9.50353 7 9.5 7V8ZM10.2961 7.60574L11.0987 8.20232C11.1914 8.07751 11.3365 8 11.5 8V7V6C10.677 6 9.94726 6.39882 9.49356 7.00916L10.2961 7.60574ZM11.5 7V8C11.5753 8 11.6444 8.01635 11.7066 8.04517L12.1272 7.13791L12.5477 6.23065C12.2285 6.08265 11.8729 6 11.5 6V7ZM12.8728 7.13791L13.2934 8.04517C13.3556 8.01635 13.4247 8 13.5 8V7V6C13.1271 6 12.7715 6.08265 12.4523 6.23065L12.8728 7.13791ZM12.1272 7.13791L11.7066 8.04517C12.2048 8.2761 12.7952 8.2761 13.2934 8.04517L12.8728 7.13791L12.4523 6.23065C12.476 6.21966 12.4919 6.21837 12.5 6.21837C12.5081 6.21837 12.524 6.21966 12.5477 6.23065L12.1272 7.13791ZM9.50633 8.00001L9.50207 9C10.1169 9.00262 10.7302 8.69797 11.0987 8.20232L10.2961 7.60574L9.49356 7.00916C9.49764 7.00367 9.50096 6.99996 9.50309 6.99775C9.50522 6.99553 9.50647 6.9945 9.50664 6.99436C9.50665 6.99436 9.5043 6.99619 9.49997 6.99835C9.49801 6.99933 9.49617 7.00011 9.49462 7.00068C9.49307 7.00125 9.49223 7.00146 9.49228 7.00144C9.49232 7.00143 9.4937 7.0011 9.49652 7.00075C9.49933 7.0004 9.50403 6.99999 9.51058 7.00002L9.50633 8.00001ZM7.50633 9.00001L7.50207 10C8.11694 10.0026 8.73023 9.69797 9.09867 9.20232L8.29611 8.60574L7.49356 8.00916C7.49764 8.00367 7.50096 7.99996 7.50309 7.99775C7.50522 7.99553 7.50647 7.9945 7.50664 7.99436C7.50665 7.99436 7.5043 7.99619 7.49997 7.99835C7.49801 7.99933 7.49617 8.00011 7.49462 8.00068C7.49307 8.00125 7.49223 8.00146 7.49228 8.00144C7.49232 8.00143 7.4937 8.0011 7.49652 8.00075C7.49933 8.0004 7.50403 7.99999 7.51058 8.00002L7.50633 9.00001ZM7 11.9485H8C8 11.4974 7.71645 11.1157 7.32242 10.9653L6.96582 11.8995L6.60922 12.8338C6.25594 12.699 6 12.356 6 11.9485H7ZM7.0515 12V11C7.57535 11 8 11.4247 8 11.9485H7H6C6 12.5292 6.47076 13 7.0515 13V12ZM17.0342 11.8995L16.6776 10.9653C16.2835 11.1157 16 11.4974 16 11.9485H17H18C18 12.356 17.7441 12.699 17.3908 12.8338L17.0342 11.8995ZM16.8344 8.81664L15.9445 9.27267C16.1164 9.60828 16.3914 9.88297 16.7269 10.0546L17.1825 9.16442L17.638 8.27419C17.6758 8.29356 17.7049 8.32257 17.7244 8.36061L16.8344 8.81664ZM17 11.9485H16C16 11.4247 16.4247 11 16.9485 11V12V13C17.5292 13 18 12.5292 18 11.9485H17ZM14.7028 7.6055L13.9002 8.20192C14.2684 8.69753 14.882 9.0029 15.4976 9.00001L15.4929 8.00002L15.4882 7.00003C15.4949 7 15.4997 7.00041 15.5025 7.00076C15.5054 7.00112 15.5068 7.00146 15.5069 7.00148C15.507 7.0015 15.5062 7.0013 15.5046 7.00073C15.5031 7.00016 15.5012 6.99938 15.4993 6.9984C15.4973 6.99741 15.4956 6.99642 15.4943 6.99557C15.4929 6.99471 15.4923 6.99422 15.4925 6.99434C15.4926 6.99446 15.4939 6.99548 15.496 6.99768C15.4981 6.99988 15.5014 7.00359 15.5055 7.00908L14.7028 7.6055Z" fill="#F4F4F4"/>
</svg>
