<svg width="24" height="24" viewBox="0 0 24 24" fill="none" xmlns="http://www.w3.org/2000/svg">
<g id="Property 1=stroke">
<path id="Vector" d="M7.55556 20V15.5556C7.55556 15.0646 7.95352 14.6667 8.44444 14.6667H15.5556C16.0465 14.6667 16.4444 15.0646 16.4444 15.5556V20M8.44444 4.88889V8.44444C8.44444 8.93536 8.84241 9.33333 9.33333 9.33333H14.6667C15.1576 9.33333 15.5556 8.93536 15.5556 8.44444L15.5555 4.88889M12.8889 6.22222V7.11111M4 4.88889V19.1111C4 19.602 4.39797 20 4.88889 20H19.1111C19.602 20 20 19.602 20 19.1111V8.81263C20 8.57689 19.9064 8.35079 19.7397 8.18409L15.8159 4.26035C15.6492 4.09365 15.4231 4 15.1874 4H4.88889C4.39797 4 4 4.39797 4 4.88889Z" stroke="white" stroke-width="2" stroke-linecap="round"/>
</g>
</svg>
