<svg width="24" height="24" viewBox="0 0 24 24" fill="none" xmlns="http://www.w3.org/2000/svg">
<rect width="24" height="24" fill="white"/>
<path d="M7 21V16C7 15.4477 7.44772 15 8 15H16C16.5523 15 17 15.4477 17 16V21M8 4V8C8 8.55228 8.44772 9 9 9H15C15.5523 9 16 8.55228 16 8L16 4M13 5.5V6.5M3 4V20C3 20.5523 3.44772 21 4 21H20C20.5523 21 21 20.5523 21 20V8.41421C21 8.149 20.8946 7.89464 20.7071 7.70711L16.2929 3.29289C16.1054 3.10536 15.851 3 15.5858 3H4C3.44772 3 3 3.44772 3 4Z" stroke="black" stroke-width="2" stroke-linecap="round"/>
</svg>
