<svg width="24" height="24" viewBox="0 0 24 24" fill="none" xmlns="http://www.w3.org/2000/svg">
<g id="Property 1=stroke">
<path id="Settings" fill-rule="evenodd" clip-rule="evenodd" d="M12.0005 3C12.5746 3.00003 13.1363 3.04996 13.682 3.14355C14.1966 3.23182 14.4972 3.71061 14.6176 4.19238C14.7739 4.81709 15.1922 5.38225 15.8256 5.72852C16.459 6.07448 17.184 6.13374 17.8331 5.94922C18.3335 5.80699 18.9211 5.81395 19.2588 6.19141C19.9831 7.00114 20.559 7.93349 20.9464 8.95117C21.1236 9.4168 20.8354 9.90233 20.4544 10.2412C19.9596 10.6813 19.6508 11.3066 19.6508 12C19.651 12.6934 19.9597 13.3185 20.4544 13.7588C20.8355 14.0979 21.1237 14.584 20.9464 15.0498C20.5595 16.0664 19.984 16.9975 19.2608 17.8066C18.9231 18.1845 18.3349 18.1923 17.8341 18.0498C17.1845 17.865 16.4593 17.9243 15.8256 18.2705C15.1916 18.617 14.7733 19.1822 14.6176 19.8076C14.4977 20.2899 14.1971 20.7697 13.682 20.8574C13.1363 20.9504 12.5745 21 12.0005 21C11.4267 21 10.8646 20.9504 10.319 20.8574C9.80385 20.7697 9.50336 20.2899 9.38337 19.8076C9.22772 19.1824 8.81014 18.6171 8.17641 18.2705C7.54233 17.924 6.8158 17.8646 6.16584 18.0498C5.66504 18.1925 5.077 18.1855 4.73915 17.8076C4.01599 16.9983 3.44047 16.0666 3.05354 15.0498C2.87633 14.5839 3.16519 14.0977 3.54664 13.7588C4.04188 13.3186 4.35207 12.6936 4.35231 12C4.35225 11.3062 4.04205 10.6805 3.54664 10.2402C3.16516 9.90129 2.8761 9.41514 3.05354 8.94922C3.44073 7.93253 4.01675 7.00154 4.74019 6.19238C5.07797 5.81459 5.6661 5.80694 6.16687 5.94922C6.81662 6.1338 7.54265 6.07485 8.17641 5.72852C8.81004 5.38209 9.22655 4.81636 9.38233 4.19141C9.50248 3.7095 9.80336 3.23072 10.318 3.14258C10.8638 3.04927 11.4264 3.00001 12.0005 3ZM12 9C10.2498 9 9 10.3431 9 12C9 13.6569 10.2503 15 12.0005 15C13.7506 14.9998 15 13.6567 15 12C15 10.3433 13.75 9.00018 12 9Z" stroke="white" stroke-width="2"/>
</g>
</svg>
