<svg width="24" height="24" viewBox="0 0 24 24" fill="none" xmlns="http://www.w3.org/2000/svg">
<rect width="24" height="24" fill="white"/>
<path fill-rule="evenodd" clip-rule="evenodd" d="M12.0003 3C12.5438 3.00003 13.0755 3.04996 13.5921 3.14355C14.0793 3.23182 14.3639 3.71061 14.4779 4.19238C14.6258 4.81709 15.0218 5.38225 15.6214 5.72852C16.221 6.07448 16.9073 6.13374 17.5218 5.94922C17.9955 5.80699 18.5518 5.81395 18.8714 6.19141C19.5571 7.00114 20.1023 7.93349 20.4691 8.95117C20.6368 9.4168 20.364 9.90233 20.0033 10.2412C19.5349 10.6813 19.2426 11.3066 19.2425 12C19.2427 12.6934 19.5349 13.3185 20.0033 13.7588C20.364 14.0979 20.6369 14.584 20.4691 15.0498C20.1027 16.0664 19.558 16.9975 18.8734 17.8066C18.5537 18.1845 17.9968 18.1923 17.5228 18.0498C16.9078 17.865 16.2213 17.9243 15.6214 18.2705C15.0213 18.617 14.6253 19.1822 14.4779 19.8076C14.3643 20.2899 14.0798 20.7697 13.5921 20.8574C13.0755 20.9504 12.5437 21 12.0003 21C11.4571 21 10.925 20.9504 10.4085 20.8574C9.92085 20.7697 9.63639 20.2899 9.5228 19.8076C9.37545 19.1824 8.98015 18.6171 8.38022 18.2705C7.77996 17.924 7.09219 17.8646 6.4769 18.0498C6.00281 18.1925 5.44613 18.1855 5.12631 17.8076C4.44172 16.9983 3.8969 16.0666 3.53061 15.0498C3.36285 14.5839 3.63631 14.0977 3.9974 13.7588C4.46623 13.3186 4.75988 12.6936 4.7601 12C4.76004 11.3062 4.46639 10.6805 3.9974 10.2402C3.63628 9.90129 3.36264 9.41514 3.53061 8.94922C3.89714 7.93253 4.44244 7.00154 5.12729 6.19238C5.44706 5.81459 6.00381 5.80694 6.47787 5.94922C7.09296 6.1338 7.78027 6.07485 8.38022 5.72852C8.98005 5.38209 9.37434 4.81636 9.52182 4.19141C9.63556 3.7095 9.92038 3.23072 10.4076 3.14258C10.9243 3.04927 11.4568 3.00001 12.0003 3ZM12.0003 9C10.3435 9 9.00033 10.3431 9.00033 12C9.00033 13.6569 10.3435 15 12.0003 15C13.657 14.9998 15.0003 13.6567 15.0003 12C15.0003 10.3433 13.657 9.00018 12.0003 9Z" stroke="black" stroke-width="2"/>
</svg>
