<svg width="24" height="24" viewBox="0 0 24 24" fill="none" xmlns="http://www.w3.org/2000/svg">
<g id="Property 1=duotone">
<path id="tone2" d="M11.5341 3.19873C11.6993 2.77363 12.3008 2.77363 12.4661 3.19873L14.5703 8.61128C14.645 8.80349 14.8301 8.93011 15.0363 8.93011L20.7537 8.9301C21.2046 8.9301 21.4251 9.47985 21.0993 9.79145L16.5626 14.13C16.4364 14.2507 16.3823 14.4286 16.42 14.5991L17.772 20.7249C17.8709 21.1727 17.365 21.5062 16.9924 21.2389L12.2915 17.8673C12.1173 17.7424 11.8829 17.7424 11.7087 17.8673L7.00777 21.2389C6.63512 21.5062 6.12927 21.1727 6.22812 20.7249L7.58019 14.5991C7.61784 14.4286 7.56375 14.2507 7.43751 14.13L2.90072 9.79147C2.57488 9.47987 2.79543 8.93011 3.24629 8.93011H8.96384C9.17006 8.93011 9.35514 8.8035 9.42986 8.61128L11.5341 3.19873Z" fill="#FF7700"/>
<path id="tone1" d="M11.5341 3.19873C11.6993 2.77363 12.3008 2.77363 12.4661 3.19873L14.5703 8.61128C14.645 8.80349 14.8301 8.93011 15.0363 8.93011L20.7537 8.9301C21.2046 8.9301 21.4251 9.47985 21.0993 9.79145L16.5626 14.13C16.4364 14.2507 16.3823 14.4286 16.42 14.5991L17.772 20.7249C17.8709 21.1727 17.365 21.5062 16.9924 21.2389L12.2915 17.8673C12.1173 17.7424 11.8829 17.7424 11.7087 17.8673L7.00777 21.2389C6.63512 21.5062 6.12927 21.1727 6.22812 20.7249L7.58019 14.5991C7.61784 14.4286 7.56375 14.2507 7.43751 14.13L2.90072 9.79147C2.57488 9.47987 2.79543 8.93011 3.24629 8.93011H8.96384C9.17006 8.93011 9.35514 8.8035 9.42986 8.61128L11.5341 3.19873Z" stroke="white" stroke-width="2"/>
</g>
</svg>
