<svg width="24" height="24" viewBox="0 0 24 24" fill="none" xmlns="http://www.w3.org/2000/svg">
<g clip-path="url(#clip0_70_664)">
<circle cx="12.0002" cy="12" r="4.99797" transform="rotate(90.027 12.0002 12)" fill="black"/>
<path d="M20.0005 11.0037L22.0005 11.0047C22.5528 11.0049 23.0003 11.4529 23 12.0052C22.9998 12.5574 22.5518 13.0049 21.9995 13.0047L19.9995 13.0037C19.4473 13.0035 18.9998 12.5556 19 12.0033C19.0003 11.451 19.4482 11.0035 20.0005 11.0037Z" fill="black"/>
<path d="M16.9529 5.63836L18.3678 4.22481C18.7585 3.83447 19.3916 3.83477 19.782 4.22548C20.1723 4.61618 20.172 5.24935 19.7813 5.63969L18.3664 7.05324C17.9757 7.44358 17.3426 7.44328 16.9522 7.05257C16.5619 6.66186 16.5622 6.0287 16.9529 5.63836Z" fill="black"/>
<path d="M2.00049 10.9953L4.00049 10.9962C4.55277 10.9965 5.00028 11.4444 5.00002 11.9967C4.99976 12.549 4.55183 12.9965 3.99955 12.9962L1.99955 12.9953C1.44726 12.995 0.999758 12.5471 1.00002 11.9948C1.00028 11.4425 1.4482 10.995 2.00049 10.9953Z" fill="black"/>
<path d="M4.21899 18.3603L5.63387 16.9468C6.02458 16.5564 6.65774 16.5567 7.04808 16.9474C7.43842 17.3381 7.43813 17.9713 7.04742 18.3616L5.63254 19.7752C5.24183 20.1655 4.60867 20.1652 4.21833 19.7745C3.82798 19.3838 3.82828 18.7507 4.21899 18.3603Z" fill="black"/>
<path d="M11 4V2C11 1.44772 11.4477 1 12 1C12.5523 1 13 1.44772 13 2V4C13 4.55228 12.5523 5 12 5C11.4477 5 11 4.55228 11 4Z" fill="black"/>
<path d="M5.63597 7.05024L4.22176 5.63603C3.83123 5.24551 3.83123 4.61234 4.22176 4.22182C4.61228 3.83129 5.24544 3.83129 5.63597 4.22182L7.05018 5.63603C7.44071 6.02656 7.44071 6.65972 7.05018 7.05024C6.65966 7.44077 6.02649 7.44077 5.63597 7.05024Z" fill="black"/>
<path d="M11 22V20C11 19.4477 11.4477 19 12 19C12.5523 19 13 19.4477 13 20V22C13 22.5523 12.5523 23 12 23C11.4477 23 11 22.5523 11 22Z" fill="black"/>
<path d="M18.3638 19.7782L16.9495 18.364C16.559 17.9734 16.559 17.3403 16.9495 16.9498C17.3401 16.5592 17.9732 16.5592 18.3638 16.9498L19.778 18.364C20.1685 18.7545 20.1685 19.3877 19.778 19.7782C19.3874 20.1687 18.7543 20.1687 18.3638 19.7782Z" fill="black"/>
</g>
<defs>
<clipPath id="clip0_70_664">
<rect width="24" height="24" fill="white"/>
</clipPath>
</defs>
</svg>
