<svg width="24" height="24" viewBox="0 0 24 24" fill="none" xmlns="http://www.w3.org/2000/svg">
<g id="Property 1=duotone">
<path id="tone2" fill-rule="evenodd" clip-rule="evenodd" d="M12.8994 5.24225C13.4297 5.24225 13.9384 5.45327 14.3135 5.82819L20.7988 12.3135C21.5799 13.0946 21.5799 14.3616 20.7988 15.1426L15.1426 20.7989C14.3615 21.5799 13.0945 21.5799 12.3135 20.7989L5.82812 14.3135C5.45321 13.9385 5.24219 13.4298 5.24219 12.8995V7.24225C5.24242 6.13803 6.13797 5.24249 7.24219 5.24225H12.8994ZM9.48535 8.07135C9.09485 7.68085 8.46182 7.68089 8.07129 8.07135C7.68076 8.46187 7.68076 9.09489 8.07129 9.48541C8.46184 9.87566 9.09492 9.87585 9.48535 9.48541C9.87572 9.09498 9.87558 8.46188 9.48535 8.07135Z" fill="#FF7700"/>
<path id="tone1" d="M20.799 15.1422L15.1421 20.799C14.3611 21.5801 13.0947 21.5801 12.3137 20.799L5.8284 14.3137C5.45333 13.9387 5.24261 13.43 5.24261 12.8995V7.24268C5.24261 6.13811 6.13805 5.24268 7.24262 5.24268L12.8995 5.24268C13.4299 5.24268 13.9386 5.45339 14.3137 5.82846L20.799 12.3137C21.58 13.0948 21.58 14.3611 20.799 15.1422Z" stroke="white" stroke-width="2" stroke-linecap="round"/>
</g>
</svg>
