<svg width="24" height="24" viewBox="0 0 24 24" fill="none" xmlns="http://www.w3.org/2000/svg">
<g id="Property 1=filled">
<path id="Subtract" d="M12.8994 4.24316C13.6949 4.2432 14.458 4.55868 15.0205 5.12109L21.5059 11.6064C22.6774 12.778 22.6774 14.678 21.5059 15.8496L15.8496 21.5059C14.678 22.6774 12.778 22.6774 11.6064 21.5059L5.12109 15.0205C4.55868 14.458 4.24321 13.6949 4.24316 12.8994V7.24219C4.2434 5.58568 5.58569 4.24341 7.24219 4.24316H12.8994ZM9.48535 8.07129C9.09485 7.68079 8.46182 7.68083 8.07129 8.07129C7.68076 8.46181 7.68076 9.09483 8.07129 9.48535C8.46184 9.8756 9.09492 9.87578 9.48535 9.48535C9.87572 9.09491 9.87558 8.46181 9.48535 8.07129Z" fill="white"/>
</g>
</svg>
