<svg width="24" height="24" viewBox="0 0 24 24" fill="none" xmlns="http://www.w3.org/2000/svg">
<path d="M12.9256 16H11.0744C10.7187 16 10.3898 15.8111 10.2106 15.5039L7.87726 11.5039C7.48838 10.8372 7.96925 10 8.74104 10H15.259C16.0308 10 16.5116 10.8372 16.1227 11.5039L13.7894 15.5039C13.6102 15.8111 13.2813 16 12.9256 16Z" stroke="#FCFCFC" stroke-width="2" stroke-linecap="round"/>
<path d="M16.905 10H7.09503C6.507 10 6.0459 10.5049 6.09914 11.0905L6.91732 20.0905C6.96415 20.6056 7.39601 21 7.91321 21H16.0868C16.604 21 17.0359 20.6056 17.0827 20.0905L17.9009 11.0905C17.9541 10.5049 17.493 10 16.905 10Z" stroke="#FCFCFC" stroke-width="2" stroke-linecap="round"/>
<path d="M14.334 7.59961L14.3344 6.59961H14.334V7.59961ZM16 9.09961L17 9.09961L17 9.09916L16 9.09961ZM8 9.09961L7 9.09916V9.09961H8ZM10.334 7.59961L10.3344 6.59961H10.334V7.59961ZM11.667 7L11.6673 6H11.667V7ZM8.6462 9.94139L8.32371 10.888L8.6462 9.94139ZM15.3538 9.94139L15.0313 8.99482L15.3538 9.94139ZM15.1658 8.00293L14.3605 8.59572L15.1658 8.00293ZM13 7V8C13.0182 8 13.0295 8.0037 13.0348 8.00605C13.0408 8.00873 13.0387 8.0094 13.0321 8.00193L13.7797 7.33784L14.5274 6.67375C14.1496 6.24841 13.5937 6 13 6V7ZM14.334 7.59961L14.3336 8.59961C14.3532 8.59962 14.3647 8.60402 14.3692 8.60626C14.3747 8.60899 14.3697 8.60822 14.3605 8.59572L15.1658 8.00293L15.9712 7.41015C15.597 6.90172 14.9876 6.59989 14.3344 6.59961L14.334 7.59961ZM15.535 8.33961L15.0392 9.20803C15.0434 9.21041 15.0353 9.20724 15.0242 9.18951C15.0118 9.16966 15 9.13763 15 9.10006L16 9.09961L17 9.09916C16.9997 8.37205 16.5773 7.78318 16.0309 7.47119L15.535 8.33961ZM16 9.09961H15C15 9.07841 15.0039 9.0573 15.0105 9.03867C15.017 9.02054 15.0249 9.00805 15.0307 9.00065C15.0414 8.98694 15.0446 8.99028 15.0313 8.99482L15.3538 9.94139L15.6763 10.888C16.3913 10.6444 17 9.97988 17 9.09961H16ZM15.3031 10V9H8.69689V10V11H15.3031V10ZM8.6462 9.94139L8.96869 8.99482C8.95537 8.99028 8.95858 8.98694 8.9693 9.00065C8.97508 9.00805 8.98298 9.02054 8.98946 9.03867C8.99613 9.0573 9 9.07841 9 9.09961H8H7C7 9.97988 7.60867 10.6444 8.32371 10.888L8.6462 9.94139ZM8 9.09961L9 9.10006C8.99999 9.12812 8.99325 9.15457 8.98357 9.17513C8.97444 9.19455 8.96498 9.20418 8.96173 9.2071C8.9562 9.21208 8.96692 9.2002 9 9.2002V8.2002V7.2002C7.99769 7.2002 7.00052 7.95346 7 9.09916L8 9.09961ZM9.55277 7.93843L10.3007 8.60217C10.2942 8.60955 10.2923 8.60867 10.2987 8.60582C10.3044 8.60331 10.3159 8.59961 10.334 8.59961V7.59961V6.59961C9.73955 6.59961 9.18282 6.84871 8.8048 7.27469L9.55277 7.93843ZM10.8851 7.33935L11.6338 8.00231C11.6271 8.00989 11.625 8.00909 11.6314 8.00625C11.637 8.00375 11.6487 8 11.667 8V7V6C11.0722 6 10.5147 6.24924 10.1365 6.67639L10.8851 7.33935ZM11.667 7L11.6667 8C11.679 8 11.6882 8.00175 11.6945 8.00361L11.9779 7.04461L12.2613 6.0856C12.0719 6.02965 11.8721 6.00006 11.6673 6L11.667 7ZM12.6881 7.04464L12.9713 8.00372C12.9778 8.00181 12.9873 8 13 8V7V6C12.795 6 12.5948 6.02954 12.405 6.08557L12.6881 7.04464ZM11.9779 7.04461L11.6945 8.00361C12.1051 8.12494 12.561 8.12487 12.9713 8.00372L12.6881 7.04464L12.405 6.08557C12.3642 6.09761 12.3018 6.09758 12.2613 6.0856L11.9779 7.04461ZM10.334 7.59961L10.3336 8.59961C10.8619 8.59984 11.3348 8.33987 11.6338 8.00231L10.8851 7.33935L10.1365 6.67639C10.16 6.64985 10.1814 6.6356 10.2011 6.62611C10.2203 6.61682 10.2643 6.59958 10.3344 6.59961L10.334 7.59961ZM9 8.2002V9.2002C9.53096 9.2002 10.0035 8.93707 10.3007 8.60217L9.55277 7.93843L8.8048 7.27469C8.82735 7.24929 8.84757 7.23582 8.86638 7.22671C8.88467 7.21785 8.92877 7.2002 9 7.2002V8.2002ZM8.66699 9.97011H9.66699C9.66699 9.51601 9.37363 9.13278 8.96869 8.99482L8.6462 9.94139L8.32371 10.888C7.94341 10.7584 7.66699 10.3982 7.66699 9.97011H8.66699ZM8.69689 10V9C9.23266 9 9.66699 9.43433 9.66699 9.97011H8.66699H7.66699C7.66699 10.5389 8.12809 11 8.69689 11V10ZM15.3538 9.94139L15.0313 8.99482C14.6264 9.13278 14.333 9.51602 14.333 9.97011H15.333H16.333C16.333 10.3982 16.0566 10.7584 15.6763 10.888L15.3538 9.94139ZM15.1658 8.00293L14.3605 8.59572C14.5273 8.82233 14.7532 9.04473 15.0392 9.20803L15.535 8.33961L16.0309 7.47119C16.0309 7.4712 16.029 7.47013 16.0255 7.46752C16.0219 7.4649 16.0171 7.46102 16.0113 7.45562C15.9992 7.44452 15.9853 7.42925 15.9712 7.41015L15.1658 8.00293ZM15.333 9.97011H14.333C14.333 9.43433 14.7673 9 15.3031 9V10V11C15.8719 11 16.333 10.5389 16.333 9.97011H15.333ZM13.7797 7.33784L13.0321 8.00193C13.3309 8.33833 13.8042 8.59961 14.334 8.59961V7.59961V6.59961C14.4039 6.59961 14.4473 6.61684 14.4656 6.62565C14.4843 6.63469 14.5047 6.64818 14.5274 6.67375L13.7797 7.33784Z" fill="#FCFCFC"/>
<path d="M12 7L13 2.5" stroke="#FCFCFC" stroke-width="2" stroke-linecap="round"/>
<path d="M15 8L17 3" stroke="#FCFCFC" stroke-width="2" stroke-linecap="round"/>
<path d="M6 11L4 15" stroke="#FCFCFC" stroke-width="2" stroke-linecap="round"/>
<path d="M18 11L20 15" stroke="#FCFCFC" stroke-width="2" stroke-linecap="round"/>
</svg>
