<svg width="24" height="24" viewBox="0 0 24 24" fill="none" xmlns="http://www.w3.org/2000/svg">
<path d="M2.28217 4.30366C2.66675 3.90735 3.29988 3.89768 3.69623 4.28217L10.5458 10.9287C11.1516 11.5167 11.1516 12.4832 10.5458 13.0712L3.69623 19.7177C3.29988 20.1022 2.66675 20.0925 2.28217 19.6962C1.89768 19.2999 1.90736 18.6667 2.30366 18.2822L8.77631 11.9999L2.30366 5.71772C1.90735 5.33314 1.89768 4.70001 2.28217 4.30366Z" fill="white"/>
<path d="M20.9999 19.9999L21.1025 20.0048C21.6066 20.0562 21.9999 20.4823 21.9999 20.9999C21.9999 21.5176 21.6066 21.9437 21.1025 21.9951L20.9999 21.9999H11.9999C11.4477 21.9999 10.9999 21.5522 10.9999 20.9999C10.9999 20.4477 11.4477 19.9999 11.9999 19.9999H20.9999Z" fill="white"/>
</svg>
