<svg width="24" height="24" viewBox="0 0 24 24" fill="none" xmlns="http://www.w3.org/2000/svg">
<g id="Property 1=filled">
<path id="body" d="M12 2C12.2834 2.00003 12.5535 2.1204 12.7432 2.33105L18.2822 8.48535C18.5459 8.7788 18.6126 9.20007 18.4521 9.56055C18.2915 9.92127 17.933 10.1543 17.5381 10.1543H17.0771L19.5693 13.4766C19.7966 13.7796 19.8334 14.1857 19.6641 14.5244C19.4947 14.863 19.1481 15.077 18.7695 15.0771H18.3076L20.7998 18.4004C21.0269 18.7034 21.0639 19.1086 20.8945 19.4473C20.7252 19.786 20.3787 20 20 20H4C3.62124 20 3.27487 19.786 3.10547 19.4473C2.93611 19.1085 2.97304 18.7034 3.2002 18.4004L5.69238 15.0771H5.23047C4.85185 15.077 4.5053 14.8631 4.33594 14.5244C4.16655 14.1856 4.2034 13.7796 4.43066 13.4766L6.92285 10.1543H6.46191C6.06702 10.1543 5.70852 9.92128 5.54785 9.56055C5.38738 9.20004 5.45401 8.77882 5.71777 8.48535L11.2568 2.33105L11.3311 2.25586C11.5137 2.0917 11.752 2 12 2Z" fill="black"/>
<path id="trunk" d="M11 22V19C11 18.4477 11.4477 18 12 18C12.5523 18 13 18.4477 13 19V22C13 22.5523 12.5523 23 12 23C11.4477 23 11 22.5523 11 22Z" fill="black"/>
</g>
</svg>
