<svg width="23" height="24" viewBox="0 0 23 24" fill="none" xmlns="http://www.w3.org/2000/svg">
<g id="Property 1=duotone">
<g id="tone2">
<path id="Vector 137" d="M14 21.0089L10 21.0089C9.46681 15.7034 10.1821 10.7385 11 8.00888C11 8.00888 13 7.98889 13 8.00888C13 12.5089 12.868 17.9811 14 21.0089Z" fill="#FF7700"/>
<path id="Vector 136" d="M8.45972 7.07088L12.2254 8.07989C12.2254 8.07989 11.472 3.30912 8.01055 2.29178C4.54907 1.27444 2.049 5.27445 2.049 5.27445L5.049 6.27445L7.3635 4.7066L8.45972 7.07088Z" fill="#FF7700"/>
<path id="Vector 134" d="M11.7771 7.85636L3.19582 14.4415C3.19582 14.4415 1.95365 10.8397 5.29141 8.28854C8.62918 5.73733 11.7771 7.85636 11.7771 7.85636Z" fill="#FF7700"/>
<path id="Vector 135" d="M16 8H12C12 8 13 4 17 4C21 4 22 8 22 8H19L17.5 6.5L16 8Z" fill="#FF7700"/>
</g>
<g id="tone1">
<path id="Vector 130" d="M8 21L10 21M16 21H14M10 21L14 21M10 21C9.46681 15.6945 10.1821 10.7297 11 8C11 8 13 7.98001 13 8C13 12.5 12.868 17.9722 14 21" stroke="black" stroke-width="2" stroke-linecap="round" stroke-linejoin="round"/>
<path id="Vector 131" d="M11.7771 7.85636L3.19582 14.4415C3.19582 14.4415 1.95365 10.8397 5.29141 8.28854C8.62918 5.73733 11.7771 7.85636 11.7771 7.85636Z" stroke="black" stroke-width="2" stroke-linecap="round" stroke-linejoin="round"/>
<path id="Vector 132" d="M16 8H12C12 8 13 4 17 4C21 4 22 8 22 8H19L17.5 6.5L16 8Z" stroke="black" stroke-width="2" stroke-linecap="round" stroke-linejoin="round"/>
<path id="Vector 133" d="M8.41064 6.79644L12.1763 7.80544C12.1763 7.80544 11.423 3.03468 7.96148 2.01734C4.5 1 1.99992 5 1.99992 5L4.99992 6L7.31443 4.43215L8.41064 6.79644Z" stroke="black" stroke-width="2" stroke-linecap="round" stroke-linejoin="round"/>
</g>
</g>
</svg>
