<svg width="23" height="24" viewBox="0 0 23 24" fill="none" xmlns="http://www.w3.org/2000/svg">
<g id="Property 1=duotone">
<g id="tone2">
<path d="M14.0001 21.0089L10.0001 21.0089C9.46689 15.7034 10.1822 10.7386 11.0001 8.00889C11.0001 8.00889 13.0001 7.9889 13.0001 8.00888C13.0001 12.5089 12.8681 17.9811 14.0001 21.0089Z" fill="#7087D5"/>
<path d="M8.45979 7.07089L12.2255 8.07989C12.2255 8.07989 11.4721 3.30913 8.01062 2.29179C4.54915 1.27445 2.04907 5.27445 2.04907 5.27445L5.04907 6.27445L7.36358 4.7066L8.45979 7.07089Z" fill="#7087D5"/>
<path d="M11.7771 7.85636L3.1959 14.4415C3.1959 14.4415 1.95372 10.8398 5.29149 8.28854C8.62925 5.73733 11.7771 7.85636 11.7771 7.85636Z" fill="#7087D5"/>
<path d="M16.0001 8.00001H12.0001C12.0001 8.00001 13.0001 4.00001 17.0001 4.00001C21.0001 4.00001 22.0001 8.00001 22.0001 8.00001H19.0001L17.5001 6.50001L16.0001 8.00001Z" fill="#7087D5"/>
</g>
<path id="tone1" d="M8.00008 21L10.0001 21M10.0001 21L14.0001 21M10.0001 21C9.46689 15.6945 10.1822 10.7297 11.0001 8.00004C11.0001 8.00004 13.0001 7.98005 13.0001 8.00003C13.0001 12.5 12.8681 17.9723 14.0001 21M14.0001 21H16.0001M3.1959 14.4415L11.7771 7.85639C11.7771 7.85639 8.62925 5.73736 5.29149 8.28857C1.95372 10.8398 3.1959 14.4415 3.1959 14.4415ZM12.0001 8.00004H16.0001L17.5001 6.50004L19.0001 8.00004H22.0001C22.0001 8.00004 21.0001 4.00004 17.0001 4.00004C13.0001 4.00004 12.0001 8.00004 12.0001 8.00004ZM12.1764 7.80548L8.41072 6.79647L7.3145 4.43219L5 6.00004L2 5.00004C2 5.00004 4.50008 1.00004 7.96155 2.01737C11.423 3.03471 12.1764 7.80548 12.1764 7.80548Z" stroke="white" stroke-width="2" stroke-linecap="round" stroke-linejoin="round"/>
</g>
</svg>
