<svg width="24" height="24" viewBox="0 0 24 24" fill="none" xmlns="http://www.w3.org/2000/svg">
<path d="M3 14L3 12L3 10C3 9.44772 3.44772 9 4 9H8.11339C8.36216 9 8.60199 8.90728 8.78607 8.73994L12.3273 5.52061C12.9697 4.93664 14 5.39241 14 6.26055L14 17.7394C14 18.6076 12.9697 19.0634 12.3273 18.4794L8.78607 15.2601C8.60199 15.0927 8.36216 15 8.11339 15H4C3.44772 15 3 14.5523 3 14Z" stroke="#F4F4F4" stroke-width="2" stroke-linecap="round"/>
<path d="M17 10L19.1213 12.1213M19.1213 12.1213L21.2426 14.2426M19.1213 12.1213L21.2426 10M19.1213 12.1213L17 14.2426" stroke="#F4F4F4" stroke-width="2" stroke-linecap="round"/>
</svg>
