<svg width="24" height="24" viewBox="0 0 24 24" fill="none" xmlns="http://www.w3.org/2000/svg">
<path d="M3 14L3 12L3 10C3 9.44772 3.44772 9 4 9H8.63795C8.87189 9 9.09842 8.91798 9.27813 8.76822L13.3598 5.36682C14.0111 4.82405 15 5.2872 15 6.13504L15 17.865C15 18.7128 14.0111 19.176 13.3598 18.6332L9.27813 15.2318C9.09842 15.082 8.87189 15 8.63795 15L4 15C3.44772 15 3 14.5523 3 14Z" stroke="#F4F4F4" stroke-width="2" stroke-linecap="round"/>
<path d="M18 9C19.6569 10.6569 19.6569 13.3431 18 15" stroke="#F4F4F4" stroke-width="2" stroke-linecap="round"/>
</svg>
