<svg width="24" height="24" viewBox="0 0 24 24" fill="none" xmlns="http://www.w3.org/2000/svg">
<path d="M12 10C6.47715 10 2 8.433 2 6.5C2 4.567 6.47715 3 12 3C17.5228 3 22 4.567 22 6.5C22 8.433 17.5228 10 12 10ZM12 10C8.68629 10 6 9.32843 6 8.5C6 7.67157 8.68629 7 12 7C15.3137 7 18 7.67157 18 8.5C18 9.32843 15.3137 10 12 10ZM12 21C6.47715 21 2 20.1046 2 19C2 17.8954 6.47715 17 12 17C17.5228 17 22 17.8954 22 19C22 20.1046 17.5228 21 12 21ZM8.73235 10H15.2676C15.6197 10 15.8609 10.3549 15.7457 10.6875C15.0088 12.8146 15.0272 14.2392 15.7465 16.3138C15.8618 16.6462 15.6204 17 15.2686 17H8.73136C8.37956 17 8.13823 16.6462 8.25348 16.3138C8.97283 14.2392 8.99118 12.8146 8.25431 10.6875C8.13906 10.3549 8.38028 10 8.73235 10Z" stroke="#F4F4F4" stroke-width="2" stroke-linecap="round"/>
</svg>
