<svg width="24" height="24" viewBox="0 0 24 24" fill="none" xmlns="http://www.w3.org/2000/svg">
<path d="M18.4228 12.4858C16.8291 14.0795 14.391 14.3532 12.378 13.3452L6.12969 19.5935C5.41373 20.3095 4.25293 20.3095 3.53697 19.5935C2.82101 18.8775 2.82101 17.7167 3.53697 17.0008L9.78531 10.7524C8.77729 8.73943 9.05092 6.30137 10.6447 4.70762C11.991 3.36125 14.0519 2.53971 15.7783 3.27734C16.3137 3.50613 16.3381 4.19968 15.9263 4.61143L13.3344 7.20331C12.9439 7.59383 12.9439 8.227 13.3344 8.61752L14.5129 9.79603C14.9035 10.1866 15.5366 10.1866 15.9272 9.79603L18.7617 6.96145C19.0713 6.65188 19.5799 6.57017 19.8049 6.94575C20.5852 8.2486 19.7899 11.1187 18.4228 12.4858Z" stroke="white" stroke-width="1.5"/>
</svg>
