<svg width="512" height="512" viewBox="0 0 512 512" fill="none" xmlns="http://www.w3.org/2000/svg">
<rect x="22" y="22" width="468" height="468" fill="#D9D9D9" stroke="#171123" stroke-width="12"/>
<path d="M27 326C27 326 154.866 368.148 244 383C342 399.329 489 410 489 410" stroke="#171123" stroke-width="10"/>
<path d="M247 153.5C263.014 140.46 286 123 286 123L417 159.5L416.91 159.545C415.791 160.102 412.152 161.914 410 165.5C407 170.5 407 172.464 407 178C407 187.727 406.5 197 405 207C402.652 222.652 392.401 255.262 367.5 289.5C342.599 323.738 287 362 275.5 361L305 388L275.5 383.5C275.5 383.5 255.866 366.24 240.353 364.401C226.769 362.791 206 373.5 206 373.5L83 341.5C83 341.5 140.096 268.611 168.649 232.506C194.76 199.489 214.358 180.079 247 153.5Z" fill="#171123"/>
<path d="M26 432C44.0529 426.086 89.4167 379.493 109 355.5L168.649 371.794C168.649 371.794 135.557 415.508 109 435.5C81.2981 456.354 40.0066 476.592 26 477.5V432Z" fill="#171123"/>
<path d="M461.5 142C457.587 128.779 444.157 112.774 439.895 106.863C435.632 100.951 416 160 416 160C419 158 427.5 158.5 429.831 160.067C438.924 164.431 444.631 179.982 448.117 179.982C451.603 179.982 466.847 160.067 461.5 142Z" fill="#171123"/>
<path d="M442 119.974C442 150.888 409 170.5 368.703 172C328.479 172 276.626 151.026 285 123.5C293.801 94.5711 328.945 64 369.169 64C409.392 64 442 89.0606 442 119.974Z" fill="#171123"/>
<path d="M263.428 302.164C219.38 333.44 146.924 336.604 117 334.477C147.988 296.18 214.032 218.786 231.11 204.028C248.5 189 269.13 182.383 278.589 180.491C287.794 178.651 309.152 179.534 319.685 190.065C332.852 203.23 329.66 223.575 329.66 223.575C329.66 226.368 324.872 242.325 320.084 250.702C318.029 254.298 307.476 270.888 263.428 302.164Z" fill="#E0463A" stroke="#E0463A"/>
</svg>
