<?xml version="1.0" encoding="utf-8"?>
<!-- Generator: Adobe Illustrator 27.1.1, SVG Export Plug-In . SVG Version: 6.00 Build 0)  -->
<svg version="1.1" id="Layer_1" xmlns="http://www.w3.org/2000/svg" xmlns:xlink="http://www.w3.org/1999/xlink" x="0px" y="0px"
	 viewBox="0 0 1686.74 658.77" style="enable-background:new 0 0 1686.74 658.77;" xml:space="preserve">
<style type="text/css">
	.st0{fill:#FFFFFF;}
	.st1{fill:#D76258;}
</style>
<g>
	<path class="st0" d="M115.53,201.16l-12.59,12.93l-12.84,8l-15.45,7.48c0,0-12.07,3.36-12.11,4.02c-0.04,0.66-8.3,1.08-8.3,1.08
		s4.4-7.98,4.8-7.88C59.45,226.9,115.53,201.16,115.53,201.16z"/>
	<g>
		<g>
			<g>
				<path d="M215.12,467.43c-64.39,0-102.34-40.53-102.34-109.23c0-68.71,37.95-109.24,102.34-109.24
					c53.75,0,89.11,32.19,95.15,86.24h-47.43c-4.6-29.32-22.42-47.15-47.72-47.15c-31.91,0-50.88,26.16-50.88,70.14
					c0,43.98,18.97,70.14,50.88,70.14c25.87,0,43.12-17.82,47.72-47.72h47.43C304.24,434.95,268.88,467.43,215.12,467.43z"/>
			</g>
			<g>
				<path d="M334.7,243.21h47.72v221.34H334.7V243.21z"/>
			</g>
			<g>
				<path d="M408,391.54c0-47.43,29.32-75.6,78.77-75.6s78.47,28.17,78.47,75.6c0,47.72-29.03,75.89-78.47,75.89
					S408,439.26,408,391.54z M516.95,391.54c0-23.86-11.21-38.23-30.18-38.23c-18.98,0-30.18,14.37-30.18,38.23
					c0,24.15,11.21,38.23,30.18,38.23C505.73,429.77,516.95,415.69,516.95,391.54z"/>
			</g>
			<g>
				<path d="M644.57,351.01v60.37c0,11.5,7.76,18.4,20.98,18.4c6.9,0,13.51-1.72,18.69-4.59v35.07c-9.78,4.6-22.14,7.19-33.92,7.19
					c-33.35,0-53.47-18.1-53.47-49.16v-67.27h-18.97v-32.19h21.56v-47.14h47.72v12.07c0,19.55-16.96,32.19-46.28,34.49v0.57h85.95
					v32.19H644.57z"/>
			</g>
			<g>
				<path d="M852.68,376.88v87.67h-47.72v-85.38c0-16.39-8.62-25.87-23-25.87c-16.1,0-25.58,12.36-25.58,33.06v78.19h-47.72V243.21
					h47.72v127.63h0.57c0-34.5,16.96-54.91,45.42-54.91C834,315.94,852.68,338.64,852.68,376.88z"/>
			</g>
			<g>
				<path d="M1025.15,396.71H923.11c1.15,22.14,11.5,35.07,28.46,35.07c14.09,0,24.43-7.48,27.6-19.84h45.99
					c-5.46,34.78-33.06,55.48-73.59,55.48c-47.14,0-74.74-28.17-74.74-75.89s27.6-75.6,74.74-75.6c46.28,0,73.59,27.88,73.59,75.6
					V396.71z M923.39,382.92h55.48c-2.3-20.13-11.79-31.62-27.31-31.62C935.75,351.3,925.41,362.79,923.39,382.92z"/>
			</g>
			<g>
				<path d="M1041.53,417.41h44.27c0,13.22,9.2,20.99,25.01,20.99c14.95,0,23.57-5.75,23.57-15.53c0-12.36-14.95-14.66-32.48-17.25
					c-25.3-3.73-56.63-8.62-56.63-43.69c0-28.74,24.43-45.99,65.54-45.99c41.1,0,65.54,17.54,65.54,48.01h-44.27
					c0-12.36-7.76-19.55-21.27-19.55c-12.65,0-19.84,5.18-19.84,13.23c0,10.34,14.37,12.94,31.33,15.52
					c25.3,4.03,57.79,9.2,57.79,43.69c0,31.91-25.87,50.59-69.28,50.59C1067.4,467.43,1041.53,449.03,1041.53,417.41z"/>
			</g>
			<g>
				<path d="M1204.81,243.21h47.71v221.34h-47.71V243.21z"/>
			</g>
			<g>
				<path d="M1285.3,254.42h47.71v39.67h-47.71V254.42z M1285.3,318.81h47.71v145.74h-47.71V318.81z"/>
			</g>
			<g>
				<path d="M1509.79,376.88v87.67h-47.72v-85.38c0-16.39-8.62-25.87-22.99-25.87c-16.1,0-25.59,12.36-25.59,33.06v78.19h-47.71
					V318.81h47.71v52.03h0.58c0-34.5,16.96-54.91,45.42-54.91C1491.11,315.94,1509.79,338.64,1509.79,376.88z"/>
			</g>
			<g>
				<path d="M1682.27,396.71h-102.05c1.15,22.14,11.5,35.07,28.46,35.07c14.08,0,24.43-7.48,27.59-19.84h46
					c-5.46,34.78-33.06,55.48-73.59,55.48c-47.15,0-74.74-28.17-74.74-75.89s27.59-75.6,74.74-75.6c46.28,0,73.59,27.88,73.59,75.6
					V396.71z M1580.51,382.92h55.48c-2.3-20.13-11.79-31.62-27.31-31.62C1592.87,351.3,1582.52,362.79,1580.51,382.92z"/>
			</g>
		</g>
		<g>
			<g>
				<path d="M566.6,607.3h8.94c1.39,27.03,17.88,42.92,44.71,42.92c28.42,0,45.11-12.12,45.11-32.99c0-25.63-22.85-29.41-46.1-33.39
					c-24.04-3.97-48.69-8.14-48.69-36.76c0-24.84,18.48-39.34,49.68-39.34c30.41,0,49.09,18.28,50.28,49.28h-8.95
					c-1.19-25.63-16.69-40.73-41.33-40.73c-25.44,0-40.54,11.33-40.54,30.8c0,22.06,20.67,25.44,42.72,29.02
					c25.24,4.17,52.07,8.54,52.07,41.13c0,26.23-20.27,41.53-54.25,41.53C587.86,658.77,567.99,639.69,566.6,607.3z"/>
			</g>
			<g>
				<path d="M735.15,566.96v64.59c0,12.52,7.35,19.67,19.67,19.67c4.97,0,10.54-1.19,14.71-3.18v7.15
					c-4.57,2.18-10.93,3.57-17.29,3.57c-16.1,0-25.64-10.33-25.64-27.82v-63.99h-17.09v-7.55h18.08v-34.78h8.54v8.35
					c0,9.74-3.18,19.28-7.75,26.04v0.4h42.53v7.55H735.15z"/>
			</g>
			<g>
				<path d="M888.97,559.41v97.37h-8.54v-32.79h-0.4c0,21.86-12.52,34.77-33.59,34.77c-22.05,0-34.97-14.11-34.97-37.75v-61.61h8.54
					v61.61c0,19.07,10.53,30.2,28.42,30.2c20.07,0,31.99-14.11,31.99-38.15v-53.65H888.97z"/>
			</g>
			<g>
				<path d="M1026.52,503.77v153.01h-8.54v-30.8h-0.4c0,20.47-13.91,32.79-36.96,32.79c-27.23,0-43.32-18.88-43.32-50.67
					c0-31.8,16.09-50.67,43.32-50.67c23.05,0,36.96,12.32,36.96,32.79h0.4v-86.44H1026.52z M1019.17,608.1
					c0-27.03-13.52-43.13-36.57-43.13c-23.05,0-36.57,16.09-36.57,43.13c0,27.03,13.52,43.12,36.57,43.12
					C1005.65,651.22,1019.17,635.12,1019.17,608.1z"/>
			</g>
			<g>
				<path d="M1080.99,517.68h8.54v17.88h-8.54V517.68z M1080.99,559.41h8.54v97.37h-8.54V559.41z"/>
			</g>
			<g>
				<path d="M1137.84,608.1c0-31.8,16.89-50.67,45.31-50.67s45.31,18.88,45.31,50.67c0,31.79-16.89,50.67-45.31,50.67
					S1137.84,639.89,1137.84,608.1z M1219.71,608.1c0-27.03-13.52-43.13-36.57-43.13s-36.57,16.09-36.57,43.13
					c0,27.03,13.52,43.12,36.57,43.12S1219.71,635.12,1219.71,608.1z"/>
			</g>
		</g>
		<g>
			<path d="M516.85,604.49c-133.58-3.87-271.02-9.73-408.5-17.4l0.38-6.92c137.42,7.68,274.8,13.53,408.32,17.4L516.85,604.49z"/>
		</g>
		<g>
			<path d="M1271.93,605.69l-0.19-6.92c139.71-3.84,279.19-10.1,414.56-18.6l0.43,6.9C1551.28,595.6,1411.72,601.86,1271.93,605.69z
				"/>
		</g>
		<g>
			<g>
				<g>
					<path d="M17.43,264.52c0.05-0.01,0.06,0.02,0.06,0.04C17.45,264.55,17.4,264.53,17.43,264.52z"/>
				</g>
				<g>
					<path d="M44.01,321.36c0.02-0.02,0.03-0.04,0.04-0.07c0,0.02,0.04,0.06,0.03,0.08C44.08,321.39,44.03,321.35,44.01,321.36z"/>
				</g>
				<g>
					<path d="M49.62,322.34c0.02-0.01,0.08-0.02,0.11-0.05c-0.01,0.02-0.02,0.04-0.03,0.06C49.69,322.35,49.61,322.35,49.62,322.34z
						"/>
				</g>
				<g>
					<path d="M194.85,286.13c0.02-0.03,0.15,0.05,0.24,0.05c-0.1,0.07-0.17,0.16-0.21,0.16
						C194.82,286.34,194.82,286.17,194.85,286.13z"/>
				</g>
				<g>
					<path d="M97.66,182.95c-0.01,0,0.07,0.04,0.15,0.07C97.73,183,97.67,182.95,97.66,182.95z"/>
				</g>
				<g>
					<path class="st0" d="M131.25,121.72c-6.94,5.95-13.75,12.01-20.84,17.81c-2.86,2.34-6.18,4.07-9.3,6.08
						c0.01-0.23-0.63-0.39-0.51-0.62c0.63-1.21,1.25-2.55,2.1-3.71c13.77-18.72,28.5-35.1,47.5-48.75
						c10.66-7.66,22.19-11.37,35.25-12.45c2.15-0.18,4.37,0.03,6.51-0.32c-9.03-4.61-17.25-3.55-26.93-1.76
						c7.05-6.61,14.09-13.18,21.15-19.81c-0.22-0.04-0.18-0.66-0.45-0.6c-1.88,0.44-3.88,1.14-5.79,1.66
						c7.91-13.73,17.08-25.15,29.49-35.07c-0.13-0.16-0.25-0.31-0.38-0.47c-3.17,0.93-7.65,0.43-9.3,3.74
						c-0.03,0.05-0.02,0.05,0.04,0.04c2.66-0.52,3.21-3.64,5.23-5.05c20.65-14.37,40.86-20.1,65.97-18.19
						c8.17,0.62,15.28,3.43,22.59,7.06c3.58,1.77,6.21,4.5,7.59,8.31c-1.1-1.19-2.21-2.47-3.3-3.68c0.04,0.64,0.28,1.55,0.22,2.14
						c-0.06,0.59,0.32,1.56-0.29,1.9c-0.61,0.33-1.58,0.22-2.33-0.03c-0.75-0.25-1.36-1.02-2.05-1.47
						c-3.13-2.05-6.19-2.27-8.81,0.72c-2.62,2.98-3.49,6.48-3.31,10.4c0.06,1.44,1.06,2.92,1.62,4.09c0.09,0.2,0.57,0.14,0.71-0.05
						c0.48-0.68,0.61-1.41,1.12-2.34c2.31-4.29,5.47-6.25,10.54-4.62c2.13,0.69,4.58,1.3,6.81,0c0.54,0.75,1.02,1.45,1.55,2.18
						c-2.98,0.28-4.52,1.79-6.54,3.87c-2.02,2.08-4.05,3.36-7.03,3.2c-5.3-0.29-8.71,1.72-11.84,5.89
						c-1.45,1.94-2.17,4.17-3.32,6.27c-14.89,3.79-17.01,17.22-10.94,29.85c-4.92-1.53-7.36-4.82-10.27-8.86
						c-0.04,4.33,1.77,7.32,4.46,10.59c-4.85-0.82-8.72-2.91-12.79-5.59c1.57,3.81,3.98,6.27,7.23,8.73
						c-2.4,0.32-4.79,0.64-7.19,0.96c2.26,3.64,5.58,4.16,9.44,5.29c-2.12,0.94-4.54,1.84-6.54,2.81c-0.21,0.1-0.21,0.6,0,0.66
						c2.07,0.62,4.55,1.1,6.75,1.67c-2.17,3.02-5.13,3.36-8.47,4.48c2.03,4.28,6.68,2.37,10.21,1.06
						c-0.6,5.63-0.66,11.37-1.41,16.99c-1.96,14.81-5.05,28.88-11.78,42.33c-8.83,17.61-21.07,31.38-36.17,43.85
						c-6.89,5.69-14.5,10.06-21.77,15.26c-0.81,0.58-2.11,1.16-3.01,1.69c2.33-8.33,3.79-16.28,3.04-24.95
						c-0.22-0.05-0.45-0.1-0.67-0.15c-0.69,2.63-1.38,5.26-2.07,7.88c-0.46-1.45-0.83-3.05-1.33-4.44c-0.07-0.19-0.45,0.12-0.57,0
						c-0.6,5.06-1.18,10.07-1.78,15.11c-0.22-0.02-0.45-0.02-0.67-0.04c-0.37-2.51-0.68-5.24-1.09-7.65
						c-0.03-0.19-0.53-0.22-0.57-0.04c-0.39,2.04-0.67,4.3-1,6.48c-1.27,8.37-2.84,16.57-6.08,24.45c-0.88,2.13-2.17,4.2-3.69,5.89
						c-2.1,2.34-4.27,2.63-6.85,0.56c-2.58-2.07-4.21-4.67-5.02-8.16c-0.81-3.49-1.2-7.75-1.74-11.46
						c-0.13-0.91-0.18-1.99-0.49-2.88c-1.97,4.54-2.58,9.07-2.74,13.99c-2.58-5.72-1.98-11.41-2.21-17.53
						c-2.48,3.48-2.79,7.2-3.32,11.33c-4.74-0.28-8.71,1.69-13.09,3.09c-2.48,0.79-4.87,1.46-7.4,1.82
						c-1.11,0.16-2.68-0.27-3.28-1.16c-0.6-0.89,0.23-2.29,0.9-3.06c3.47-3.95,6.91-7.96,10.95-11.51c2.36-2.08,5.62-2.86,8.38-4.46
						c16.63-9.62,32.46-19.72,45.99-33.57c12.77-13.07,22.09-27.67,27.63-45.13c2.91-9.16,4.31-18.6,1.84-28.02
						c-3.49-13.35-12.38-21.12-26.59-21.19c-14.21-0.07-25.51,6.65-36.21,15.53c-0.17,0.14-0.33,0.46-0.41,0.52
						c-0.08,0.06-0.19,0.04-0.17,0.02c0.02-0.02-0.04,0.02,0.12-0.09c0.16-0.11,0.03-0.28,0.48-0.5c0.45-0.22,1.46-0.55,2.14-0.96
						c8.35-5.1,16.92-8.91,26.69-10.14c4.6-0.58,9.37-0.61,13.64,0.94c9.48,3.45,14.38,10.73,15.58,20.26
						c1.21,9.53-0.86,17.85-4.01,26.45c-6.12,16.74-16.13,29.69-28.65,42.04c-7.94,7.83-16.98,13.75-26.18,19.87
						c13.77-14.32,25.57-28.04,32.33-46.98c-0.94,1.35-1.81,2.62-2.76,4c-0.95,1.37-1.88,2.81-2.85,4.22
						c-9.07,13.28-19.18,24.78-31.87,34.74c-3.1,2.43-6.85,3.84-10.3,5.78c-0.35,0.19-1,0.12-1.39-0.05
						c0.83-0.8,1.68-1.56,2.53-2.35c12.21-11.35,22.34-23.52,30.63-38c0.02-0.03-0.05-0.09-0.06-0.08c-0.01,0,0.06,0.11,0.02,0.14
						c-0.58,0.45-1.31,0.83-1.8,1.4c-8.13,9.46-16.24,18.63-25.87,26.6c-3.32,2.75-7.05,4.89-10.69,7.28
						c-1.03,0.67-2.42,0.88-3.66,0.99c0.33-0.38,0.67-0.77,1.03-1.13c10.4-10.3,19.94-20.94,28.15-33.09
						c0.67-0.99,0.89-2.28,1.35-3.33c0.04-0.09,0.2,0.04,0.16,0.03c-0.04-0.01-0.09-0.12-0.16-0.04c-1.78,2.14-3.38,4.47-5.32,6.53
						c-9.54,10.08-19.32,19.35-30.97,27.02c-2.8,1.85-6.1,2.92-9.23,4.11c11.8-11.02,22.88-22.31,32.5-35.32
						c-0.97,0.89-1.93,1.78-2.89,2.67c-9.1,8.4-18.15,16.58-28.48,23.5c-3.64,2.44-7.58,4.28-11.66,6.04
						c-1.96,0.85-4.17,0.94-6.43,0.91c-1.42-0.02-3.18-1.01-4.55-1.51c0.66-0.5,1.75-1.26,2.36-1.69
						c11.94-8.5,22.85-17.53,32.93-28.1c1.01-1.06,1.73-2.39,2.62-3.49c0.15-0.19,0.57-0.17,0.66-0.25c0.09-0.08-0.04-0.1-0.05-0.1
						c0,0,0.11,0.08,0.01,0.15c-0.09,0.07-0.43,0.09-0.6,0.22c-1.85,1.43-3.7,2.95-5.58,4.38c-7.93,6.08-15.88,12.19-23.82,18.24
						c-0.21,0.16-0.59,0.42-0.55,0.58c0.04,0.16,0.01,0.04,0.02,0.03c0.69-0.66,0.95-1.72,1.63-2.39
						c5.82-5.82,11.69-11.49,17.55-17.3c0.7-0.69,1.25-1.6,1.6-2.54c-2.65,2.33-5.25,4.68-7.91,7.01
						c-8.74,7.63-17.56,14.87-27.47,20.99c-2.22,1.37-4.62,2.34-7.16,3.15c-2.55,0.81-3.84-0.71-3.23-3.14
						c0.61-2.43,1.4-4.44,2.46-6.56c1.94-3.87,4.1-7.47,6.21-11.25c2.82,2.16,5.98,2.09,8.85,0.42c5.17-3.01,9.64-6.13,14.37-9.5
						c2.86-2.04,5.27-4.49,7.87-6.78c0.46-0.4,1.39-1.03,1.02-1.63c-0.04-0.07-0.09,0.01-0.05,0.06c0.12,0.13,0.45-0.1,0.61-0.03
						c5.3,2.59,9.42,1.37,14.3-1.38c0.51-0.29,1.13-0.66,1.43-0.76c0.3-0.1,0.32,0.21,0.34,0.3c1.09,5.43,3.88,7.86,9.53,6.78
						c4.51-0.86,8.03-3.54,11.62-6.29c0.55-0.42,1.15-0.99,1.71-1.4c0.09,0.24,0.25,0.67,0.3,0.91c1.31,5.71,5.44,7.32,10.76,6.06
						c5.32-1.26,8.54-4.44,12.12-8.2c1.14-1.21,1.95-2.62,3.04-3.84c3.1,4.85,7.4,6.26,12.25,2.61c6.03-4.54,8.26-10.82,10.15-17.9
						c-0.15,0.02-0.38-0.41-0.49-0.27c-0.39,0.49-0.67,1.21-1.09,1.76c-2.69,3.54-5.2,7.17-8.08,10.58
						c-0.92,1.09-2.32,1.9-3.67,2.41c-2.95,1.11-4.92-0.05-5.22-3.22c-0.15-1.53,0.3-3.08,0.44-4.63c0.06-0.66,0.2-1.39,0.01-2.07
						c-1.9,2.54-3.65,5.14-5.64,7.63c-2.83,3.54-5.87,6.65-9.88,8.84c-1.65,0.9-3.54,1.59-5.35,1.81c-3.42,0.43-5.04-1.52-4.35-4.67
						c0.68-3.15,2.09-5.64,3.17-8.57c0.34-0.93,0.83-1.79,1.05-2.78c-0.89,0.83-1.77,1.64-2.64,2.51
						c-4.64,4.62-9.21,8.89-15.04,12.01c-1.99,1.07-4.03,1.8-6.39,2.19c-2.36,0.39-4.04-1.02-3.01-3.55
						c1.45-3.58,3.42-6.93,5.32-10.33c0.95-1.7,2.22-3.31,3.03-5.11c-0.71,0.62-1.38,1.3-2.13,1.86
						c-4.87,3.65-9.63,7.42-14.66,10.86c-1.7,1.16-3.84,1.92-5.83,2.29c-2.73,0.5-4.06-0.84-3.38-3.57
						c0.68-2.73,1.77-5.53,3.19-8.01c2.8-4.92,6.03-9.59,9.02-14.4c0.42-0.68,0.67-1.49,0.99-2.22c0.01-0.03,0.04,0.07,0.05,0.05
						C131.23,121.81,131.24,121.75,131.25,121.72z M265.69,30.29c0.25-3.3-0.15-7.05-2.77-9.37c-2.61-2.32-5.99-2.36-8.64-0.24
						c-2.65,2.12-3.32,5.26-1.66,8.29c1.65,3.02,4.71,4.23,8.01,3.07c1.62-0.57,2.82-2.15,4.25-2.9
						C265.07,29.03,265.46,30.23,265.69,30.29z M278.13,17.96c-7.18-4.13-15.67-6.44-23.8-6.06c-4.79,0.23-8.16,1.66-11.84,4.28
						c-3.68,2.61-6.9,5.55-10.52,8.22c-0.07,0.05-0.03,0.38-0.03,0.46c3.94-0.38,7.18-1.61,10.17-4.19c5.91-5.11,12.13-6.85,19.74-6
						C267.58,15.3,272.6,16.92,278.13,17.96z M235.63,70.21c-2-2.95-1.84-5.93-2.05-9.25c-0.02-0.24-0.39-0.42-0.52-0.31
						c-0.66,0.54-1.35,1.67-2.04,2.29c-0.14,0.12-0.42-0.17-0.58-0.12c0.47-3.09,0.95-6.17,1.42-9.25
						c-4.55,3.21-5.02,9.42-3.05,14.18c0.25,0.59,0.68,1.22,1.03,1.27c1.77,0.23,1.96,1.58,2.71,2.68c2.05,3.05,4.49,4.37,8.06,3.77
						c-1.56-2.78-3.09-5.53-4.66-8.31c-0.06,0.14-0.41,0.03-0.42,0.22C235.5,68.26,235.62,69.29,235.63,70.21z M225.55,109.31
						c0.64,5.74,2.73,9.76,7.74,12.62c1.05,0.6,3,0.85,3.63,0.34c1.28-1.05,2.27-0.83,3.37-0.76c2.63,0.17,4.37-0.21,5.63-2.43
						c-4.06-1.15-8.07-2.3-12.11-3.45c0.04,0.45,0.08,0.89,0.13,1.34c0.05,0.45,0.12,0.92,0.17,1.38
						C230.12,116.24,228.16,112.83,225.55,109.31z M208.61,67.41c-2.88,5.97-1.55,11.49,3.6,15.62c1.56,1.25,3.11,1.37,4.86,0.59
						c1.61,1.39,3.32,3.33,5.58,3.45c-3.09-3.2-6.19-6.41-9.28-9.62c0.11-0.21,0.22-0.42,0.32-0.63c0.11,1.4,0.21,2.81,0.32,4.21
						C209.92,77.16,209.19,72.82,208.61,67.41z M209.17,52.76c0.01-0.13-0.29-0.23-0.37-0.11c-0.81,1.14-1.66,2.53-2.48,3.75
						c-1.03-3.58-0.13-6.4,1.06-9.82c-4.58,3.01-5.08,9.08-2.29,13.48c0.31,0.49,0.85,0.82,1.38,0.85c0.53,0.03,1.72-0.47,1.82-0.93
						C208.79,57.53,208.94,55.11,209.17,52.76z M228.79,126.26c-0.1,4.62,2.48,8.73,6.48,10.49c3.01,1.32,4.93,0.86,7.18-0.94
						C236.02,133.58,232.84,131.65,228.79,126.26z M237.39,44.83c-1.93,0.09-4.18,0.41-6.02,0.42c-0.24,0-0.47-0.52-0.28-0.7
						c1.47-1.41,3.47-2.91,5.07-4.34c-2.92,0.71-5.83,1.84-7.84,4.02c-1.25,1.36-0.93,2.56,0.84,2.94
						C232.27,47.85,234.98,46.94,237.39,44.83z M232.83,101.81c0.25,0.01-0.06-0.7,0.1-0.8c-3.23-2.46-6.42-4.88-9.63-7.32
						c0.81,3.68,3.04,6.29,6.46,7.81C230.73,101.93,231.91,101.79,232.83,101.81z M233.24,32.96c-2.43-0.25-4.83,0.11-6.7,1.61
						c-1.19,0.96-1.28,2.04,0.27,2.48c2.55,0.72,5.01,0.2,7.42-0.94c-1.61-0.24-3.26-0.46-4.88-0.7c0.05-0.17,0.2-0.68,0.33-0.75
						C230.88,34.04,232.06,33.53,233.24,32.96z M293.89,30.15c-0.49-0.39-1.02-1.25-1.71-1.23c-1.6,0.06-2.65,0.94-2.61,2.61
						c0.01,0.66,0.92,1.66,1.72,1.66C293.09,33.2,293.7,31.82,293.89,30.15z M251.88,35.77c3.53,2.39,8.06,3.1,11.42,0.03
						c-1.87,0.21-3.61,0.58-5.53,0.58S253.81,35.98,251.88,35.77z M247.29,36.68c-2-1.73-4.47-3.58-7.23-2.69
						C241.77,36.46,244.44,36.95,247.29,36.68z M233.47,97.69c1.9,2.74,4.48,4.83,7.69,2.8C238.6,99.56,236.04,98.63,233.47,97.69z
						 M235.36,30.36c-2.42-1.65-4.45-2.33-7.02-0.65C230.64,31.09,232.82,30.6,235.36,30.36z M247.06,32.01
						c-0.68-2.31-2.05-4.94-4.86-4.32C243.82,29.14,245.44,30.57,247.06,32.01z M248.18,41.4c0.25-0.11-0.05-0.67,0.1-0.85
						c-1.58-0.08-3.46-0.33-4.89-0.32c-0.23,0-0.27,0.61-0.06,0.74C244.75,41.82,246.57,42.08,248.18,41.4z M274.92,27.89
						c-0.34-1.88-0.68-3.76-1.02-5.65C272.76,24.68,272.6,26.26,274.92,27.89z M244.25,46.89c0.11,0.43,0.22,0.86,0.32,1.29
						c1.38-0.38,2.76-0.75,4.14-1.13c-0.09-0.34-0.17-0.67-0.26-1.01C247.06,46.32,245.65,46.6,244.25,46.89z M255.07,47.66
						c-0.1-0.33-0.2-0.67-0.29-1c-1.41,0.37-2.81,0.75-4.22,1.12c0.1,0.34,0.19,0.69,0.29,1.03
						C252.25,48.43,253.66,48.05,255.07,47.66z M269.67,20.11c-0.95,2.19-0.65,3.48,1.2,4.99
						C270.47,23.43,270.07,21.77,269.67,20.11z M277.65,28.84c-1.07,1.08-1.45,2.45-0.58,3.62c0.17,0.23,0.79,0.19,0.81-0.04
						C277.95,31.47,277.67,29.93,277.65,28.84z M278.21,21.56c-1.19,1.64-1.53,2.74,0.35,3.88
						C278.44,24.15,278.33,22.86,278.21,21.56z M257.97,47.2c-0.22,0.16,0.49,0.69,0.44,0.9c0.96-0.58,2.33-1.28,3.1-1.85
						c0.19-0.14-0.22-0.84-0.42-0.74C260.28,45.88,258.74,46.63,257.97,47.2z M253.64,42.16c0.22-0.05,0.13-0.86-0.09-0.84
						c-1.02,0.08-2.93,0.37-3.94,0.59c-0.21,0.04-0.1,0.79,0.12,0.78C250.74,42.61,252.65,42.36,253.64,42.16z M250.54,34.9
						c0.18,0.05,0.49-0.62,0.32-0.71c-0.58-0.3-1.99-0.87-2.62-1.06c-0.18-0.05-0.45,0.62-0.29,0.71
						C248.52,34.15,249.91,34.72,250.54,34.9z M274.25,32.97c0.04-0.18-0.73-0.48-0.83-0.32c-0.25,0.4-0.77,1.69-0.88,2.15
						c-0.04,0.17,0.69,0.49,0.79,0.33C273.58,34.73,274.14,33.43,274.25,32.97z M264.58,45.18c-0.13,0.14,0.37,0.72,0.52,0.61
						c0.5-0.34,1.6-1.3,2.02-1.74c0.12-0.13-0.34-0.67-0.49-0.57C266.12,43.81,264.99,44.74,264.58,45.18z M265.71,39.12
						c0.14-0.12-0.29-0.73-0.45-0.64c-0.58,0.32-1.86,1.2-2.36,1.63c-0.15,0.12,0.29,0.74,0.46,0.65
						C263.94,40.43,265.21,39.55,265.71,39.12z M259.88,42.1c0.17-0.07-0.04-0.73-0.22-0.7c-0.73,0.16-2.23,0.61-2.93,0.88
						c-0.17,0.07,0.04,0.73,0.23,0.69C257.69,42.82,259.18,42.37,259.88,42.1z M269.6,42.42c-0.11,0.15,0.42,0.64,0.55,0.51
						c0.47-0.47,1.43-1.62,1.81-2.17c0.1-0.15-0.42-0.59-0.55-0.47C270.94,40.75,269.98,41.88,269.6,42.42z M276.32,36.73
						c0.08-0.17-0.5-0.52-0.61-0.38c-0.46,0.62-1.31,1.98-1.65,2.66c-0.09,0.18,0.55,0.57,0.67,0.41
						C275.16,38.8,275.97,37.42,276.32,36.73z M268.17,37.69c-0.13,0.13,0.28,0.8,0.43,0.71c0.41-0.25,1.45-1.12,1.8-1.49
						c0.11-0.11-0.3-0.64-0.43-0.56C269.55,36.59,268.5,37.35,268.17,37.69z M271.5,27.94c-0.08-0.09-0.74,0.24-0.7,0.36
						c0.08,0.24,0.76,1.31,0.91,1.43c0.15,0.12,0.53-0.1,0.51-0.29C272.21,29.25,271.66,28.13,271.5,27.94z"/>
				</g>
				<g>
					<path class="st1" d="M110.29,192.6c0,0,20.96-10.45,44.63-47.48c1.52,11.59,2.21,10.02,2.21,10.02s8.82,4.36,23.85-12.31
						c4.25,5.88,4.25,5.88,4.25,5.88s11.44-4.2,15.03-16.8c0,4.38-0.3,29.22-20.26,49.05c-17.64,15.46-17.64,15.46-17.64,15.46
						l-15.03,8.49h-5.23l-3.35-2.59l-7.49-2.52l-9.23-2.74l-6.43,1.45h-3.57h-1.74V192.6z"/>
				</g>
				<g>
					<path class="st0" d="M119.32,199.8c2.74,2.2,5.28,2.68,8.72,2.09c-28.67,19.6-57.66,36.61-90.14,49.11
						c2.47-0.59,5.11-0.82,7.48-1.75c9.37-3.69,18.8-7.04,27.93-11.29c18.97-8.83,36.24-19.86,53.12-32.18
						c0.29-0.21,0.58-0.4,0.83-0.66c1.69-1.67,3.07-2.05,5.43-1.37c1.34,0.39,3.15,0.3,4.61,0.35c-0.92,0.71-1.96,1.62-2.9,2.26
						c-16.65,11.4-33.85,21.3-51.99,30.07c-13.7,6.63-27.6,12.34-42.2,16.66c-1.41,0.42-2.92,0.7-4.37,0.68
						c-2.18-0.02-3.17-1.51-2.52-3.48c0.65-1.97,1.53-3.63,2.66-5.3c2.17-3.19,4.6-6.16,6.96-9.25c2.35,3.51,5.81,3.7,9.33,2.5
						c9.95-3.42,18.8-7.86,27.82-12.78c13.07-7.13,25.16-15.14,37.02-24.09C117.8,200.87,118.6,200.3,119.32,199.8z"/>
				</g>
				<g>
					<path class="st0" d="M301.65,30.74c11.96,18.13,9.92,37.57-5.05,53.15c0.23-2.2,0.69-3.89,0.68-6.23
						c-0.01-2.33-0.25-5.07-0.61-7.54c-0.25-1.72-1.49-2.68-3.16-2.76c-1.67-0.07-2.02-0.79-2.47-2.22
						c-1.51-4.79-4.17-8.48-7.72-11.95c-1.23-1.2-2.61-2.33-3.78-3.39c-1.17-1.06-1.31-2-0.75-3.38c1.44-3.51,3.59-6.09,6.76-8.19
						c1.2-0.79,2.76-1.14,4.15-1.09c3.48,0.12,5.91-0.74,8.43-3.12C299.3,32.93,300.45,31.81,301.65,30.74z"/>
				</g>
				<g>
					<path class="st0" d="M14.22,355.43c1.51-3.24,2.83-6.6,4.56-9.73c8.9-16.12,17.84-32.19,26.91-48.22
						c7.82-13.81,15.78-27.48,23.8-41.22c0.56-0.96,1.49-1.76,2.53-2.31c3.01-1.6,6.21-3.03,9.3-4.51
						c-0.37,0.73-0.84,1.74-1.23,2.41c-6.94,11.91-13.66,23.85-20.82,35.58c-11.14,18.26-22.46,36.37-33.92,54.44
						c-3.1,4.88-6.88,9.33-10.31,13.97C14.75,355.7,14.5,355.57,14.22,355.43z"/>
				</g>
				<g>
					<path class="st0" d="M154.93,263.33c0.22-0.41-0.39-0.74-0.64-1.08c-1.87-2.54-1.32-3.98,0.79-6.18
						c0.22,0.45,0.32,1.35,0.58,1.67c0.09,0.11,0.37-0.11,0.53-0.38c0.16-0.27,0.42-1.47,0.59-1.9c5.71,0.26,9.63-2.48,14.32-5.35
						c-0.43-0.15-0.88-0.28-1.29-0.45c0.07-0.1,0.68-0.72,0.66-0.73c-1.46-1.06-3.1-1.94-4.62-2.94c1.62-2.4,3.26-4.81,4.88-7.21
						c1.84,2.07,3.51,4.14,5.37,6.23c0.74,0.83,1.34,1,2.55,0.69c3.36-0.85,6.72,0.04,10.12,0.64c-0.62,0.36-1.26,0.72-1.89,1.08
						c3-0.01,5.34,0.09,7.46,2.42c-0.83,0.71-1.66,1.43-2.49,2.14c-2.56-1.38-5.69-3.97-8.77-3.16c2.02,1.19,4.05,2.37,6.07,3.56
						c-0.24,0.66-0.49,1.46-0.74,2.07c-0.04,0.1-0.17-0.2-0.19-0.17c-0.02,0.03,0.01,0.07,0.04,0.08c0.03,0.01,0.08,0.11,0.14,0.08
						c2.55-1.1,3.46,0.48,4.76,2.59c-0.41,0.28-0.75,0.51-1.18,0.8c-0.44,0.28-0.84,0.62-1.08,1.12c1.07-0.32,2.14-0.64,3.21-0.96
						c0.57,0.85,1.15,1.7,1.71,2.54c-0.75,0.46-1.67,0.95-2.35,1.4c-0.1,0.07,0.01,0.36,0.12,0.33c0.77-0.18,1.73-0.52,2.56-0.75
						c1.7,1.95,1.56,2.57-0.38,4.25c0.69-0.24,1.38-0.48,2.06-0.73c1.75,2.88,1.46,3.77-1.13,5.89c1.08-0.36,2.11-0.73,3.21-1.08
						c-0.19,1.77,0.81,3.74-0.26,5.41c-1.07,1.67-3.63-0.68-4.85,0.85c-0.03,0.04,0,0.08,0.03,0.03c1.44-2.8-1.98-5.13-3.35-7.45
						c-1.37-2.32-1.78-4.99-4.19-6.77c-0.44-0.32-0.5-1.69-0.57-2.26c-3.13-0.2-3.36-2.66-3.85-5.35c-0.3,0.94-0.61,1.87-0.91,2.81
						c-2.92-0.37-4.47-1.61-5.67-4.28c-0.54,2.37-1.94,2.92-4.05,3.65c-2.1,0.72-3.89,1.47-6,2.23c-2.11,0.76-3.06,0.34-4.14-1.65
						c-0.13-0.24-0.31-0.74-0.4-0.8c-0.09-0.06-0.64,0.08-0.57,0.27c0.4,1.02,1.14,2.27,1.64,3.35c-2.69,1.74-3.51,1.7-5.37-0.97
						c-0.04,0.14-0.56,0-0.52,0.19c0.2,0.9,0.64,1.95,0.91,2.89c-1.05,0.34-2.37,0.24-2.91,1.33
						C154.86,263.35,154.9,263.38,154.93,263.33z M170.51,243.88c0.15-0.11-0.23-0.67-0.38-0.58c-0.66,0.36-1.89,1.19-2.5,1.65
						c-0.13,0.1,0.19,0.61,0.33,0.53C168.63,245.12,169.91,244.33,170.51,243.88z"/>
				</g>
				<g>
					<path class="st0" d="M49.89,322c0.7-1.35,1.24-4.71,2.19-7.01c5.72-13.84,13.01-27.32,20.52-40.45
						c5.37-9.38,10.82-18.78,16.31-28.14c0.49-0.84,1.37-1.52,2.26-2.03c2.73-1.57,5.58-2.93,8.53-4.08
						c-16.69,27.39-33.31,54.64-50.04,82.11C50.09,321.62,49.19,323.35,49.89,322z"/>
				</g>
				<g>
					<path class="st0" d="M292.37,70.92c-1.47,0.75-3.14,1.84-4.65,2.43c-5.34,2.11-10.32,2.99-15.96,2.21
						c-1.47-0.2-2.97-0.68-4.2-1.37c-4.76-2.7-6.03-5.73-4.02-10.91c1.55-4.01,4.14-7.61,7.43-10.34c2.15-1.79,3.52-1.46,4.92,0.9
						c0.88,1.48,1.36,3.39,1.9,5.12c2.21,7.09,5.83,10.39,13.24,11.65C291.28,70.64,292.06,70.81,292.37,70.92z"/>
				</g>
				<g>
					<path class="st0" d="M113.7,153.48c-0.81-0.47-1.51,0.75-2.18,1.21c-5.74,3.93-11.44,8.03-17.36,11.79
						c-2.54,1.61-5.41,2.68-8.26,3.75c-0.75,0.28-2.04,0.08-2.58-0.55c-0.55-0.62-0.23-1.76,0.17-2.43
						c3.37-5.71,6.91-11.39,10.39-17.06c2.92,1.99,5.68,2.14,8.82,0.73c3.14-1.41,5.79-3.26,8.66-4.9c0.6-0.34,0.79-0.55,1.31-0.91
						c0.38,2.55,0.81,5.08,1.18,7.64c0.04,0.25-0.12,0.58-0.19,0.77C113.64,153.58,113.78,153.52,113.7,153.48z"/>
				</g>
				<g>
					<path class="st0" d="M213.29,237.57c2.57,0.35,5.54,0.97,5.14,4.15c2.09-0.39,2.61,0.48,3.86,2.1c-0.41,0.5-0.81,0.99-1.22,1.5
						c2.17-0.61,2.9,0.39,3.88,2.15c0.98,1.76,1.41,2.84-0.38,4.16c0.6-0.14,1.2-0.26,1.79-0.4c1.7,3.23,0.67,3.87-2.24,5.79
						c0.6-0.17,1.1-0.29,1.72-0.5c0.62-0.21,1.38-0.56,2.02-0.78c0.21,0.94,0.33,2.56,0.36,3.37c0.03,0.8-0.62,1.84-0.97,1.95
						c-1.01,0.31-2.96,0.19-3.39-0.5c-1.68-2.7-2.52-5.39-3.67-8.25c-0.3-0.75-0.03-1.66-0.05-2.45c-3.49-1.41-6.26-3.18-6.68-7.16
						c-1.3,0.35-2.83,1.13-4.15,1.03c-3.39-0.26-3.75-1.31-2.52-4.29c-0.12,0.06-0.35-0.37-0.45-0.23c-0.64,0.92-1.19,1.9-1.51,3.04
						c-0.33,1.14-0.37,1.56-1.77,2.07c-1.4,0.51-2.97,1.2-4.75,1.85c-1.77,0.66-2.72,0.03-2.36-2.18c-0.31,0.24-1.06,1.03-1.24,1.13
						c-0.18,0.1-0.43-0.12-0.35-0.22c0.47-0.67,1.25-1.49,1.81-2.21c0.36,0.87,0.71,1.76,1.07,2.64c0.37-1.5,0.73-3,1.1-4.5
						c0.45,0.89,0.91,1.77,1.36,2.66c0.22-2.65,1.97-3.69,3.95-5.18c-0.82-0.13-1.65-0.26-2.47-0.4c1.28-0.83,2.71-1.67,3.93-2.49
						c0.1-0.07-0.03-0.32-0.13-0.3c-1.39,0.18-3.21,0.69-4.54,0.82c-0.22,0.02-0.41-0.55-0.25-0.68c0.85-0.66,2.33-1.36,3.26-2.02
						c0.08-0.06-0.01-0.33-0.12-0.31c-1.11,0.19-2.46,0.57-3.57,0.77c-0.09,0.02-0.19-0.21-0.11-0.26c1.14-0.67,2.25-1.43,3.55-2.01
						c0.35-0.15,0.85,0,1.3,0.28c0.45,0.28,0.92,0.79,1.4,1.25c1.83,1.74,3.16,2.4,5.8,1.44c2.63-0.96,5.41-0.8,8.08,0.38
						c-0.29,0.49-0.62,1-0.93,1.5c2.33-1.41,3.27,0.01,5.1,1.45c-1.56,1.83-2.12,2.12-4.24,0.85c-1.1-0.66-2.31-1.38-3.54-1.91
						C214.95,236.12,214.05,236.49,213.29,237.57z"/>
				</g>
				<g>
					<path class="st0" d="M105.25,199.04c-0.17,0.22-0.84,0.78-1.35,1.08c-11.64,6.9-23.47,13.63-36.01,18.85
						c-2.58,1.07-5.44,1.97-8.07,2.35c-2.63,0.38-3.47-0.49-2.45-3.15c1.02-2.65,2.93-6.04,4.23-8.75c2.47,3.01,4.27,4.17,8.12,2.68
						s7.48-3.58,11.19-5.52c2.2-1.15,4.19-2.47,6.32-3.92c2.84-1.93,5.21-3.12,8.87-2.61c2.06,0.29,4.5-0.49,6.59-0.91
						c0.76-0.16,1.69-0.52,2.34-0.62C105.18,198.5,105.42,198.82,105.25,199.04z"/>
				</g>
				<g>
					<path class="st0" d="M113.44,229.58c0.1,6.55,2.45,7.67,8.59,9.07c-0.12,0.21-0.22,0.54-0.4,0.69
						c-5.88,5-11.69,10.01-17.65,14.93c-1.02,0.84-2.25,1.44-3.51,1.92c-1.27,0.47-2.01-0.11-1.89-1.5
						c0.06-0.72,0.21-1.57,0.59-2.22c4.05-7.03,8.18-14.04,12.29-21c0.35-0.59,1.06-1.15,1.41-1.5
						C113.21,229.62,113.15,229.81,113.44,229.58z"/>
				</g>
				<g>
					<path class="st0" d="M87,195.07c1.07,1,2.06,2.54,3.11,3.68c-0.94,0.54-1.84,1.12-2.8,1.6c-5.65,2.8-11.21,5.63-16.95,8.32
						c-1.25,0.59-2.62,0.85-4.1,0.96s-2.86-1.18-1.93-2.61c2.01-3.1,4.34-5.69,6.62-8.57c0.13-0.16,0.51-0.17,0.75-0.14
						c5.33,0.77,9.66-0.77,14.44-2.97C86.4,195.22,86.76,194.85,87,195.07z"/>
				</g>
				<g>
					<path class="st0" d="M194.78,276.1c-1.03,2.06,4.29,0.59,5.24,0.34c-0.07,4.11-3.23,6.25-4.89,9.7
						c-0.03,0.06-0.02,0.07,0.04,0.05c1.97-0.6,2.46-2.93,3.5-4.53c-3.2-1.16-4.19-2.09-3.83-5.52
						C194.84,276.08,194.8,276.06,194.78,276.1z"/>
				</g>
				<g>
					<path class="st0" d="M197.03,257.2c1.14-0.61,2.25-1.24,3.4-1.85c0.86,1.81,2.23,3.8,2.74,5.67c0.51,1.87-1.16,1.55-2.26,2.24
						C199.6,261.23,198.33,259.22,197.03,257.2z"/>
				</g>
				<g>
					<path class="st0" d="M223.67,261.74c1.39,0.14,2.78,0.28,4.17,0.43c0.18,3.22-0.97,5.88-3.99,7.25
						c0.61-0.93,1.22-1.86,1.83-2.79C222.91,265.73,223.37,264.21,223.67,261.74z"/>
				</g>
				<g>
					<path class="st0" d="M225.74,243.85c1-0.5,2-1.01,2.99-1.51c1.02,1.88,2.04,3.77,3.06,5.65c-0.86,0.6-1.72,1.2-2.57,1.8
						C228.06,247.81,226.9,245.83,225.74,243.85z"/>
				</g>
				<g>
					<path class="st0" d="M192.63,252.52c0.91-0.75,1.81-1.5,2.72-2.25c1.43,1.33,2.86,2.65,4.28,3.98
						c-0.92,0.71-1.85,1.43-2.77,2.14C195.45,255.1,194.04,253.81,192.63,252.52z"/>
				</g>
				<g>
					<path class="st0" d="M200.99,263.98c0.99-0.34,1.98-0.69,2.96-1.03c1.09,2.65,1.79,4.1-1.2,5.22
						C202.17,266.77,201.58,265.37,200.99,263.98z"/>
				</g>
				<g>
					<path class="st0" d="M227.91,241.46c-0.98,0.58-1.96,1.16-2.94,1.75c-0.83-1.02-1.66-2.05-2.49-3.07
						c0.89-0.55,1.78-1.1,2.67-1.64C226.07,239.48,226.99,240.47,227.91,241.46z"/>
				</g>
				<g>
					<path class="st0" d="M230.55,253.55c-0.39-1.06-0.79-2.12-1.18-3.19c0.83-0.38,1.65-0.77,2.48-1.15
						C233.02,251.76,233.28,252.49,230.55,253.55z"/>
				</g>
				<g>
					<path class="st0" d="M204.04,274.77c-0.29-1.35-0.33-2.42-0.72-3.94c-0.4-1.51,0.46-2.36,2.11-2.56
						c-0.26,2.18-0.49,4.39-0.76,6.6C204.55,274.71,204.09,274.99,204.04,274.77z"/>
				</g>
				<g>
					<path class="st0" d="M233.46,253.42c-0.39,2.02-0.71,4.3-1.13,6.21c-0.04,0.19-0.49,0.12-0.53-0.05
						c-0.35-1.61-0.6-3.57-0.92-5.28C231.74,254,232.6,253.71,233.46,253.42z"/>
				</g>
				<g>
					<path class="st0" d="M154.87,263.31c-1.15-0.01-2.14,0.77-3.18,1.24c0.11-1.1,0.21-2.2,0.32-3.3c0.96,0.69,1.95,1.39,2.9,2.08
						C154.93,263.35,154.93,263.31,154.87,263.31z"/>
				</g>
				<g>
					<path class="st0" d="M195.11,286.15c-0.06-0.02-0.22,0.18-0.24,0.19c-0.02,0.01-0.05-0.19-0.02-0.21
						c0.03-0.01,0.25,0.07,0.29,0.06C195.16,286.2,195.14,286.16,195.11,286.15z"/>
				</g>
				<g>
					<path class="st0" d="M97.93,183.05c-0.05,0.01-0.28-0.09-0.28-0.09C97.65,182.96,97.91,183.04,97.93,183.05
						C97.96,183.06,97.94,183.05,97.93,183.05z"/>
				</g>
				<g>
					<path class="st0" d="M115.54,201.16c0.01-0.02,0.05-0.13,0.06-0.14c0-0.01-0.04,0.08-0.04,0.09
						C115.56,201.12,115.54,201.16,115.54,201.16z"/>
				</g>
				<g>
					<path class="st0" d="M17.45,264.65c-0.02-0.01,0-0.12,0.01-0.13c0.01,0,0.03,0.08,0.04,0.09
						C17.49,264.62,17.47,264.65,17.45,264.65z"/>
				</g>
				<g>
					<path class="st0" d="M199.73,27.47c-0.07,0-0.15,0.25-0.13,0.26c0.02,0.01,0.18-0.15,0.17-0.21
						C199.77,27.49,199.76,27.47,199.73,27.47z"/>
				</g>
				<g>
					<path class="st0" d="M44.06,321.29c0.01,0,0.04,0.07,0.03,0.08c-0.01,0.01-0.08-0.01-0.08-0.02
						C44,321.33,44.03,321.29,44.06,321.29z"/>
				</g>
				<g>
					<path class="st0" d="M49.69,322.35c-0.01,0-0.08,0-0.07-0.01c0.01-0.01,0.1-0.04,0.12-0.04
						C49.75,322.3,49.7,322.35,49.69,322.35z"/>
				</g>
				<g>
					<path d="M265.69,30.29c-0.23-0.07-0.63-1.26-0.82-1.16c-1.43,0.75-2.63,2.33-4.25,2.9c-3.3,1.17-6.35-0.04-8.01-3.07
						c-1.65-3.02-0.99-6.16,1.66-8.29c2.65-2.12,6.03-2.08,8.64,0.24S265.95,26.99,265.69,30.29z M258.04,20.89
						c-2.52,0.53-4.56,1.99-4.57,4.72s2.3,4.68,4.62,5.17c2.32,0.49,3.85-0.31,4.89-2.16c-2.59,1-5.06,1.71-6.98-0.89
						C254.08,25.14,256.1,22.9,258.04,20.89z M261.39,23.16c-0.27,0.3-0.98,0.88-0.94,1.3c0.03,0.42,0.61,0.8,0.91,0.85
						c0.3,0.05,0.88-0.15,0.87-0.55C262.2,24.35,261.6,23.58,261.39,23.16z"/>
				</g>
				<g>
					<path d="M278.13,17.96c-5.53-1.04-10.55-2.66-16.27-3.3c-7.6-0.84-13.83,0.89-19.74,6c-2.99,2.58-6.23,3.81-10.17,4.19
						c0-0.08-0.04-0.41,0.03-0.46c3.62-2.67,6.84-5.61,10.52-8.22c3.68-2.61,7.04-4.05,11.84-4.28
						C262.46,11.52,270.95,13.83,278.13,17.96z"/>
				</g>
				<g>
					<path d="M235.63,70.21c-0.02-0.92-0.14-1.95-0.11-2.83c0.01-0.19,0.36-0.07,0.42-0.22c1.57,2.78,3.1,5.53,4.66,8.31
						c-3.58,0.6-6.01-0.72-8.06-3.77c-0.74-1.1-0.93-2.45-2.71-2.68c-0.35-0.04-0.78-0.67-1.03-1.27
						c-1.97-4.76-1.5-10.97,3.05-14.18c-0.47,3.08-0.95,6.15-1.42,9.25c0.16-0.05,0.44,0.24,0.58,0.12c0.7-0.62,1.38-1.75,2.04-2.29
						c0.13-0.11,0.51,0.07,0.52,0.31C233.8,64.28,233.64,67.26,235.63,70.21z"/>
				</g>
				<g>
					<path d="M225.55,109.31c2.61,3.52,4.57,6.93,8.57,9.04c-0.06-0.46-0.12-0.92-0.17-1.38c-0.05-0.45-0.09-0.89-0.13-1.34
						c4.04,1.15,8.05,2.3,12.11,3.45c-1.26,2.22-3,2.6-5.63,2.43c-1.1-0.07-2.09-0.29-3.37,0.76c-0.63,0.51-2.58,0.26-3.63-0.34
						C228.28,119.07,226.19,115.05,225.55,109.31z"/>
				</g>
				<g>
					<path d="M208.61,67.41c0.57,5.41,1.3,9.75,5.4,13.62c-0.11-1.4-0.21-2.81-0.32-4.21c-0.11,0.21-0.22,0.42-0.32,0.63
						c3.09,3.21,6.19,6.41,9.28,9.62c-2.26-0.12-3.97-2.06-5.58-3.45c-1.76,0.78-3.31,0.66-4.86-0.59
						C207.07,78.9,205.73,73.38,208.61,67.41z"/>
				</g>
				<g>
					<path d="M209.17,52.76c-0.23,2.35-0.38,4.77-0.88,7.22c-0.09,0.46-1.29,0.95-1.82,0.93c-0.53-0.03-1.08-0.36-1.38-0.85
						c-2.79-4.4-2.3-10.47,2.29-13.48c-1.19,3.41-2.09,6.23-1.06,9.82c0.82-1.22,1.67-2.61,2.48-3.75
						C208.88,52.53,209.18,52.62,209.17,52.76z"/>
				</g>
				<g>
					<path d="M228.79,126.26c4.05,5.39,7.23,7.31,13.66,9.55c-2.25,1.81-4.17,2.26-7.18,0.94
						C231.26,134.99,228.68,130.89,228.79,126.26z"/>
				</g>
				<g>
					<path d="M237.39,44.83c-2.41,2.1-5.12,3.01-8.23,2.35c-1.77-0.38-2.1-1.58-0.84-2.94c2.01-2.18,4.93-3.31,7.84-4.02
						c-1.6,1.43-3.6,2.93-5.07,4.34c-0.19,0.18,0.04,0.7,0.28,0.7C233.2,45.24,235.45,44.92,237.39,44.83z"/>
				</g>
				<g>
					<path d="M232.83,101.81c-0.92-0.02-2.1,0.12-3.07-0.31c-3.42-1.52-5.65-4.12-6.46-7.81c3.21,2.44,6.4,4.86,9.63,7.32
						C232.77,101.11,233.09,101.82,232.83,101.81z"/>
				</g>
				<g>
					<path d="M233.24,32.96c-1.18,0.57-2.36,1.08-3.56,1.7c-0.14,0.07-0.28,0.58-0.33,0.75c1.62,0.24,3.27,0.46,4.88,0.7
						c-2.41,1.15-4.87,1.66-7.42,0.94c-1.55-0.44-1.46-1.52-0.27-2.48C228.41,33.07,230.81,32.71,233.24,32.96z"/>
				</g>
				<g>
					<path d="M293.89,30.15c-0.19,1.67-0.81,3.05-2.61,3.04c-0.79,0-1.71-1-1.72-1.66c-0.03-1.67,1.01-2.56,2.61-2.61
						C292.87,28.9,293.4,29.76,293.89,30.15z"/>
				</g>
				<g>
					<path d="M251.88,35.77c1.93,0.21,3.97,0.62,5.89,0.62c1.92-0.01,3.66-0.38,5.53-0.58C259.93,38.87,255.41,38.15,251.88,35.77z"
						/>
				</g>
				<g>
					<path d="M247.29,36.68c-2.85,0.28-5.53-0.21-7.23-2.69C242.82,33.1,245.29,34.95,247.29,36.68z"/>
				</g>
				<g>
					<path d="M233.47,97.69c2.57,0.93,5.13,1.87,7.69,2.8C237.95,102.52,235.37,100.43,233.47,97.69z"/>
				</g>
				<g>
					<path d="M235.36,30.36c-2.54,0.25-4.73,0.73-7.02-0.65C230.92,28.03,232.94,28.7,235.36,30.36z"/>
				</g>
				<g>
					<path d="M247.06,32.01c-1.62-1.44-3.24-2.88-4.86-4.32C245.02,27.08,246.38,29.7,247.06,32.01z"/>
				</g>
				<g>
					<path d="M248.18,41.4c-1.61,0.69-3.43,0.42-4.85-0.44c-0.2-0.12-0.16-0.74,0.06-0.74c1.43-0.01,3.31,0.24,4.89,0.32
						C248.14,40.73,248.44,41.29,248.18,41.4z"/>
				</g>
				<g>
					<path d="M274.92,27.89c-2.32-1.63-2.16-3.22-1.02-5.65C274.24,24.13,274.58,26.01,274.92,27.89z"/>
				</g>
				<g>
					<path d="M244.25,46.89c1.4-0.28,2.81-0.57,4.21-0.85c0.09,0.34,0.17,0.67,0.26,1.01c-1.38,0.38-2.76,0.75-4.14,1.13
						C244.47,47.75,244.36,47.32,244.25,46.89z"/>
				</g>
				<g>
					<path d="M255.07,47.66c-1.41,0.38-2.82,0.77-4.23,1.15c-0.1-0.34-0.19-0.69-0.29-1.03c1.41-0.37,2.81-0.75,4.22-1.12
						C254.87,46.99,254.97,47.33,255.07,47.66z"/>
				</g>
				<g>
					<path d="M269.67,20.11c0.4,1.66,0.8,3.33,1.2,4.99C269.01,23.59,268.72,22.29,269.67,20.11z"/>
				</g>
				<g>
					<path d="M277.65,28.84c0.02,1.08,0.3,2.63,0.23,3.58c-0.02,0.22-0.64,0.26-0.81,0.04C276.2,31.29,276.57,29.92,277.65,28.84z"
						/>
				</g>
				<g>
					<path d="M278.21,21.56c0.12,1.29,0.23,2.59,0.35,3.88C276.68,24.3,277.02,23.2,278.21,21.56z"/>
				</g>
				<g>
					<path d="M257.97,47.2c0.77-0.56,2.31-1.32,3.11-1.69c0.2-0.09,0.61,0.6,0.42,0.74c-0.77,0.57-2.14,1.27-3.1,1.85
						C258.46,47.89,257.75,47.36,257.97,47.2z"/>
				</g>
				<g>
					<path d="M253.64,42.16c-0.99,0.2-2.9,0.45-3.92,0.52c-0.21,0.02-0.33-0.73-0.12-0.78c1.01-0.21,2.93-0.51,3.94-0.59
						C253.78,41.3,253.87,42.11,253.64,42.16z"/>
				</g>
				<g>
					<path d="M250.54,34.9c-0.62-0.18-2.01-0.76-2.59-1.06c-0.16-0.09,0.11-0.76,0.29-0.71c0.63,0.19,2.04,0.75,2.62,1.06
						C251.02,34.28,250.72,34.96,250.54,34.9z"/>
				</g>
				<g>
					<path d="M274.25,32.97c-0.11,0.46-0.67,1.76-0.92,2.17c-0.09,0.15-0.83-0.16-0.79-0.33c0.11-0.46,0.64-1.75,0.88-2.15
						C273.53,32.5,274.3,32.79,274.25,32.97z"/>
				</g>
				<g>
					<path d="M264.58,45.18c0.41-0.43,1.55-1.36,2.05-1.7c0.15-0.1,0.61,0.44,0.49,0.57c-0.42,0.44-1.52,1.41-2.02,1.74
						C264.94,45.89,264.45,45.31,264.58,45.18z"/>
				</g>
				<g>
					<path d="M265.71,39.12c-0.51,0.43-1.77,1.31-2.36,1.63c-0.17,0.09-0.6-0.52-0.46-0.65c0.51-0.43,1.78-1.3,2.36-1.63
						C265.43,38.38,265.86,38.99,265.71,39.12z"/>
				</g>
				<g>
					<path d="M259.88,42.1c-0.7,0.27-2.19,0.72-2.92,0.88c-0.18,0.04-0.4-0.62-0.23-0.69c0.7-0.27,2.19-0.72,2.93-0.88
						C259.84,41.37,260.05,42.03,259.88,42.1z"/>
				</g>
				<g>
					<path d="M269.6,42.42c0.38-0.54,1.34-1.67,1.82-2.13c0.13-0.12,0.65,0.32,0.55,0.47c-0.39,0.55-1.34,1.7-1.81,2.17
						C270.02,43.06,269.49,42.57,269.6,42.42z"/>
				</g>
				<g>
					<path d="M276.32,36.73c-0.35,0.69-1.16,2.07-1.6,2.69c-0.12,0.16-0.76-0.23-0.67-0.41c0.34-0.68,1.2-2.03,1.65-2.66
						C275.82,36.2,276.4,36.56,276.32,36.73z"/>
				</g>
				<g>
					<path d="M268.17,37.69c0.33-0.34,1.38-1.1,1.8-1.34c0.14-0.08,0.54,0.45,0.43,0.56c-0.36,0.37-1.39,1.24-1.8,1.49
						C268.45,38.49,268.05,37.82,268.17,37.69z"/>
				</g>
				<g>
					<path d="M271.5,27.94c0.16,0.2,0.7,1.31,0.72,1.5c0.02,0.19-0.36,0.41-0.51,0.29c-0.15-0.12-0.83-1.19-0.91-1.43
						C270.76,28.18,271.43,27.84,271.5,27.94z"/>
				</g>
				<g>
					<path d="M156.98,159.11c0.05,0,0.14,0.03,0.15,0.04c0.01,0.01-0.13,0-0.15-0.03C156.96,159.09,156.97,159.11,156.98,159.11z"/>
				</g>
				<g>
					<path d="M131.25,121.72c0.03,0.01-0.02,0.1-0.03,0.11c-0.01,0.01-0.05-0.05-0.05-0.06
						C131.18,121.75,131.22,121.71,131.25,121.72z"/>
				</g>
				<g>
					<path d="M127.89,159.79c0.2,0.04,0.46-0.09,0.61-0.21c0.04-0.04,0.08-0.02,0.04-0.06c-0.2-0.18-0.58,0.01-0.68,0.24
						C127.84,159.79,127.85,159.78,127.89,159.79z"/>
				</g>
				<g>
					<path d="M152.47,101.06c-0.03-0.01-0.11,0.06-0.1,0.07c0.01,0.02,0.15,0.03,0.16-0.01
						C152.54,101.09,152.49,101.07,152.47,101.06z"/>
				</g>
				<g>
					<path d="M168.48,160.41c-0.02,0-0.03-0.14-0.02-0.14c0.01-0.01,0.06,0.07,0.06,0.08C168.53,160.37,168.52,160.41,168.48,160.41
						z"/>
				</g>
				<g>
					<path d="M152.89,100.57c-0.21-0.02-0.44,0.34-0.41,0.46c0.02,0.12-0.04,0.08,0.09,0.08c0.13,0,0.41-0.31,0.38-0.5
						C152.93,100.57,152.94,100.57,152.89,100.57z"/>
				</g>
				<g>
					<path d="M128.5,159.57c-0.02,0-0.04-0.14-0.03-0.14c0.01-0.01,0.07,0.08,0.07,0.09C128.55,159.54,128.54,159.57,128.5,159.57z"
						/>
				</g>
				<g>
					<path d="M170.51,243.88c-0.61,0.45-1.88,1.24-2.56,1.6c-0.15,0.08-0.47-0.43-0.33-0.53c0.61-0.46,1.85-1.29,2.5-1.65
						C170.29,243.22,170.66,243.77,170.51,243.88z"/>
				</g>
				<g>
					<path d="M188.4,254.42c-0.02-0.02-0.12-0.07-0.14-0.08c-0.02-0.01-0.06-0.09-0.04-0.08c0.02,0.01,0.16,0.16,0.19,0.19
						C188.42,254.47,188.41,254.44,188.4,254.42z"/>
				</g>
				<g>
					<path class="st0" d="M258.04,20.89c-1.94,2.01-3.97,4.25-2.04,6.85c1.92,2.6,4.39,1.89,6.98,0.89
						c-1.03,1.85-2.57,2.65-4.89,2.16c-2.32-0.49-4.63-2.44-4.62-5.17C253.48,22.88,255.52,21.42,258.04,20.89z"/>
				</g>
				<g>
					<path class="st0" d="M261.39,23.16c0.21,0.42,0.82,1.2,0.83,1.6c0.02,0.4-0.57,0.6-0.87,0.55c-0.3-0.05-0.87-0.42-0.91-0.85
						C260.41,24.04,261.12,23.46,261.39,23.16z"/>
				</g>
			</g>
			<g>
				<path d="M307.19,32.64c-0.43-0.89-0.97-1.9-0.81-2.64c1.68-7.77-0.14-13.63-6.24-18.57c-5.12-4.15-10.63-6.99-17-8.47
					c-26.98-6.24-49.4-2.64-73.37,11.09c-7.25,4.15-12.89,9.9-18.15,16.13c-1.69,2-1.02,2.5,1.03,3.29c-0.1,0.23-0.23,0.51-0.4,0.7
					c-7.62,8.66-13.66,18.11-19.54,28.03c-0.4,0.67-0.29,1.64-0.45,2.41c-0.16,0.77-0.7,1.16-1.28,1.68
					c-5.93,5.26-11.92,10.44-17.78,15.84c-0.97,0.9-1.41,2.39-2.11,3.54c-0.2,0.32-0.54,0.61-0.87,0.83
					c-12.76,8.52-23.94,18.36-34.33,29.62c-7.5,8.14-14.26,16.65-20.09,26.02c-0.74,1.19-1.21,2.72-1.73,3.81
					c-0.52,1.09-0.79,1.94-1.38,2.77c-3.12,4.41-6.31,8.47-9.3,12.96c-1.88,2.82-3.36,5.58-5.72,8.21c-4.1,4.58-7.13,9.67-9.4,15.53
					c-1.28,3.3-1.68,6.4-0.47,9.92c0.15,0.43-0.21,1.27-0.6,1.7c-1.9,2.1-3.9,4.05-5.79,6.23c-3.66,4.22-6.56,8.54-8.27,13.94
					c-0.31,0.96-0.89,2.02-1.68,2.62c-10.31,7.83-20.76,15.27-30.92,23.29c-5.84,4.61-11.22,9.67-16.61,14.89
					c-1.63,1.58-2.82,3.58-3.67,5.86c-0.85,2.29,0.47,4.06,2.98,4.31c0.87,0.09,1.87,0.03,2.72-0.22c3.16-0.93,6.39-2.01,9.49-2.98
					c0.62-0.19,1.55-0.26,1.9-0.32c0.06-0.01,0.08-0.02,0.1-0.03c-2.68,2.51-5.47,4.84-8.1,7.46c-1.15,1.15-2.14,2.31-2.97,3.88
					c-0.82,1.56-0.17,2.99,1.71,3.36c0.93,0.18,2,0.24,2.93,0.02c2.89-0.69,5.85-1.24,8.58-2.37c11.01-4.55,21.9-9.3,32.83-14
					c3.22-1.39,6.4-2.89,9.59-4.32c-0.21,1.12-0.73,2.26-1.28,3.21c-12.44,21.75-24.99,43.32-37.22,65.17
					c-4.67,8.34-8.73,16.96-12.84,25.65c-0.94,1.99-1.36,4.23-1.44,6.56c-0.09,2.33,1.52,3.31,3.73,2.24
					c1.27-0.61,2.63-1.45,3.63-2.5c3.02-3.17,6.24-6.24,8.75-9.81c6.43-9.15,12.43-18.51,18.63-27.8c-0.18,0.94-0.42,1.89-0.56,2.85
					c-0.36,2.44-0.97,4.85-0.99,7.33c-0.01,1.1,0.37,2.6,1.52,3.1c1.15,0.5,2.45,0.22,3.69-0.5c1.24-0.71,2.56-1.99,3.49-3.28
					c5.34-7.35,10.73-14.83,15.91-22.29c3.09-4.44,5.88-8.96,8.82-13.46c0.37,0.71,0.28,2.34,1.23,2.65
					c0.95,0.3,2.36-0.45,3.17-0.83c0.81-0.38,1.25-0.95,1.81-1.5c2.97-2.97,6-5.83,8.83-8.91c13.63-14.84,26.7-30.11,39.12-45.95
					c0.5-0.64,1.09-1.44,1.8-1.63c4.12-1.09,8.11-1.92,12.23-2.86c1.03,1.74,2.35,3.87,3.44,5.44c1.09,1.57,2.54,2.01,4.01,1.5
					c1.46-0.5,1.82,0,2.76,0.69c1.78,1.29,3.46,2.44,5.28,3.47c1.81,1.03,3.5,1.77,5.35,2.69c-0.22,0.15,0.03,0.76-0.26,0.83
					c-2.06,0.52-4.23,0.69-6.37,1.11c-6.98,1.38-10.1,5.22-10.06,12.29c0,0.82-0.1,1.37-0.38,1.8c0.01,0.01,0.02,0.01,0.02,0.02
					c0,0,0,0,0,0c0.2,0.13,0.4,0.27,0.61,0.38c0.11,0.06,0.22,0.11,0.32,0.16c0.02,0.01,0.01,0.01,0.02,0.01
					c0.02,0.01,0.01,0,0.04,0.01c0.44,0.15,0.87,0.28,1.32,0.36c0.07,0.01,0.5,0.06,0.07,0.02c0.13,0.01,0.25,0.03,0.38,0.04
					c0.24,0.02,0.47,0.03,0.71,0.03c0.24,0,0.48,0,0.72-0.02c0.13-0.01,0.26-0.02,0.39-0.03c0.03,0,0.1-0.01,0.17-0.02
					c0.46-0.08,0.92-0.17,1.37-0.29c0.22-0.06,0.45-0.14,0.67-0.21c0.12-0.04,0.23-0.09,0.35-0.13c-0.38,0.13,0,0,0.06-0.03
					c0.77-0.35,1.65-0.23,2.15,0.5c6.16-2.46,12.33-4.94,18.51-7.38c0.67-0.27,1.46-0.44,2.2-0.24c2.66,0.73,4.8,1.31,6.14,3.92
					c0.15,0.28,0.44,0.58,0.71,0.76c2.75,1.87,3.11,4.82,4.74,7.51c-0.11,0.06-0.24,0.12-0.36,0.19c0,0.01,0.01,0.02,0.01,0.03
					c0.29,0.66,0.59,1.33,0.85,2.01c0.25,0.65,0.47,1.32,0.61,2.01c0.09-0.05,0.19-0.1,0.28-0.14c0.47,1.91,1.11,3.89,1.46,5.79
					c0.12,0.67,0.36,1.58-0.26,2.05c-0.62,0.47-1.59,0.63-2.46,0.37c-0.87-0.26-1.8-1.16-2.57-1.69c0.39,5.69,4.92,8.33,10.21,6.45
					c3.03-1.07,4.41-3.8,5.73-6.44c0.27-0.54,0.4-1.41,0.82-1.64c3.63-2.02,4.64-5.41,4.67-9.05c0.01-1.99,0.32-3.36,0.99-4.42
					c-0.6-1.55-1.12-3.13-1.5-4.75c-0.03,0.01-0.05,0.02-0.08,0.04c-2.65-4.15-5.27-8.3-7.93-12.45c2.51-0.96,4.59-2.1,7.3-2.77
					c1.92-0.47,3.87-0.15,5.09,1.7c0.38,0.58,0.95,1.38,1.56,1.65c3.16,1.4,3.56,3.97,4.76,6.89c-0.33,0.15-0.66,0.31-1,0.46
					c0.02,0.2,0.01,0.41-0.03,0.61c0,0.01,0,0.01,0,0.02c-0.02,0.22-0.01,0.43,0,0.65c0.04,0.06,0.1,0.11,0.14,0.17
					c0.16,0.22,0.31,0.46,0.43,0.71c0.11,0.22,0.21,0.45,0.28,0.68c0.07,0.22,0.1,0.46,0.12,0.68c0.01,0.14-0.04,0.27-0.06,0.4
					c0.44-0.24,0.89-0.46,1.33-0.71c0.15,1.54,0.52,3.3,0.53,4.78c0,0.69,0.2,1.66-0.51,1.97c-0.71,0.31-1.6,0.44-2.52-0.16
					c-0.92-0.6-2.15-2.21-2.98-3.13c0.14,0.72,0.08,1.86,0.42,2.52c2.75,5.23,8.21,6.75,12.86,3.05c2.38-1.89,3.7-4.32,6.01-6.28
					c2.31-1.97,2.59-4.86,2.87-7.73c0.08-0.86,0.3-1.43,0.73-1.89c-0.58-2.21-1.28-4.4-2.06-6.54c-1.88-3.27-3.76-6.55-5.64-9.82
					c0.22-0.1-3.58-3.11-4.85-3.94c-4.28-2.79-8.62-3.34-13.41-1.9c-1.56,0.47-2.12,0.5-3.09-0.59c0.68-2.45,1.21-5.2,2.05-7.53
					c2.58-7.15,5.19-14.04,7.91-21.11c0.24-0.62,0.85-1.09,1.33-1.61c4.15-4.47,8.28-8.87,12.45-13.4c0.82-0.89,1.73-2.13,2.51-3.11
					c-0.2,1.16-0.63,2.61-0.76,3.68c-0.02,0.2,0.37,0.41,0.51,0.28c1.31-1.2,2.87-2.39,4.1-3.83c5.47-6.39,10.5-12.61,14.39-20.24
					c9.32-18.26,12.95-35.4,9.53-55.82c-0.1-0.58-0.04-1.23,0.13-1.81c0.81-2.76,1.94-5.43,2.36-8.29
					c0.93-6.31,2.28-11.94,5.99-17.22c0.79-1.13,1.53-1.46,2.95-1.43c6.45,0.15,11.94-1.3,17.56-4.56c0.79-0.46,1.59-1.08,2.37-1.58
					c0.72,6.41-1.1,11.62-3.77,17.38c0.89-0.22,2.52-0.22,3.23-0.73c2.99-2.15,6.28-3.16,8.65-6.08
					C314.59,68.23,316.01,50.94,307.19,32.64z M83.49,167.26c3.37-5.71,6.91-11.39,10.39-17.06c2.92,1.99,5.68,2.14,8.82,0.73
					c3.14-1.41,5.79-3.26,8.66-4.9c0.6-0.34,0.79-0.55,1.31-0.91c0.4,2.54,0.8,5.1,1.19,7.63c0.04,0.24-0.21,0.63-0.15,0.75
					c-0.72,0.39-1.48,0.73-2.16,1.19c-5.81,3.93-11.45,8.03-17.39,11.8c-2.54,1.61-5.41,2.68-8.26,3.75
					c-0.75,0.28-2.04,0.08-2.58-0.55C82.77,169.07,83.09,167.93,83.49,167.26z M64.32,207.02c2.01-3.1,4.34-5.69,6.62-8.57
					c0.13-0.16,0.51-0.17,0.75-0.14c5.33,0.77,9.66-0.77,14.44-2.97c0.26-0.12,0.62-0.49,0.86-0.27c1.07,1,2.06,2.54,3.11,3.68
					c-0.94,0.54-1.84,1.12-2.8,1.6c-5.65,2.8-11.21,5.63-16.95,8.32c-1.25,0.59-2.62,0.85-4.1,0.96
					C64.78,209.74,63.39,208.45,64.32,207.02z M57.37,218.18c1.02-2.65,2.93-6.04,4.23-8.75c2.47,3.01,4.27,4.17,8.12,2.68
					c3.86-1.49,7.48-3.58,11.19-5.52c2.2-1.15,4.19-2.47,6.32-3.92c2.84-1.93,5.21-3.12,8.87-2.61c2.06,0.29,4.5-0.49,6.59-0.91
					c0.76-0.16,1.69-0.52,2.34-0.62c0.15-0.03,0.39,0.3,0.22,0.52s-0.84,0.78-1.35,1.08c-11.64,6.9-23.47,13.63-36.01,18.85
					c-2.58,1.07-5.44,1.97-8.07,2.35C57.19,221.7,56.35,220.83,57.37,218.18z M49.3,231.43c0.37-1.1,1.31-2.65,2.06-3.87
					c0.75-1.23,1.81-2.75,2.68-4c4.19,2.53,8.34,1.67,12.46-0.17c14.37-6.4,27.1-13.87,39.49-23.38c3.03,2.04,6.12,2.94,9.48,1.19
					c-16.93,16.46-38.05,23.27-59.52,31.82c-1.41,0.56-3.02,1.23-4.13,1.43c-1.11,0.2-1.97,0.51-2.55-0.26
					C48.7,233.42,48.92,232.53,49.3,231.43z M40.22,253.11c-1.41,0.42-2.92,0.69-4.37,0.68c-2.18-0.02-3.17-1.51-2.52-3.48
					s1.53-3.63,2.66-5.3c2.17-3.19,4.6-6.16,6.96-9.25c2.35,3.51,5.81,3.7,9.33,2.5c9.95-3.42,18.8-7.86,27.82-12.78
					c13.07-7.13,25.16-15.14,37.02-24.09c0.68-0.51,1.48-1.08,2.19-1.58c2.74,2.2,5.28,2.68,8.72,2.09
					c-28.67,19.6-57.66,36.61-90.14,49.11c2.47-0.59,5.11-0.81,7.48-1.75c9.37-3.69,18.8-7.03,27.93-11.29
					c18.97-8.83,36.24-19.86,53.12-32.18c0.29-0.21,0.58-0.4,0.83-0.66c1.69-1.66,3.07-2.05,5.43-1.37c1.34,0.39,3.15,0.3,4.61,0.35
					c-0.92,0.71-1.96,1.62-2.9,2.26c-16.65,11.4-33.85,21.29-51.99,30.07C68.72,243.08,54.82,248.78,40.22,253.11z M25.35,341.87
					c-3.1,4.88-6.88,9.32-10.31,13.97c-0.28-0.14-0.54-0.27-0.81-0.41c1.51-3.24,2.83-6.6,4.56-9.73
					c8.9-16.12,17.84-32.2,26.91-48.22c7.82-13.8,15.78-27.49,23.8-41.22c0.56-0.96,1.49-1.76,2.53-2.31
					c3.01-1.6,6.21-3.03,9.3-4.51c-0.37,0.73-0.84,1.74-1.23,2.41c-6.95,11.91-13.66,23.85-20.82,35.58
					C48.13,305.69,36.81,323.8,25.35,341.87z M50.42,321.15c0.89-1.9,0.82-4.14,1.62-6.07c5.82-14.09,13.01-27.33,20.55-40.53
					c5.39-9.43,10.81-18.76,16.32-28.15c0.5-0.85,1.37-1.52,2.26-2.03c2.73-1.57,5.58-2.94,8.53-4.08
					C83.28,267.25,66.85,294.2,50.42,321.15z M121.63,239.34c-5.88,5-11.69,10.01-17.65,14.93c-1.02,0.84-2.25,1.44-3.51,1.92
					c-1.27,0.47-2.01-0.11-1.89-1.5c0.06-0.72,0.21-1.57,0.59-2.22c4.05-7.03,8.18-14.04,12.29-21c0.35-0.59,1.06-1.15,1.41-1.5
					c0.35-0.35,0.28-0.16,0.57-0.39c0.1,6.55,2.45,7.67,8.59,9.07C121.91,238.86,121.81,239.18,121.63,239.34z M154.87,263.31
					c-1.02,0.43-2.14,0.82-3.18,1.24c0.1-1.1,0.21-2.2,0.32-3.3C152.96,261.94,153.92,262.62,154.87,263.31
					C154.87,263.31,154.87,263.31,154.87,263.31z M195.22,286.1c1.15-1.44,2.3-2.96,3.44-4.43c-3.2-1.17-4.2-2.07-3.81-5.53
					c0-0.01,0-0.01-0.01-0.02c1.67,1.49,3.19,0.94,5.18,0.32C200.21,280.49,198.95,284.2,195.22,286.1z M199.69,275.25
					c-0.94,1.77-3.15,1.39-4.86,0.85c-1.02-2.56-2.05-4.95-3.36-7.4c-1.32-2.47-1.79-4.95-4.18-6.81c-0.43-0.34-0.51-1.67-0.57-2.26
					c-3.13-0.2-3.36-2.66-3.85-5.35c-0.3,0.94-0.61,1.87-0.91,2.81c-2.92-0.37-4.47-1.61-5.67-4.28c-0.54,2.37-1.94,2.92-4.05,3.65
					c-2.1,0.72-3.89,1.47-6,2.23c-2.11,0.76-3.06,0.34-4.14-1.65c-0.13-0.24-0.31-0.74-0.4-0.8c-0.09-0.06-0.64,0.08-0.57,0.27
					c0.4,1.02,1.14,2.27,1.64,3.35c-2.69,1.74-3.51,1.7-5.37-0.97c-0.04,0.14-0.56,0-0.52,0.19c0.2,0.9,0.64,1.95,0.91,2.89
					c-0.99,0.44-1.9,0.9-2.91,1.33c-0.19-0.36-0.35-0.7-0.6-1.04c-1.87-2.57-1.32-3.98,0.79-6.19c0.22,0.45,0.32,1.35,0.58,1.67
					c0.09,0.11,0.37-0.11,0.53-0.38c0.16-0.27,0.42-1.47,0.59-1.9c5.71,0.26,9.63-2.48,14.32-5.35c-0.43-0.15-0.88-0.28-1.29-0.45
					c0.07-0.1,0.68-0.72,0.66-0.73c-1.46-1.06-3.1-1.94-4.62-2.94c1.62-2.4,3.26-4.81,4.88-7.21c1.84,2.07,3.51,4.14,5.37,6.23
					c0.74,0.83,1.34,1,2.55,0.69c3.36-0.85,6.72,0.04,10.12,0.64c-0.62,0.36-1.26,0.72-1.89,1.08c3-0.01,5.34,0.09,7.46,2.42
					c-0.83,0.71-1.66,1.43-2.49,2.14c-2.56-1.38-5.69-3.97-8.77-3.16c2.02,1.19,4.05,2.37,6.07,3.56c-0.1,0.39-0.11,1.01-0.27,1.49
					c1.54-1.35,3.46,1.86,4.28,3.16c-0.41,0.28-0.75,0.51-1.18,0.8c-0.44,0.28-0.84,0.62-1.08,1.12c1.07-0.32,2.14-0.64,3.21-0.96
					c0.57,0.85,1.15,1.7,1.71,2.54c-0.75,0.46-1.67,0.95-2.35,1.4c-0.1,0.07,0.01,0.36,0.12,0.33c0.77-0.18,1.73-0.52,2.56-0.75
					c1.7,1.95,1.56,2.57-0.38,4.25c0.69-0.24,1.38-0.48,2.06-0.73c1.75,2.88,1.46,3.77-1.13,5.89c1.07-0.36,2.11-0.72,3.2-1.09
					C199.8,271.65,200.64,273.47,199.69,275.25z M176.54,230.97c0.17-0.34,0.53-0.65,0.88-0.85c1.73-0.96,3.47-1.89,5.23-2.8
					c1.06-0.55,2.17-1.06,3.25-1.58c1,2.61,1.8,5.4,3,7.9c1.2,2.5,2.49,3.63,5.37,3.73c0.59,0.02,1.51,1.08,1.94,1.56
					c-1.81,1.42-3.55,2.86-5.46,4.22c-0.33,0.24-0.9,0.12-1.36,0.11c-3.19-0.11-6.45-0.22-9.65-0.37c-0.44-0.02-0.94-0.2-1.28-0.39
					c-0.35-0.2-0.52-0.5-0.73-0.77C174.7,237.9,174.38,235.35,176.54,230.97z M195.35,250.27c1.43,1.33,2.86,2.65,4.28,3.98
					c-0.92,0.71-1.85,1.43-2.77,2.14c-1.41-1.29-2.82-2.58-4.23-3.87C193.53,251.77,194.44,251.02,195.35,250.27z M204.66,274.87
					c-0.11-0.16-0.58,0.12-0.63-0.1c-0.29-1.35-0.33-2.42-0.72-3.94c-0.4-1.51,0.46-2.36,2.11-2.56
					C205.17,270.45,204.93,272.65,204.66,274.87z M202.76,268.16c-0.59-1.4-1.18-2.79-1.76-4.19c0.99-0.34,1.98-0.69,2.96-1.03
					C205.04,265.6,205.74,267.05,202.76,268.16z M200.43,255.35c0.86,1.81,2.23,3.8,2.74,5.67c0.51,1.87-1.16,1.55-2.26,2.24
					c-1.31-2.03-2.59-4.04-3.88-6.06C198.17,256.58,199.28,255.96,200.43,255.35z M223.85,269.42c0.61-0.93,1.22-1.86,1.83-2.79
					c-2.77-0.91-2.31-2.42-2.01-4.89c1.39,0.14,2.78,0.29,4.17,0.43C228.02,265.38,226.87,268.05,223.85,269.42z M232.33,259.63
					c-0.04,0.19-0.49,0.12-0.53-0.05c-0.35-1.61-0.6-3.57-0.92-5.28c0.86-0.3,1.72-0.59,2.58-0.87
					C233.07,255.44,232.75,257.72,232.33,259.63z M230.55,253.55c-0.39-1.06-0.79-2.12-1.18-3.19c0.83-0.38,1.65-0.77,2.48-1.15
					C233.02,251.76,233.28,252.49,230.55,253.55z M228.73,242.34c1.02,1.88,2.04,3.77,3.06,5.65c-0.86,0.6-1.72,1.2-2.57,1.8
					c-1.16-1.98-2.32-3.96-3.48-5.94C226.74,243.35,227.74,242.85,228.73,242.34z M225.15,238.49c0.92,0.99,1.84,1.98,2.76,2.97
					c-0.98,0.58-1.96,1.16-2.94,1.75c-0.83-1.02-1.66-2.05-2.49-3.07C223.37,239.59,224.26,239.04,225.15,238.49z M211.71,234.39
					c2.63-0.96,5.41-0.8,8.08,0.38c-0.29,0.49-0.62,1-0.93,1.5c2.33-1.41,3.27,0.01,5.1,1.45c-1.56,1.83-2.12,2.12-4.24,0.85
					c-1.1-0.66-2.31-1.38-3.54-1.91c-1.23-0.53-2.12-0.16-2.88,0.91c2.57,0.35,5.54,0.97,5.14,4.15c2.09-0.39,2.61,0.48,3.86,2.1
					c-0.41,0.5-0.81,0.99-1.22,1.5c2.17-0.61,2.9,0.39,3.88,2.15c0.98,1.76,1.41,2.84-0.39,4.16c0.6-0.14,1.2-0.26,1.79-0.4
					c1.7,3.23,0.67,3.88-2.24,5.79c0.6-0.17,1.1-0.29,1.72-0.5c0.62-0.21,1.38-0.56,2.02-0.78c0.21,0.94,0.33,2.56,0.36,3.37
					c0.03,0.8-0.62,1.84-0.97,1.95c-1.01,0.31-2.96,0.19-3.39-0.5c-1.68-2.7-2.52-5.39-3.67-8.25c-0.3-0.75-0.03-1.66-0.05-2.45
					c-3.49-1.41-6.26-3.18-6.68-7.16c-1.3,0.35-2.83,1.13-4.15,1.03c-3.39-0.26-3.75-1.31-2.52-4.29c-0.12,0.06-0.35-0.37-0.45-0.23
					c-0.64,0.92-1.19,1.9-1.51,3.04c-0.33,1.14-0.37,1.56-1.77,2.07c-1.4,0.51-2.97,1.2-4.75,1.85c-1.77,0.66-2.72,0.03-2.36-2.18
					c-0.31,0.24-1.06,1.03-1.24,1.13c-0.18,0.1-0.43-0.12-0.35-0.22c0.47-0.67,1.25-1.49,1.81-2.21c0.36,0.87,0.71,1.76,1.07,2.64
					c0.37-1.5,0.73-3,1.1-4.5c0.45,0.89,0.91,1.77,1.36,2.66c0.22-2.65,1.97-3.69,3.95-5.18c-0.82-0.13-1.65-0.26-2.47-0.4
					c1.28-0.83,2.71-1.67,3.93-2.49c0.1-0.07-0.03-0.32-0.13-0.3c-1.39,0.18-3.21,0.69-4.54,0.82c-0.22,0.02-0.41-0.55-0.25-0.68
					c0.85-0.66,2.33-1.36,3.26-2.02c0.08-0.06-0.01-0.33-0.12-0.31c-1.11,0.19-2.46,0.57-3.57,0.77c-0.09,0.02-0.19-0.21-0.11-0.26
					c1.14-0.67,2.25-1.43,3.55-2.01c0.34-0.15,0.85,0,1.3,0.28c0.45,0.28,0.92,0.79,1.4,1.25
					C207.74,234.7,209.07,235.36,211.71,234.39z M253.69,69.07c-0.04,4.33,1.77,7.32,4.46,10.59c-4.85-0.82-8.72-2.91-12.79-5.59
					c1.57,3.81,3.98,6.27,7.23,8.73c-2.4,0.32-4.79,0.64-7.19,0.96c2.26,3.64,5.58,4.16,9.44,5.29c-2.13,0.94-4.54,1.85-6.54,2.81
					c-0.21,0.1-0.21,0.6,0,0.66c2.07,0.62,4.55,1.1,6.75,1.67c-2.17,3.02-5.13,3.36-8.47,4.49c2.03,4.28,6.69,2.37,10.21,1.06
					c-0.6,5.63-0.66,11.38-1.4,17c-1.97,14.8-5.04,28.89-11.78,42.33c-8.83,17.61-21.07,31.38-36.17,43.85
					c-6.89,5.69-14.5,10.06-21.77,15.26c-0.81,0.58-2.11,1.16-3.01,1.69c2.33-8.33,3.79-16.28,3.04-24.95
					c-0.22-0.05-0.45-0.1-0.67-0.15c-0.69,2.63-1.38,5.26-2.07,7.88c-0.46-1.45-0.83-3.05-1.33-4.44c-0.07-0.19-0.45,0.12-0.57,0
					c-0.6,5.05-1.18,10.07-1.78,15.11c-0.22-0.02-0.45-0.02-0.67-0.04c-0.37-2.51-0.68-5.24-1.09-7.65
					c-0.03-0.19-0.53-0.22-0.57-0.04c-0.39,2.04-0.67,4.3-1,6.48c-1.27,8.38-2.84,16.57-6.08,24.45c-0.88,2.13-2.17,4.2-3.69,5.89
					c-2.1,2.34-4.27,2.63-6.85,0.56c-2.58-2.07-4.21-4.67-5.02-8.16c-0.81-3.49-1.2-7.75-1.74-11.46c-0.13-0.91-0.18-1.99-0.49-2.88
					c-1.97,4.54-2.58,9.07-2.74,13.99c-2.58-5.72-1.98-11.41-2.21-17.53c-2.48,3.48-2.79,7.2-3.32,11.33
					c-4.74-0.28-8.71,1.69-13.09,3.09c-2.48,0.79-4.87,1.46-7.4,1.82c-1.11,0.16-2.68-0.27-3.28-1.16c-0.6-0.89,0.23-2.29,0.9-3.06
					c3.47-3.95,6.91-7.95,10.95-11.51c2.36-2.08,5.62-2.86,8.38-4.46c16.63-9.62,32.46-19.71,45.99-33.57
					c12.77-13.08,22.09-27.67,27.63-45.13c2.91-9.16,4.31-18.6,1.84-28.02c-3.49-13.36-12.38-21.11-26.59-21.19
					c-13.89-0.07-24.98,6.37-35.49,14.93c0.47-0.14,1.02-0.17,1.42-0.41c8.42-5.09,16.93-8.9,26.72-10.13
					c4.61-0.58,9.37-0.61,13.64,0.94c9.48,3.45,14.38,10.73,15.58,20.26s-0.86,17.85-4.01,26.45
					c-6.12,16.74-16.13,29.69-28.65,42.04c-7.94,7.83-16.98,13.75-26.18,19.87c13.77-14.32,25.57-28.04,32.33-46.98
					c-0.94,1.35-1.81,2.62-2.76,4c-0.95,1.37-1.88,2.81-2.85,4.23c-9.08,13.28-19.17,24.78-31.87,34.74
					c-3.1,2.43-6.85,3.84-10.3,5.78c-0.35,0.19-1,0.12-1.39-0.05c0.83-0.8,1.68-1.56,2.53-2.35c12.21-11.36,22.33-23.51,30.64-38.01
					c-0.04,0.04,0,0.02-0.05,0.07c-0.53,0.52-1.31,0.83-1.81,1.4c-8.13,9.45-16.24,18.63-25.88,26.6c-3.32,2.75-7.05,4.9-10.69,7.28
					c-1.03,0.67-2.42,0.88-3.66,0.99c0.33-0.38,0.67-0.77,1.03-1.13c10.4-10.29,19.94-20.95,28.15-33.08
					c0.04-0.06,0.06-0.13,0.1-0.19c-1.25,1.23-2.99,2.51-4.05,3.57c-9.59,9.47-19.31,19.39-30.98,26.82
					c-2.81,1.79-6.09,2.97-9.23,4.11c11.8-11.01,22.88-22.31,32.5-35.31c-0.97,0.89-1.93,1.78-2.89,2.67
					c-9.1,8.4-18.15,16.58-28.48,23.5c-3.64,2.44-7.58,4.28-11.66,6.04c-1.96,0.85-4.17,0.94-6.43,0.91
					c-1.42-0.02-3.18-1.01-4.55-1.51c0.66-0.5,1.75-1.26,2.37-1.69c11.92-8.52,22.88-17.5,32.91-28.12
					c0.27-0.29,0.48-0.65,0.66-1.02c-1.14,0.71-2.51,1.19-3.56,1.98c-8,6.01-15.89,12.18-23.84,18.22
					c-0.21,0.16-0.41,0.49-0.53,0.58c0,0,0,0-0.01,0c0.53-0.74,0.95-1.71,1.62-2.38c5.83-5.8,11.69-11.49,17.55-17.29
					c0.7-0.69,1.25-1.6,1.6-2.54c-2.65,2.33-5.25,4.68-7.91,7.01c-8.74,7.63-17.56,14.87-27.47,20.99
					c-2.22,1.37-4.62,2.34-7.16,3.15c-2.55,0.81-3.84-0.71-3.23-3.14s1.4-4.44,2.46-6.56c1.94-3.87,4.1-7.47,6.21-11.25
					c2.83,2.15,5.98,2.09,8.85,0.42c5.17-3.01,9.63-6.12,14.37-9.5c2.86-2.05,5.26-4.46,7.88-6.8c0.46-0.41,0.68-1.09,1-1.62
					c0.06,0.11,0.43-0.06,0.58,0.01c5.28,2.63,9.41,1.38,14.29-1.36c0.51-0.29,1.13-0.66,1.43-0.76c0.29-0.1,0.32,0.21,0.34,0.3
					c1.09,5.43,3.88,7.86,9.53,6.78c4.51-0.86,8.03-3.54,11.62-6.29c0.55-0.42,1.15-0.99,1.71-1.4c0.09,0.24,0.25,0.67,0.3,0.91
					c1.31,5.71,5.44,7.32,10.76,6.06c5.32-1.26,8.55-4.44,12.12-8.2c1.14-1.21,1.95-2.62,3.04-3.84c3.1,4.85,7.4,6.26,12.25,2.61
					c6.03-4.54,8.26-10.82,10.15-17.9c-0.15,0.02-0.38-0.4-0.49-0.27c-0.39,0.49-0.67,1.21-1.09,1.76
					c-2.69,3.53-5.2,7.17-8.08,10.58c-0.92,1.09-2.32,1.9-3.67,2.41c-2.95,1.11-4.92-0.05-5.22-3.22c-0.15-1.53,0.3-3.08,0.44-4.63
					c0.06-0.66,0.2-1.39,0.01-2.07c-1.9,2.54-3.65,5.14-5.64,7.63c-2.83,3.54-5.87,6.65-9.88,8.84c-1.65,0.9-3.54,1.59-5.35,1.81
					c-3.42,0.43-5.04-1.52-4.36-4.67c0.68-3.15,2.09-5.64,3.17-8.57c0.34-0.93,0.83-1.79,1.05-2.78c-0.89,0.83-1.77,1.64-2.64,2.51
					c-4.64,4.62-9.2,8.89-15.04,12.01c-1.99,1.07-4.03,1.8-6.39,2.19c-2.36,0.39-4.04-1.02-3.01-3.55
					c1.45-3.58,3.42-6.93,5.32-10.33c0.95-1.7,2.22-3.31,3.03-5.11c-0.71,0.62-1.38,1.3-2.13,1.86c-4.87,3.65-9.63,7.42-14.66,10.86
					c-1.7,1.16-3.84,1.92-5.83,2.28c-2.73,0.5-4.06-0.84-3.38-3.57c0.68-2.73,1.77-5.52,3.19-8.01c2.79-4.93,6.04-9.58,9.01-14.4
					c0.41-0.67,0.48-1.54,0.96-2.18c-6.91,5.92-13.67,11.95-20.73,17.71c-2.86,2.34-6.18,4.07-9.3,6.08
					c0.01-0.23-0.63-0.39-0.51-0.62c0.63-1.21,1.25-2.55,2.1-3.71c13.77-18.71,28.5-35.1,47.5-48.75
					c10.66-7.66,22.18-11.37,35.25-12.45c2.15-0.18,4.37,0.03,6.51-0.32c-9.03-4.61-17.25-3.55-26.93-1.76
					c7.05-6.61,14.09-13.18,21.15-19.81c-0.22-0.04-0.18-0.66-0.45-0.6c-1.88,0.44-3.88,1.14-5.79,1.66
					c7.91-13.73,17.08-25.15,29.49-35.07c-0.13-0.16-0.25-0.31-0.38-0.47c-3.06,1.24-6.16,2.47-9.19,3.71
					c1.74-1.62,3.15-3.63,5.14-5.01c20.69-14.3,40.86-20.09,65.99-18.16c8.17,0.63,15.28,3.42,22.59,7.06
					c3.58,1.78,6.21,4.5,7.59,8.31c-1.1-1.19-2.21-2.47-3.3-3.68c0.04,0.64,0.28,1.55,0.22,2.14c-0.06,0.59,0.32,1.57-0.29,1.9
					c-0.61,0.33-1.58,0.22-2.33-0.03c-0.75-0.25-1.36-1.02-2.05-1.47c-3.13-2.05-6.19-2.27-8.81,0.72
					c-2.62,2.98-3.49,6.48-3.31,10.4c0.06,1.44,1.06,2.92,1.62,4.09c0.09,0.2,0.57,0.14,0.71-0.05c0.48-0.68,0.61-1.41,1.12-2.34
					c2.31-4.29,5.47-6.25,10.54-4.62c2.13,0.69,4.58,1.3,6.81,0c0.54,0.75,1.02,1.45,1.55,2.18c-2.98,0.28-4.52,1.79-6.54,3.87
					s-4.05,3.36-7.03,3.2c-5.3-0.29-8.71,1.72-11.84,5.89c-1.45,1.94-2.17,4.17-3.32,6.27c-14.89,3.79-17.01,17.22-10.94,29.85
					C259.05,76.4,256.61,73.11,253.69,69.07z M287.72,73.35c-5.34,2.11-10.32,2.99-15.96,2.21c-1.47-0.2-2.97-0.68-4.2-1.37
					c-4.76-2.7-6.03-5.73-4.02-10.91c1.55-4.01,4.14-7.61,7.43-10.34c2.15-1.79,3.52-1.46,4.92,0.9c0.88,1.48,1.36,3.39,1.9,5.12
					c2.21,7.09,5.83,10.39,13.24,11.65c0.26,0.04,1.03,0.22,1.34,0.32C290.9,71.67,289.23,72.75,287.72,73.35z M296.59,83.9
					c0.23-2.2,0.69-3.89,0.68-6.23c-0.01-2.33-0.25-5.07-0.61-7.54c-0.25-1.72-1.49-2.68-3.16-2.76c-1.67-0.07-2.02-0.79-2.47-2.22
					c-1.51-4.79-4.17-8.48-7.72-11.95c-1.23-1.2-2.61-2.33-3.78-3.39c-1.17-1.06-1.31-2-0.75-3.38c1.44-3.51,3.59-6.09,6.76-8.19
					c1.2-0.79,2.76-1.14,4.15-1.09c3.48,0.12,5.91-0.74,8.43-3.12c1.17-1.1,2.31-2.22,3.51-3.29
					C313.61,48.87,311.56,68.31,296.59,83.9z"/>
			</g>
		</g>
	</g>
	<g>
		<path class="st0" d="M115.56,201.11c-19.27,11.9-38.91,22.83-59.62,31.89c-1.36,0.59-3.03,1.22-4.12,1.43
			c-1.09,0.21-1.97,0.51-2.55-0.26c-0.57-0.76-0.36-1.65,0.02-2.75c0.37-1.1,1.31-2.65,2.06-3.87s1.8-2.75,2.68-4
			c4.19,2.53,8.34,1.66,12.46-0.17c14.37-6.4,27.1-13.87,39.49-23.38c3.04,2.05,6.17,2.94,9.54,1.16
			C115.59,201.14,115.53,201.14,115.56,201.11z"/>
	</g>
</g>
</svg>
