<?xml version="1.0" encoding="UTF-8" ?>
<svg version="1.1" width="24" height="24" xmlns="http://www.w3.org/2000/svg" shape-rendering="crispEdges">
<rect x="5" y="3" width="2" height="18" fill="#FFFFFF" />
<rect x="7" y="4" width="2" height="2" fill="#FFFFFF" />
<rect x="9" y="5" width="2" height="2" fill="#FFFFFF" />
<rect x="8" y="6" width="1" height="1" fill="#FFFFFF" />
<rect x="11" y="6" width="2" height="2" fill="#FFFFFF" />
<rect x="10" y="7" width="1" height="1" fill="#FFFFFF" />
<rect x="13" y="7" width="1" height="3" fill="#FFFFFF" />
<rect x="12" y="8" width="1" height="1" fill="#FFFFFF" />
<rect x="14" y="8" width="2" height="2" fill="#FFFFFF" />
<rect x="16" y="9" width="2" height="2" fill="#FFFFFF" />
<rect x="15" y="10" width="1" height="1" fill="#FFFFFF" />
<rect x="18" y="10" width="2" height="3" fill="#FFFFFF" />
<rect x="16" y="12" width="2" height="2" fill="#FFFFFF" />
<rect x="14" y="13" width="2" height="2" fill="#FFFFFF" />
<rect x="12" y="14" width="2" height="2" fill="#FFFFFF" />
<rect x="16" y="14" width="1" height="1" fill="#FFFFFF" />
<rect x="11" y="15" width="1" height="3" fill="#FFFFFF" />
<rect x="14" y="15" width="1" height="1" fill="#FFFFFF" />
<rect x="9" y="16" width="2" height="2" fill="#FFFFFF" />
<rect x="12" y="16" width="1" height="1" fill="#FFFFFF" />
<rect x="8" y="17" width="1" height="3" fill="#FFFFFF" />
<rect x="7" y="18" width="1" height="2" fill="#FFFFFF" />
<rect x="9" y="18" width="1" height="1" fill="#FFFFFF" />
</svg>