<?xml version="1.0" encoding="UTF-8" ?>
<svg version="1.1" width="24" height="24" xmlns="http://www.w3.org/2000/svg" shape-rendering="crispEdges">
<rect x="2" y="2" width="14" height="2" fill="#FFFFFF" />
<rect x="16" y="3" width="1" height="3" fill="#FFFFFF" />
<rect x="2" y="4" width="2" height="18" fill="#FFFFFF" />
<rect x="6" y="4" width="2" height="6" fill="#FFFFFF" />
<rect x="14" y="4" width="2" height="6" fill="#FFFFFF" />
<rect x="17" y="4" width="2" height="2" fill="#FFFFFF" />
<rect x="11" y="5" width="2" height="2" fill="#FFFFFF" />
<rect x="19" y="5" width="1" height="3" fill="#FFFFFF" />
<rect x="18" y="6" width="1" height="1" fill="#FFFFFF" />
<rect x="20" y="6" width="1" height="16" fill="#FFFFFF" />
<rect x="21" y="7" width="1" height="15" fill="#FFFFFF" />
<rect x="8" y="8" width="6" height="2" fill="#FFFFFF" />
<rect x="7" y="14" width="7" height="2" fill="#FFFFFF" />
<rect x="6" y="15" width="1" height="7" fill="#FFFFFF" />
<rect x="14" y="15" width="2" height="7" fill="#FFFFFF" />
<rect x="7" y="16" width="1" height="6" fill="#FFFFFF" />
<rect x="4" y="20" width="2" height="2" fill="#FFFFFF" />
<rect x="8" y="20" width="6" height="2" fill="#FFFFFF" />
<rect x="16" y="20" width="4" height="2" fill="#FFFFFF" />
</svg>