<svg width="100%" height="100%" viewBox="0 0 7030 2746" version="1.1" xmlns="http://www.w3.org/2000/svg" xmlns:xlink="http://www.w3.org/1999/xlink" xml:space="preserve" xmlns:serif="http://www.serif.com/" style="fill-rule:evenodd;clip-rule:evenodd;stroke-linejoin:round;stroke-miterlimit:2;"><g><path d="M481.392,839.162l-52.45,53.888l-53.496,33.333l-64.362,31.163c0,0 -50.296,14.013 -50.475,16.754c-0.179,2.746 -34.583,4.492 -34.583,4.492c0,0 18.333,-33.254 20,-32.829c1.667,0.421 235.367,-106.8 235.367,-106.8Z" style="fill:#fff;fill-rule:nonzero;"/><path d="M896.35,1948.587c-268.3,0 -426.412,-168.867 -426.412,-455.125c0,-286.283 158.112,-455.154 426.412,-455.154c223.971,0 371.3,134.146 396.454,359.325l-197.638,0c-19.154,-122.175 -93.421,-196.438 -198.817,-196.438c-132.958,0 -212.008,108.988 -212.008,292.267c0,183.25 79.05,292.242 212.008,292.242c107.792,0 179.663,-74.267 198.817,-198.833l197.638,0c-25.154,226.379 -172.483,361.717 -396.454,361.717Z" style="fill:#030404;fill-rule:nonzero;"/><rect x="1394.575" y="1014.354" width="198.833" height="922.267" style="fill:#030404;fill-rule:nonzero;"/><path d="M2153.946,1632.392c0,-99.417 -46.717,-159.296 -125.767,-159.296c-79.063,0 -125.767,59.879 -125.767,159.296c0,100.613 46.704,159.292 125.767,159.292c79.05,0 125.767,-58.679 125.767,-159.292Zm-453.958,0c0,-197.637 122.179,-315.004 328.192,-315.004c206.012,0 326.979,117.367 326.979,315.004c0,198.829 -120.967,316.196 -326.979,316.196c-206.012,0 -328.192,-117.367 -328.192,-316.196Z" style="fill:#030404;fill-rule:nonzero;"/><path d="M2685.712,1463.496l0,251.533c0,47.913 32.333,76.654 87.425,76.654c28.758,0 56.304,-7.179 77.867,-19.142l0,146.104c-40.733,19.171 -92.238,29.942 -141.334,29.942c-138.942,0 -222.792,-75.433 -222.792,-204.817l0,-280.275l-79.05,0l0,-134.142l89.833,0l0,-196.413l198.821,0l0,50.304c0,81.446 -70.662,134.142 -192.838,143.717l0,2.392l358.125,0l0,134.142l-176.058,0Z" style="fill:#030404;fill-rule:nonzero;"/><path d="M3552.85,1571.317l0,365.304l-198.821,0l0,-355.733c0,-68.283 -35.933,-107.792 -95.825,-107.792c-67.075,0 -106.596,51.5 -106.596,137.729l0,325.796l-198.833,0l0,-922.267l198.833,0l0,531.808l2.392,0c0,-143.742 70.675,-228.775 189.246,-228.775c131.75,0 209.604,94.604 209.604,253.929Z" style="fill:#030404;fill-rule:nonzero;"/><path d="M3847.471,1596.467l231.163,0c-9.571,-83.863 -49.108,-131.746 -113.788,-131.746c-65.875,0 -108.987,47.883 -117.375,131.746Zm423.988,57.487l-425.188,0c4.788,92.237 47.917,146.133 118.575,146.133c58.696,0 101.808,-31.162 114.983,-82.667l191.629,0c-22.75,144.938 -137.717,231.167 -306.613,231.167c-196.425,0 -311.413,-117.367 -311.413,-316.196c0,-198.833 114.988,-315.004 311.413,-315.004c192.838,0 306.613,116.171 306.613,315.004l0,21.563Z" style="fill:#030404;fill-rule:nonzero;"/><path d="M4339.708,1740.183l184.458,0c0,55.092 38.333,87.45 104.208,87.45c62.291,0 98.208,-23.958 98.208,-64.692c0,-51.504 -62.291,-61.075 -135.333,-71.871c-105.417,-15.554 -235.958,-35.921 -235.958,-182.054c0,-119.758 101.791,-191.629 273.083,-191.629c171.292,0 273.083,73.067 273.083,200.033l-184.458,0c0,-51.504 -32.333,-81.471 -88.625,-81.471c-52.708,0 -82.625,21.563 -82.625,55.121c0,43.1 59.875,53.896 130.542,64.663c105.416,16.779 240.75,38.342 240.75,182.054c0,132.946 -107.792,210.8 -288.666,210.8c-180.875,0 -288.667,-76.658 -288.667,-208.404Z" style="fill:#030404;fill-rule:nonzero;"/><rect x="5020.042" y="1014.354" width="198.792" height="922.267" style="fill:#030404;fill-rule:nonzero;"/><path d="M5355.417,1329.354l198.792,0l0,607.267l-198.792,0l0,-607.267Zm0,-268.283l198.792,0l0,165.279l-198.792,0l0,-165.279Z" style="fill:#030404;fill-rule:nonzero;"/><path d="M6290.792,1571.317l0,365.304l-198.834,0l0,-355.733c0,-68.283 -35.917,-107.792 -95.792,-107.792c-67.083,0 -106.625,51.5 -106.625,137.729l0,325.796l-198.792,0l0,-607.267l198.792,0l0,216.808l2.416,0c0,-143.742 70.667,-228.775 189.25,-228.775c131.75,0 209.584,94.604 209.584,253.929Z" style="fill:#030404;fill-rule:nonzero;"/><path d="M6585.458,1596.467l231.125,0c-9.542,-83.863 -49.083,-131.746 -113.75,-131.746c-65.875,0 -109,47.883 -117.375,131.746Zm424,57.487l-425.209,0c4.792,92.237 47.917,146.133 118.584,146.133c58.666,0 101.791,-31.162 114.958,-82.667l191.667,0c-22.75,144.938 -137.75,231.167 -306.625,231.167c-196.458,0 -311.417,-117.367 -311.417,-316.196c0,-198.833 114.959,-315.004 311.417,-315.004c192.833,0 306.625,116.171 306.625,315.004l0,21.563Z" style="fill:#030404;fill-rule:nonzero;"/><path d="M2360.829,2531.392l37.262,0c5.796,112.604 74.517,178.837 186.296,178.837c118.404,0 187.958,-50.492 187.958,-137.437c0,-106.808 -95.217,-122.55 -192.092,-139.113c-100.187,-16.538 -202.863,-33.929 -202.863,-153.179c0,-103.483 77.004,-163.925 206.996,-163.925c126.7,0 204.525,76.154 209.496,205.321l-37.279,0c-4.946,-106.808 -69.529,-169.717 -172.217,-169.717c-105.983,0 -168.904,47.196 -168.904,128.321c0,91.917 86.108,105.983 178.013,120.9c105.171,17.388 216.954,35.6 216.954,171.392c0,109.308 -84.475,173.042 -226.063,173.042c-134.967,0 -217.763,-79.475 -223.558,-214.442Z" style="fill:#030404;fill-rule:nonzero;"/><path d="M3063.125,2363.296l0,269.108c0,52.167 30.629,81.975 81.946,81.975c20.713,0 43.9,-4.971 61.287,-13.242l0,29.808c-19.038,9.092 -45.546,14.887 -72.029,14.887c-67.083,0 -106.833,-43.046 -106.833,-115.9l0,-266.637l-71.204,0l0,-31.454l75.35,0l0,-144.908l35.604,0l0,34.775c0,40.575 -13.242,80.329 -32.279,108.483l0,1.65l177.192,0l0,31.454l-149.033,0Z" style="fill:#030404;fill-rule:nonzero;"/><path d="M3704.054,2331.842l0,405.721l-35.604,0l0,-136.612l-1.646,0c0,91.067 -52.171,144.883 -139.938,144.883c-91.896,0 -145.708,-58.788 -145.708,-157.3l0,-256.692l35.6,0l0,256.692c0,79.475 43.875,125.846 118.404,125.846c83.621,0 133.287,-58.788 133.287,-158.975l0,-223.563l35.604,0Z" style="fill:#030404;fill-rule:nonzero;"/><path d="M4246.542,2534.717c0,-112.633 -56.333,-179.688 -152.371,-179.688c-96.042,0 -152.359,67.054 -152.359,179.688c0,112.604 56.317,179.662 152.359,179.662c96.038,0 152.371,-67.058 152.371,-179.662Zm30.625,-434.704l0,637.55l-35.625,0l0,-128.342l-1.625,0c0,85.296 -57.958,136.612 -154.017,136.612c-113.454,0 -180.512,-78.65 -180.512,-211.117c0,-132.492 67.058,-211.146 180.512,-211.146c96.058,0 154.017,51.321 154.017,136.617l1.625,0l0,-360.175l35.625,0Z" style="fill:#030404;fill-rule:nonzero;"/><path d="M4504.125,2331.842l35.625,0l0,405.721l-35.625,0l0,-405.721Zm0,-173.867l35.625,0l0,74.504l-35.625,0l0,-74.504Z" style="fill:#030404;fill-rule:nonzero;"/><path d="M5082.125,2534.717c0,-112.633 -56.292,-179.688 -152.333,-179.688c-96.042,0 -152.375,67.054 -152.375,179.688c0,112.604 56.333,179.662 152.375,179.662c96.041,0 152.333,-67.058 152.333,-179.662Zm-341.125,0c0,-132.492 70.375,-211.146 188.792,-211.146c118.375,0 188.791,78.654 188.791,211.146c0,132.467 -70.416,211.117 -188.791,211.117c-118.417,0 -188.792,-78.65 -188.792,-211.117Z" style="fill:#030404;fill-rule:nonzero;"/><path d="M2153.533,2519.692c-556.592,-16.138 -1129.25,-40.521 -1702.1,-72.508l1.596,-28.821c572.596,31.988 1145.004,56.371 1701.329,72.508l-0.825,28.821Z" style="fill:#030404;fill-rule:nonzero;"/><path d="M5299.709,2524.692l-0.792,-28.821c582.125,-15.979 1163.292,-42.067 1727.334,-77.483l1.833,28.771c-564.417,35.471 -1145.917,61.554 -1728.375,77.533Z" style="fill:#030404;fill-rule:nonzero;"/><path d="M72.638,1103.163c0.208,-0.033 0.246,0.071 0.237,0.183c-0.146,-0.096 -0.396,-0.163 -0.237,-0.183Z" style="fill:#231f20;fill-rule:nonzero;"/><path d="M183.383,1339.967c0.062,-0.092 0.125,-0.188 0.187,-0.279c-0.012,0.1 0.146,0.25 0.125,0.342c-0.021,0.079 -0.233,-0.087 -0.313,-0.062Z" style="fill:#231f20;fill-rule:nonzero;"/><path d="M206.763,1344.071c0.071,-0.025 0.321,-0.104 0.437,-0.204c-0.046,0.079 -0.096,0.158 -0.142,0.233c-0.012,-0.013 -0.35,-0.013 -0.296,-0.029Z" style="fill:#231f20;fill-rule:nonzero;"/><path d="M811.883,1193.187c0.096,-0.125 0.621,0.221 0.987,0.204c-0.412,0.271 -0.7,0.65 -0.887,0.667c-0.217,0.017 -0.217,-0.712 -0.1,-0.871Z" style="fill:#231f20;fill-rule:nonzero;"/><path d="M406.908,763.271c-0.033,-0.008 0.283,0.171 0.621,0.292c-0.317,-0.108 -0.587,-0.288 -0.621,-0.292Z" style="fill:#231f20;fill-rule:nonzero;"/><path d="M1131.258,117.383c-0.321,-0.388 -3.071,1.017 -2.908,1.483c0.35,1 3.175,5.475 3.808,5.971c0.629,0.492 2.196,-0.421 2.113,-1.2c-0.079,-0.783 -2.35,-5.437 -3.012,-6.254Zm-13.871,40.625c-0.525,0.538 1.158,3.325 1.792,2.95c1.725,-1.025 6.025,-4.663 7.508,-6.187c0.458,-0.475 -1.242,-2.658 -1.804,-2.333c-1.742,1.004 -6.125,4.167 -7.496,5.571Zm33.946,-4.008c0.346,-0.688 -2.104,-2.184 -2.558,-1.562c-1.9,2.6 -5.458,8.25 -6.896,11.075c-0.371,0.738 2.296,2.371 2.775,1.7c1.854,-2.571 5.242,-8.329 6.679,-11.212Zm-28.017,23.729c-0.442,0.629 1.754,2.654 2.296,2.117c1.975,-1.958 5.946,-6.75 7.554,-9.058c0.425,-0.608 -1.75,-2.475 -2.279,-1.954c-1.979,1.95 -5.987,6.625 -7.571,8.896Zm-40.496,-1.333c0.725,-0.279 -0.15,-3.058 -0.908,-2.896c-3.062,0.662 -9.296,2.546 -12.204,3.683c-0.717,0.279 0.179,3.05 0.942,2.883c3.054,-0.658 9.275,-2.533 12.171,-3.671Zm24.321,-12.433c0.6,-0.508 -1.196,-3.058 -1.888,-2.675c-2.433,1.346 -7.729,4.988 -9.842,6.779c-0.604,0.517 1.217,3.088 1.917,2.7c2.425,-1.342 7.7,-5.008 9.812,-6.804Zm-4.742,25.246c-0.542,0.567 1.538,2.996 2.183,2.554c2.071,-1.404 6.675,-5.425 8.417,-7.267c0.508,-0.542 -1.429,-2.804 -2.046,-2.392c-2.104,1.417 -6.829,5.296 -8.554,7.104Zm40.325,-50.846c0.179,-0.742 -3.038,-1.983 -3.438,-1.333c-1.029,1.658 -3.225,7.05 -3.683,8.963c-0.175,0.721 2.887,2.025 3.279,1.392c1.05,-1.696 3.375,-7.108 3.842,-9.021Zm-98.825,8.038c0.75,0.225 2.021,-2.6 1.329,-2.962c-2.412,-1.267 -8.283,-3.617 -10.917,-4.396c-0.738,-0.221 -1.871,2.588 -1.196,2.946c2.4,1.266 8.183,3.646 10.783,4.412Zm12.942,30.246c0.933,-0.192 0.558,-3.596 -0.388,-3.521c-4.229,0.333 -12.217,1.562 -16.429,2.45c-0.867,0.183 -0.396,3.3 0.488,3.233c4.258,-0.304 12.196,-1.317 16.329,-2.162Zm18.029,20.979c-0.929,0.679 2.038,2.892 1.808,3.767c4,-2.408 9.712,-5.338 12.912,-7.708c0.808,-0.6 -0.904,-3.492 -1.746,-3.1c-3.342,1.558 -9.779,4.692 -12.975,7.042Zm84.342,-106.808c-4.954,6.837 -6.367,11.425 1.454,16.179c-0.483,-5.392 -0.971,-10.783 -1.454,-16.179Zm-2.346,30.342c-4.475,4.488 -6.046,10.208 -2.433,15.087c0.696,0.942 3.304,0.771 3.375,-0.158c0.308,-3.975 -0.863,-10.413 -0.942,-14.929Zm-33.254,-36.408c-3.954,9.117 -2.717,14.504 5.004,20.792c-1.667,-6.929 -3.338,-13.863 -5.004,-20.792Zm-60.821,114.821c-0.408,-1.392 -0.817,-2.787 -1.225,-4.183c-5.858,1.554 -11.721,3.108 -17.583,4.667c0.404,1.433 0.804,2.871 1.204,4.308c5.867,-1.596 11.738,-3.196 17.604,-4.792Zm-45.075,-3.237c0.45,1.796 0.9,3.588 1.35,5.379c5.75,-1.567 11.504,-3.133 17.254,-4.7c-0.358,-1.404 -0.717,-2.808 -1.071,-4.217c-5.846,1.183 -11.692,2.358 -17.533,3.537Zm127.783,-79.142c-1.413,-7.841 -2.825,-15.687 -4.242,-23.529c-4.754,10.129 -5.408,16.725 4.242,23.529Zm-111.396,56.275c1.058,-0.454 -0.208,-2.796 0.429,-3.554c-6.562,-0.354 -14.4,-1.392 -20.358,-1.35c-0.95,0.008 -1.117,2.562 -0.267,3.083c5.879,3.583 13.487,4.683 20.196,1.821Zm-4.675,-39.1c-2.833,-9.625 -8.533,-20.571 -20.238,-17.992c6.746,5.996 13.492,11.996 20.238,17.992Zm-48.746,-6.908c-10.083,-6.888 -18.533,-9.704 -29.267,-2.692c9.571,5.754 18.671,3.721 29.267,2.692Zm-7.879,280.575c7.921,11.413 18.654,20.109 32.062,11.663c-10.688,-3.883 -21.375,-7.775 -32.062,-11.663Zm57.587,-254.237c-8.342,-7.196 -18.629,-14.9 -30.146,-11.221c7.117,10.333 18.254,12.371 30.146,11.221Zm19.1,-3.787c14.696,9.942 33.571,12.929 47.567,0.146c-7.812,0.854 -15.046,2.408 -23.042,2.433c-8.004,0.025 -16.479,-1.683 -24.525,-2.579Zm175.067,-23.4c-2.054,-1.629 -4.263,-5.229 -7.129,-5.133c-6.688,0.233 -11.029,3.913 -10.896,10.883c0.054,2.733 3.85,6.908 7.158,6.921c7.504,0.025 10.071,-5.729 10.867,-12.671Zm-252.738,11.721c-10.117,-1.046 -20.117,0.438 -27.908,6.7c-4.958,3.987 -5.317,8.512 1.137,10.338c10.608,3.004 20.875,0.846 30.921,-3.933c-6.725,-1.012 -13.6,-1.912 -20.35,-2.929c0.208,-0.704 0.813,-2.817 1.383,-3.113c5,-2.567 9.908,-4.704 14.817,-7.063Zm-1.679,286.867c1.054,0.021 -0.271,-2.917 0.417,-3.321c-13.463,-10.271 -26.746,-20.346 -40.138,-30.508c3.375,15.354 12.675,26.213 26.933,32.529c4.033,1.788 8.946,1.225 12.788,1.3Zm18.971,-237.417c-8.058,0.371 -17.429,1.713 -25.071,1.754c-0.996,0.008 -1.967,-2.15 -1.175,-2.908c6.138,-5.871 14.458,-12.125 21.129,-18.062c-12.15,2.971 -24.296,7.667 -32.683,16.742c-5.229,5.658 -3.887,10.671 3.5,12.254c12.979,2.775 24.271,-1.008 34.3,-9.779Zm-35.833,339.296c-0.433,19.254 10.321,36.379 27.017,43.704c12.525,5.496 20.554,3.6 29.913,-3.929c-26.796,-9.308 -40.046,-17.329 -56.929,-39.775Zm-81.729,-306.275c0.054,-0.558 -1.221,-0.937 -1.554,-0.467c-3.392,4.733 -6.912,10.554 -10.333,15.617c-4.3,-14.917 -0.562,-26.679 4.417,-40.896c-19.104,12.529 -21.146,37.829 -9.521,56.171c1.279,2.025 3.558,3.404 5.763,3.525c2.204,0.117 7.183,-1.963 7.567,-3.863c2.062,-10.208 2.713,-20.284 3.662,-30.088Zm-2.321,61.062c-12.013,24.863 -6.454,47.867 14.992,65.1c6.479,5.208 12.95,5.717 20.267,2.454c6.708,5.809 13.829,13.867 23.246,14.371c-12.892,-13.354 -25.775,-26.717 -38.667,-40.071c0.45,-0.883 0.9,-1.763 1.35,-2.642c0.437,5.842 0.879,11.692 1.317,17.533c-17.067,-16.121 -20.125,-34.217 -22.504,-56.746Zm70.562,174.563c2.683,23.933 11.375,40.667 32.271,52.583c4.367,2.487 12.513,3.55 15.129,1.412c5.342,-4.362 9.467,-3.446 14.038,-3.158c10.975,0.696 18.204,-0.871 23.454,-10.133c-16.908,-4.8 -33.625,-9.571 -50.462,-14.362c0.187,1.871 0.337,3.688 0.546,5.575c0.208,1.888 0.479,3.842 0.717,5.737c-16.667,-8.783 -24.825,-22.967 -35.692,-37.654Zm42.021,-162.921c-8.317,-12.279 -7.662,-24.7 -8.55,-38.554c-0.062,-0.983 -1.617,-1.758 -2.179,-1.296c-2.758,2.267 -5.608,6.975 -8.508,9.546c-0.567,0.5 -1.758,-0.713 -2.417,-0.492c1.954,-12.896 3.942,-25.708 5.917,-38.529c-18.975,13.371 -20.925,39.242 -12.721,59.092c1.021,2.475 2.817,5.096 4.275,5.283c7.392,0.946 8.179,6.563 11.279,11.167c8.554,12.708 18.696,18.221 33.592,15.725c-6.483,-11.6 -12.896,-23.037 -19.417,-34.629c-0.246,0.592 -1.704,0.112 -1.729,0.9c-0.121,3.683 0.388,7.967 0.458,11.787Zm177.058,-217.687c-29.9,-17.212 -65.3,-26.841 -99.175,-25.242c-19.979,0.942 -34,6.929 -49.317,17.825c-15.317,10.896 -28.742,23.117 -43.821,34.25c-0.292,0.217 -0.121,1.579 -0.112,1.921c16.408,-1.583 29.929,-6.725 42.379,-17.475c24.633,-21.279 50.558,-28.525 82.238,-25.008c23.862,2.646 44.779,9.392 67.808,13.729Zm-51.817,51.383c1.063,-13.758 -0.642,-29.375 -11.533,-39.05c-10.896,-9.675 -24.967,-9.838 -36.008,-0.992c-11.042,8.846 -13.821,21.937 -6.929,34.529c6.892,12.592 19.621,17.633 33.358,12.771c6.754,-2.387 11.737,-8.971 17.713,-12.096c0.787,-0.412 2.442,4.558 3.4,4.838Zm-560.171,380.954c-28.929,24.8 -57.271,50.054 -86.829,74.196c-11.913,9.729 -25.742,16.967 -38.75,25.342c0.029,-0.95 -2.642,-1.617 -2.129,-2.604c2.612,-5.029 5.217,-10.608 8.767,-15.438c57.358,-78 118.754,-146.25 197.933,-203.133c44.425,-31.917 92.437,-47.358 146.867,-51.888c8.967,-0.75 18.217,0.113 27.108,-1.354c-37.633,-19.209 -71.875,-14.8 -112.212,-7.342c29.375,-27.525 58.692,-54.921 88.104,-82.529c-0.917,-0.158 -0.762,-2.737 -1.862,-2.483c-7.837,1.829 -16.162,4.771 -24.146,6.933c32.962,-57.204 71.154,-104.796 122.879,-146.117c-0.529,-0.65 -1.054,-1.3 -1.583,-1.946c-13.196,3.891 -31.892,1.788 -38.762,15.596c-0.108,0.225 -0.096,0.204 0.15,0.158c11.067,-2.158 13.387,-15.175 21.808,-21.038c86.046,-59.896 170.237,-83.742 274.887,-75.788c34.025,2.583 63.662,14.283 94.113,29.396c14.9,7.392 25.863,18.767 31.642,34.633c-4.571,-4.979 -9.2,-10.287 -13.758,-15.333c0.171,2.654 1.171,6.454 0.908,8.9c-0.263,2.442 1.317,6.517 -1.204,7.908c-2.525,1.396 -6.575,0.938 -9.692,-0.104c-3.117,-1.042 -5.679,-4.258 -8.542,-6.125c-13.046,-8.529 -25.775,-9.446 -36.7,2.987c-10.929,12.438 -14.533,26.988 -13.813,43.317c0.263,5.996 4.429,12.175 6.746,17.042c0.387,0.813 2.396,0.596 2.975,-0.225c2.004,-2.842 2.554,-5.866 4.654,-9.767c9.625,-17.875 22.796,-26.046 43.921,-19.238c8.896,2.867 19.075,5.408 28.383,0c2.258,3.117 4.263,6.05 6.45,9.096c-12.421,1.175 -18.85,7.454 -27.262,16.117c-8.408,8.658 -16.854,13.992 -29.308,13.321c-22.092,-1.188 -36.308,7.179 -49.338,24.558c-6.058,8.079 -9.058,17.387 -13.829,26.112c-62.033,15.796 -70.875,71.738 -45.592,124.379c-20.512,-6.375 -30.671,-20.104 -42.804,-36.925c-0.171,18.054 7.383,30.504 18.583,44.125c-20.208,-3.413 -36.333,-12.108 -53.275,-23.3c6.546,15.888 16.567,26.129 30.121,36.363c-9.992,1.329 -19.979,2.654 -29.967,3.983c9.412,15.175 23.229,17.317 39.342,22.029c-8.854,3.929 -18.913,7.687 -27.254,11.704c-0.871,0.417 -0.883,2.483 0.012,2.75c8.621,2.571 18.975,4.583 28.113,6.975c-9.025,12.604 -21.396,14.017 -35.288,18.683c8.463,17.825 27.854,9.867 42.529,4.417c-2.479,23.475 -2.742,47.387 -5.85,70.808c-8.183,61.7 -21.021,120.354 -49.104,176.358c-36.788,73.379 -87.792,130.738 -150.725,182.708c-28.692,23.696 -60.438,41.896 -90.692,63.604c-3.358,2.408 -8.779,4.829 -12.542,7.05c9.7,-34.717 15.792,-67.817 12.675,-103.971c-0.925,-0.208 -1.854,-0.421 -2.783,-0.633c-2.875,10.946 -5.762,21.913 -8.629,32.842c-1.917,-6.058 -3.471,-12.688 -5.542,-18.504c-0.283,-0.796 -1.896,0.496 -2.375,0.008c-2.513,21.063 -4.929,41.963 -7.404,62.967c-0.929,-0.071 -1.875,-0.092 -2.8,-0.183c-1.558,-10.446 -2.821,-21.85 -4.529,-31.858c-0.133,-0.787 -2.208,-0.933 -2.358,-0.146c-1.629,8.483 -2.8,17.908 -4.179,27.004c-5.304,34.896 -11.829,69.033 -25.317,101.858c-3.65,8.883 -9.058,17.496 -15.363,24.533c-8.746,9.767 -17.787,10.938 -28.554,2.325c-10.767,-8.617 -17.55,-19.454 -20.917,-34.017c-3.371,-14.558 -4.987,-32.308 -7.233,-47.742c-0.554,-3.796 -0.733,-8.287 -2.025,-12.008c-8.208,18.921 -10.767,37.771 -11.421,58.288c-10.742,-23.842 -8.271,-47.538 -9.204,-73.038c-10.325,14.492 -11.625,30.004 -13.85,47.225c-19.742,-1.171 -36.292,7.037 -54.546,12.863c-10.325,3.3 -20.267,6.087 -30.829,7.592c-4.621,0.654 -11.146,-1.117 -13.654,-4.846c-2.504,-3.729 0.942,-9.546 3.754,-12.758c14.446,-16.462 28.804,-33.146 45.621,-47.975c9.821,-8.658 23.429,-11.908 34.933,-18.562c69.296,-40.071 135.254,-82.146 191.646,-139.879c53.212,-54.479 92.038,-115.287 115.125,-188.029c12.117,-38.171 17.963,-77.483 7.688,-116.763c-14.554,-55.642 -51.596,-87.983 -110.783,-88.271c-59.188,-0.283 -106.275,27.708 -150.858,64.721c-0.704,0.583 -1.371,1.933 -1.721,2.179c-0.35,0.242 -0.779,0.163 -0.708,0.083c0.075,-0.079 -0.167,0.071 0.508,-0.375c0.675,-0.446 0.138,-1.158 2.021,-2.075c1.879,-0.917 6.092,-2.287 8.913,-4.012c34.783,-21.254 70.508,-37.108 111.225,-42.254c19.158,-2.421 39.033,-2.554 56.842,3.921c39.492,14.363 59.9,44.721 64.921,84.421c5.025,39.704 -3.587,74.375 -16.704,110.229c-25.508,69.746 -67.212,123.708 -119.383,175.167c-33.083,32.629 -70.746,57.279 -109.087,82.808c57.396,-59.675 106.521,-116.833 134.696,-195.767c-3.933,5.633 -7.542,10.933 -11.508,16.65c-3.971,5.721 -7.829,11.7 -11.858,17.604c-37.808,55.354 -79.896,103.229 -132.8,144.746c-12.925,10.142 -28.525,15.996 -42.938,24.075c-1.442,0.808 -4.158,0.496 -5.792,-0.192c3.463,-3.325 7.004,-6.496 10.563,-9.804c50.863,-47.312 93.1,-97.996 127.621,-158.35c0.079,-0.142 -0.221,-0.367 -0.25,-0.354c-0.029,0.012 0.238,0.462 0.071,0.592c-2.429,1.883 -5.471,3.454 -7.517,5.833c-33.854,39.417 -67.671,77.629 -107.804,110.846c-13.85,11.463 -29.396,20.392 -44.562,30.329c-4.283,2.804 -10.1,3.679 -15.246,4.138c1.383,-1.596 2.775,-3.221 4.296,-4.729c43.329,-42.896 83.083,-87.233 117.279,-137.862c2.771,-4.104 3.725,-9.504 5.637,-13.875c0.158,-0.371 0.821,0.154 0.662,0.113c-0.158,-0.038 -0.396,-0.479 -0.658,-0.163c-7.421,8.917 -14.071,18.633 -22.171,27.192c-39.762,42 -80.5,80.625 -129.029,112.575c-11.683,7.692 -25.408,12.158 -38.45,17.117c49.163,-45.921 95.312,-92.975 135.404,-147.154c-4.058,3.688 -8.021,7.4 -12.058,11.125c-37.925,35.008 -75.629,69.092 -118.662,97.933c-15.167,10.162 -31.567,17.85 -48.592,25.179c-8.183,3.525 -17.371,3.912 -26.783,3.787c-5.917,-0.079 -13.263,-4.217 -18.958,-6.304c2.75,-2.083 7.296,-5.242 9.854,-7.063c49.746,-35.421 95.229,-73.033 137.196,-117.092c4.196,-4.404 7.2,-9.942 10.904,-14.542c0.629,-0.783 2.388,-0.713 2.75,-1.038c0.362,-0.325 -0.183,-0.421 -0.204,-0.417c-0.021,0.004 0.45,0.333 0.054,0.617c-0.392,0.279 -1.775,0.375 -2.5,0.938c-7.729,5.971 -15.429,12.271 -23.258,18.267c-33.058,25.317 -66.167,50.8 -99.254,75.987c-0.883,0.671 -2.467,1.75 -2.292,2.4c0.175,0.646 0.046,0.154 0.079,0.121c2.854,-2.754 3.962,-7.154 6.771,-9.958c24.262,-24.233 48.721,-47.888 73.112,-72.062c2.904,-2.879 5.204,-6.675 6.679,-10.592c-11.05,9.696 -21.863,19.513 -32.971,29.213c-36.412,31.792 -73.154,61.963 -114.442,87.45c-9.237,5.7 -19.237,9.754 -29.854,13.113c-10.617,3.363 -16.004,-2.979 -13.467,-13.092c2.538,-10.113 5.825,-18.517 10.242,-27.346c8.075,-16.138 17.104,-31.146 25.883,-46.879c11.771,8.979 24.929,8.704 36.867,1.754c21.529,-12.533 40.146,-25.525 59.871,-39.592c11.908,-8.492 21.95,-18.725 32.808,-28.238c1.921,-1.683 5.779,-4.313 4.254,-6.8c-0.183,-0.3 -0.392,0.033 -0.208,0.233c0.483,0.525 1.883,-0.425 2.521,-0.113c22.083,10.787 39.242,5.721 59.604,-5.762c2.125,-1.2 4.721,-2.767 5.954,-3.179c1.233,-0.412 1.325,0.863 1.408,1.254c4.554,22.613 16.154,32.733 39.712,28.263c18.788,-3.567 33.446,-14.771 48.404,-26.229c2.292,-1.754 4.788,-4.117 7.142,-5.842c0.383,0.979 1.029,2.792 1.254,3.775c5.463,23.775 22.65,30.5 44.825,25.246c22.179,-5.254 35.604,-18.483 50.492,-34.183c4.767,-5.029 8.121,-10.917 12.671,-15.996c12.925,20.196 30.817,26.1 51.033,10.892c25.142,-18.917 34.417,-45.079 42.3,-74.571c-0.617,0.083 -1.596,-1.688 -2.046,-1.121c-1.617,2.05 -2.771,5.042 -4.529,7.35c-11.192,14.733 -21.667,29.862 -33.683,44.1c-3.829,4.537 -9.683,7.904 -15.296,10.021c-12.283,4.642 -20.5,-0.213 -21.758,-13.412c-0.608,-6.367 1.254,-12.833 1.854,-19.288c0.254,-2.754 0.813,-5.792 0.058,-8.613c-7.921,10.571 -15.225,21.4 -23.521,31.788c-11.788,14.754 -24.475,27.721 -41.179,36.842c-6.892,3.762 -14.737,6.617 -22.283,7.554c-14.25,1.771 -20.988,-6.321 -18.146,-19.467c2.842,-13.146 8.717,-23.512 13.204,-35.717c1.433,-3.887 3.442,-7.475 4.362,-11.575c-3.729,3.467 -7.379,6.85 -11.008,10.458c-19.342,19.242 -38.354,37.038 -62.675,50.054c-8.304,4.446 -16.779,7.479 -26.633,9.121c-9.85,1.638 -16.829,-4.233 -12.538,-14.8c6.058,-14.925 14.242,-28.892 22.158,-43.029c3.979,-7.1 9.258,-13.808 12.646,-21.308c-2.946,2.567 -5.733,5.404 -8.879,7.758c-20.292,15.204 -40.108,30.908 -61.075,45.271c-7.079,4.854 -16.012,8.004 -24.308,9.521c-11.375,2.083 -16.937,-3.492 -14.096,-14.871c2.842,-11.375 7.383,-23.021 13.271,-33.392c11.65,-20.513 25.137,-39.938 37.571,-59.983c1.771,-2.85 2.775,-6.225 4.104,-9.254c0.05,-0.108 0.15,0.296 0.208,0.213c0.062,-0.083 0.067,-0.333 0.133,-0.446Z" style="fill:#fff;fill-rule:nonzero;"/><path d="M459.558,803.488c0,0 87.354,-43.542 185.942,-197.842c6.312,48.292 9.208,41.742 9.208,41.742c0,0 36.738,18.15 99.363,-51.279l17.696,24.504c0,0 47.654,-17.483 62.625,-70.004c0,18.271 -1.25,121.75 -84.404,204.367l-73.517,64.396l-62.621,35.396l-21.783,0l-13.946,-10.792l-31.212,-10.483l-38.446,-11.4l-26.779,6.058l-22.125,0l0,-24.663Z" style="fill:#d96358;fill-rule:nonzero;"/><path d="M497.163,833.492c11.417,9.154 22.004,11.158 36.325,8.725c-119.45,81.683 -240.229,152.554 -375.571,204.629c10.304,-2.45 21.296,-3.4 31.167,-7.283c39.046,-15.358 78.337,-29.317 116.396,-47.029c79.033,-36.788 150.992,-82.754 221.333,-134.1c1.196,-0.875 2.396,-1.687 3.467,-2.737c7.042,-6.942 12.779,-8.562 22.642,-5.717c5.604,1.617 13.146,1.267 19.196,1.463c-3.833,2.95 -8.162,6.742 -12.075,9.417c-69.379,47.496 -141.025,88.738 -216.638,125.3c-57.087,27.604 -114.996,51.425 -175.833,69.425c-5.892,1.742 -12.167,2.9 -18.208,2.846c-9.083,-0.083 -13.192,-6.313 -10.487,-14.517c2.704,-8.2 6.362,-15.113 11.104,-22.087c9.033,-13.3 19.175,-25.679 28.988,-38.537c9.8,14.604 24.229,15.437 38.875,10.404c41.45,-14.242 78.321,-32.729 115.933,-53.258c54.437,-29.708 104.829,-63.063 154.246,-100.375c2.833,-2.138 6.154,-4.496 9.142,-6.567Z" style="fill:#fff;fill-rule:nonzero;"/><path d="M1256.858,129.075c49.837,75.546 41.317,156.541 -21.05,221.471c0.975,-9.175 2.858,-16.221 2.833,-25.941c-0.025,-9.729 -1.05,-21.117 -2.542,-31.433c-1.042,-7.167 -6.212,-11.183 -13.162,-11.484c-6.954,-0.296 -8.4,-3.308 -10.275,-9.237c-6.308,-19.963 -17.388,-35.338 -32.158,-49.796c-5.129,-5.017 -10.863,-9.704 -15.746,-14.142c-4.879,-4.438 -5.463,-8.346 -3.108,-14.075c6.004,-14.629 14.942,-25.392 28.183,-34.133c5,-3.296 11.513,-4.729 17.296,-4.529c14.517,0.508 24.633,-3.092 35.104,-13c4.863,-4.604 9.621,-9.242 14.625,-13.7Z" style="fill:#fff;fill-rule:nonzero;"/><path d="M59.258,1481.938c6.308,-13.504 11.775,-27.512 18.983,-40.558c37.104,-67.162 74.321,-134.137 112.142,-200.9c32.583,-57.525 65.754,-114.517 99.154,-171.738c2.325,-3.983 6.213,-7.342 10.529,-9.642c12.55,-6.679 25.892,-12.642 38.738,-18.792c-1.533,3.029 -3.508,7.271 -5.117,10.029c-28.937,49.617 -56.908,99.392 -86.733,148.271c-46.433,76.092 -93.579,151.538 -141.338,226.817c-12.904,20.342 -28.646,38.858 -42.975,58.213c-1.167,-0.583 -2.233,-1.117 -3.383,-1.7Z" style="fill:#fff;fill-rule:nonzero;"/><path d="M710.479,1017.15c0.604,-0.454 -0.942,-2.775 -1.604,-2.408c-2.737,1.513 -7.896,4.958 -10.433,6.879c-0.554,0.417 0.779,2.538 1.387,2.208c2.813,-1.525 8.125,-4.808 10.65,-6.679Zm-64.95,81.046c0.929,-1.729 -1.608,-3.087 -2.658,-4.508c-7.808,-10.571 -5.5,-16.567 3.304,-25.754c0.921,1.863 1.354,5.642 2.421,6.95c0.379,0.463 1.533,-0.475 2.196,-1.596c0.667,-1.121 1.742,-6.142 2.467,-7.933c23.775,1.092 40.142,-10.321 59.671,-22.308c-1.779,-0.642 -3.683,-1.171 -5.379,-1.892c0.279,-0.412 2.846,-3 2.763,-3.058c-6.083,-4.4 -12.908,-8.1 -19.267,-12.238c6.754,-10.008 13.571,-20.042 20.317,-30.062c7.646,8.637 14.633,17.237 22.375,25.958c3.079,3.467 5.604,4.167 10.637,2.892c14.008,-3.546 28.021,0.183 42.167,2.687c-2.6,1.5 -5.267,3 -7.892,4.5c12.496,-0.058 22.25,0.383 31.096,10.083c-3.454,2.975 -6.908,5.95 -10.362,8.929c-10.658,-5.762 -23.704,-16.546 -36.554,-13.183c8.438,4.942 16.875,9.863 25.308,14.821c-1.012,2.767 -2.025,6.075 -3.075,8.608c-0.171,0.421 -0.708,-0.829 -0.792,-0.721c-0.083,0.108 0.033,0.283 0.163,0.346c0.129,0.058 0.342,0.442 0.6,0.329c10.633,-4.571 14.404,1.983 19.846,10.808c-1.721,1.158 -3.108,2.138 -4.925,3.313c-1.817,1.179 -3.5,2.588 -4.504,4.658c4.442,-1.321 8.917,-2.658 13.371,-3.983c2.375,3.533 4.779,7.063 7.133,10.604c-3.112,1.921 -6.967,3.946 -9.783,5.842c-0.408,0.279 0.042,1.483 0.488,1.379c3.208,-0.746 7.229,-2.179 10.658,-3.129c7.079,8.129 6.521,10.708 -1.562,17.692c2.867,-1.008 5.733,-2.017 8.6,-3.021c7.296,12.012 6.083,15.725 -4.721,24.529c4.479,-1.5 8.779,-3.042 13.371,-4.517c-0.779,7.396 3.367,15.562 -1.1,22.529c-4.471,6.967 -15.129,-2.829 -20.221,3.558c-0.138,0.171 -0.004,0.342 0.112,0.121c5.996,-11.679 -8.233,-21.379 -13.938,-31.037c-5.704,-9.658 -7.412,-20.783 -17.475,-28.208c-1.825,-1.346 -2.1,-7.025 -2.358,-9.417c-13.046,-0.838 -13.992,-11.071 -16.037,-22.283c-1.271,3.908 -2.542,7.812 -3.808,11.717c-12.154,-1.542 -18.612,-6.696 -23.642,-17.854c-2.254,9.883 -8.1,12.183 -16.858,15.196c-8.754,3.008 -16.212,6.108 -24.987,9.292c-8.775,3.179 -12.771,1.421 -17.238,-6.863c-0.542,-1.008 -1.304,-3.092 -1.667,-3.338c-0.367,-0.246 -2.688,0.338 -2.379,1.108c1.683,4.233 4.742,9.446 6.817,13.938c-11.208,7.25 -14.608,7.075 -22.383,-4.025c-0.179,0.583 -2.321,0.017 -2.15,0.808c0.821,3.754 2.688,8.117 3.792,12.05c-4.363,1.417 -9.875,0.996 -12.125,5.546c-0.1,0.204 0.062,0.342 0.171,0.137Z" style="fill:#fff;fill-rule:nonzero;"/><path d="M207.888,1342.638c2.929,-5.621 5.154,-19.625 9.108,-29.192c23.838,-57.654 54.208,-113.825 85.517,-168.542c22.375,-39.1 45.088,-78.25 67.971,-117.254c2.058,-3.508 5.721,-6.346 9.413,-8.467c11.392,-6.546 23.258,-12.225 35.55,-16.992c-69.521,114.112 -138.783,227.671 -208.496,342.129c1.746,-3.271 -1.996,3.933 0.938,-1.683Z" style="fill:#fff;fill-rule:nonzero;"/><path d="M1218.196,296.463c-6.117,3.142 -13.079,7.65 -19.358,10.133c-22.246,8.788 -42.983,12.442 -66.513,9.2c-6.129,-0.846 -12.392,-2.825 -17.5,-5.721c-19.825,-11.242 -25.108,-23.863 -16.763,-45.45c6.458,-16.721 17.246,-31.704 30.962,-43.104c8.95,-7.441 14.675,-6.075 20.483,3.746c3.662,6.183 5.675,14.112 7.913,21.317c9.192,29.533 24.283,43.271 55.179,48.533c1.071,0.183 4.3,0.904 5.596,1.346Z" style="fill:#fff;fill-rule:nonzero;"/><path d="M473.771,640.471c-3.358,-1.946 -6.283,3.129 -9.096,5.054c-23.938,16.388 -47.679,33.446 -72.354,49.146c-10.571,6.721 -22.546,11.158 -34.4,15.633c-3.129,1.183 -8.492,0.329 -10.763,-2.275c-2.275,-2.604 -0.937,-7.342 0.712,-10.146c14.029,-23.804 28.796,-47.446 43.287,-71.079c12.179,8.275 23.683,8.933 36.75,3.05c13.063,-5.883 24.104,-13.588 36.071,-20.433c2.488,-1.425 3.283,-2.308 5.462,-3.775c1.596,10.629 3.392,21.175 4.929,31.813c0.146,1.029 -0.487,2.396 -0.775,3.217c-0.079,0.225 0.504,-0.017 0.175,-0.204Z" style="fill:#fff;fill-rule:nonzero;"/><path d="M888.713,990.842c10.7,1.471 23.079,4.054 21.412,17.283c8.692,-1.608 10.871,1.987 16.088,8.75c-1.696,2.075 -3.388,4.142 -5.083,6.229c9.025,-2.55 12.088,1.637 16.183,8.971c4.096,7.329 5.879,11.854 -1.604,17.312c2.492,-0.563 4.983,-1.1 7.479,-1.654c7.075,13.45 2.796,16.142 -9.35,24.133c2.521,-0.721 4.571,-1.196 7.171,-2.075c2.6,-0.879 5.763,-2.329 8.408,-3.271c0.871,3.904 1.367,10.683 1.513,14.033c0.146,3.354 -2.575,7.688 -4.046,8.133c-4.2,1.275 -12.317,0.796 -14.108,-2.075c-7.017,-11.237 -10.512,-22.462 -15.292,-34.371c-1.25,-3.117 -0.133,-6.929 -0.225,-10.229c-14.554,-5.854 -26.096,-13.233 -27.817,-29.817c-5.408,1.45 -11.796,4.708 -17.292,4.296c-14.117,-1.067 -15.646,-5.471 -10.487,-17.887c-0.487,0.233 -1.446,-1.554 -1.862,-0.954c-2.654,3.833 -4.937,7.912 -6.3,12.671c-1.362,4.758 -1.55,6.479 -7.371,8.625c-5.825,2.142 -12.392,4.987 -19.779,7.721c-7.392,2.733 -11.338,0.129 -9.833,-9.071c-1.296,0.983 -4.425,4.279 -5.183,4.717c-0.758,0.433 -1.788,-0.479 -1.479,-0.921c1.971,-2.812 5.217,-6.225 7.542,-9.192c1.521,3.642 2.975,7.321 4.471,10.979c1.525,-6.254 3.054,-12.512 4.583,-18.767c1.892,3.692 3.783,7.388 5.675,11.083c0.904,-11.058 8.204,-15.383 16.462,-21.596c-3.429,-0.554 -6.883,-1.104 -10.296,-1.658c5.346,-3.446 11.308,-6.958 16.371,-10.379c0.425,-0.288 -0.117,-1.317 -0.554,-1.263c-5.796,0.754 -13.371,2.879 -18.929,3.425c-0.917,0.088 -1.729,-2.287 -1.033,-2.825c3.537,-2.738 9.721,-5.679 13.579,-8.421c0.35,-0.25 -0.05,-1.371 -0.496,-1.296c-4.613,0.783 -10.254,2.387 -14.888,3.204c-0.371,0.067 -0.8,-0.863 -0.454,-1.067c4.729,-2.796 9.383,-5.962 14.792,-8.367c1.438,-0.638 3.542,-0.021 5.433,1.154c1.892,1.175 3.817,3.304 5.846,5.225c7.642,7.258 13.183,10.004 24.162,5.988c10.975,-4.021 22.525,-3.321 33.658,1.562c-1.225,2.058 -2.604,4.175 -3.887,6.258c9.717,-5.875 13.625,0.038 21.246,6.021c-6.483,7.608 -8.817,8.821 -17.675,3.521c-4.583,-2.737 -9.629,-5.729 -14.742,-7.946c-5.117,-2.221 -8.829,-0.683 -12.008,3.804Z" style="fill:#fff;fill-rule:nonzero;"/><path d="M438.533,830.308c-0.721,0.896 -3.487,3.242 -5.613,4.5c-48.521,28.767 -97.796,56.813 -150.05,78.546c-10.767,4.479 -22.671,8.225 -33.629,9.8c-10.963,1.575 -14.45,-2.058 -10.192,-13.108c4.258,-11.05 12.217,-25.15 17.633,-36.458c10.279,12.542 17.771,17.379 33.842,11.187c16.067,-6.192 31.171,-14.917 46.621,-23c9.171,-4.8 17.463,-10.296 26.342,-16.337c11.817,-8.042 21.708,-13.012 36.95,-10.875c8.575,1.2 18.742,-2.029 27.446,-3.804c3.167,-0.646 7.037,-2.158 9.742,-2.6c0.646,-0.108 1.629,1.25 0.908,2.15Z" style="fill:#fff;fill-rule:nonzero;"/><path d="M472.654,957.546c0.408,27.296 10.192,31.971 35.808,37.788c-0.508,0.892 -0.908,2.229 -1.679,2.887c-24.521,20.833 -48.729,41.692 -73.558,62.196c-4.237,3.5 -9.358,6.012 -14.638,7.979c-5.279,1.967 -8.396,-0.442 -7.875,-6.238c0.271,-2.996 0.896,-6.558 2.446,-9.254c16.879,-29.275 34.096,-58.487 51.225,-87.483c1.454,-2.458 4.412,-4.804 5.875,-6.258c1.467,-1.454 1.188,-0.662 2.396,-1.617Z" style="fill:#fff;fill-rule:nonzero;"/><path d="M362.492,813.775c4.438,4.158 8.587,10.579 12.954,15.333c-3.921,2.267 -7.646,4.65 -11.683,6.654c-23.546,11.675 -46.712,23.462 -70.612,34.683c-5.229,2.454 -10.933,3.521 -17.092,3.992c-6.158,0.471 -11.925,-4.912 -8.054,-10.879c8.388,-12.925 18.104,-23.713 27.596,-35.725c0.525,-0.667 2.121,-0.717 3.142,-0.571c22.217,3.2 40.263,-3.2 60.183,-12.358c1.079,-0.496 2.575,-2.058 3.567,-1.129Z" style="fill:#fff;fill-rule:nonzero;"/><path d="M811.592,1151.404c-4.296,8.567 17.887,2.45 21.821,1.425c-0.283,17.129 -13.446,26.025 -20.383,40.408c-0.125,0.254 -0.092,0.304 0.158,0.225c8.2,-2.496 10.238,-12.208 14.567,-18.883c-13.346,-4.854 -17.475,-8.729 -15.95,-23.012c0.029,-0.263 -0.121,-0.342 -0.212,-0.163Z" style="fill:#fff;fill-rule:nonzero;"/><path d="M820.954,1072.633c4.742,-2.558 9.387,-5.171 14.179,-7.696c3.583,7.542 9.313,15.817 11.433,23.613c2.125,7.796 -4.817,6.462 -9.425,9.346c-5.463,-8.463 -10.779,-16.833 -16.187,-25.262Z" style="fill:#fff;fill-rule:nonzero;"/><path d="M931.975,1091.563c5.788,0.592 11.579,1.188 17.367,1.783c0.738,13.4 -4.046,24.512 -16.637,30.208c2.546,-3.871 5.088,-7.742 7.633,-11.608c-11.546,-3.775 -9.613,-10.079 -8.363,-20.383Z" style="fill:#fff;fill-rule:nonzero;"/><path d="M940.579,1017.033c4.158,-2.096 8.317,-4.196 12.475,-6.296c4.25,7.846 8.504,15.688 12.754,23.533c-3.575,2.5 -7.15,5 -10.729,7.5c-4.833,-8.246 -9.667,-16.492 -14.5,-24.737Z" style="fill:#fff;fill-rule:nonzero;"/><path d="M802.617,1053.142c3.775,-3.125 7.55,-6.25 11.325,-9.371c5.95,5.529 11.9,11.058 17.85,16.592c-3.85,2.967 -7.704,5.937 -11.554,8.908c-5.875,-5.375 -11.746,-10.754 -17.621,-16.129Z" style="fill:#fff;fill-rule:nonzero;"/><path d="M837.462,1100.879c4.117,-1.433 8.233,-2.863 12.35,-4.296c4.529,11.05 7.45,17.083 -4.996,21.738c-2.454,-5.812 -4.904,-11.629 -7.354,-17.442Z" style="fill:#fff;fill-rule:nonzero;"/><path d="M949.621,1007.054c-4.079,2.429 -8.158,4.85 -12.237,7.279c-3.458,-4.263 -6.917,-8.525 -10.375,-12.788c3.704,-2.283 7.413,-4.567 11.117,-6.846c3.833,4.117 7.663,8.237 11.496,12.354Z" style="fill:#fff;fill-rule:nonzero;"/><path d="M960.642,1057.417c-1.642,-4.425 -3.288,-8.854 -4.933,-13.279c3.446,-1.596 6.892,-3.196 10.338,-4.796c4.854,10.65 5.962,13.667 -5.404,18.075Z" style="fill:#fff;fill-rule:nonzero;"/><path d="M850.158,1145.829c-1.204,-5.642 -1.354,-10.092 -3.004,-16.396c-1.65,-6.308 1.933,-9.821 8.8,-10.679c-1.075,9.1 -2.062,18.275 -3.187,27.508c-0.463,-0.671 -2.404,0.517 -2.608,-0.433Z" style="fill:#fff;fill-rule:nonzero;"/><path d="M972.746,1056.904c-1.617,8.417 -2.971,17.921 -4.712,25.863c-0.175,0.8 -2.05,0.521 -2.213,-0.221c-1.462,-6.7 -2.508,-14.863 -3.833,-21.996c3.596,-1.242 7.162,-2.458 10.758,-3.646Z" style="fill:#fff;fill-rule:nonzero;"/><path d="M645.279,1098.108c-4.812,-0.025 -8.925,3.217 -13.258,5.15c0.442,-4.575 0.892,-9.154 1.342,-13.729c4.008,2.887 8.121,5.804 12.071,8.675c0.112,0.083 0.092,-0.092 -0.154,-0.096Z" style="fill:#fff;fill-rule:nonzero;"/><path d="M812.942,1193.279c-0.267,-0.075 -0.9,0.75 -0.992,0.787c-0.087,0.038 -0.208,-0.804 -0.083,-0.854c0.129,-0.05 1.054,0.279 1.221,0.258c0.079,-0.008 0.012,-0.15 -0.146,-0.192Z" style="fill:#fff;fill-rule:nonzero;"/><path d="M408.05,763.696c-0.225,0.033 -1.15,-0.354 -1.171,-0.371c-0.021,-0.012 1.079,0.321 1.183,0.354c0.108,0.033 0.004,0.017 -0.012,0.017Z" style="fill:#fff;fill-rule:nonzero;"/><path d="M481.433,839.129c0.033,-0.087 0.225,-0.542 0.246,-0.592c0.017,-0.033 -0.162,0.35 -0.167,0.392c-0.008,0.042 -0.092,0.225 -0.079,0.2Z" style="fill:#fff;fill-rule:nonzero;"/><path d="M72.692,1103.667c-0.083,-0.025 -0.008,-0.513 0.033,-0.525c0.042,-0.012 0.146,0.317 0.154,0.358c0.008,0.071 -0.071,0.2 -0.188,0.167Z" style="fill:#fff;fill-rule:nonzero;"/><path d="M832.2,115.429c-0.296,-0.017 -0.617,1.025 -0.546,1.071c0.067,0.046 0.75,-0.646 0.729,-0.875c-0.013,-0.125 -0.038,-0.187 -0.183,-0.196Z" style="fill:#fff;fill-rule:nonzero;"/><path d="M183.567,1339.687c0.05,0 0.167,0.3 0.133,0.333c-0.033,0.038 -0.35,-0.058 -0.354,-0.087c0,-0.075 0.096,-0.242 0.221,-0.246Z" style="fill:#fff;fill-rule:nonzero;"/><path d="M207.058,1344.092c-0.029,0.012 -0.325,-0.008 -0.3,-0.025c0.042,-0.025 0.421,-0.183 0.479,-0.179c0.033,0 -0.15,0.196 -0.179,0.204Z" style="fill:#fff;fill-rule:nonzero;"/><path d="M1089.104,97.462c-1.112,1.267 -4.067,3.671 -3.925,5.429c0.146,1.754 2.533,3.329 3.779,3.525c1.242,0.196 3.683,-0.629 3.621,-2.304c-0.062,-1.671 -2.596,-4.896 -3.475,-6.65Zm-13.921,-9.446c-10.496,2.217 -19,8.287 -19.05,19.675c-0.046,11.383 9.596,19.496 19.258,21.533c9.663,2.038 16.046,-1.271 20.354,-8.991c-10.775,4.175 -21.062,7.125 -29.079,-3.692c-8.013,-10.816 0.421,-20.146 8.517,-28.525Zm31.871,39.183c-0.958,-0.279 -2.612,-5.25 -3.4,-4.838c-5.975,3.125 -10.958,9.708 -17.713,12.096c-13.737,4.867 -26.467,-0.179 -33.358,-12.771c-6.892,-12.592 -4.112,-25.688 6.929,-34.529c11.042,-8.846 25.112,-8.684 36.008,0.992c10.892,9.675 12.596,25.292 11.533,39.05Z" style="fill:#231f20;fill-rule:nonzero;"/><path d="M1158.871,75.817c-23.029,-4.337 -43.946,-11.083 -67.808,-13.729c-31.675,-3.517 -57.604,3.729 -82.238,25.008c-12.45,10.75 -25.971,15.892 -42.379,17.475c-0.008,-0.342 -0.179,-1.704 0.112,-1.921c15.079,-11.133 28.504,-23.354 43.821,-34.25c15.317,-10.896 29.338,-16.883 49.313,-17.825c33.879,-1.6 69.279,8.029 99.179,25.242Z" style="fill:#231f20;fill-rule:nonzero;"/><path d="M981.812,293.504c-0.071,-3.821 -0.583,-8.104 -0.458,-11.787c0.025,-0.788 1.483,-0.308 1.729,-0.9c6.521,11.592 12.933,23.029 19.417,34.629c-14.896,2.496 -25.038,-3.017 -33.592,-15.725c-3.1,-4.604 -3.887,-10.221 -11.279,-11.167c-1.458,-0.187 -3.254,-2.808 -4.275,-5.283c-8.204,-19.85 -6.254,-45.721 12.721,-59.092c-1.975,12.825 -3.963,25.633 -5.917,38.529c0.658,-0.217 1.85,0.992 2.417,0.492c2.9,-2.571 5.75,-7.279 8.508,-9.546c0.563,-0.463 2.117,0.313 2.179,1.296c0.888,13.854 0.233,26.275 8.55,38.554Z" style="fill:#231f20;fill-rule:nonzero;"/><path d="M939.792,456.425c10.867,14.688 19.025,28.871 35.692,37.654c-0.237,-1.896 -0.508,-3.85 -0.717,-5.737c-0.208,-1.883 -0.358,-3.704 -0.546,-5.575c16.838,4.792 33.554,9.562 50.462,14.362c-5.25,9.267 -12.479,10.829 -23.454,10.133c-4.571,-0.287 -8.696,-1.204 -14.038,3.158c-2.617,2.138 -10.762,1.075 -15.129,-1.412c-20.896,-11.917 -29.587,-28.65 -32.271,-52.583Z" style="fill:#231f20;fill-rule:nonzero;"/><path d="M869.229,281.862c2.379,22.529 5.437,40.625 22.504,56.746c-0.438,-5.842 -0.879,-11.692 -1.317,-17.533c-0.45,0.879 -0.9,1.763 -1.35,2.642c12.892,13.354 25.775,26.717 38.667,40.071c-9.417,-0.504 -16.538,-8.562 -23.246,-14.371c-7.317,3.263 -13.787,2.754 -20.267,-2.454c-21.446,-17.233 -27.004,-40.237 -14.992,-65.1Z" style="fill:#231f20;fill-rule:nonzero;"/><path d="M871.55,220.8c-0.954,9.804 -1.6,19.879 -3.662,30.088c-0.383,1.9 -5.363,3.979 -7.567,3.858c-2.204,-0.116 -4.483,-1.496 -5.763,-3.521c-11.625,-18.342 -9.583,-43.642 9.521,-56.171c-4.979,14.217 -8.717,25.979 -4.417,40.9c3.421,-5.067 6.942,-10.888 10.333,-15.621c0.333,-0.471 1.608,-0.092 1.554,0.467Z" style="fill:#231f20;fill-rule:nonzero;"/><path d="M953.279,527.075c16.883,22.446 30.133,30.467 56.929,39.775c-9.358,7.529 -17.392,9.425 -29.913,3.929c-16.696,-7.329 -27.45,-24.446 -27.017,-43.704Z" style="fill:#231f20;fill-rule:nonzero;"/><path d="M989.112,187.779c-10.029,8.771 -21.321,12.554 -34.3,9.779c-7.387,-1.583 -8.729,-6.596 -3.5,-12.254c8.392,-9.079 20.533,-13.771 32.683,-16.742c-6.671,5.942 -14.996,12.192 -21.129,18.062c-0.792,0.763 0.179,2.917 1.175,2.908c7.642,-0.041 17.013,-1.383 25.071,-1.754Z" style="fill:#231f20;fill-rule:nonzero;"/><path d="M970.142,425.196c-3.842,-0.075 -8.758,0.488 -12.788,-1.3c-14.258,-6.317 -23.558,-17.179 -26.933,-32.529c13.392,10.163 26.675,20.237 40.138,30.508c-0.688,0.404 0.637,3.342 -0.417,3.321Z" style="fill:#231f20;fill-rule:nonzero;"/><path d="M971.821,138.329c-4.908,2.363 -9.812,4.496 -14.817,7.063c-0.571,0.296 -1.175,2.408 -1.383,3.113c6.75,1.017 13.625,1.912 20.35,2.929c-10.046,4.779 -20.312,6.937 -30.921,3.933c-6.454,-1.825 -6.096,-6.35 -1.137,-10.334c7.792,-6.267 17.792,-7.75 27.908,-6.704Z" style="fill:#231f20;fill-rule:nonzero;"/><path d="M1224.558,126.608c-0.796,6.942 -3.363,12.692 -10.867,12.671c-3.308,-0.012 -7.104,-4.188 -7.158,-6.925c-0.129,-6.967 4.208,-10.65 10.896,-10.879c2.867,-0.096 5.075,3.5 7.129,5.133Z" style="fill:#231f20;fill-rule:nonzero;"/><path d="M1049.492,150.008c8.046,0.896 16.521,2.604 24.525,2.579c7.996,-0.025 15.229,-1.579 23.042,-2.433c-13.996,12.783 -32.871,9.8 -47.567,-0.146Z" style="fill:#231f20;fill-rule:nonzero;"/><path d="M1030.392,153.796c-11.892,1.154 -23.029,-0.892 -30.146,-11.221c11.521,-3.679 21.804,4.021 30.146,11.221Z" style="fill:#231f20;fill-rule:nonzero;"/><path d="M972.804,408.033c10.687,3.888 21.375,7.775 32.062,11.663c-13.408,8.446 -24.142,-0.25 -32.062,-11.663Z" style="fill:#231f20;fill-rule:nonzero;"/><path d="M980.683,127.458c-10.596,1.029 -19.696,3.062 -29.267,-2.692c10.733,-7.012 19.183,-4.196 29.267,2.692Z" style="fill:#231f20;fill-rule:nonzero;"/><path d="M1029.429,134.367c-6.746,-5.996 -13.492,-11.996 -20.238,-17.992c11.704,-2.579 17.4,8.367 20.238,17.992Z" style="fill:#231f20;fill-rule:nonzero;"/><path d="M1034.104,173.467c-6.708,2.862 -14.312,1.762 -20.196,-1.821c-0.85,-0.521 -0.683,-3.075 0.267,-3.083c5.958,-0.042 13.796,0.996 20.358,1.35c-0.637,0.758 0.629,3.1 -0.429,3.554Z" style="fill:#231f20;fill-rule:nonzero;"/><path d="M1145.5,117.192c-9.65,-6.804 -8.996,-13.4 -4.242,-23.529c1.417,7.842 2.829,15.688 4.242,23.529Z" style="fill:#231f20;fill-rule:nonzero;"/><path d="M1017.717,196.333c5.842,-1.175 11.688,-2.354 17.533,-3.537c0.354,1.408 0.712,2.808 1.071,4.217c-5.75,1.567 -11.504,3.133 -17.254,4.7c-0.45,-1.792 -0.9,-3.583 -1.35,-5.379Z" style="fill:#231f20;fill-rule:nonzero;"/><path d="M1062.792,199.571c-5.867,1.6 -11.738,3.196 -17.604,4.792c-0.4,-1.437 -0.8,-2.875 -1.204,-4.308c5.862,-1.558 11.725,-3.113 17.583,-4.667c0.408,1.396 0.817,2.792 1.225,4.183Z" style="fill:#231f20;fill-rule:nonzero;"/><path d="M1123.612,84.75c1.667,6.929 3.337,13.862 5.004,20.792c-7.725,-6.288 -8.958,-11.675 -5.004,-20.792Z" style="fill:#231f20;fill-rule:nonzero;"/><path d="M1156.867,121.158c0.079,4.513 1.25,10.958 0.942,14.929c-0.071,0.929 -2.679,1.1 -3.375,0.158c-3.613,-4.879 -2.042,-10.6 2.433,-15.087Z" style="fill:#231f20;fill-rule:nonzero;"/><path d="M1159.212,90.817c0.483,5.396 0.971,10.787 1.454,16.179c-7.825,-4.754 -6.404,-9.342 -1.454,-16.179Z" style="fill:#231f20;fill-rule:nonzero;"/><path d="M1074.871,197.625c3.196,-2.35 9.633,-5.483 12.975,-7.042c0.842,-0.392 2.554,2.5 1.746,3.1c-3.2,2.371 -8.913,5.3 -12.912,7.708c0.229,-0.875 -2.738,-3.087 -1.808,-3.767Z" style="fill:#231f20;fill-rule:nonzero;"/><path d="M1056.842,176.646c-4.133,0.846 -12.071,1.858 -16.329,2.162c-0.883,0.067 -1.354,-3.05 -0.488,-3.233c4.213,-0.888 12.2,-2.121 16.429,-2.45c0.946,-0.075 1.321,3.329 0.388,3.521Z" style="fill:#231f20;fill-rule:nonzero;"/><path d="M1043.9,146.4c-2.6,-0.766 -8.383,-3.146 -10.783,-4.412c-0.675,-0.358 0.458,-3.167 1.196,-2.946c2.633,0.779 8.504,3.129 10.917,4.396c0.692,0.363 -0.579,3.188 -1.329,2.962Z" style="fill:#231f20;fill-rule:nonzero;"/><path d="M1142.725,138.362c-0.467,1.913 -2.792,7.325 -3.842,9.021c-0.392,0.633 -3.454,-0.671 -3.279,-1.392c0.458,-1.913 2.654,-7.304 3.683,-8.963c0.4,-0.65 3.617,0.592 3.438,1.333Z" style="fill:#231f20;fill-rule:nonzero;"/><path d="M1102.4,189.208c1.725,-1.808 6.45,-5.687 8.554,-7.104c0.617,-0.412 2.554,1.85 2.046,2.392c-1.742,1.842 -6.35,5.862 -8.417,7.267c-0.646,0.442 -2.725,-1.987 -2.183,-2.554Z" style="fill:#231f20;fill-rule:nonzero;"/><path d="M1107.142,163.963c-2.112,1.796 -7.387,5.458 -9.812,6.804c-0.7,0.388 -2.521,-2.183 -1.917,-2.7c2.113,-1.788 7.408,-5.429 9.842,-6.779c0.692,-0.383 2.488,2.167 1.888,2.675Z" style="fill:#231f20;fill-rule:nonzero;"/><path d="M1082.821,176.396c-2.896,1.137 -9.117,3.012 -12.171,3.671c-0.762,0.167 -1.658,-2.604 -0.942,-2.883c2.908,-1.138 9.142,-3.021 12.204,-3.683c0.758,-0.163 1.633,2.617 0.908,2.896Z" style="fill:#231f20;fill-rule:nonzero;"/><path d="M1123.317,177.729c1.583,-2.271 5.592,-6.95 7.571,-8.896c0.529,-0.521 2.704,1.346 2.279,1.954c-1.608,2.312 -5.579,7.1 -7.554,9.058c-0.542,0.537 -2.738,-1.487 -2.296,-2.117Z" style="fill:#231f20;fill-rule:nonzero;"/><path d="M1151.333,154c-1.442,2.883 -4.825,8.642 -6.679,11.212c-0.479,0.671 -3.146,-0.963 -2.775,-1.7c1.438,-2.825 4.996,-8.475 6.896,-11.075c0.454,-0.621 2.904,0.875 2.558,1.562Z" style="fill:#231f20;fill-rule:nonzero;"/><path d="M1117.388,158.008c1.371,-1.404 5.754,-4.567 7.492,-5.571c0.567,-0.325 2.267,1.858 1.808,2.333c-1.483,1.525 -5.783,5.162 -7.508,6.187c-0.633,0.375 -2.317,-2.412 -1.792,-2.95Z" style="fill:#231f20;fill-rule:nonzero;"/><path d="M1131.258,117.383c0.662,0.817 2.933,5.471 3.012,6.254c0.083,0.779 -1.483,1.692 -2.113,1.2c-0.633,-0.496 -3.458,-4.971 -3.808,-5.971c-0.162,-0.467 2.588,-1.871 2.908,-1.483Z" style="fill:#231f20;fill-rule:nonzero;"/><path d="M654.083,663.912c0.208,-0.017 0.604,0.146 0.625,0.188c0.021,0.042 -0.563,0.008 -0.642,-0.125c-0.075,-0.133 -0.004,-0.058 0.017,-0.063Z" style="fill:#231f20;fill-rule:nonzero;"/><path d="M546.875,508.158c0.112,0.058 -0.075,0.412 -0.121,0.437c-0.042,0.025 -0.208,-0.204 -0.2,-0.233c0.029,-0.092 0.212,-0.263 0.321,-0.204Z" style="fill:#231f20;fill-rule:nonzero;"/><path d="M532.871,666.775c0.842,0.179 1.933,-0.392 2.529,-0.896c0.179,-0.15 0.358,-0.092 0.171,-0.254c-0.846,-0.758 -2.417,0.05 -2.842,0.992c-0.067,0.146 -0.025,0.125 0.142,0.158Z" style="fill:#231f20;fill-rule:nonzero;"/><path d="M635.275,422.071c-0.104,-0.025 -0.442,0.238 -0.404,0.304c0.038,0.067 0.625,0.129 0.679,-0.029c0.05,-0.158 -0.167,-0.254 -0.275,-0.275Z" style="fill:#231f20;fill-rule:nonzero;"/><path d="M702.004,669.35c-0.1,0 -0.125,-0.563 -0.079,-0.588c0.042,-0.025 0.242,0.296 0.254,0.342c0.017,0.079 -0.025,0.254 -0.175,0.246Z" style="fill:#231f20;fill-rule:nonzero;"/><path d="M637.042,420.008c-0.867,-0.104 -1.825,1.425 -1.725,1.933c0.1,0.508 -0.167,0.342 0.354,0.337c0.525,0 1.708,-1.271 1.579,-2.067c-0.033,-0.2 0.012,-0.179 -0.208,-0.204Z" style="fill:#231f20;fill-rule:nonzero;"/><path d="M535.433,665.854c-0.104,-0.004 -0.167,-0.567 -0.125,-0.592c0.038,-0.025 0.271,0.321 0.288,0.375c0.021,0.071 -0.033,0.217 -0.163,0.217Z" style="fill:#231f20;fill-rule:nonzero;"/><path d="M710.479,1017.15c-2.525,1.871 -7.837,5.154 -10.65,6.679c-0.608,0.333 -1.942,-1.792 -1.387,-2.208c2.537,-1.917 7.696,-5.367 10.433,-6.879c0.662,-0.367 2.208,1.954 1.604,2.408Z" style="fill:#231f20;fill-rule:nonzero;"/><path d="M785,1061.075c-0.067,-0.079 -0.487,-0.288 -0.575,-0.337c-0.087,-0.054 -0.246,-0.383 -0.158,-0.329c0.087,0.058 0.646,0.654 0.787,0.804c0.033,0.038 0.004,-0.071 -0.054,-0.138Z" style="fill:#231f20;fill-rule:nonzero;"/><path d="M1075.183,88.017c-8.096,8.379 -16.529,17.708 -8.517,28.525c8.017,10.821 18.304,7.867 29.079,3.692c-4.308,7.721 -10.692,11.025 -20.354,8.991c-9.667,-2.037 -19.304,-10.146 -19.258,-21.533c0.05,-11.388 8.554,-17.458 19.05,-19.675Z" style="fill:#fff;fill-rule:nonzero;"/><path d="M1089.104,97.462c0.879,1.754 3.413,4.979 3.475,6.65c0.067,1.675 -2.379,2.5 -3.621,2.304c-1.246,-0.196 -3.642,-1.771 -3.779,-3.525c-0.142,-1.758 2.813,-4.162 3.925,-5.429Z" style="fill:#fff;fill-rule:nonzero;"/><path d="M1235.808,350.546c0.971,-9.175 2.858,-16.217 2.833,-25.941c-0.025,-9.729 -1.05,-21.117 -2.542,-31.433c-1.042,-7.162 -6.212,-11.183 -13.162,-11.484c-6.95,-0.296 -8.4,-3.308 -10.275,-9.237c-6.308,-19.963 -17.388,-35.338 -32.158,-49.796c-5.129,-5.017 -10.863,-9.704 -15.746,-14.142c-4.879,-4.438 -5.463,-8.346 -3.108,-14.075c6.004,-14.629 14.942,-25.392 28.183,-34.133c5,-3.296 11.513,-4.729 17.296,-4.529c14.517,0.508 24.633,-3.092 35.104,-13c4.863,-4.604 9.621,-9.242 14.625,-13.7c49.837,75.546 41.317,156.541 -21.05,221.471Zm-36.971,-43.95c-22.246,8.788 -42.983,12.442 -66.513,9.2c-6.133,-0.846 -12.392,-2.825 -17.5,-5.721c-19.825,-11.242 -25.108,-23.863 -16.763,-45.45c6.458,-16.721 17.25,-31.704 30.962,-43.104c8.95,-7.441 14.675,-6.075 20.483,3.746c3.662,6.183 5.675,14.112 7.913,21.312c9.192,29.537 24.283,43.275 55.179,48.537c1.071,0.183 4.3,0.904 5.596,1.346c-6.117,3.142 -13.079,7.65 -19.358,10.133Zm-141.775,-17.825c-0.171,18.05 7.383,30.504 18.583,44.125c-20.204,-3.413 -36.333,-12.108 -53.275,-23.3c6.546,15.888 16.567,26.125 30.121,36.363c-9.992,1.329 -19.979,2.654 -29.967,3.983c9.412,15.175 23.229,17.317 39.342,22.029c-8.854,3.925 -18.913,7.687 -27.254,11.704c-0.871,0.417 -0.883,2.483 0.012,2.75c8.621,2.571 18.975,4.583 28.113,6.979c-9.025,12.6 -21.392,14.013 -35.283,18.687c8.462,17.821 27.858,9.858 42.525,4.409c-2.483,23.471 -2.738,47.396 -5.85,70.812c-8.192,61.683 -21.012,120.358 -49.104,176.354c-36.8,73.362 -87.783,130.754 -150.725,182.708c-28.696,23.692 -60.433,41.9 -90.692,63.604c-3.358,2.408 -8.779,4.829 -12.542,7.05c9.7,-34.717 15.792,-67.817 12.675,-103.971c-0.925,-0.212 -1.854,-0.421 -2.783,-0.633c-2.875,10.946 -5.762,21.913 -8.629,32.842c-1.912,-6.063 -3.471,-12.688 -5.542,-18.504c-0.283,-0.796 -1.896,0.5 -2.375,0.008c-2.513,21.063 -4.925,41.963 -7.404,62.967c-0.929,-0.071 -1.875,-0.092 -2.8,-0.183c-1.558,-10.446 -2.821,-21.854 -4.529,-31.858c-0.133,-0.787 -2.208,-0.933 -2.358,-0.146c-1.625,8.487 -2.8,17.904 -4.179,27.004c-5.3,34.896 -11.829,69.033 -25.317,101.858c-3.65,8.883 -9.058,17.496 -15.363,24.533c-8.746,9.762 -17.787,10.938 -28.554,2.325c-10.767,-8.617 -17.55,-19.454 -20.917,-34.017c-3.371,-14.558 -4.987,-32.308 -7.233,-47.742c-0.554,-3.8 -0.733,-8.287 -2.025,-12.008c-8.208,18.921 -10.767,37.771 -11.421,58.288c-10.742,-23.842 -8.271,-47.538 -9.204,-73.038c-10.325,14.492 -11.625,30.004 -13.85,47.225c-19.742,-1.167 -36.292,7.037 -54.546,12.863c-10.325,3.3 -20.267,6.087 -30.829,7.592c-4.621,0.654 -11.146,-1.117 -13.654,-4.846c-2.504,-3.729 0.942,-9.546 3.754,-12.758c14.442,-16.467 28.804,-33.146 45.621,-47.975c9.821,-8.662 23.429,-11.904 34.937,-18.562c69.288,-40.079 135.254,-82.138 191.642,-139.879c53.204,-54.487 92.046,-115.279 115.125,-188.029c12.112,-38.175 17.963,-77.479 7.688,-116.763c-14.558,-55.646 -51.587,-87.971 -110.788,-88.271c-57.862,-0.296 -104.1,26.538 -147.862,62.204c1.954,-0.567 4.246,-0.713 5.904,-1.713c35.075,-21.188 70.542,-37.096 111.333,-42.229c19.196,-2.412 39.029,-2.55 56.846,3.925c39.504,14.363 59.9,44.721 64.925,84.425c5.029,39.7 -3.592,74.367 -16.704,110.225c-25.504,69.746 -67.217,123.704 -119.383,175.163c-33.079,32.633 -70.746,57.283 -109.087,82.812c57.396,-59.675 106.521,-116.833 134.696,-195.767c-3.933,5.629 -7.538,10.933 -11.508,16.65c-3.975,5.721 -7.825,11.704 -11.858,17.608c-37.812,55.346 -79.896,103.229 -132.804,144.737c-12.925,10.142 -28.521,16.004 -42.933,24.079c-1.442,0.808 -4.158,0.496 -5.792,-0.192c3.467,-3.325 7,-6.496 10.563,-9.804c50.892,-47.325 93.058,-97.975 127.675,-158.383c-0.15,0.179 0,0.075 -0.217,0.292c-2.196,2.167 -5.479,3.446 -7.525,5.821c-33.875,39.392 -67.667,77.633 -107.812,110.833c-13.854,11.458 -29.392,20.404 -44.562,30.333c-4.283,2.804 -10.1,3.679 -15.246,4.138c1.383,-1.596 2.775,-3.221 4.296,-4.725c43.333,-42.879 83.079,-87.283 117.279,-137.842c0.167,-0.242 0.254,-0.537 0.404,-0.787c-5.229,5.121 -12.45,10.471 -16.887,14.854c-39.971,39.475 -80.442,80.783 -129.075,111.746c-11.708,7.454 -25.383,12.358 -38.454,17.104c49.167,-45.888 95.317,-92.971 135.408,-147.138c-4.058,3.688 -8.021,7.4 -12.058,11.125c-37.925,35.008 -75.633,69.092 -118.662,97.933c-15.167,10.162 -31.567,17.85 -48.587,25.179c-8.188,3.525 -17.375,3.912 -26.788,3.787c-5.917,-0.079 -13.263,-4.221 -18.954,-6.304c2.742,-2.092 7.3,-5.233 9.854,-7.058c49.683,-35.496 95.329,-72.908 137.129,-117.175c1.142,-1.208 1.987,-2.7 2.75,-4.258c-4.75,2.942 -10.475,4.975 -14.842,8.258c-33.337,25.062 -66.188,50.754 -99.329,75.933c-0.883,0.667 -1.696,2.033 -2.2,2.417c-0.008,0.004 -0.017,-0.008 -0.025,0c2.188,-3.1 3.942,-7.121 6.746,-9.912c24.296,-24.183 48.721,-47.888 73.125,-72.046c2.908,-2.875 5.2,-6.679 6.679,-10.592c-11.054,9.692 -21.863,19.517 -32.971,29.213c-36.417,31.787 -73.154,61.963 -114.442,87.45c-9.237,5.7 -19.237,9.75 -29.854,13.113c-10.617,3.363 -16.004,-2.979 -13.467,-13.092c2.538,-10.113 5.829,-18.517 10.242,-27.346c8.075,-16.138 17.104,-31.146 25.883,-46.879c11.775,8.975 24.929,8.713 36.867,1.754c21.533,-12.55 40.138,-25.492 59.871,-39.6c11.921,-8.521 21.917,-18.592 32.833,-28.317c1.921,-1.713 2.829,-4.542 4.167,-6.729c0.267,0.437 1.788,-0.258 2.417,0.058c21.983,10.979 39.229,5.742 59.563,-5.683c2.125,-1.196 4.729,-2.767 5.954,-3.179c1.229,-0.408 1.325,0.863 1.408,1.254c4.554,22.613 16.158,32.733 39.712,28.258c18.788,-3.567 33.446,-14.767 48.404,-26.225c2.292,-1.754 4.788,-4.117 7.142,-5.842c0.383,0.979 1.029,2.792 1.254,3.775c5.463,23.775 22.65,30.5 44.825,25.246c22.175,-5.254 35.608,-18.483 50.492,-34.183c4.767,-5.029 8.121,-10.917 12.671,-15.996c12.925,20.196 30.817,26.1 51.033,10.892c25.142,-18.917 34.417,-45.079 42.3,-74.571c-0.617,0.083 -1.596,-1.688 -2.046,-1.121c-1.617,2.05 -2.771,5.042 -4.529,7.354c-11.192,14.725 -21.667,29.858 -33.683,44.096c-3.829,4.537 -9.683,7.904 -15.296,10.025c-12.283,4.638 -20.5,-0.217 -21.758,-13.417c-0.608,-6.367 1.254,-12.833 1.854,-19.288c0.254,-2.754 0.817,-5.792 0.058,-8.613c-7.921,10.571 -15.225,21.4 -23.521,31.788c-11.788,14.754 -24.475,27.721 -41.179,36.842c-6.896,3.758 -14.737,6.617 -22.283,7.554c-14.25,1.771 -20.988,-6.321 -18.146,-19.467c2.842,-13.146 8.717,-23.512 13.204,-35.717c1.433,-3.887 3.446,-7.475 4.362,-11.575c-3.729,3.467 -7.379,6.85 -11.008,10.458c-19.342,19.242 -38.354,37.038 -62.671,50.054c-8.308,4.446 -16.783,7.479 -26.637,9.121c-9.85,1.638 -16.829,-4.233 -12.538,-14.8c6.058,-14.929 14.242,-28.888 22.158,-43.029c3.979,-7.1 9.258,-13.804 12.646,-21.308c-2.946,2.567 -5.733,5.404 -8.879,7.758c-20.292,15.204 -40.108,30.908 -61.075,45.271c-7.079,4.85 -16.012,8.004 -24.308,9.521c-11.375,2.079 -16.937,-3.492 -14.096,-14.871c2.842,-11.379 7.387,-23.013 13.271,-33.392c11.637,-20.529 25.163,-39.908 37.554,-60c1.725,-2.796 1.996,-6.396 4.021,-9.087c-28.775,24.679 -56.979,49.796 -86.387,73.812c-11.913,9.729 -25.742,16.967 -38.75,25.342c0.029,-0.95 -2.646,-1.617 -2.129,-2.604c2.617,-5.021 5.212,-10.612 8.767,-15.442c57.367,-77.975 118.742,-146.267 197.933,-203.125c44.433,-31.904 92.429,-47.375 146.867,-51.896c8.971,-0.742 18.217,0.117 27.108,-1.35c-37.633,-19.213 -71.875,-14.8 -112.212,-7.342c29.371,-27.529 58.692,-54.917 88.104,-82.529c-0.917,-0.158 -0.762,-2.737 -1.862,-2.483c-7.837,1.829 -16.162,4.771 -24.146,6.933c32.962,-57.204 71.158,-104.796 122.879,-146.117c-0.529,-0.65 -1.054,-1.296 -1.583,-1.946c-12.742,5.158 -25.65,10.283 -38.3,15.462c7.233,-6.75 13.125,-15.121 21.433,-20.867c86.204,-59.596 170.254,-83.713 274.95,-75.671c34.042,2.617 63.65,14.267 94.113,29.396c14.904,7.404 25.858,18.762 31.642,34.637c-4.575,-4.979 -9.2,-10.287 -13.758,-15.333c0.175,2.65 1.171,6.454 0.908,8.896c-0.263,2.446 1.317,6.525 -1.204,7.917c-2.521,1.387 -6.575,0.933 -9.692,-0.108c-3.117,-1.046 -5.679,-4.258 -8.542,-6.125c-13.046,-8.529 -25.771,-9.446 -36.7,2.987c-10.929,12.433 -14.533,26.988 -13.813,43.317c0.263,5.992 4.429,12.175 6.746,17.042c0.387,0.813 2.396,0.596 2.975,-0.225c2.004,-2.842 2.558,-5.866 4.654,-9.767c9.625,-17.871 22.792,-26.046 43.921,-19.238c8.896,2.867 19.075,5.408 28.383,0c2.258,3.117 4.263,6.05 6.45,9.096c-12.421,1.175 -18.85,7.454 -27.258,16.117c-8.413,8.658 -16.858,13.992 -29.313,13.321c-22.092,-1.188 -36.308,7.175 -49.338,24.558c-6.058,8.079 -9.058,17.387 -13.829,26.112c-62.033,15.796 -70.875,71.738 -45.592,124.379c-20.512,-6.379 -30.671,-20.1 -42.804,-36.925Zm-174.942,688.85c10.975,-4.021 22.525,-3.317 33.658,1.562c-1.225,2.058 -2.604,4.175 -3.887,6.258c9.717,-5.875 13.625,0.038 21.246,6.021c-6.483,7.608 -8.817,8.821 -17.675,3.521c-4.579,-2.737 -9.629,-5.729 -14.742,-7.946c-5.117,-2.221 -8.829,-0.683 -12.008,3.804c10.696,1.471 23.079,4.054 21.412,17.283c8.688,-1.608 10.875,1.987 16.088,8.75c-1.696,2.079 -3.388,4.142 -5.083,6.229c9.025,-2.55 12.088,1.637 16.183,8.971c4.096,7.329 5.879,11.854 -1.604,17.312c2.492,-0.563 4.987,-1.1 7.479,-1.654c7.075,13.45 2.796,16.146 -9.35,24.133c2.521,-0.721 4.571,-1.196 7.171,-2.075c2.6,-0.879 5.763,-2.329 8.408,-3.271c0.871,3.904 1.367,10.683 1.513,14.033c0.146,3.354 -2.575,7.688 -4.046,8.133c-4.2,1.275 -12.317,0.796 -14.108,-2.075c-7.012,-11.237 -10.512,-22.462 -15.292,-34.371c-1.25,-3.117 -0.133,-6.929 -0.225,-10.229c-14.554,-5.854 -26.096,-13.233 -27.817,-29.817c-5.408,1.446 -11.796,4.708 -17.292,4.296c-14.117,-1.071 -15.646,-5.471 -10.487,-17.887c-0.487,0.233 -1.446,-1.554 -1.862,-0.954c-2.654,3.833 -4.937,7.912 -6.3,12.671c-1.362,4.758 -1.546,6.479 -7.371,8.625c-5.825,2.142 -12.392,4.987 -19.779,7.721c-7.392,2.733 -11.338,0.129 -9.833,-9.071c-1.3,0.983 -4.425,4.279 -5.183,4.717c-0.758,0.433 -1.788,-0.479 -1.479,-0.921c1.971,-2.812 5.217,-6.225 7.542,-9.192c1.521,3.642 2.975,7.321 4.471,10.979c1.525,-6.254 3.054,-12.512 4.583,-18.767c1.892,3.692 3.783,7.388 5.675,11.083c0.904,-11.058 8.204,-15.383 16.462,-21.596c-3.429,-0.554 -6.883,-1.104 -10.296,-1.658c5.346,-3.446 11.308,-6.958 16.375,-10.379c0.421,-0.288 -0.121,-1.317 -0.558,-1.263c-5.796,0.754 -13.371,2.879 -18.929,3.425c-0.917,0.088 -1.729,-2.287 -1.033,-2.825c3.537,-2.738 9.721,-5.679 13.579,-8.421c0.35,-0.25 -0.05,-1.371 -0.496,-1.296c-4.613,0.783 -10.254,2.387 -14.888,3.204c-0.371,0.067 -0.8,-0.863 -0.454,-1.067c4.729,-2.796 9.383,-5.962 14.792,-8.367c1.438,-0.638 3.542,-0.021 5.433,1.154c1.892,1.171 3.821,3.304 5.846,5.225c7.642,7.258 13.183,10.004 24.162,5.988Zm56.004,17.079c3.833,4.117 7.663,8.237 11.496,12.354c-4.079,2.429 -8.158,4.854 -12.237,7.279c-3.458,-4.263 -6.917,-8.525 -10.375,-12.788c3.704,-2.283 7.413,-4.567 11.117,-6.846Zm14.929,16.037c4.254,7.846 8.504,15.688 12.754,23.533c-3.575,2.5 -7.15,5 -10.729,7.5c-4.833,-8.246 -9.667,-16.492 -14.5,-24.737c4.158,-2.1 8.317,-4.196 12.475,-6.296Zm7.587,46.679c-1.642,-4.425 -3.288,-8.85 -4.933,-13.279c3.446,-1.596 6.892,-3.196 10.338,-4.796c4.854,10.65 5.962,13.667 -5.404,18.075Zm7.392,25.35c-0.175,0.8 -2.05,0.521 -2.213,-0.221c-1.462,-6.7 -2.508,-14.863 -3.833,-21.996c3.596,-1.246 7.162,-2.458 10.758,-3.646c-1.617,8.417 -2.971,17.921 -4.712,25.863Zm-35.329,40.788c2.546,-3.871 5.088,-7.742 7.633,-11.608c-11.546,-3.775 -9.613,-10.079 -8.358,-20.383c5.787,0.592 11.575,1.188 17.362,1.783c0.738,13.4 -4.046,24.512 -16.637,30.208Zm-97.571,-58.617c3.583,7.542 9.313,15.817 11.433,23.613c2.125,7.796 -4.817,6.462 -9.425,9.346c-5.463,-8.463 -10.779,-16.833 -16.187,-25.262c4.742,-2.558 9.383,-5.175 14.179,-7.696Zm9.683,53.383c-2.454,-5.812 -4.904,-11.629 -7.354,-17.442c4.117,-1.433 8.233,-2.863 12.35,-4.296c4.529,11.05 7.45,17.083 -4.996,21.738Zm7.95,27.942c-0.463,-0.671 -2.404,0.517 -2.608,-0.433c-1.204,-5.642 -1.354,-10.092 -3.004,-16.396c-1.65,-6.308 1.937,-9.821 8.8,-10.679c-1.075,9.1 -2.062,18.275 -3.187,27.508Zm-38.825,-102.492c5.95,5.529 11.9,11.058 17.85,16.592c-3.85,2.967 -7.704,5.937 -11.554,8.908c-5.875,-5.379 -11.746,-10.754 -17.621,-16.129c3.775,-3.125 7.55,-6.25 11.325,-9.371Zm-78.358,-80.433c0.692,-1.404 2.196,-2.713 3.646,-3.521c7.192,-4.008 14.475,-7.862 21.796,-11.662c4.429,-2.3 9.05,-4.438 13.525,-6.604c4.163,10.871 7.492,22.513 12.483,32.933c4.992,10.417 10.387,15.142 22.367,15.533c2.438,0.083 6.296,4.504 8.088,6.492c-7.542,5.933 -14.808,11.9 -22.746,17.567c-1.392,0.996 -3.742,0.504 -5.646,0.442c-13.292,-0.467 -26.854,-0.904 -40.204,-1.533c-1.833,-0.083 -3.908,-0.817 -5.346,-1.633c-1.442,-0.817 -2.175,-2.104 -3.038,-3.192c-12.596,-15.913 -13.925,-26.571 -4.925,-44.821Zm96.442,184.525c-3.933,7.392 -13.125,5.808 -20.229,3.525c-4.258,-10.663 -8.533,-20.613 -13.992,-30.842c-5.488,-10.287 -7.467,-20.629 -17.421,-28.367c-1.804,-1.404 -2.117,-6.971 -2.358,-9.417c-13.05,-0.829 -13.992,-11.067 -16.037,-22.279c-1.271,3.908 -2.542,7.812 -3.808,11.717c-12.154,-1.542 -18.612,-6.696 -23.642,-17.854c-2.254,9.883 -8.1,12.183 -16.858,15.196c-8.754,3.008 -16.212,6.108 -24.987,9.292c-8.775,3.179 -12.771,1.421 -17.238,-6.863c-0.542,-1.008 -1.304,-3.092 -1.667,-3.338c-0.367,-0.246 -2.688,0.338 -2.379,1.108c1.683,4.233 4.742,9.446 6.817,13.938c-11.208,7.25 -14.608,7.075 -22.383,-4.025c-0.179,0.583 -2.321,0.017 -2.15,0.808c0.825,3.754 2.675,8.117 3.8,12.05c-4.108,1.825 -7.917,3.762 -12.129,5.546c-0.787,-1.504 -1.471,-2.921 -2.492,-4.321c-7.808,-10.713 -5.504,-16.563 3.304,-25.808c0.917,1.871 1.354,5.642 2.421,6.954c0.379,0.463 1.533,-0.475 2.196,-1.596c0.667,-1.121 1.742,-6.142 2.467,-7.933c23.775,1.092 40.142,-10.321 59.671,-22.308c-1.779,-0.642 -3.679,-1.171 -5.379,-1.892c0.283,-0.412 2.85,-3 2.763,-3.058c-6.083,-4.404 -12.908,-8.1 -19.267,-12.238c6.754,-10.008 13.571,-20.042 20.317,-30.062c7.646,8.637 14.633,17.237 22.375,25.958c3.079,3.467 5.604,4.167 10.637,2.892c14.008,-3.546 28.021,0.183 42.167,2.687c-2.6,1.5 -5.267,3 -7.892,4.5c12.492,-0.063 22.254,0.387 31.096,10.083c-3.454,2.979 -6.908,5.95 -10.362,8.929c-10.658,-5.762 -23.704,-16.55 -36.554,-13.183c8.433,4.937 16.875,9.871 25.308,14.817c-0.417,1.629 -0.471,4.2 -1.108,6.196c6.429,-5.633 14.404,7.754 17.85,13.179c-1.721,1.158 -3.108,2.138 -4.925,3.313c-1.817,1.179 -3.5,2.588 -4.504,4.658c4.442,-1.321 8.912,-2.658 13.371,-3.983c2.375,3.533 4.779,7.063 7.133,10.604c-3.112,1.921 -6.967,3.946 -9.783,5.842c-0.408,0.275 0.042,1.483 0.488,1.379c3.208,-0.746 7.229,-2.179 10.658,-3.129c7.079,8.129 6.521,10.712 -1.562,17.692c2.862,-1.008 5.729,-2.017 8.596,-3.025c7.296,12.012 6.087,15.729 -4.717,24.533c4.467,-1.513 8.804,-3.017 13.35,-4.533c-0.488,7.662 2.996,15.217 -0.958,22.658Zm-18.621,45.183c4.796,-5.996 9.571,-12.346 14.35,-18.462c-13.317,-4.892 -17.496,-8.642 -15.892,-23.029c-0.008,-0.025 -0.017,-0.05 -0.029,-0.071c6.971,6.217 13.288,3.9 21.575,1.35c0.8,16.858 -4.442,32.313 -20.004,40.213Zm-168.121,-94.954c-4.242,1.792 -8.929,3.413 -13.258,5.171c0.433,-4.583 0.892,-9.154 1.337,-13.733c3.975,2.854 7.95,5.704 11.933,8.558c-0.004,0.004 -0.008,0.004 -0.013,0.004Zm-138.5,-99.871c-24.521,20.838 -48.729,41.692 -73.558,62.196c-4.237,3.5 -9.358,6.012 -14.638,7.979c-5.279,1.971 -8.396,-0.442 -7.875,-6.238c0.271,-2.996 0.896,-6.558 2.446,-9.254c16.879,-29.275 34.096,-58.487 51.225,-87.483c1.454,-2.458 4.412,-4.804 5.875,-6.258c1.467,-1.454 1.188,-0.662 2.396,-1.617c0.408,27.296 10.192,31.971 35.808,37.788c-0.504,0.892 -0.904,2.229 -1.679,2.887Zm-296.687,340.896c3.725,-7.9 3.438,-17.242 6.767,-25.304c24.237,-58.692 54.212,-113.879 85.642,-168.879c22.458,-39.304 45.042,-78.158 67.979,-117.283c2.067,-3.521 5.717,-6.342 9.413,-8.462c11.396,-6.55 23.263,-12.229 35.55,-16.992c-68.446,112.312 -136.892,224.617 -205.35,336.921Zm-104.479,86.312c-12.904,20.338 -28.646,38.85 -42.975,58.213c-1.167,-0.587 -2.233,-1.121 -3.383,-1.704c6.308,-13.504 11.775,-27.508 18.983,-40.554c37.104,-67.163 74.321,-134.15 112.142,-200.904c32.587,-57.521 65.754,-114.521 99.154,-171.733c2.325,-3.983 6.213,-7.35 10.529,-9.646c12.55,-6.679 25.892,-12.642 38.738,-18.792c-1.538,3.025 -3.508,7.271 -5.117,10.029c-28.942,49.613 -56.908,99.392 -86.733,148.271c-46.433,76.088 -93.579,151.538 -141.338,226.821Zm61.954,-369.846c-5.887,1.746 -12.167,2.896 -18.208,2.842c-9.079,-0.075 -13.196,-6.308 -10.487,-14.513c2.704,-8.2 6.362,-15.113 11.104,-22.087c9.033,-13.3 19.175,-25.679 28.988,-38.537c9.8,14.604 24.229,15.433 38.875,10.404c41.454,-14.242 78.321,-32.733 115.933,-53.258c54.437,-29.704 104.829,-63.063 154.242,-100.379c2.833,-2.138 6.162,-4.487 9.146,-6.563c11.417,9.154 22.004,11.158 36.325,8.725c-119.45,81.683 -240.229,152.554 -375.571,204.629c10.304,-2.454 21.3,-3.396 31.167,-7.279c39.042,-15.371 78.346,-29.313 116.396,-47.033c79.029,-36.8 150.996,-82.746 221.333,-134.1c1.196,-0.875 2.396,-1.687 3.467,-2.742c7.042,-6.938 12.779,-8.558 22.642,-5.713c5.604,1.617 13.146,1.263 19.196,1.463c-3.829,2.954 -8.167,6.733 -12.079,9.413c-69.367,47.521 -141.033,88.717 -216.629,125.308c-57.075,27.629 -115.013,51.392 -175.838,69.421Zm37.829,-90.325c1.554,-4.596 5.467,-11.029 8.6,-16.146c3.137,-5.117 7.521,-11.458 11.158,-16.671c17.442,10.55 34.754,6.937 51.933,-0.713c59.871,-26.662 112.912,-57.804 164.533,-97.4c12.608,8.496 25.504,12.254 39.504,4.946c-70.525,68.592 -158.538,96.938 -247.988,132.579c-5.867,2.338 -12.571,5.108 -17.2,5.954c-4.629,0.85 -8.196,2.121 -10.613,-1.075c-2.417,-3.192 -1.483,-6.879 0.071,-11.475Zm33.65,-55.212c4.258,-11.05 12.217,-25.15 17.633,-36.458c10.279,12.538 17.775,17.379 33.842,11.187c16.067,-6.196 31.171,-14.917 46.621,-23c9.171,-4.8 17.463,-10.296 26.342,-16.337c11.812,-8.042 21.708,-13.012 36.95,-10.875c8.575,1.2 18.742,-2.029 27.446,-3.804c3.167,-0.646 7.037,-2.158 9.742,-2.6c0.646,-0.108 1.629,1.25 0.908,2.15c-0.721,0.9 -3.487,3.242 -5.613,4.5c-48.521,28.767 -97.796,56.813 -150.05,78.55c-10.767,4.475 -22.671,8.221 -33.629,9.796c-10.963,1.575 -14.45,-2.058 -10.192,-13.108Zm28.954,-46.488c8.388,-12.925 18.104,-23.713 27.596,-35.725c0.525,-0.667 2.121,-0.717 3.142,-0.571c22.217,3.196 40.263,-3.2 60.183,-12.358c1.079,-0.496 2.575,-2.058 3.567,-1.129c4.438,4.158 8.587,10.579 12.954,15.333c-3.921,2.267 -7.646,4.65 -11.683,6.654c-23.546,11.675 -46.712,23.462 -70.612,34.683c-5.229,2.454 -10.933,3.521 -17.092,3.992c-6.158,0.471 -11.929,-4.912 -8.054,-10.879Zm79.867,-165.675c14.029,-23.804 28.8,-47.446 43.292,-71.079c12.175,8.275 23.679,8.933 36.746,3.05c13.063,-5.883 24.104,-13.588 36.071,-20.433c2.488,-1.425 3.287,-2.308 5.458,-3.775c1.654,10.588 3.312,21.242 4.979,31.779c0.158,1.008 -0.863,2.646 -0.642,3.125c-3.008,1.621 -6.158,3.054 -8.992,4.975c-24.212,16.392 -47.704,33.446 -72.458,49.146c-10.604,6.725 -22.529,11.158 -34.4,15.633c-3.137,1.183 -8.496,0.329 -10.767,-2.275c-2.275,-2.604 -0.937,-7.342 0.712,-10.146Zm932.104,-560.917c-1.779,-3.692 -4.025,-7.933 -3.358,-11.008c7.008,-32.388 -0.592,-56.8 -25.992,-77.379c-21.342,-17.287 -44.296,-29.133 -70.85,-35.275c-112.408,-25.996 -205.85,-11.004 -305.704,46.2c-30.208,17.304 -53.717,41.258 -75.621,67.192c-7.042,8.338 -4.246,10.409 4.292,13.688c-0.429,0.954 -0.958,2.112 -1.675,2.925c-31.746,36.079 -56.933,75.471 -81.425,116.779c-1.65,2.788 -1.192,6.837 -1.858,10.029c-0.667,3.192 -2.904,4.842 -5.329,6.992c-24.704,21.933 -49.646,43.492 -74.1,65.988c-4.058,3.737 -5.862,9.975 -8.788,14.771c-0.821,1.35 -2.242,2.542 -3.621,3.462c-53.179,35.483 -99.758,76.479 -143.029,123.433c-31.254,33.916 -59.4,69.396 -83.725,108.404c-3.087,4.954 -5.05,11.317 -7.229,15.875c-2.175,4.558 -3.296,8.067 -5.762,11.563c-12.992,18.392 -26.283,35.304 -38.75,54.017c-7.825,11.742 -14.017,23.258 -23.825,34.225c-17.083,19.096 -29.692,40.279 -39.162,64.704c-5.325,13.737 -7,26.671 -1.942,41.325c0.617,1.792 -0.883,5.292 -2.504,7.096c-7.9,8.767 -16.246,16.892 -24.117,25.962c-15.25,17.579 -27.333,35.6 -34.475,58.067c-1.275,4.017 -3.708,8.413 -7.012,10.925c-42.979,32.646 -86.517,63.617 -128.825,97.021c-24.346,19.225 -46.729,40.304 -69.221,62.058c-6.8,6.575 -11.742,14.904 -15.292,24.421c-3.546,9.525 1.958,16.938 12.425,17.967c3.646,0.358 7.771,0.113 11.333,-0.929c13.179,-3.863 26.633,-8.392 39.546,-12.396c2.571,-0.8 6.479,-1.067 7.933,-1.342c0.25,-0.046 0.325,-0.092 0.425,-0.138c-11.167,10.438 -22.771,20.154 -33.738,31.104c-4.808,4.8 -8.937,9.642 -12.362,16.158c-3.425,6.521 -0.725,12.475 7.129,14c3.875,0.754 8.317,0.996 12.2,0.075c12.029,-2.858 24.367,-5.179 35.733,-9.875c45.892,-18.954 91.238,-38.742 136.792,-58.338c13.433,-5.779 26.654,-12.033 39.971,-18.008c-0.867,4.679 -3.054,9.417 -5.325,13.396c-51.812,90.637 -104.142,180.479 -155.096,271.533c-19.454,34.754 -36.367,70.658 -53.5,106.854c-3.929,8.3 -5.65,17.629 -6.004,27.35c-0.354,9.717 6.313,13.783 15.563,9.346c5.292,-2.538 10.95,-6.058 15.117,-10.425c12.604,-13.192 25.983,-25.979 36.458,-40.871c26.8,-38.108 51.788,-77.129 77.637,-115.812c-0.767,3.912 -1.758,7.883 -2.342,11.871c-1.492,10.154 -4.033,20.225 -4.104,30.558c-0.033,4.567 1.525,10.842 6.325,12.904c4.8,2.067 10.229,0.904 15.392,-2.067c5.167,-2.975 10.663,-8.3 14.562,-13.667c22.263,-30.629 44.704,-61.783 66.308,-92.863c12.862,-18.504 24.496,-37.354 36.729,-56.096c1.537,2.975 1.175,9.771 5.117,11.037c3.946,1.267 9.817,-1.879 13.2,-3.475c3.383,-1.6 5.225,-3.963 7.525,-6.263c12.375,-12.383 25.012,-24.312 36.8,-37.142c56.8,-61.833 111.246,-125.446 162.988,-191.462c2.092,-2.679 4.542,-6.008 7.492,-6.792c17.183,-4.554 33.808,-8 50.967,-11.913c4.308,7.237 9.792,16.113 14.342,22.654c4.55,6.546 10.592,8.362 16.692,6.271c6.1,-2.092 7.583,0.021 11.504,2.863c7.396,5.367 14.429,10.171 21.987,14.462c7.563,4.292 14.567,7.354 22.275,11.213c-0.908,0.633 0.117,3.171 -1.088,3.475c-8.567,2.175 -17.608,2.871 -26.554,4.646c-29.083,5.758 -42.104,21.758 -41.933,51.208c0.021,3.433 -0.404,5.717 -1.575,7.513c0.029,0.029 0.071,0.054 0.1,0.087c0.004,0.008 -0.004,0.004 0,0.008c0.838,0.558 1.663,1.108 2.546,1.583c0.446,0.242 0.9,0.45 1.35,0.679c0.092,0.046 0.05,0.029 0.104,0.062c0.071,0.021 0.033,0 0.15,0.038c1.817,0.608 3.608,1.163 5.5,1.508c0.304,0.054 2.071,0.254 0.292,0.075c0.529,0.054 1.062,0.117 1.596,0.158c0.983,0.079 1.971,0.121 2.958,0.129c0.996,0.008 1.992,-0.021 2.987,-0.079c0.542,-0.033 1.083,-0.079 1.625,-0.129c0.108,-0.013 0.437,-0.058 0.713,-0.096c1.929,-0.325 3.837,-0.688 5.721,-1.229c0.937,-0.267 1.867,-0.563 2.783,-0.892c0.487,-0.175 0.971,-0.383 1.467,-0.554c-1.596,0.554 -0.012,-0.004 0.271,-0.133c3.2,-1.45 6.883,-0.962 8.963,2.067c25.688,-10.267 51.354,-20.587 77.129,-30.746c2.808,-1.108 6.104,-1.846 9.15,-1.004c11.083,3.058 20.004,5.467 25.596,16.338c0.604,1.179 1.854,2.412 2.958,3.167c11.438,7.775 12.938,20.088 19.75,31.275c-0.471,0.242 -1.012,0.521 -1.504,0.775c0.017,0.038 0.033,0.079 0.054,0.117c1.221,2.767 2.442,5.542 3.542,8.363c1.063,2.721 1.937,5.512 2.558,8.358c0.392,-0.2 0.783,-0.396 1.175,-0.6c1.958,7.967 4.604,16.192 6.067,24.142c0.513,2.783 1.487,6.567 -1.096,8.533c-2.588,1.967 -6.617,2.621 -10.258,1.529c-3.638,-1.096 -7.5,-4.846 -10.688,-7.046c1.633,23.721 20.508,34.688 42.55,26.875c12.629,-4.475 18.354,-15.813 23.863,-26.838c1.121,-2.242 1.687,-5.887 3.417,-6.85c15.129,-8.437 19.342,-22.529 19.437,-37.7c0.054,-8.3 1.338,-13.992 4.121,-18.408c-2.517,-6.458 -4.675,-13.046 -6.246,-19.775c-0.112,0.054 -0.225,0.104 -0.337,0.158c-11.021,-17.296 -21.967,-34.575 -33.038,-51.883c10.467,-4.008 19.108,-8.754 30.412,-11.525c8.008,-1.967 16.133,-0.633 21.208,7.075c1.592,2.417 3.971,5.767 6.492,6.887c13.158,5.846 14.821,16.546 19.825,28.7c-1.388,0.638 -2.771,1.279 -4.158,1.921c0.075,0.838 0.025,1.692 -0.142,2.558c-0.008,0.025 -0.008,0.054 -0.017,0.083c-0.096,0.904 -0.025,1.808 0,2.713c0.187,0.246 0.408,0.462 0.588,0.712c0.679,0.933 1.3,1.917 1.796,2.958c0.442,0.921 0.858,1.867 1.183,2.833c0.308,0.917 0.408,1.908 0.5,2.854c0.058,0.571 -0.154,1.104 -0.237,1.662c1.85,-0.987 3.717,-1.929 5.562,-2.954c0.637,6.425 2.146,13.746 2.188,19.912c0.021,2.863 0.838,6.925 -2.138,8.225c-2.975,1.3 -6.662,1.829 -10.483,-0.679c-3.821,-2.504 -8.95,-9.225 -12.429,-13.025c0.596,2.996 0.321,7.75 1.767,10.487c11.462,21.788 34.188,28.138 53.579,12.708c9.908,-7.883 15.429,-17.988 25.058,-26.183c9.629,-8.196 10.787,-20.267 11.962,-32.221c0.35,-3.588 1.25,-5.95 3.021,-7.896c-2.429,-9.221 -5.329,-18.321 -8.571,-27.25c-7.838,-13.638 -15.679,-27.279 -23.513,-40.917c0.904,-0.429 -14.917,-12.975 -20.229,-16.433c-17.833,-11.613 -35.925,-13.938 -55.867,-7.896c-6.5,1.967 -8.85,2.083 -12.892,-2.454c2.846,-10.196 5.037,-21.663 8.537,-31.367c10.742,-29.779 21.637,-58.504 32.958,-87.946c1,-2.6 3.533,-4.554 5.525,-6.7c17.296,-18.629 34.521,-36.975 51.888,-55.817c3.421,-3.717 7.208,-8.896 10.467,-12.946c-0.854,4.838 -2.625,10.858 -3.171,15.35c-0.1,0.829 1.533,1.725 2.129,1.183c5.462,-4.988 11.942,-9.946 17.087,-15.967c22.775,-26.642 43.758,-52.546 59.967,-84.321c38.821,-76.087 53.954,-147.496 39.704,-232.571c-0.404,-2.412 -0.15,-5.146 0.554,-7.533c3.396,-11.517 8.062,-22.629 9.825,-34.546c3.892,-26.304 9.504,-49.754 24.942,-71.737c3.3,-4.696 6.387,-6.083 12.279,-5.946c26.858,0.629 49.75,-5.408 73.183,-18.992c3.296,-1.913 6.633,-4.479 9.871,-6.571c3.004,26.717 -4.596,48.425 -15.708,72.396c3.7,-0.917 10.521,-0.921 13.438,-3.025c12.446,-8.979 26.188,-13.175 36.025,-25.346c53.575,-66.275 59.492,-138.287 22.763,-214.567Z" style="fill:#231f20;fill-rule:nonzero;"/><path d="M481.513,838.95c-80.283,49.575 -162.125,95.125 -248.413,132.875c-5.65,2.471 -12.608,5.088 -17.171,5.975c-4.563,0.892 -8.208,2.112 -10.604,-1.067c-2.396,-3.183 -1.487,-6.883 0.075,-11.479c1.558,-4.592 5.462,-11.025 8.6,-16.142c3.137,-5.117 7.521,-11.458 11.158,-16.671c17.446,10.554 34.75,6.937 51.933,-0.713c59.875,-26.654 112.908,-57.808 164.533,-97.4c12.683,8.562 25.692,12.262 39.767,4.833c0.229,-0.121 -0.004,-0.108 0.121,-0.212Z" style="fill:#fff;fill-rule:nonzero;"/></g></svg>